<?xml version="1.0" encoding="us-ascii" standalone="no"?><svg xmlns="http://www.w3.org/2000/svg" xmlns:xlink="http://www.w3.org/1999/xlink" contentStyleType="text/css" height="955px" preserveAspectRatio="none" style="width:4389px;height:955px;background:#FFFFFF;" version="1.1" viewBox="0 0 4389 955" width="4389px" zoomAndPan="magnify"><defs/><g><text fill="#000000" font-family="sans-serif" font-size="14" font-weight="bold" lengthAdjust="spacing" textLength="480" x="1950.5" y="22.9951">nablarch.core.dataformat.convertor.datatype.PackedDecimal</text><!--class C_nablarch_core_dataformat_convertor_datatype_PackedDecimal--><a href="/viewer/?module=nablarch-core-dataformat&amp;class=nablarch.core.dataformat.convertor.datatype.PackedDecimal" target="_top" title="/viewer/?module=nablarch-core-dataformat&amp;class=nablarch.core.dataformat.convertor.datatype.PackedDecimal" xlink:actuate="onRequest" xlink:href="/viewer/?module=nablarch-core-dataformat&amp;class=nablarch.core.dataformat.convertor.datatype.PackedDecimal" xlink:show="new" xlink:title="/viewer/?module=nablarch-core-dataformat&amp;class=nablarch.core.dataformat.convertor.datatype.PackedDecimal" xlink:type="simple"><g id="elem_C_nablarch_core_dataformat_convertor_datatype_PackedDecimal"><rect codeLine="10" fill="#FFFFE0" height="373.9375" id="C_nablarch_core_dataformat_convertor_datatype_PackedDecimal" rx="2.5" ry="2.5" style="stroke:#181818;stroke-width:0.5;" width="448" x="2430.5" y="219.2969"/><ellipse cx="2445.5" cy="235.2969" fill="#ADD1B2" rx="11" ry="11" style="stroke:#181818;stroke-width:1.0;"/><path d="M2448.4688,240.9375 Q2447.8906,241.2344 2447.25,241.375 Q2446.6094,241.5313 2445.9063,241.5313 Q2443.4063,241.5313 2442.0781,239.8906 Q2440.7656,238.2344 2440.7656,235.1094 Q2440.7656,231.9844 2442.0781,230.3281 Q2443.4063,228.6719 2445.9063,228.6719 Q2446.6094,228.6719 2447.25,228.8281 Q2447.9063,228.9844 2448.4688,229.2813 L2448.4688,232 Q2447.8438,231.4219 2447.25,231.1563 Q2446.6563,230.875 2446.0313,230.875 Q2444.6875,230.875 2444,231.9531 Q2443.3125,233.0156 2443.3125,235.1094 Q2443.3125,237.2031 2444,238.2813 Q2444.6875,239.3438 2446.0313,239.3438 Q2446.6563,239.3438 2447.25,239.0781 Q2447.8438,238.7969 2448.4688,238.2188 L2448.4688,240.9375 Z " fill="#000000"/><text fill="#000000" font-family="sans-serif" font-size="14" lengthAdjust="spacing" textLength="416" x="2459.5" y="240.1436">nablarch.core.dataformat.convertor.datatype.PackedDecimal</text><line style="stroke:#181818;stroke-width:0.5;" x1="2431.5" x2="2877.5" y1="251.2969" y2="251.2969"/><text fill="#000000" font-family="sans-serif" font-size="14" lengthAdjust="spacing" textLength="121" x="2436.5" y="268.292">-signed : boolean</text><text fill="#000000" font-family="sans-serif" font-size="14" lengthAdjust="spacing" textLength="71" x="2436.5" y="284.5889">-scale : int</text><text fill="#000000" font-family="sans-serif" font-size="14" lengthAdjust="spacing" textLength="125" x="2436.5" y="300.8857">-packNibble : Byte</text><text fill="#000000" font-family="sans-serif" font-size="14" lengthAdjust="spacing" textLength="255" x="2436.5" y="317.1826">-defaultPackSignNibblePositive : Byte</text><text fill="#000000" font-family="sans-serif" font-size="14" lengthAdjust="spacing" textLength="262" x="2436.5" y="333.4795">-defaultPackSignNibbleNegative : Byte</text><text fill="#000000" font-family="sans-serif" font-size="14" lengthAdjust="spacing" textLength="215" x="2436.5" y="349.7764">-packSignNibbleNegative : Byte</text><text fill="#000000" font-family="sans-serif" font-size="14" lengthAdjust="spacing" textLength="208" x="2436.5" y="366.0732">-packSignNibblePositive : Byte</text><text fill="#000000" font-family="sans-serif" font-size="14" lengthAdjust="spacing" textLength="8" x="2436.5" y="382.3701">..</text><line style="stroke:#181818;stroke-width:0.5;" x1="2431.5" x2="2877.5" y1="389.6719" y2="389.6719"/><text fill="#000000" font-family="sans-serif" font-size="14" lengthAdjust="spacing" textLength="107" x="2436.5" y="406.667">+&lt;init&gt;() : void</text><text fill="#000000" font-family="sans-serif" font-size="14" lengthAdjust="spacing" textLength="250" x="2436.5" y="422.9639">+initialize(Object[]) : PackedDecimal</text><text fill="#000000" font-family="sans-serif" font-size="14" lengthAdjust="spacing" textLength="260" x="2436.5" y="439.2607">+convertOnRead(byte[]) : BigDecimal</text><text fill="#000000" font-family="sans-serif" font-size="14" lengthAdjust="spacing" textLength="227" x="2436.5" y="455.5576">+convertOnWrite(Object) : byte[]</text><text fill="#000000" font-family="sans-serif" font-size="14" lengthAdjust="spacing" textLength="371" x="2436.5" y="471.8545">+setPackSignNibblePositive(Integer) : PackedDecimal</text><text fill="#000000" font-family="sans-serif" font-size="14" lengthAdjust="spacing" textLength="378" x="2436.5" y="488.1514">+setPackSignNibbleNegative(Integer) : PackedDecimal</text><text fill="#000000" font-family="sans-serif" font-size="14" lengthAdjust="spacing" textLength="255" x="2436.5" y="504.4482">+getPackSignNibbleNegative() : Byte</text><text fill="#000000" font-family="sans-serif" font-size="14" lengthAdjust="spacing" textLength="248" x="2436.5" y="520.7451">+getPackSignNibblePositive() : Byte</text><text fill="#000000" font-family="sans-serif" font-size="14" lengthAdjust="spacing" textLength="267" x="2436.5" y="537.042">+setSigned(boolean) : PackedDecimal</text><text fill="#000000" font-family="sans-serif" font-size="14" lengthAdjust="spacing" textLength="270" x="2436.5" y="553.3389">+setPackNibble(Byte) : PackedDecimal</text><text fill="#000000" font-family="sans-serif" font-size="14" lengthAdjust="spacing" textLength="409" x="2436.5" y="569.6357">+setDefaultPackSignNibbleNegative(Byte) : PackedDecimal</text><text fill="#000000" font-family="sans-serif" font-size="14" lengthAdjust="spacing" textLength="402" x="2436.5" y="585.9326">+setDefaultPackSignNibblePositive(Byte) : PackedDecimal</text></g></a><g id="elem_GMN3"><path d="M2535,137.7969 L2535,162.9297 A0,0 0 0 0 2535,162.9297 L2650.5,162.9297 L2654.5,219.084 L2658.5,162.9297 L2774,162.9297 A0,0 0 0 0 2774,162.9297 L2774,147.7969 L2764,137.7969 L2535,137.7969 A0,0 0 0 0 2535,137.7969 " fill="#FEFFDD" style="stroke:#181818;stroke-width:0.5;"/><path d="M2764,137.7969 L2764,147.7969 L2774,147.7969 L2764,137.7969 " fill="#FEFFDD" style="stroke:#181818;stroke-width:0.5;"/><text fill="#000000" font-family="sans-serif" font-size="13" lengthAdjust="spacing" textLength="218" x="2541" y="154.8638">artifact: nablarch-core-dataformat</text></g><!--class C_nablarch_core_dataformat_convertor_datatype_ByteStreamDataSupport--><a href="/viewer/?module=nablarch-core-dataformat&amp;class=nablarch.core.dataformat.convertor.datatype.ByteStreamDataSupport" target="_top" title="/viewer/?module=nablarch-core-dataformat&amp;class=nablarch.core.dataformat.convertor.datatype.ByteStreamDataSupport" xlink:actuate="onRequest" xlink:href="/viewer/?module=nablarch-core-dataformat&amp;class=nablarch.core.dataformat.convertor.datatype.ByteStreamDataSupport" xlink:show="new" xlink:title="/viewer/?module=nablarch-core-dataformat&amp;class=nablarch.core.dataformat.convertor.datatype.ByteStreamDataSupport" xlink:type="simple"><g id="elem_C_nablarch_core_dataformat_convertor_datatype_ByteStreamDataSupport"><rect codeLine="33" fill="#F1F1F1" height="32" id="C_nablarch_core_dataformat_convertor_datatype_ByteStreamDataSupport" rx="2.5" ry="2.5" style="stroke:#181818;stroke-width:0.5;" width="512" x="1438.5" y="646.2969"/><ellipse cx="1453.5" cy="662.2969" fill="#A9DCDF" rx="11" ry="11" style="stroke:#181818;stroke-width:1.0;"/><path d="M1453.6094,657.6406 L1452.4531,662.7188 L1454.7813,662.7188 L1453.6094,657.6406 Z M1452.125,655.4063 L1455.1094,655.4063 L1458.4688,667.7969 L1456.0156,667.7969 L1455.25,664.7344 L1451.9688,664.7344 L1451.2188,667.7969 L1448.7813,667.7969 L1452.125,655.4063 Z " fill="#000000"/><text fill="#000000" font-family="sans-serif" font-size="14" font-style="italic" lengthAdjust="spacing" textLength="480" x="1467.5" y="667.1436">nablarch.core.dataformat.convertor.datatype.ByteStreamDataSupport</text></g></a><!--class C_nablarch_core_dataformat_convertor_datatype_SignedPackedDecimal--><a href="/viewer/?module=nablarch-core-dataformat&amp;class=nablarch.core.dataformat.convertor.datatype.SignedPackedDecimal" target="_top" title="/viewer/?module=nablarch-core-dataformat&amp;class=nablarch.core.dataformat.convertor.datatype.SignedPackedDecimal" xlink:actuate="onRequest" xlink:href="/viewer/?module=nablarch-core-dataformat&amp;class=nablarch.core.dataformat.convertor.datatype.SignedPackedDecimal" xlink:show="new" xlink:title="/viewer/?module=nablarch-core-dataformat&amp;class=nablarch.core.dataformat.convertor.datatype.SignedPackedDecimal" xlink:type="simple"><g id="elem_C_nablarch_core_dataformat_convertor_datatype_SignedPackedDecimal"><rect codeLine="35" fill="#F1F1F1" height="32" id="C_nablarch_core_dataformat_convertor_datatype_SignedPackedDecimal" rx="2.5" ry="2.5" style="stroke:#181818;stroke-width:0.5;" width="496" x="2334.5" y="646.2969"/><ellipse cx="2349.5" cy="662.2969" fill="#ADD1B2" rx="11" ry="11" style="stroke:#181818;stroke-width:1.0;"/><path d="M2352.4688,667.9375 Q2351.8906,668.2344 2351.25,668.375 Q2350.6094,668.5313 2349.9063,668.5313 Q2347.4063,668.5313 2346.0781,666.8906 Q2344.7656,665.2344 2344.7656,662.1094 Q2344.7656,658.9844 2346.0781,657.3281 Q2347.4063,655.6719 2349.9063,655.6719 Q2350.6094,655.6719 2351.25,655.8281 Q2351.9063,655.9844 2352.4688,656.2813 L2352.4688,659 Q2351.8438,658.4219 2351.25,658.1563 Q2350.6563,657.875 2350.0313,657.875 Q2348.6875,657.875 2348,658.9531 Q2347.3125,660.0156 2347.3125,662.1094 Q2347.3125,664.2031 2348,665.2813 Q2348.6875,666.3438 2350.0313,666.3438 Q2350.6563,666.3438 2351.25,666.0781 Q2351.8438,665.7969 2352.4688,665.2188 L2352.4688,667.9375 Z " fill="#000000"/><text fill="#000000" font-family="sans-serif" font-size="14" lengthAdjust="spacing" textLength="464" x="2363.5" y="667.1436">nablarch.core.dataformat.convertor.datatype.SignedPackedDecimal</text></g></a><!--class C_nablarch_core_dataformat_convertor_datatype_DecimalHelper--><a href="/viewer/?module=nablarch-core-dataformat&amp;class=nablarch.core.dataformat.convertor.datatype.DecimalHelper" target="_top" title="/viewer/?module=nablarch-core-dataformat&amp;class=nablarch.core.dataformat.convertor.datatype.DecimalHelper" xlink:actuate="onRequest" xlink:href="/viewer/?module=nablarch-core-dataformat&amp;class=nablarch.core.dataformat.convertor.datatype.DecimalHelper" xlink:show="new" xlink:title="/viewer/?module=nablarch-core-dataformat&amp;class=nablarch.core.dataformat.convertor.datatype.DecimalHelper" xlink:type="simple"><g id="elem_C_nablarch_core_dataformat_convertor_datatype_DecimalHelper"><rect codeLine="37" fill="#F1F1F1" height="32" id="C_nablarch_core_dataformat_convertor_datatype_DecimalHelper" rx="2.5" ry="2.5" style="stroke:#181818;stroke-width:0.5;" width="442" x="2106.5" y="831.2969"/><ellipse cx="2121.5" cy="847.2969" fill="#ADD1B2" rx="11" ry="11" style="stroke:#181818;stroke-width:1.0;"/><path d="M2124.4688,852.9375 Q2123.8906,853.2344 2123.25,853.375 Q2122.6094,853.5313 2121.9063,853.5313 Q2119.4063,853.5313 2118.0781,851.8906 Q2116.7656,850.2344 2116.7656,847.1094 Q2116.7656,843.9844 2118.0781,842.3281 Q2119.4063,840.6719 2121.9063,840.6719 Q2122.6094,840.6719 2123.25,840.8281 Q2123.9063,840.9844 2124.4688,841.2813 L2124.4688,844 Q2123.8438,843.4219 2123.25,843.1563 Q2122.6563,842.875 2122.0313,842.875 Q2120.6875,842.875 2120,843.9531 Q2119.3125,845.0156 2119.3125,847.1094 Q2119.3125,849.2031 2120,850.2813 Q2120.6875,851.3438 2122.0313,851.3438 Q2122.6563,851.3438 2123.25,851.0781 Q2123.8438,850.7969 2124.4688,850.2188 L2124.4688,852.9375 Z " fill="#000000"/><text fill="#000000" font-family="sans-serif" font-size="14" lengthAdjust="spacing" textLength="410" x="2135.5" y="852.1436">nablarch.core.dataformat.convertor.datatype.DecimalHelper</text></g></a><!--class C_nablarch_core_dataformat_FixedLengthDataRecordFormatter--><a href="/viewer/?module=nablarch-core-dataformat&amp;class=nablarch.core.dataformat.FixedLengthDataRecordFormatter" target="_top" title="/viewer/?module=nablarch-core-dataformat&amp;class=nablarch.core.dataformat.FixedLengthDataRecordFormatter" xlink:actuate="onRequest" xlink:href="/viewer/?module=nablarch-core-dataformat&amp;class=nablarch.core.dataformat.FixedLengthDataRecordFormatter" xlink:show="new" xlink:title="/viewer/?module=nablarch-core-dataformat&amp;class=nablarch.core.dataformat.FixedLengthDataRecordFormatter" xlink:type="simple"><g id="elem_C_nablarch_core_dataformat_FixedLengthDataRecordFormatter"><rect codeLine="39" fill="#F1F1F1" height="32" id="C_nablarch_core_dataformat_FixedLengthDataRecordFormatter" rx="2.5" ry="2.5" style="stroke:#181818;stroke-width:0.5;" width="441" x="1072" y="134.2969"/><ellipse cx="1087" cy="150.2969" fill="#ADD1B2" rx="11" ry="11" style="stroke:#181818;stroke-width:1.0;"/><path d="M1089.9688,155.9375 Q1089.3906,156.2344 1088.75,156.375 Q1088.1094,156.5313 1087.4063,156.5313 Q1084.9063,156.5313 1083.5781,154.8906 Q1082.2656,153.2344 1082.2656,150.1094 Q1082.2656,146.9844 1083.5781,145.3281 Q1084.9063,143.6719 1087.4063,143.6719 Q1088.1094,143.6719 1088.75,143.8281 Q1089.4063,143.9844 1089.9688,144.2813 L1089.9688,147 Q1089.3438,146.4219 1088.75,146.1563 Q1088.1563,145.875 1087.5313,145.875 Q1086.1875,145.875 1085.5,146.9531 Q1084.8125,148.0156 1084.8125,150.1094 Q1084.8125,152.2031 1085.5,153.2813 Q1086.1875,154.3438 1087.5313,154.3438 Q1088.1563,154.3438 1088.75,154.0781 Q1089.3438,153.7969 1089.9688,153.2188 L1089.9688,155.9375 Z " fill="#000000"/><text fill="#000000" font-family="sans-serif" font-size="14" lengthAdjust="spacing" textLength="409" x="1101" y="155.1436">nablarch.core.dataformat.FixedLengthDataRecordFormatter</text></g></a><!--class C_nablarch_core_dataformat_InvalidDataFormatException--><a href="/viewer/?module=nablarch-core-dataformat&amp;class=nablarch.core.dataformat.InvalidDataFormatException" target="_top" title="/viewer/?module=nablarch-core-dataformat&amp;class=nablarch.core.dataformat.InvalidDataFormatException" xlink:actuate="onRequest" xlink:href="/viewer/?module=nablarch-core-dataformat&amp;class=nablarch.core.dataformat.InvalidDataFormatException" xlink:show="new" xlink:title="/viewer/?module=nablarch-core-dataformat&amp;class=nablarch.core.dataformat.InvalidDataFormatException" xlink:type="simple"><g id="elem_C_nablarch_core_dataformat_InvalidDataFormatException"><rect codeLine="41" fill="#F1F1F1" height="32" id="C_nablarch_core_dataformat_InvalidDataFormatException" rx="2.5" ry="2.5" style="stroke:#181818;stroke-width:0.5;" width="398" x="1268.5" y="916.2969"/><ellipse cx="1283.5" cy="932.2969" fill="#ADD1B2" rx="11" ry="11" style="stroke:#181818;stroke-width:1.0;"/><path d="M1286.4688,937.9375 Q1285.8906,938.2344 1285.25,938.375 Q1284.6094,938.5313 1283.9063,938.5313 Q1281.4063,938.5313 1280.0781,936.8906 Q1278.7656,935.2344 1278.7656,932.1094 Q1278.7656,928.9844 1280.0781,927.3281 Q1281.4063,925.6719 1283.9063,925.6719 Q1284.6094,925.6719 1285.25,925.8281 Q1285.9063,925.9844 1286.4688,926.2813 L1286.4688,929 Q1285.8438,928.4219 1285.25,928.1563 Q1284.6563,927.875 1284.0313,927.875 Q1282.6875,927.875 1282,928.9531 Q1281.3125,930.0156 1281.3125,932.1094 Q1281.3125,934.2031 1282,935.2813 Q1282.6875,936.3438 1284.0313,936.3438 Q1284.6563,936.3438 1285.25,936.0781 Q1285.8438,935.7969 1286.4688,935.2188 L1286.4688,937.9375 Z " fill="#000000"/><text fill="#000000" font-family="sans-serif" font-size="14" lengthAdjust="spacing" textLength="366" x="1297.5" y="937.1436">nablarch.core.dataformat.InvalidDataFormatException</text></g></a><!--class C_nablarch_core_dataformat_SyntaxErrorException--><a href="/viewer/?module=nablarch-core-dataformat&amp;class=nablarch.core.dataformat.SyntaxErrorException" target="_top" title="/viewer/?module=nablarch-core-dataformat&amp;class=nablarch.core.dataformat.SyntaxErrorException" xlink:actuate="onRequest" xlink:href="/viewer/?module=nablarch-core-dataformat&amp;class=nablarch.core.dataformat.SyntaxErrorException" xlink:show="new" xlink:title="/viewer/?module=nablarch-core-dataformat&amp;class=nablarch.core.dataformat.SyntaxErrorException" xlink:type="simple"><g id="elem_C_nablarch_core_dataformat_SyntaxErrorException"><rect codeLine="43" fill="#F1F1F1" height="32" id="C_nablarch_core_dataformat_SyntaxErrorException" rx="2.5" ry="2.5" style="stroke:#181818;stroke-width:0.5;" width="354" x="672.5" y="831.2969"/><ellipse cx="687.5" cy="847.2969" fill="#ADD1B2" rx="11" ry="11" style="stroke:#181818;stroke-width:1.0;"/><path d="M690.4688,852.9375 Q689.8906,853.2344 689.25,853.375 Q688.6094,853.5313 687.9063,853.5313 Q685.4063,853.5313 684.0781,851.8906 Q682.7656,850.2344 682.7656,847.1094 Q682.7656,843.9844 684.0781,842.3281 Q685.4063,840.6719 687.9063,840.6719 Q688.6094,840.6719 689.25,840.8281 Q689.9063,840.9844 690.4688,841.2813 L690.4688,844 Q689.8438,843.4219 689.25,843.1563 Q688.6563,842.875 688.0313,842.875 Q686.6875,842.875 686,843.9531 Q685.3125,845.0156 685.3125,847.1094 Q685.3125,849.2031 686,850.2813 Q686.6875,851.3438 688.0313,851.3438 Q688.6563,851.3438 689.25,851.0781 Q689.8438,850.7969 690.4688,850.2188 L690.4688,852.9375 Z " fill="#000000"/><text fill="#000000" font-family="sans-serif" font-size="14" lengthAdjust="spacing" textLength="322" x="701.5" y="852.1436">nablarch.core.dataformat.SyntaxErrorException</text></g></a><!--class C_nablarch_core_util_Builder--><a href="/viewer/?module=nablarch-core&amp;class=nablarch.core.util.Builder" target="_top" title="/viewer/?module=nablarch-core&amp;class=nablarch.core.util.Builder" xlink:actuate="onRequest" xlink:href="/viewer/?module=nablarch-core&amp;class=nablarch.core.util.Builder" xlink:show="new" xlink:title="/viewer/?module=nablarch-core&amp;class=nablarch.core.util.Builder" xlink:type="simple"><g id="elem_C_nablarch_core_util_Builder"><rect codeLine="45" fill="#F1F1F1" height="32" id="C_nablarch_core_util_Builder" rx="2.5" ry="2.5" style="stroke:#181818;stroke-width:0.5;" width="202" x="2483.5" y="916.2969"/><ellipse cx="2498.5" cy="932.2969" fill="#ADD1B2" rx="11" ry="11" style="stroke:#181818;stroke-width:1.0;"/><path d="M2501.4688,937.9375 Q2500.8906,938.2344 2500.25,938.375 Q2499.6094,938.5313 2498.9063,938.5313 Q2496.4063,938.5313 2495.0781,936.8906 Q2493.7656,935.2344 2493.7656,932.1094 Q2493.7656,928.9844 2495.0781,927.3281 Q2496.4063,925.6719 2498.9063,925.6719 Q2499.6094,925.6719 2500.25,925.8281 Q2500.9063,925.9844 2501.4688,926.2813 L2501.4688,929 Q2500.8438,928.4219 2500.25,928.1563 Q2499.6563,927.875 2499.0313,927.875 Q2497.6875,927.875 2497,928.9531 Q2496.3125,930.0156 2496.3125,932.1094 Q2496.3125,934.2031 2497,935.2813 Q2497.6875,936.3438 2499.0313,936.3438 Q2499.6563,936.3438 2500.25,936.0781 Q2500.8438,935.7969 2501.4688,935.2188 L2501.4688,937.9375 Z " fill="#000000"/><text fill="#000000" font-family="sans-serif" font-size="14" lengthAdjust="spacing" textLength="170" x="2512.5" y="937.1436">nablarch.core.util.Builder</text></g></a><!--class C_nablarch_core_dataformat_convertor_datatype_Bytes--><a href="/viewer/?module=nablarch-core-dataformat&amp;class=nablarch.core.dataformat.convertor.datatype.Bytes" target="_top" title="/viewer/?module=nablarch-core-dataformat&amp;class=nablarch.core.dataformat.convertor.datatype.Bytes" xlink:actuate="onRequest" xlink:href="/viewer/?module=nablarch-core-dataformat&amp;class=nablarch.core.dataformat.convertor.datatype.Bytes" xlink:show="new" xlink:title="/viewer/?module=nablarch-core-dataformat&amp;class=nablarch.core.dataformat.convertor.datatype.Bytes" xlink:type="simple"><g id="elem_C_nablarch_core_dataformat_convertor_datatype_Bytes"><rect codeLine="47" fill="#F1F1F1" height="32" id="C_nablarch_core_dataformat_convertor_datatype_Bytes" rx="2.5" ry="2.5" style="stroke:#181818;stroke-width:0.5;" width="381" x="889" y="731.2969"/><ellipse cx="904" cy="747.2969" fill="#ADD1B2" rx="11" ry="11" style="stroke:#181818;stroke-width:1.0;"/><path d="M906.9688,752.9375 Q906.3906,753.2344 905.75,753.375 Q905.1094,753.5313 904.4063,753.5313 Q901.9063,753.5313 900.5781,751.8906 Q899.2656,750.2344 899.2656,747.1094 Q899.2656,743.9844 900.5781,742.3281 Q901.9063,740.6719 904.4063,740.6719 Q905.1094,740.6719 905.75,740.8281 Q906.4063,740.9844 906.9688,741.2813 L906.9688,744 Q906.3438,743.4219 905.75,743.1563 Q905.1563,742.875 904.5313,742.875 Q903.1875,742.875 902.5,743.9531 Q901.8125,745.0156 901.8125,747.1094 Q901.8125,749.2031 902.5,750.2813 Q903.1875,751.3438 904.5313,751.3438 Q905.1563,751.3438 905.75,751.0781 Q906.3438,750.7969 906.9688,750.2188 L906.9688,752.9375 Z " fill="#000000"/><text fill="#000000" font-family="sans-serif" font-size="14" lengthAdjust="spacing" textLength="349" x="918" y="752.1436">nablarch.core.dataformat.convertor.datatype.Bytes</text></g></a><!--class C_nablarch_core_dataformat_convertor_datatype_ByteStreamDataString--><a href="/viewer/?module=nablarch-core-dataformat&amp;class=nablarch.core.dataformat.convertor.datatype.ByteStreamDataString" target="_top" title="/viewer/?module=nablarch-core-dataformat&amp;class=nablarch.core.dataformat.convertor.datatype.ByteStreamDataString" xlink:actuate="onRequest" xlink:href="/viewer/?module=nablarch-core-dataformat&amp;class=nablarch.core.dataformat.convertor.datatype.ByteStreamDataString" xlink:show="new" xlink:title="/viewer/?module=nablarch-core-dataformat&amp;class=nablarch.core.dataformat.convertor.datatype.ByteStreamDataString" xlink:type="simple"><g id="elem_C_nablarch_core_dataformat_convertor_datatype_ByteStreamDataString"><rect codeLine="49" fill="#F1F1F1" height="32" id="C_nablarch_core_dataformat_convertor_datatype_ByteStreamDataString" rx="2.5" ry="2.5" style="stroke:#181818;stroke-width:0.5;" width="494" x="1288.5" y="731.2969"/><ellipse cx="1303.5" cy="747.2969" fill="#ADD1B2" rx="11" ry="11" style="stroke:#181818;stroke-width:1.0;"/><path d="M1306.4688,752.9375 Q1305.8906,753.2344 1305.25,753.375 Q1304.6094,753.5313 1303.9063,753.5313 Q1301.4063,753.5313 1300.0781,751.8906 Q1298.7656,750.2344 1298.7656,747.1094 Q1298.7656,743.9844 1300.0781,742.3281 Q1301.4063,740.6719 1303.9063,740.6719 Q1304.6094,740.6719 1305.25,740.8281 Q1305.9063,740.9844 1306.4688,741.2813 L1306.4688,744 Q1305.8438,743.4219 1305.25,743.1563 Q1304.6563,742.875 1304.0313,742.875 Q1302.6875,742.875 1302,743.9531 Q1301.3125,745.0156 1301.3125,747.1094 Q1301.3125,749.2031 1302,750.2813 Q1302.6875,751.3438 1304.0313,751.3438 Q1304.6563,751.3438 1305.25,751.0781 Q1305.8438,750.7969 1306.4688,750.2188 L1306.4688,752.9375 Z " fill="#000000"/><text fill="#000000" font-family="sans-serif" font-size="14" lengthAdjust="spacing" textLength="462" x="1317.5" y="752.1436">nablarch.core.dataformat.convertor.datatype.ByteStreamDataString</text></g></a><!--class C_nablarch_core_dataformat_convertor_datatype_DataType--><a href="/viewer/?module=nablarch-core-dataformat&amp;class=nablarch.core.dataformat.convertor.datatype.DataType" target="_top" title="/viewer/?module=nablarch-core-dataformat&amp;class=nablarch.core.dataformat.convertor.datatype.DataType" xlink:actuate="onRequest" xlink:href="/viewer/?module=nablarch-core-dataformat&amp;class=nablarch.core.dataformat.convertor.datatype.DataType" xlink:show="new" xlink:title="/viewer/?module=nablarch-core-dataformat&amp;class=nablarch.core.dataformat.convertor.datatype.DataType" xlink:type="simple"><g id="elem_C_nablarch_core_dataformat_convertor_datatype_DataType"><rect codeLine="51" fill="#F1F1F1" height="32" id="C_nablarch_core_dataformat_convertor_datatype_DataType" rx="2.5" ry="2.5" style="stroke:#181818;stroke-width:0.5;" width="411" x="460" y="731.2969"/><ellipse cx="475" cy="747.2969" fill="#A9DCDF" rx="11" ry="11" style="stroke:#181818;stroke-width:1.0;"/><path d="M475.1094,742.6406 L473.9531,747.7188 L476.2813,747.7188 L475.1094,742.6406 Z M473.625,740.4063 L476.6094,740.4063 L479.9688,752.7969 L477.5156,752.7969 L476.75,749.7344 L473.4688,749.7344 L472.7188,752.7969 L470.2813,752.7969 L473.625,740.4063 Z " fill="#000000"/><text fill="#000000" font-family="sans-serif" font-size="14" font-style="italic" lengthAdjust="spacing" textLength="379" x="489" y="752.1436">nablarch.core.dataformat.convertor.datatype.DataType</text></g></a><!--class C_nablarch_core_dataformat_convertor_datatype_NumberStringDecimal--><a href="/viewer/?module=nablarch-core-dataformat&amp;class=nablarch.core.dataformat.convertor.datatype.NumberStringDecimal" target="_top" title="/viewer/?module=nablarch-core-dataformat&amp;class=nablarch.core.dataformat.convertor.datatype.NumberStringDecimal" xlink:actuate="onRequest" xlink:href="/viewer/?module=nablarch-core-dataformat&amp;class=nablarch.core.dataformat.convertor.datatype.NumberStringDecimal" xlink:show="new" xlink:title="/viewer/?module=nablarch-core-dataformat&amp;class=nablarch.core.dataformat.convertor.datatype.NumberStringDecimal" xlink:type="simple"><g id="elem_C_nablarch_core_dataformat_convertor_datatype_NumberStringDecimal"><rect codeLine="53" fill="#F1F1F1" height="32" id="C_nablarch_core_dataformat_convertor_datatype_NumberStringDecimal" rx="2.5" ry="2.5" style="stroke:#181818;stroke-width:0.5;" width="492" x="2338.5" y="731.2969"/><ellipse cx="2353.5" cy="747.2969" fill="#ADD1B2" rx="11" ry="11" style="stroke:#181818;stroke-width:1.0;"/><path d="M2356.4688,752.9375 Q2355.8906,753.2344 2355.25,753.375 Q2354.6094,753.5313 2353.9063,753.5313 Q2351.4063,753.5313 2350.0781,751.8906 Q2348.7656,750.2344 2348.7656,747.1094 Q2348.7656,743.9844 2350.0781,742.3281 Q2351.4063,740.6719 2353.9063,740.6719 Q2354.6094,740.6719 2355.25,740.8281 Q2355.9063,740.9844 2356.4688,741.2813 L2356.4688,744 Q2355.8438,743.4219 2355.25,743.1563 Q2354.6563,742.875 2354.0313,742.875 Q2352.6875,742.875 2352,743.9531 Q2351.3125,745.0156 2351.3125,747.1094 Q2351.3125,749.2031 2352,750.2813 Q2352.6875,751.3438 2354.0313,751.3438 Q2354.6563,751.3438 2355.25,751.0781 Q2355.8438,750.7969 2356.4688,750.2188 L2356.4688,752.9375 Z " fill="#000000"/><text fill="#000000" font-family="sans-serif" font-size="14" lengthAdjust="spacing" textLength="460" x="2367.5" y="752.1436">nablarch.core.dataformat.convertor.datatype.NumberStringDecimal</text></g></a><!--class C_nablarch_core_dataformat_convertor_datatype_ZonedDecimal--><a href="/viewer/?module=nablarch-core-dataformat&amp;class=nablarch.core.dataformat.convertor.datatype.ZonedDecimal" target="_top" title="/viewer/?module=nablarch-core-dataformat&amp;class=nablarch.core.dataformat.convertor.datatype.ZonedDecimal" xlink:actuate="onRequest" xlink:href="/viewer/?module=nablarch-core-dataformat&amp;class=nablarch.core.dataformat.convertor.datatype.ZonedDecimal" xlink:show="new" xlink:title="/viewer/?module=nablarch-core-dataformat&amp;class=nablarch.core.dataformat.convertor.datatype.ZonedDecimal" xlink:type="simple"><g id="elem_C_nablarch_core_dataformat_convertor_datatype_ZonedDecimal"><rect codeLine="55" fill="#F1F1F1" height="32" id="C_nablarch_core_dataformat_convertor_datatype_ZonedDecimal" rx="2.5" ry="2.5" style="stroke:#181818;stroke-width:0.5;" width="443" x="1877" y="731.2969"/><ellipse cx="1892" cy="747.2969" fill="#ADD1B2" rx="11" ry="11" style="stroke:#181818;stroke-width:1.0;"/><path d="M1894.9688,752.9375 Q1894.3906,753.2344 1893.75,753.375 Q1893.1094,753.5313 1892.4063,753.5313 Q1889.9063,753.5313 1888.5781,751.8906 Q1887.2656,750.2344 1887.2656,747.1094 Q1887.2656,743.9844 1888.5781,742.3281 Q1889.9063,740.6719 1892.4063,740.6719 Q1893.1094,740.6719 1893.75,740.8281 Q1894.4063,740.9844 1894.9688,741.2813 L1894.9688,744 Q1894.3438,743.4219 1893.75,743.1563 Q1893.1563,742.875 1892.5313,742.875 Q1891.1875,742.875 1890.5,743.9531 Q1889.8125,745.0156 1889.8125,747.1094 Q1889.8125,749.2031 1890.5,750.2813 Q1891.1875,751.3438 1892.5313,751.3438 Q1893.1563,751.3438 1893.75,751.0781 Q1894.3438,750.7969 1894.9688,750.2188 L1894.9688,752.9375 Z " fill="#000000"/><text fill="#000000" font-family="sans-serif" font-size="14" lengthAdjust="spacing" textLength="411" x="1906" y="752.1436">nablarch.core.dataformat.convertor.datatype.ZonedDecimal</text></g></a><!--class C_nablarch_core_dataformat_DataRecordFormatterSupport--><a href="/viewer/?module=nablarch-core-dataformat&amp;class=nablarch.core.dataformat.DataRecordFormatterSupport" target="_top" title="/viewer/?module=nablarch-core-dataformat&amp;class=nablarch.core.dataformat.DataRecordFormatterSupport" xlink:actuate="onRequest" xlink:href="/viewer/?module=nablarch-core-dataformat&amp;class=nablarch.core.dataformat.DataRecordFormatterSupport" xlink:show="new" xlink:title="/viewer/?module=nablarch-core-dataformat&amp;class=nablarch.core.dataformat.DataRecordFormatterSupport" xlink:type="simple"><g id="elem_C_nablarch_core_dataformat_DataRecordFormatterSupport"><rect codeLine="57" fill="#F1F1F1" height="32" id="C_nablarch_core_dataformat_DataRecordFormatterSupport" rx="2.5" ry="2.5" style="stroke:#181818;stroke-width:0.5;" width="412" x="244.5" y="646.2969"/><ellipse cx="259.5" cy="662.2969" fill="#A9DCDF" rx="11" ry="11" style="stroke:#181818;stroke-width:1.0;"/><path d="M259.6094,657.6406 L258.4531,662.7188 L260.7813,662.7188 L259.6094,657.6406 Z M258.125,655.4063 L261.1094,655.4063 L264.4688,667.7969 L262.0156,667.7969 L261.25,664.7344 L257.9688,664.7344 L257.2188,667.7969 L254.7813,667.7969 L258.125,655.4063 Z " fill="#000000"/><text fill="#000000" font-family="sans-serif" font-size="14" font-style="italic" lengthAdjust="spacing" textLength="380" x="273.5" y="667.1436">nablarch.core.dataformat.DataRecordFormatterSupport</text></g></a><!--class C_nablarch_test_core_file_StringDataType--><a href="/viewer/?module=nablarch-testing&amp;class=nablarch.test.core.file.StringDataType" target="_top" title="/viewer/?module=nablarch-testing&amp;class=nablarch.test.core.file.StringDataType" xlink:actuate="onRequest" xlink:href="/viewer/?module=nablarch-testing&amp;class=nablarch.test.core.file.StringDataType" xlink:show="new" xlink:title="/viewer/?module=nablarch-testing&amp;class=nablarch.test.core.file.StringDataType" xlink:type="simple"><g id="elem_C_nablarch_test_core_file_StringDataType"><rect codeLine="59" fill="#F1F1F1" height="32" id="C_nablarch_test_core_file_StringDataType" rx="2.5" ry="2.5" style="stroke:#181818;stroke-width:0.5;" width="290" x="1621.5" y="781.2969"/><ellipse cx="1636.5" cy="797.2969" fill="#ADD1B2" rx="11" ry="11" style="stroke:#181818;stroke-width:1.0;"/><path d="M1639.4688,802.9375 Q1638.8906,803.2344 1638.25,803.375 Q1637.6094,803.5313 1636.9063,803.5313 Q1634.4063,803.5313 1633.0781,801.8906 Q1631.7656,800.2344 1631.7656,797.1094 Q1631.7656,793.9844 1633.0781,792.3281 Q1634.4063,790.6719 1636.9063,790.6719 Q1637.6094,790.6719 1638.25,790.8281 Q1638.9063,790.9844 1639.4688,791.2813 L1639.4688,794 Q1638.8438,793.4219 1638.25,793.1563 Q1637.6563,792.875 1637.0313,792.875 Q1635.6875,792.875 1635,793.9531 Q1634.3125,795.0156 1634.3125,797.1094 Q1634.3125,799.2031 1635,800.2813 Q1635.6875,801.3438 1637.0313,801.3438 Q1637.6563,801.3438 1638.25,801.0781 Q1638.8438,800.7969 1639.4688,800.2188 L1639.4688,802.9375 Z " fill="#000000"/><text fill="#000000" font-family="sans-serif" font-size="14" lengthAdjust="spacing" textLength="258" x="1650.5" y="802.1436">nablarch.test.core.file.StringDataType</text></g></a><!--class C_nablarch_core_dataformat_FixedLengthDataRecordFormatter_FixedLengthDirective--><a href="/viewer/?module=nablarch-core-dataformat&amp;class=nablarch.core.dataformat.FixedLengthDataRecordFormatter%24FixedLengthDirective" target="_top" title="/viewer/?module=nablarch-core-dataformat&amp;class=nablarch.core.dataformat.FixedLengthDataRecordFormatter%24FixedLengthDirective" xlink:actuate="onRequest" xlink:href="/viewer/?module=nablarch-core-dataformat&amp;class=nablarch.core.dataformat.FixedLengthDataRecordFormatter%24FixedLengthDirective" xlink:show="new" xlink:title="/viewer/?module=nablarch-core-dataformat&amp;class=nablarch.core.dataformat.FixedLengthDataRecordFormatter%24FixedLengthDirective" xlink:type="simple"><g id="elem_C_nablarch_core_dataformat_FixedLengthDataRecordFormatter_FixedLengthDirective"><rect codeLine="61" fill="#F1F1F1" height="32" id="C_nablarch_core_dataformat_FixedLengthDataRecordFormatter_FixedLengthDirective" rx="2.5" ry="2.5" style="stroke:#181818;stroke-width:0.5;" width="594" x="1320.5" y="390.2969"/><ellipse cx="1335.5" cy="406.2969" fill="#ADD1B2" rx="11" ry="11" style="stroke:#181818;stroke-width:1.0;"/><path d="M1338.4688,411.9375 Q1337.8906,412.2344 1337.25,412.375 Q1336.6094,412.5313 1335.9063,412.5313 Q1333.4063,412.5313 1332.0781,410.8906 Q1330.7656,409.2344 1330.7656,406.1094 Q1330.7656,402.9844 1332.0781,401.3281 Q1333.4063,399.6719 1335.9063,399.6719 Q1336.6094,399.6719 1337.25,399.8281 Q1337.9063,399.9844 1338.4688,400.2813 L1338.4688,403 Q1337.8438,402.4219 1337.25,402.1563 Q1336.6563,401.875 1336.0313,401.875 Q1334.6875,401.875 1334,402.9531 Q1333.3125,404.0156 1333.3125,406.1094 Q1333.3125,408.2031 1334,409.2813 Q1334.6875,410.3438 1336.0313,410.3438 Q1336.6563,410.3438 1337.25,410.0781 Q1337.8438,409.7969 1338.4688,409.2188 L1338.4688,411.9375 Z " fill="#000000"/><text fill="#000000" font-family="sans-serif" font-size="14" lengthAdjust="spacing" textLength="562" x="1349.5" y="411.1436">nablarch.core.dataformat.FixedLengthDataRecordFormatter$FixedLengthDirective</text></g></a><!--class C_nablarch_core_dataformat_convertor_FixedLengthConvertorSetting--><a href="/viewer/?module=nablarch-core-dataformat&amp;class=nablarch.core.dataformat.convertor.FixedLengthConvertorSetting" target="_top" title="/viewer/?module=nablarch-core-dataformat&amp;class=nablarch.core.dataformat.convertor.FixedLengthConvertorSetting" xlink:actuate="onRequest" xlink:href="/viewer/?module=nablarch-core-dataformat&amp;class=nablarch.core.dataformat.convertor.FixedLengthConvertorSetting" xlink:show="new" xlink:title="/viewer/?module=nablarch-core-dataformat&amp;class=nablarch.core.dataformat.convertor.FixedLengthConvertorSetting" xlink:type="simple"><g id="elem_C_nablarch_core_dataformat_convertor_FixedLengthConvertorSetting"><rect codeLine="63" fill="#F1F1F1" height="32" id="C_nablarch_core_dataformat_convertor_FixedLengthConvertorSetting" rx="2.5" ry="2.5" style="stroke:#181818;stroke-width:0.5;" width="479" x="1933" y="390.2969"/><ellipse cx="1948" cy="406.2969" fill="#ADD1B2" rx="11" ry="11" style="stroke:#181818;stroke-width:1.0;"/><path d="M1950.9688,411.9375 Q1950.3906,412.2344 1949.75,412.375 Q1949.1094,412.5313 1948.4063,412.5313 Q1945.9063,412.5313 1944.5781,410.8906 Q1943.2656,409.2344 1943.2656,406.1094 Q1943.2656,402.9844 1944.5781,401.3281 Q1945.9063,399.6719 1948.4063,399.6719 Q1949.1094,399.6719 1949.75,399.8281 Q1950.4063,399.9844 1950.9688,400.2813 L1950.9688,403 Q1950.3438,402.4219 1949.75,402.1563 Q1949.1563,401.875 1948.5313,401.875 Q1947.1875,401.875 1946.5,402.9531 Q1945.8125,404.0156 1945.8125,406.1094 Q1945.8125,408.2031 1946.5,409.2813 Q1947.1875,410.3438 1948.5313,410.3438 Q1949.1563,410.3438 1949.75,410.0781 Q1950.3438,409.7969 1950.9688,409.2188 L1950.9688,411.9375 Z " fill="#000000"/><text fill="#000000" font-family="sans-serif" font-size="14" lengthAdjust="spacing" textLength="447" x="1962" y="411.1436">nablarch.core.dataformat.convertor.FixedLengthConvertorSetting</text></g></a><!--class C_nablarch_core_dataformat_LayoutFileParser_Token--><a href="/viewer/?module=nablarch-core-dataformat&amp;class=nablarch.core.dataformat.LayoutFileParser%24Token" target="_top" title="/viewer/?module=nablarch-core-dataformat&amp;class=nablarch.core.dataformat.LayoutFileParser%24Token" xlink:actuate="onRequest" xlink:href="/viewer/?module=nablarch-core-dataformat&amp;class=nablarch.core.dataformat.LayoutFileParser%24Token" xlink:show="new" xlink:title="/viewer/?module=nablarch-core-dataformat&amp;class=nablarch.core.dataformat.LayoutFileParser%24Token" xlink:type="simple"><g id="elem_C_nablarch_core_dataformat_LayoutFileParser_Token"><rect codeLine="65" fill="#F1F1F1" height="32" id="C_nablarch_core_dataformat_LayoutFileParser_Token" rx="2.5" ry="2.5" style="stroke:#181818;stroke-width:0.5;" width="373" x="6" y="916.2969"/><ellipse cx="21" cy="932.2969" fill="#ADD1B2" rx="11" ry="11" style="stroke:#181818;stroke-width:1.0;"/><path d="M23.9688,937.9375 Q23.3906,938.2344 22.75,938.375 Q22.1094,938.5313 21.4063,938.5313 Q18.9063,938.5313 17.5781,936.8906 Q16.2656,935.2344 16.2656,932.1094 Q16.2656,928.9844 17.5781,927.3281 Q18.9063,925.6719 21.4063,925.6719 Q22.1094,925.6719 22.75,925.8281 Q23.4063,925.9844 23.9688,926.2813 L23.9688,929 Q23.3438,928.4219 22.75,928.1563 Q22.1563,927.875 21.5313,927.875 Q20.1875,927.875 19.5,928.9531 Q18.8125,930.0156 18.8125,932.1094 Q18.8125,934.2031 19.5,935.2813 Q20.1875,936.3438 21.5313,936.3438 Q22.1563,936.3438 22.75,936.0781 Q23.3438,935.7969 23.9688,935.2188 L23.9688,937.9375 Z " fill="#000000"/><text fill="#000000" font-family="sans-serif" font-size="14" lengthAdjust="spacing" textLength="341" x="35" y="937.1436">nablarch.core.dataformat.LayoutFileParser$Token</text></g></a><!--class C_nablarch_core_log_Logger--><a href="/viewer/?module=nablarch-core&amp;class=nablarch.core.log.Logger" target="_top" title="/viewer/?module=nablarch-core&amp;class=nablarch.core.log.Logger" xlink:actuate="onRequest" xlink:href="/viewer/?module=nablarch-core&amp;class=nablarch.core.log.Logger" xlink:show="new" xlink:title="/viewer/?module=nablarch-core&amp;class=nablarch.core.log.Logger" xlink:type="simple"><g id="elem_C_nablarch_core_log_Logger"><rect codeLine="67" fill="#F1F1F1" height="32" id="C_nablarch_core_log_Logger" rx="2.5" ry="2.5" style="stroke:#181818;stroke-width:0.5;" width="204" x="3827.5" y="831.2969"/><ellipse cx="3842.5" cy="847.2969" fill="#B4A7E5" rx="11" ry="11" style="stroke:#181818;stroke-width:1.0;"/><path d="M3838.4219,843.0625 L3838.4219,840.9063 L3845.8125,840.9063 L3845.8125,843.0625 L3843.3438,843.0625 L3843.3438,851.1406 L3845.8125,851.1406 L3845.8125,853.2969 L3838.4219,853.2969 L3838.4219,851.1406 L3840.8906,851.1406 L3840.8906,843.0625 L3838.4219,843.0625 Z " fill="#000000"/><text fill="#000000" font-family="sans-serif" font-size="14" font-style="italic" lengthAdjust="spacing" textLength="172" x="3856.5" y="852.1436">nablarch.core.log.Logger</text></g></a><!--class C_nablarch_test_core_file_FixedLengthFileFragment_1--><a href="/viewer/?module=nablarch-testing&amp;class=nablarch.test.core.file.FixedLengthFileFragment%241" target="_top" title="/viewer/?module=nablarch-testing&amp;class=nablarch.test.core.file.FixedLengthFileFragment%241" xlink:actuate="onRequest" xlink:href="/viewer/?module=nablarch-testing&amp;class=nablarch.test.core.file.FixedLengthFileFragment%241" xlink:show="new" xlink:title="/viewer/?module=nablarch-testing&amp;class=nablarch.test.core.file.FixedLengthFileFragment%241" xlink:type="simple"><g id="elem_C_nablarch_test_core_file_FixedLengthFileFragment_1"><rect codeLine="69" fill="#F1F1F1" height="32" id="C_nablarch_test_core_file_FixedLengthFileFragment_1" rx="2.5" ry="2.5" style="stroke:#181818;stroke-width:0.5;" width="375" x="1105" y="49.2969"/><ellipse cx="1120" cy="65.2969" fill="#ADD1B2" rx="11" ry="11" style="stroke:#181818;stroke-width:1.0;"/><path d="M1122.9688,70.9375 Q1122.3906,71.2344 1121.75,71.375 Q1121.1094,71.5313 1120.4063,71.5313 Q1117.9063,71.5313 1116.5781,69.8906 Q1115.2656,68.2344 1115.2656,65.1094 Q1115.2656,61.9844 1116.5781,60.3281 Q1117.9063,58.6719 1120.4063,58.6719 Q1121.1094,58.6719 1121.75,58.8281 Q1122.4063,58.9844 1122.9688,59.2813 L1122.9688,62 Q1122.3438,61.4219 1121.75,61.1563 Q1121.1563,60.875 1120.5313,60.875 Q1119.1875,60.875 1118.5,61.9531 Q1117.8125,63.0156 1117.8125,65.1094 Q1117.8125,67.2031 1118.5,68.2813 Q1119.1875,69.3438 1120.5313,69.3438 Q1121.1563,69.3438 1121.75,69.0781 Q1122.3438,68.7969 1122.9688,68.2188 L1122.9688,70.9375 Z " fill="#000000"/><text fill="#000000" font-family="sans-serif" font-size="14" lengthAdjust="spacing" textLength="343" x="1134" y="70.1436">nablarch.test.core.file.FixedLengthFileFragment$1</text></g></a><!--class C_nablarch_common_availability_ServiceAvailabilityCheckHandler--><a href="/viewer/?module=nablarch-common-auth&amp;class=nablarch.common.availability.ServiceAvailabilityCheckHandler" target="_top" title="/viewer/?module=nablarch-common-auth&amp;class=nablarch.common.availability.ServiceAvailabilityCheckHandler" xlink:actuate="onRequest" xlink:href="/viewer/?module=nablarch-common-auth&amp;class=nablarch.common.availability.ServiceAvailabilityCheckHandler" xlink:show="new" xlink:title="/viewer/?module=nablarch-common-auth&amp;class=nablarch.common.availability.ServiceAvailabilityCheckHandler" xlink:type="simple"><g id="elem_C_nablarch_common_availability_ServiceAvailabilityCheckHandler"><rect codeLine="71" fill="#F1F1F1" height="32" id="C_nablarch_common_availability_ServiceAvailabilityCheckHandler" rx="2.5" ry="2.5" style="stroke:#181818;stroke-width:0.5;" width="446" x="3504.5" y="731.2969"/><ellipse cx="3519.5" cy="747.2969" fill="#ADD1B2" rx="11" ry="11" style="stroke:#181818;stroke-width:1.0;"/><path d="M3522.4688,752.9375 Q3521.8906,753.2344 3521.25,753.375 Q3520.6094,753.5313 3519.9063,753.5313 Q3517.4063,753.5313 3516.0781,751.8906 Q3514.7656,750.2344 3514.7656,747.1094 Q3514.7656,743.9844 3516.0781,742.3281 Q3517.4063,740.6719 3519.9063,740.6719 Q3520.6094,740.6719 3521.25,740.8281 Q3521.9063,740.9844 3522.4688,741.2813 L3522.4688,744 Q3521.8438,743.4219 3521.25,743.1563 Q3520.6563,742.875 3520.0313,742.875 Q3518.6875,742.875 3518,743.9531 Q3517.3125,745.0156 3517.3125,747.1094 Q3517.3125,749.2031 3518,750.2813 Q3518.6875,751.3438 3520.0313,751.3438 Q3520.6563,751.3438 3521.25,751.0781 Q3521.8438,750.7969 3522.4688,750.2188 L3522.4688,752.9375 Z " fill="#000000"/><text fill="#000000" font-family="sans-serif" font-size="14" lengthAdjust="spacing" textLength="414" x="3533.5" y="752.1436">nablarch.common.availability.ServiceAvailabilityCheckHandler</text></g></a><!--class C_nablarch_common_exclusivecontrol_BasicExclusiveControlManager--><a href="/viewer/?module=nablarch-common-exclusivecontrol-jdbc&amp;class=nablarch.common.exclusivecontrol.BasicExclusiveControlManager" target="_top" title="/viewer/?module=nablarch-common-exclusivecontrol-jdbc&amp;class=nablarch.common.exclusivecontrol.BasicExclusiveControlManager" xlink:actuate="onRequest" xlink:href="/viewer/?module=nablarch-common-exclusivecontrol-jdbc&amp;class=nablarch.common.exclusivecontrol.BasicExclusiveControlManager" xlink:show="new" xlink:title="/viewer/?module=nablarch-common-exclusivecontrol-jdbc&amp;class=nablarch.common.exclusivecontrol.BasicExclusiveControlManager" xlink:type="simple"><g id="elem_C_nablarch_common_exclusivecontrol_BasicExclusiveControlManager"><rect codeLine="73" fill="#F1F1F1" height="32" id="C_nablarch_common_exclusivecontrol_BasicExclusiveControlManager" rx="2.5" ry="2.5" style="stroke:#181818;stroke-width:0.5;" width="485" x="3324" y="831.2969"/><ellipse cx="3339" cy="847.2969" fill="#ADD1B2" rx="11" ry="11" style="stroke:#181818;stroke-width:1.0;"/><path d="M3341.9688,852.9375 Q3341.3906,853.2344 3340.75,853.375 Q3340.1094,853.5313 3339.4063,853.5313 Q3336.9063,853.5313 3335.5781,851.8906 Q3334.2656,850.2344 3334.2656,847.1094 Q3334.2656,843.9844 3335.5781,842.3281 Q3336.9063,840.6719 3339.4063,840.6719 Q3340.1094,840.6719 3340.75,840.8281 Q3341.4063,840.9844 3341.9688,841.2813 L3341.9688,844 Q3341.3438,843.4219 3340.75,843.1563 Q3340.1563,842.875 3339.5313,842.875 Q3338.1875,842.875 3337.5,843.9531 Q3336.8125,845.0156 3336.8125,847.1094 Q3336.8125,849.2031 3337.5,850.2813 Q3338.1875,851.3438 3339.5313,851.3438 Q3340.1563,851.3438 3340.75,851.0781 Q3341.3438,850.7969 3341.9688,850.2188 L3341.9688,852.9375 Z " fill="#000000"/><text fill="#000000" font-family="sans-serif" font-size="14" lengthAdjust="spacing" textLength="453" x="3353" y="852.1436">nablarch.common.exclusivecontrol.BasicExclusiveControlManager</text></g></a><!--class C_nablarch_common_permission_PermissionCheckHandler--><a href="/viewer/?module=nablarch-common-auth&amp;class=nablarch.common.permission.PermissionCheckHandler" target="_top" title="/viewer/?module=nablarch-common-auth&amp;class=nablarch.common.permission.PermissionCheckHandler" xlink:actuate="onRequest" xlink:href="/viewer/?module=nablarch-common-auth&amp;class=nablarch.common.permission.PermissionCheckHandler" xlink:show="new" xlink:title="/viewer/?module=nablarch-common-auth&amp;class=nablarch.common.permission.PermissionCheckHandler" xlink:type="simple"><g id="elem_C_nablarch_common_permission_PermissionCheckHandler"><rect codeLine="75" fill="#F1F1F1" height="32" id="C_nablarch_common_permission_PermissionCheckHandler" rx="2.5" ry="2.5" style="stroke:#181818;stroke-width:0.5;" width="413" x="3969" y="731.2969"/><ellipse cx="3984" cy="747.2969" fill="#ADD1B2" rx="11" ry="11" style="stroke:#181818;stroke-width:1.0;"/><path d="M3986.9688,752.9375 Q3986.3906,753.2344 3985.75,753.375 Q3985.1094,753.5313 3984.4063,753.5313 Q3981.9063,753.5313 3980.5781,751.8906 Q3979.2656,750.2344 3979.2656,747.1094 Q3979.2656,743.9844 3980.5781,742.3281 Q3981.9063,740.6719 3984.4063,740.6719 Q3985.1094,740.6719 3985.75,740.8281 Q3986.4063,740.9844 3986.9688,741.2813 L3986.9688,744 Q3986.3438,743.4219 3985.75,743.1563 Q3985.1563,742.875 3984.5313,742.875 Q3983.1875,742.875 3982.5,743.9531 Q3981.8125,745.0156 3981.8125,747.1094 Q3981.8125,749.2031 3982.5,750.2813 Q3983.1875,751.3438 3984.5313,751.3438 Q3985.1563,751.3438 3985.75,751.0781 Q3986.3438,750.7969 3986.9688,750.2188 L3986.9688,752.9375 Z " fill="#000000"/><text fill="#000000" font-family="sans-serif" font-size="14" lengthAdjust="spacing" textLength="381" x="3998" y="752.1436">nablarch.common.permission.PermissionCheckHandler</text></g></a><!--class C_nablarch_common_web_tag_FormTag--><a href="/viewer/?module=nablarch-fw-web-tag&amp;class=nablarch.common.web.tag.FormTag" target="_top" title="/viewer/?module=nablarch-fw-web-tag&amp;class=nablarch.common.web.tag.FormTag" xlink:actuate="onRequest" xlink:href="/viewer/?module=nablarch-fw-web-tag&amp;class=nablarch.common.web.tag.FormTag" xlink:show="new" xlink:title="/viewer/?module=nablarch-fw-web-tag&amp;class=nablarch.common.web.tag.FormTag" xlink:type="simple"><g id="elem_C_nablarch_common_web_tag_FormTag"><rect codeLine="77" fill="#F1F1F1" height="32" id="C_nablarch_common_web_tag_FormTag" rx="2.5" ry="2.5" style="stroke:#181818;stroke-width:0.5;" width="280" x="2886.5" y="731.2969"/><ellipse cx="2901.5" cy="747.2969" fill="#ADD1B2" rx="11" ry="11" style="stroke:#181818;stroke-width:1.0;"/><path d="M2904.4688,752.9375 Q2903.8906,753.2344 2903.25,753.375 Q2902.6094,753.5313 2901.9063,753.5313 Q2899.4063,753.5313 2898.0781,751.8906 Q2896.7656,750.2344 2896.7656,747.1094 Q2896.7656,743.9844 2898.0781,742.3281 Q2899.4063,740.6719 2901.9063,740.6719 Q2902.6094,740.6719 2903.25,740.8281 Q2903.9063,740.9844 2904.4688,741.2813 L2904.4688,744 Q2903.8438,743.4219 2903.25,743.1563 Q2902.6563,742.875 2902.0313,742.875 Q2900.6875,742.875 2900,743.9531 Q2899.3125,745.0156 2899.3125,747.1094 Q2899.3125,749.2031 2900,750.2813 Q2900.6875,751.3438 2902.0313,751.3438 Q2902.6563,751.3438 2903.25,751.0781 Q2903.8438,750.7969 2904.4688,750.2188 L2904.4688,752.9375 Z " fill="#000000"/><text fill="#000000" font-family="sans-serif" font-size="14" lengthAdjust="spacing" textLength="248" x="2915.5" y="752.1436">nablarch.common.web.tag.FormTag</text></g></a><!--class C_nablarch_common_web_tag_GenericAttributesTagSupport--><a href="/viewer/?module=nablarch-fw-web-tag&amp;class=nablarch.common.web.tag.GenericAttributesTagSupport" target="_top" title="/viewer/?module=nablarch-fw-web-tag&amp;class=nablarch.common.web.tag.GenericAttributesTagSupport" xlink:actuate="onRequest" xlink:href="/viewer/?module=nablarch-fw-web-tag&amp;class=nablarch.common.web.tag.GenericAttributesTagSupport" xlink:show="new" xlink:title="/viewer/?module=nablarch-fw-web-tag&amp;class=nablarch.common.web.tag.GenericAttributesTagSupport" xlink:type="simple"><g id="elem_C_nablarch_common_web_tag_GenericAttributesTagSupport"><rect codeLine="79" fill="#F1F1F1" height="32" id="C_nablarch_common_web_tag_GenericAttributesTagSupport" rx="2.5" ry="2.5" style="stroke:#181818;stroke-width:0.5;" width="421" x="2753" y="831.2969"/><ellipse cx="2768" cy="847.2969" fill="#A9DCDF" rx="11" ry="11" style="stroke:#181818;stroke-width:1.0;"/><path d="M2768.1094,842.6406 L2766.9531,847.7188 L2769.2813,847.7188 L2768.1094,842.6406 Z M2766.625,840.4063 L2769.6094,840.4063 L2772.9688,852.7969 L2770.5156,852.7969 L2769.75,849.7344 L2766.4688,849.7344 L2765.7188,852.7969 L2763.2813,852.7969 L2766.625,840.4063 Z " fill="#000000"/><text fill="#000000" font-family="sans-serif" font-size="14" font-style="italic" lengthAdjust="spacing" textLength="389" x="2782" y="852.1436">nablarch.common.web.tag.GenericAttributesTagSupport</text></g></a><polygon fill="none" points="1758.69,646.2592,1777.5615,648.225,1774.9666,636.5089,1758.69,646.2592" style="stroke:#181818;stroke-width:1.0;"/><path d="M1776.2641,642.3669 C1829.0536,630.6751 1888.4079,619.0706 1956.5,611.2969 C2007.7614,605.4446 2372.1262,611.2398 2420.5,593.2969 C2423.7843,592.0787 2427.0581,590.7954 2430.3196,589.4513 " fill="none" style="stroke:#181818;stroke-width:1.0;"/><polygon fill="#181818" points="1950.8793,652.6948,1960.0689,656.2374,1955.8729,652.4435,1959.6668,648.2475,1950.8793,652.6948" style="stroke:#181818;stroke-width:1.0;"/><path d="M2430.2215,589.1976 C2426.9909,590.6216 2423.7498,591.9894 2420.5,593.2969 C2337.481,626.6965 2130.7359,643.6433 1956.8717,652.3932 " fill="none" style="stroke:#181818;stroke-width:1.0;stroke-dasharray:7.0,7.0;"/><text fill="#000000" font-family="sans-serif" font-size="13" lengthAdjust="spacing" textLength="55" x="2351.5" y="624.3638">depends</text><polygon fill="#181818" points="672.515,831.2835,664.0986,826.1685,667.5558,830.6459,663.0784,834.1031,672.515,831.2835" style="stroke:#181818;stroke-width:1.0;"/><path d="M2430.3326,589.4865 C2427.067,590.8195 2423.7889,592.091 2420.5,593.2969 C2360.3821,615.3386 1908.4615,608.3082 1844.5,611.2969 C1839.753,611.5187 482.7172,694.1062 478.5,696.2969 C449.8602,711.1744 430.1352,738.2598 450.5,763.2969 C479.1851,798.5631 573.6529,818.5727 666.564,830.5184 " fill="none" style="stroke:#181818;stroke-width:1.0;stroke-dasharray:7.0,7.0;"/><text fill="#000000" font-family="sans-serif" font-size="13" lengthAdjust="spacing" textLength="55" x="479.5" y="709.3638">depends</text><polygon fill="#181818" points="2685.5127,927.8877,2694.6709,931.5109,2690.5084,927.6803,2694.3391,923.5178,2685.5127,927.8877" style="stroke:#181818;stroke-width:1.0;"/><path d="M2878.5783,424.0962 C3030.0113,449.1248 3202.5,510.6893 3202.5,661.2969 C3202.5,661.2969 3202.5,661.2969 3202.5,848.2969 C3202.5,899.8195 2866.7292,920.3639 2691.5076,927.6388 " fill="none" style="stroke:#181818;stroke-width:1.0;stroke-dasharray:7.0,7.0;"/><text fill="#000000" font-family="sans-serif" font-size="13" lengthAdjust="spacing" textLength="55" x="3203.5" y="751.8638">depends</text><polygon fill="#181818" points="1268.4133,928.5411,1259.488,924.377,1263.4142,928.4496,1259.3416,932.3757,1268.4133,928.5411" style="stroke:#181818;stroke-width:1.0;"/><path d="M2430.3577,589.5557 C2427.0841,590.8669 2423.7977,592.1154 2420.5,593.2969 C2363.3283,613.7806 1388.1845,608.9353 1327.5,611.2969 C1073.8815,621.1668 1006.3499,596.3622 757.5,646.2969 C715.0544,654.8141 707.8449,669.2925 665.5,678.2969 C584.0399,695.6188 349.8037,669.0289 294.5,731.2969 C254.4135,776.4314 273.4265,834.5348 326.5,863.2969 C406.9193,906.8785 957.3487,922.8463 1262.4143,928.4313 " fill="none" style="stroke:#181818;stroke-width:1.0;stroke-dasharray:7.0,7.0;"/><text fill="#000000" font-family="sans-serif" font-size="13" lengthAdjust="spacing" textLength="55" x="295.5" y="751.8638">depends</text><polygon fill="#181818" points="2431.0098,831.2905,2440.5031,833.9129,2435.9546,830.5497,2439.3178,826.0012,2431.0098,831.2905" style="stroke:#181818;stroke-width:1.0;"/><path d="M2833.4548,593.5406 C2868.3718,651.4981 2882.5352,713.2626 2839.5,763.2969 C2822.0597,783.5736 2746.8799,776.891 2720.5,781.2969 C2642.5128,794.3222 2623.4864,800.2672 2545.5,813.2969 C2508.2169,819.526 2473.1931,824.9708 2436.9435,830.4016 " fill="none" style="stroke:#181818;stroke-width:1.0;stroke-dasharray:7.0,7.0;"/><text fill="#000000" font-family="sans-serif" font-size="13" lengthAdjust="spacing" textLength="55" x="2867.5" y="709.3638">depends</text><polygon fill="none" points="727.7199,731.243,746.6047,733.0767,743.9279,721.379,727.7199,731.243" style="stroke:#181818;stroke-width:1.0;"/><path d="M745.2663,727.2279 C796.2212,715.5678 852.814,704.1378 918.5,696.2969 C1091.0552,675.6991 1286.537,667.4767 1438.1315,664.3898 " fill="none" style="stroke:#181818;stroke-width:1.0;"/><polygon fill="#181818" points="794.4527,731.2794,803.8435,734.248,799.4214,730.7204,802.949,726.2982,794.4527,731.2794" style="stroke:#181818;stroke-width:1.0;"/><path d="M1438.2948,676.3199 C1345.6629,681.6487 1240.3133,688.4256 1144.5,696.2969 C1025.7536,706.0521 896.7501,719.7686 800.4151,730.6085 " fill="none" style="stroke:#181818;stroke-width:1.0;stroke-dasharray:7.0,7.0;"/><text fill="#000000" font-family="sans-serif" font-size="13" lengthAdjust="spacing" textLength="55" x="1145.5" y="709.3638">depends</text><polygon fill="none" points="2656.53,593.4567,2645.2287,608.6975,2656.6334,612.4301,2656.53,593.4567" style="stroke:#181818;stroke-width:1.0;"/><path d="M2650.931,610.5638 C2646.9232,622.8093 2647.2726,617.4555 2640.5,628.2969 C2635.8965,635.666 2629.0121,641.5497 2621.5785,646.1859 " fill="none" style="stroke:#181818;stroke-width:1.0;"/><polygon fill="#181818" points="2583.132,593.333,2577.2536,601.2352,2582.0342,598.211,2585.0584,602.9917,2583.132,593.333" style="stroke:#181818;stroke-width:1.0;"/><path d="M2579.714,645.87 C2578.3756,635.931 2577.4579,622.7694 2579.5,611.2969 C2580.558,605.3528 2580.4594,605.2085 2581.8147,599.1866 " fill="none" style="stroke:#181818;stroke-width:1.0;stroke-dasharray:7.0,7.0;"/><text fill="#000000" font-family="sans-serif" font-size="13" lengthAdjust="spacing" textLength="55" x="2580.5" y="624.3638">depends</text><polygon fill="#181818" points="2537.872,916.238,2530.5368,909.6657,2533.1139,914.7014,2528.0782,917.2785,2537.872,916.238" style="stroke:#181818;stroke-width:1.0;"/><path d="M2374.0408,863.3275 C2420.4731,878.3232 2485.6993,899.3885 2532.1623,914.394 " fill="none" style="stroke:#181818;stroke-width:1.0;stroke-dasharray:7.0,7.0;"/><text fill="#000000" font-family="sans-serif" font-size="13" lengthAdjust="spacing" textLength="55" x="2480.5" y="894.3638">depends</text><polygon fill="#181818" points="1623.1685,916.2731,1632.5111,919.39,1628.1453,915.7927,1631.7426,911.427,1623.1685,916.2731" style="stroke:#181818;stroke-width:1.0;"/><path d="M2171.7605,863.3275 C2016.2627,878.3349 1784.6135,900.6917 1629.1407,915.6967 " fill="none" style="stroke:#181818;stroke-width:1.0;stroke-dasharray:7.0,7.0;"/><text fill="#000000" font-family="sans-serif" font-size="13" lengthAdjust="spacing" textLength="55" x="1976.5" y="894.3638">depends</text><polygon fill="none" points="448.2768,646.0677,451.8747,627.4383,439.9775,629.0055,448.2768,646.0677" style="stroke:#181818;stroke-width:1.0;"/><path d="M445.9261,628.2219 C437.0602,560.9158 413.7452,305.9568 559.5,184.2969 C579.1507,167.8946 863.1417,159.0795 1071.7505,154.7905 " fill="none" style="stroke:#181818;stroke-width:1.0;"/><polygon fill="#181818" points="462.9499,646.1969,471.6569,641.5937,466.0401,642.2661,465.3676,636.6494,462.9499,646.1969" style="stroke:#181818;stroke-width:1.0;"/><path d="M1071.9943,151.584 C923.9452,153.9515 743.1616,161.6734 670.5,184.2969 C482.0525,242.9707 583.8405,415.8134 497.5,593.2969 C488.0203,612.7835 477.0799,628.2233 466.6582,641.48 " fill="none" style="stroke:#181818;stroke-width:1.0;stroke-dasharray:7.0,7.0;"/><text fill="#000000" font-family="sans-serif" font-size="13" lengthAdjust="spacing" textLength="55" x="603.5" y="410.8638">depends</text><polygon fill="none" points="1311.8569,166.4251,1314.1213,173.2714,1321.3119,173.8145,1319.0476,166.9681,1311.8569,166.4251" style="stroke:#181818;stroke-width:1.0;"/><path d="M1321.3119,173.8145 C1379.1163,218.9908 1540.5727,345.1752 1598.2445,390.248 " fill="none" style="stroke:#181818;stroke-width:1.0;"/><text fill="#000000" font-family="sans-serif" font-size="13" lengthAdjust="spacing" textLength="54" x="1356.5" y="197.3638">contains</text><polygon fill="#181818" points="1608.2369,390.2495,1606.7843,380.5084,1605.5545,386.03,1600.0329,384.8002,1608.2369,390.2495" style="stroke:#181818;stroke-width:1.0;"/><path d="M1374.5836,166.3217 C1388.8158,170.8521 1403.0309,176.717 1415.5,184.2969 C1507.4443,240.1891 1579.551,345.1247 1605.018,385.186 " fill="none" style="stroke:#181818;stroke-width:1.0;stroke-dasharray:7.0,7.0;"/><text fill="#000000" font-family="sans-serif" font-size="13" lengthAdjust="spacing" textLength="55" x="1437.5" y="197.3638">depends</text><polygon fill="#181818" points="3827.2994,832.2558,3818.7575,827.3533,3822.3258,831.7427,3817.9365,835.3111,3827.2994,832.2558" style="stroke:#181818;stroke-width:1.0;"/><path d="M1513.3471,151.8994 C1887.8516,154.3963 2631.7414,166.1391 2887.5,219.2969 C3128.2248,269.33 3408.5,159.4275 3408.5,405.2969 C3408.5,405.2969 3408.5,405.2969 3408.5,748.2969 C3408.5,785.8544 3428.9154,796.4849 3462.5,813.2969 C3497.8172,830.9762 3778.1715,827.6724 3817.5,831.2969 C3820.7233,831.5939 3818.0281,831.2993 3821.3311,831.64 " fill="none" style="stroke:#181818;stroke-width:1.0;stroke-dasharray:7.0,7.0;"/><text fill="#000000" font-family="sans-serif" font-size="13" lengthAdjust="spacing" textLength="30" x="3409.5" y="666.8638">uses</text><polygon fill="#181818" points="3830.714,831.2951,3822.4608,825.9208,3825.7771,830.5036,3821.1943,833.8199,3830.714,831.2951" style="stroke:#181818;stroke-width:1.0;"/><path d="M1513.3432,152.7701 C1974.3337,156.7955 3009.0723,171.1349 3162.5,219.2969 C3317.2566,267.876 3476.5,243.0947 3476.5,405.2969 C3476.5,405.2969 3476.5,405.2969 3476.5,748.2969 C3476.5,780.1948 3359.5994,743.8157 3726.5,813.2969 C3760.3543,819.708 3791.6063,825.0249 3824.7897,830.3453 " fill="none" style="stroke:#181818;stroke-width:1.0;stroke-dasharray:7.0,7.0;"/><text fill="#000000" font-family="sans-serif" font-size="13" lengthAdjust="spacing" textLength="55" x="3477.5" y="666.8638">depends</text><polygon fill="#181818" points="2158.2729,390.105,2154.9016,380.8511,2154.8009,386.5071,2149.1449,386.4063,2158.2729,390.105" style="stroke:#181818;stroke-width:1.0;"/><path d="M1478.4725,166.3214 C1649.5636,180.9604 1882.7693,203.2895 1923.5,219.2969 C2025.6964,259.4605 2118.5934,348.9862 2154.1065,385.7875 " fill="none" style="stroke:#181818;stroke-width:1.0;stroke-dasharray:7.0,7.0;"/><text fill="#000000" font-family="sans-serif" font-size="13" lengthAdjust="spacing" textLength="30" x="1820.5" y="197.3638">uses</text><polygon fill="#181818" points="2158.6361,390.0543,2155.3957,380.7538,2155.2152,386.4078,2149.5612,386.2273,2158.6361,390.0543" style="stroke:#181818;stroke-width:1.0;"/><path d="M1513.2907,154.9136 C1642.6255,158.8544 1792.5774,167.0893 1855.5,184.2969 C1991.3968,221.4609 2113.5461,341.9905 2154.531,385.6785 " fill="none" style="stroke:#181818;stroke-width:1.0;stroke-dasharray:7.0,7.0;"/><text fill="#000000" font-family="sans-serif" font-size="13" lengthAdjust="spacing" textLength="55" x="1896.5" y="197.3638">depends</text><polygon fill="#181818" points="672.373,843.8956,663.4739,839.6759,667.3745,843.7729,663.2775,847.6735,672.373,843.8956" style="stroke:#181818;stroke-width:1.0;"/><path d="M1071.6109,154.0864 C886.9497,157.6959 638.5113,165.883 540.5,184.2969 C492.9828,193.2241 480.6685,197.524 437.5,219.2969 C308.0467,284.589 169.5,260.3099 169.5,405.2969 C169.5,405.2969 169.5,405.2969 169.5,705.7969 C169.5,777.4011 220.4808,794.2311 289.5,813.2969 C359.0849,832.5189 529.8789,840.3975 666.3748,843.7484 " fill="none" style="stroke:#181818;stroke-width:1.0;stroke-dasharray:7.0,7.0;"/><text fill="#000000" font-family="sans-serif" font-size="13" lengthAdjust="spacing" textLength="55" x="170.5" y="666.8638">depends</text><polygon fill="#181818" points="2022.9676,731.2142,2016.1492,724.1073,2018.3391,729.323,2013.1233,731.5129,2022.9676,731.2142" style="stroke:#181818;stroke-width:1.0;"/><path d="M1284.6213,166.3307 C1282.1477,171.8288 1279.7401,178.1983 1278.5,184.2969 C1260.3884,273.3629 1216.7755,526.582 1278.5,593.2969 C1330.0421,649.0062 1896.6644,603.7314 1959.5,646.2969 C1986.9819,664.9134 1967.2725,691.7237 1992.5,713.2969 C2001.3622,720.8754 2006.4016,724.4455 2017.4134,728.9448 " fill="none" style="stroke:#181818;stroke-width:1.0;stroke-dasharray:7.0,7.0;"/><text fill="#000000" font-family="sans-serif" font-size="13" lengthAdjust="spacing" textLength="55" x="1843.5" y="624.3638">depends</text><polygon fill="#181818" points="2430.2548,223.3124,2423.5744,216.0755,2425.6635,221.3325,2420.4066,223.4216,2430.2548,223.3124" style="stroke:#181818;stroke-width:1.0;"/><path d="M1513.1608,157.2996 C1817.6632,166.6975 2338.5855,187.1999 2420.5,219.2969 C2423.7615,220.5748 2421.5041,219.5389 2424.7453,220.9365 " fill="none" style="stroke:#181818;stroke-width:1.0;stroke-dasharray:7.0,7.0;"/><text fill="#000000" font-family="sans-serif" font-size="13" lengthAdjust="spacing" textLength="55" x="2305.5" y="197.3638">depends</text><polygon fill="#181818" points="2525.8064,731.2454,2518.045,725.1825,2520.9557,730.033,2516.1051,732.9437,2525.8064,731.2454" style="stroke:#181818;stroke-width:1.0;"/><path d="M1291.966,166.3347 C1289.4945,240.2517 1280.554,562.7372 1311.5,593.2969 C1334.9124,616.417 1870.8059,607.585 1903.5,611.2969 C2136.4342,637.7425 2402.6997,700.4762 2519.9855,729.7906 " fill="none" style="stroke:#181818;stroke-width:1.0;stroke-dasharray:7.0,7.0;"/><text fill="#000000" font-family="sans-serif" font-size="13" lengthAdjust="spacing" textLength="55" x="2027.5" y="624.3638">depends</text><polygon fill="#181818" points="675.3132,730.9368,683.5654,725.5608,678.0331,726.7413,676.8525,721.209,675.3132,730.9368" style="stroke:#181818;stroke-width:1.0;"/><path d="M1232.134,166.3625 C1197.3501,177.121 1154.1848,194.1915 1121.5,219.2969 C907.0496,384.0173 722.7454,657.7709 678.577,725.9022 " fill="none" style="stroke:#181818;stroke-width:1.0;stroke-dasharray:7.0,7.0;"/><text fill="#000000" font-family="sans-serif" font-size="13" lengthAdjust="spacing" textLength="55" x="756.5" y="624.3638">depends</text><polygon fill="#181818" points="1438.435,655.065,1429.6681,650.577,1433.4425,654.7905,1429.229,658.565,1438.435,655.065" style="stroke:#181818;stroke-width:1.0;"/><path d="M1248.9444,166.3223 C1225.0267,177.067 1197.4583,194.1371 1183.5,219.2969 C1102.8607,364.6486 1107.4398,445.4975 1183.5,593.2969 C1195.7462,617.0935 1207.3212,619.2262 1232.5,628.2969 C1271.4614,642.3328 1347.8689,650.0869 1432.444,654.7357 " fill="none" style="stroke:#181818;stroke-width:1.0;stroke-dasharray:7.0,7.0;"/><text fill="#000000" font-family="sans-serif" font-size="13" lengthAdjust="spacing" textLength="55" x="1184.5" y="410.8638">depends</text><polygon fill="#181818" points="1268.3853,929.1391,1259.4336,925.032,1263.3856,929.0795,1259.3382,933.0315,1268.3853,929.1391" style="stroke:#181818;stroke-width:1.0;"/><path d="M1071.6837,152.8953 C764.9302,156.8853 239.0352,170.8051 165.5,219.2969 C86.0676,271.6775 59.5,310.1484 59.5,405.2969 C59.5,405.2969 59.5,405.2969 59.5,848.2969 C59.5,889.8495 98.7369,886.2339 138.5,898.2969 C191.4375,914.3566 904.6896,924.8007 1262.3857,929.0675 " fill="none" style="stroke:#181818;stroke-width:1.0;stroke-dasharray:7.0,7.0;"/><text fill="#000000" font-family="sans-serif" font-size="13" lengthAdjust="spacing" textLength="55" x="60.5" y="709.3638">depends</text><polygon fill="#181818" points="175.024,915.9611,171.7404,906.6757,171.5862,912.3305,165.9314,912.1762,175.024,915.9611" style="stroke:#181818;stroke-width:1.0;"/><path d="M672.2036,850.8406 C475.3677,854.5572 182.8259,863.1149 165.5,881.2969 C155.972,891.2956 160.8149,900.9551 170.8986,911.6043 " fill="none" style="stroke:#181818;stroke-width:1.0;stroke-dasharray:7.0,7.0;"/><text fill="#000000" font-family="sans-serif" font-size="13" lengthAdjust="spacing" textLength="30" x="166.5" y="894.3638">uses</text><polygon fill="#181818" points="311.4235,916.2731,320.8538,919.1135,316.384,915.6464,319.8512,911.1766,311.4235,916.2731" style="stroke:#181818;stroke-width:1.0;"/><path d="M730.5223,863.3275 C611.7292,878.3349 436.1501,900.5161 317.3762,915.521 " fill="none" style="stroke:#181818;stroke-width:1.0;stroke-dasharray:7.0,7.0;"/><text fill="#000000" font-family="sans-serif" font-size="13" lengthAdjust="spacing" textLength="55" x="581.5" y="894.3638">depends</text><polygon fill="#181818" points="2483.3641,930.0266,2474.4317,925.8779,2478.3648,929.9437,2474.299,933.8768,2483.3641,930.0266" style="stroke:#181818;stroke-width:1.0;"/><path d="M1026.6668,857.3017 C1068.8825,859.3587 1113.7866,861.4741 1155.5,863.2969 C1363.899,872.4036 1416.5998,864.2498 1624.5,881.2969 C1684.7716,886.2389 1699.2324,893.306 1759.5,898.2969 C2019.8527,919.857 2321.6366,927.3448 2477.3649,929.9271 " fill="none" style="stroke:#181818;stroke-width:1.0;stroke-dasharray:7.0,7.0;"/><text fill="#000000" font-family="sans-serif" font-size="13" lengthAdjust="spacing" textLength="55" x="1760.5" y="894.3638">depends</text><polygon fill="none" points="1438.4025,677.6001,1419.9349,673.247,1421.0165,685.1981,1438.4025,677.6001" style="stroke:#181818;stroke-width:1.0;"/><path d="M1420.4757,679.2225 C1369.3199,683.8523 1334.0271,688.3157 1284.5,696.2969 C1231.6962,704.806 1172.4442,719.8723 1131.2737,731.2487 " fill="none" style="stroke:#181818;stroke-width:1.0;"/><polygon fill="#181818" points="1583.1281,678.3275,1573.674,675.5672,1578.1731,678.9963,1574.744,683.4953,1583.1281,678.3275" style="stroke:#181818;stroke-width:1.0;"/><path d="M1190.8211,731.2731 C1302.0022,716.2681 1465.983,694.1374 1577.182,679.13 " fill="none" style="stroke:#181818;stroke-width:1.0;stroke-dasharray:7.0,7.0;"/><text fill="#000000" font-family="sans-serif" font-size="13" lengthAdjust="spacing" textLength="55" x="1443.5" y="709.3638">depends</text><polygon fill="#181818" points="884.9737,831.182,894.8214,831.334,889.5736,829.2221,891.6855,823.9742,884.9737,831.182" style="stroke:#181818;stroke-width:1.0;"/><path d="M1044.0666,763.3946 C1000.8453,781.8106 933.733,810.4063 890.4935,828.8301 " fill="none" style="stroke:#181818;stroke-width:1.0;stroke-dasharray:7.0,7.0;"/><text fill="#000000" font-family="sans-serif" font-size="13" lengthAdjust="spacing" textLength="55" x="1000.5" y="801.8638">depends</text><polygon fill="#181818" points="1438.96,916.2093,1432.8472,908.487,1434.532,913.8872,1429.1318,915.572,1438.96,916.2093" style="stroke:#181818;stroke-width:1.0;"/><path d="M1119.9472,763.3949 C1133.8556,768.7955 1149.4568,775.0869 1163.5,781.2969 C1266.5751,826.8771 1380.237,885.4146 1433.6463,913.4228 " fill="none" style="stroke:#181818;stroke-width:1.0;stroke-dasharray:7.0,7.0;"/><text fill="#000000" font-family="sans-serif" font-size="13" lengthAdjust="spacing" textLength="55" x="1335.5" y="851.8638">depends</text><polygon fill="none" points="1673.9078,678.5002,1655.7583,684.0314,1662.7069,693.8149,1673.9078,678.5002" style="stroke:#181818;stroke-width:1.0;"/><path d="M1659.2326,688.9231 C1644.3267,699.51 1638.111,703.083 1618.5,713.2969 C1605.8469,719.8869 1591.5688,726.0023 1578.4677,731.1331 " fill="none" style="stroke:#181818;stroke-width:1.0;"/><polygon fill="#181818" points="1587.9859,678.3342,1578.1403,678.0785,1583.3656,680.2456,1581.1985,685.4709,1587.9859,678.3342" style="stroke:#181818;stroke-width:1.0;"/><path d="M1538.432,730.9898 C1541.3714,719.7816 1547.0227,705.0563 1557.5,696.2969 C1566.5094,688.7647 1571.4124,685.1906 1582.4416,680.6279 " fill="none" style="stroke:#181818;stroke-width:1.0;stroke-dasharray:7.0,7.0;"/><text fill="#000000" font-family="sans-serif" font-size="13" lengthAdjust="spacing" textLength="55" x="1558.5" y="709.3638">depends</text><polygon fill="#181818" points="2483.2511,930.2091,2474.3218,926.0537,2478.2519,930.1225,2474.1831,934.0525,2483.2511,930.2091" style="stroke:#181818;stroke-width:1.0;"/><path d="M1566.1315,763.3543 C1575.0765,768.441 1584.5709,774.5586 1592.5,781.2969 C1603.4493,790.6018 1624.8665,819.8107 1633.5,831.2969 C1643.87,845.0933 1640.7286,854.3705 1655.5,863.2969 C1684.4223,880.7747 1773.0583,876.4357 1806.5,881.2969 C1850.6797,887.719 1861.1225,893.4265 1905.5,898.2969 C2109.7777,920.716 2344.2987,927.8003 2477.252,930.1051 " fill="none" style="stroke:#181818;stroke-width:1.0;stroke-dasharray:7.0,7.0;"/><text fill="#000000" font-family="sans-serif" font-size="13" lengthAdjust="spacing" textLength="55" x="1656.5" y="851.8638">depends</text><polygon fill="#181818" points="954.5824,831.2851,964.0576,833.9721,959.5321,830.578,962.9262,826.0525,954.5824,831.2851" style="stroke:#181818;stroke-width:1.0;"/><path d="M1430.1905,763.3411 C1301.0834,781.785 1089.5254,812.0075 960.5221,830.4366 " fill="none" style="stroke:#181818;stroke-width:1.0;stroke-dasharray:7.0,7.0;"/><text fill="#000000" font-family="sans-serif" font-size="13" lengthAdjust="spacing" textLength="55" x="1295.5" y="801.8638">depends</text><polygon fill="#181818" points="1464.3019,915.9826,1466.6675,906.4221,1463.4281,911.0596,1458.7906,907.8202,1464.3019,915.9826" style="stroke:#181818;stroke-width:1.0;"/><path d="M1501.5402,763.3179 C1493.9697,768.0862 1486.6665,774.0507 1481.5,781.2969 C1452.1947,822.3982 1458.0705,880.8749 1463.2533,910.075 " fill="none" style="stroke:#181818;stroke-width:1.0;stroke-dasharray:7.0,7.0;"/><text fill="#000000" font-family="sans-serif" font-size="13" lengthAdjust="spacing" textLength="55" x="1463.5" y="851.8638">depends</text><polygon fill="none" points="1950.6661,677.414,1968.0202,685.0844,1969.1516,673.1379,1950.6661,677.414" style="stroke:#181818;stroke-width:1.0;"/><path d="M1968.5859,679.1111 C2018.6405,683.8517 2045.2013,688.3331 2069.5,696.2969 C2083.3344,700.8311 2083.6207,708.902 2097.5,713.2969 C2103.9505,715.3394 2225.238,723.5612 2345.1434,731.2864 " fill="none" style="stroke:#181818;stroke-width:1.0;"/><polygon fill="#181818" points="1879.3562,678.3373,1887.6639,683.6271,1884.301,679.0784,1888.8497,675.7155,1879.3562,678.3373" style="stroke:#181818;stroke-width:1.0;"/><path d="M2338.2318,731.8564 C2334.9677,731.6685 2331.7224,731.4819 2328.5,731.2969 C2257.3936,727.2138 2077.8637,729.467 2008.5,713.2969 C1989.6877,708.9113 1987.1632,701.279 1968.5,696.2969 C1940.0303,688.6969 1915.3599,683.7333 1885.2899,679.2266 " fill="none" style="stroke:#181818;stroke-width:1.0;stroke-dasharray:7.0,7.0;"/><text fill="#000000" font-family="sans-serif" font-size="13" lengthAdjust="spacing" textLength="55" x="2009.5" y="709.3638">depends</text><polygon fill="#181818" points="2584.5,916.1814,2588.5,907.1814,2584.5,911.1814,2580.5,907.1814,2584.5,916.1814" style="stroke:#181818;stroke-width:1.0;"/><path d="M2584.5,763.5846 C2584.5,798.1175 2584.5,875.8126 2584.5,910.1814 " fill="none" style="stroke:#181818;stroke-width:1.0;stroke-dasharray:7.0,7.0;"/><text fill="#000000" font-family="sans-serif" font-size="13" lengthAdjust="spacing" textLength="55" x="2585.5" y="851.8638">depends</text><polygon fill="#181818" points="1026.649,836.8458,1035.8316,840.4067,1031.6432,836.6044,1035.4454,832.4161,1026.649,836.8458" style="stroke:#181818;stroke-width:1.0;"/><path d="M2344.9838,763.3022 C2254.4518,769.3886 2162.6599,776.1752 2118.5,781.2969 C2029.9517,791.5667 2009.2659,805.1182 1920.5,813.2969 C1581.8403,844.5001 1495.3706,818.9702 1155.5,831.2969 C1113.7742,832.8102 1074.8584,834.5163 1032.642,836.5562 " fill="none" style="stroke:#181818;stroke-width:1.0;stroke-dasharray:7.0,7.0;"/><text fill="#000000" font-family="sans-serif" font-size="13" lengthAdjust="spacing" textLength="55" x="2119.5" y="801.8638">depends</text><polygon fill="#181818" points="1540.741,916.2606,1550.4136,918.1156,1545.6107,915.1268,1548.5995,910.324,1540.741,916.2606" style="stroke:#181818;stroke-width:1.0;"/><path d="M2482.282,763.3099 C2388.7201,776.9013 2246.3983,797.1982 2122.5,813.2969 C2055.4772,822.0054 2035.5956,809.8573 1971.5,831.2969 C1944.6798,840.268 1943.5415,855.0169 1916.5,863.2969 C1802.7756,898.1185 1765.4126,854.6503 1649.5,881.2969 C1629.8741,885.8086 1626.6899,892.1911 1607.5,898.2969 C1586.0834,905.1111 1568.2656,909.8522 1546.5847,914.9001 " fill="none" style="stroke:#181818;stroke-width:1.0;stroke-dasharray:7.0,7.0;"/><text fill="#000000" font-family="sans-serif" font-size="13" lengthAdjust="spacing" textLength="55" x="1972.5" y="851.8638">depends</text><polygon fill="#181818" points="2363.4157,831.1654,2373.2619,831.3963,2368.0312,829.2424,2370.1851,824.0117,2363.4157,831.1654" style="stroke:#181818;stroke-width:1.0;"/><path d="M2538.9094,763.421 C2522.9052,768.8748 2504.8451,775.1929 2488.5,781.2969 C2445.1538,797.4842 2401.4431,815.3213 2368.9542,828.8578 " fill="none" style="stroke:#181818;stroke-width:1.0;stroke-dasharray:7.0,7.0;"/><text fill="#000000" font-family="sans-serif" font-size="13" lengthAdjust="spacing" textLength="55" x="2489.5" y="801.8638">depends</text><polygon fill="none" points="1798.6236,678.3898,1814.8927,688.1529,1817.4967,676.4389,1798.6236,678.3898" style="stroke:#181818;stroke-width:1.0;"/><path d="M1816.1947,682.2959 C1836.7468,686.8646 1840.3099,688.82 1859.5,696.2969 C1873.0653,701.5822 1873.8261,708.2993 1887.5,713.2969 C1908.3075,720.9016 1930.8963,726.7541 1953.3015,731.2581 " fill="none" style="stroke:#181818;stroke-width:1.0;"/><polygon fill="#181818" points="1827.8733,678.3345,1835.737,684.2643,1832.744,679.4641,1837.5442,676.4711,1827.8733,678.3345" style="stroke:#181818;stroke-width:1.0;"/><path d="M1964.1723,731.2562 C1944.7292,726.7517 1925.2932,720.8995 1907.5,713.2969 C1895.8109,708.3024 1896.1869,701.2965 1884.5,696.2969 C1866.7237,688.6922 1853.1435,684.1946 1833.7182,679.69 " fill="none" style="stroke:#181818;stroke-width:1.0;stroke-dasharray:7.0,7.0;"/><text fill="#000000" font-family="sans-serif" font-size="13" lengthAdjust="spacing" textLength="55" x="1908.5" y="709.3638">depends</text><polygon fill="#181818" points="1026.6584,838.8075,1035.8567,842.3276,1031.6515,838.544,1035.4351,834.3387,1026.6584,838.8075" style="stroke:#181818;stroke-width:1.0;"/><path d="M1876.6518,759.5844 C1754.7904,766.221 1616.3442,774.5968 1555.5,781.2969 C1466.0214,791.1502 1444.9566,803.2456 1355.5,813.2969 C1246.5832,825.5347 1129.9201,833.3581 1032.6501,838.4913 " fill="none" style="stroke:#181818;stroke-width:1.0;stroke-dasharray:7.0,7.0;"/><text fill="#000000" font-family="sans-serif" font-size="13" lengthAdjust="spacing" textLength="55" x="1556.5" y="801.8638">depends</text><polygon fill="#181818" points="2483.4412,925.788,2474.7038,921.2429,2478.4506,925.481,2474.2125,929.2278,2483.4412,925.788" style="stroke:#181818;stroke-width:1.0;"/><path d="M2080.4348,763.5337 C2054.6934,787.0362 2013.4188,832.6198 2040.5,863.2969 C2069.2786,895.8967 2328.2062,916.2374 2477.4525,925.4196 " fill="none" style="stroke:#181818;stroke-width:1.0;stroke-dasharray:7.0,7.0;"/><text fill="#000000" font-family="sans-serif" font-size="13" lengthAdjust="spacing" textLength="55" x="2041.5" y="851.8638">depends</text><polygon fill="#181818" points="1508.9128,916.2708,1518.729,917.0712,1513.6317,914.6181,1516.0848,909.5209,1508.9128,916.2708" style="stroke:#181818;stroke-width:1.0;"/><path d="M1982.6136,763.3748 C1967.8773,767.8873 1953.4433,773.7317 1940.5,781.2969 C1924.1845,790.8331 1929.2388,804.5249 1912.5,813.2969 C1849.8987,846.103 1819.4125,803.341 1754.5,831.2969 C1734.2211,840.0304 1736.4428,853.821 1716.5,863.2969 C1677.6854,881.7398 1663.1311,870.6403 1621.5,881.2969 C1582.8306,891.1953 1545.3404,903.5135 1514.5755,914.2876 " fill="none" style="stroke:#181818;stroke-width:1.0;stroke-dasharray:7.0,7.0;"/><text fill="#000000" font-family="sans-serif" font-size="13" lengthAdjust="spacing" textLength="55" x="1755.5" y="851.8638">depends</text><polygon fill="#181818" points="2292.1805,831.182,2285.4801,823.9637,2287.5838,829.2148,2282.3326,831.3185,2292.1805,831.182" style="stroke:#181818;stroke-width:1.0;"/><path d="M2133.7794,763.3946 C2176.8127,781.8106 2243.6129,810.3976 2286.6644,828.8214 " fill="none" style="stroke:#181818;stroke-width:1.0;stroke-dasharray:7.0,7.0;"/><text fill="#000000" font-family="sans-serif" font-size="13" lengthAdjust="spacing" textLength="55" x="2248.5" y="801.8638">depends</text><polygon fill="#181818" points="672.4455,844.0001,663.5922,839.6852,667.4486,843.8238,663.3101,847.6802,672.4455,844.0001" style="stroke:#181818;stroke-width:1.0;"/><path d="M417.5368,678.3968 C397.0272,689.7528 372.3686,707.4541 360.5,731.2969 C340.7211,771.0306 376.5875,796.0882 417.5,813.2969 C462.7409,832.3262 568.121,840.3183 666.4493,843.7885 " fill="none" style="stroke:#181818;stroke-width:1.0;stroke-dasharray:7.0,7.0;"/><text fill="#000000" font-family="sans-serif" font-size="13" lengthAdjust="spacing" textLength="55" x="361.5" y="751.8638">depends</text><polygon fill="#181818" points="2483.2525,927.8845,2474.3927,923.5829,2478.2553,927.7157,2474.1225,931.5783,2483.2525,927.8845" style="stroke:#181818;stroke-width:1.0;"/><path d="M401.0482,678.4418 C390.0321,683.1359 378.8573,689.0358 369.5,696.2969 C322.8408,732.5034 267.743,768.7335 306.5,813.2969 C390.4566,909.8315 891.0104,872.3331 1624.5,898.2969 C1937.6138,909.3804 2302.1971,921.7666 2477.2559,927.6819 " fill="none" style="stroke:#181818;stroke-width:1.0;stroke-dasharray:7.0,7.0;"/><text fill="#000000" font-family="sans-serif" font-size="13" lengthAdjust="spacing" textLength="55" x="307.5" y="801.8638">depends</text><polygon fill="#181818" points="626.4921,731.238,619.5366,724.2651,621.8276,729.4373,616.6555,731.7283,626.4921,731.238" style="stroke:#181818;stroke-width:1.0;"/><path d="M489.4349,678.3275 C528.2791,693.3232 582.0249,714.0716 620.8947,729.0772 " fill="none" style="stroke:#181818;stroke-width:1.0;stroke-dasharray:7.0,7.0;"/><text fill="#000000" font-family="sans-serif" font-size="13" lengthAdjust="spacing" textLength="55" x="578.5" y="709.3638">depends</text><polygon fill="#181818" points="1268.4186,929.5417,1259.4592,925.4516,1263.4188,929.4915,1259.3789,933.4512,1268.4186,929.5417" style="stroke:#181818;stroke-width:1.0;"/><path d="M281.2206,678.3554 C263.9874,682.9496 247.1029,688.8185 231.5,696.2969 C145.2794,737.6215 85.7511,835.1001 157.5,898.2969 C178.0199,916.3709 900.9858,925.8525 1262.4189,929.4815 " fill="none" style="stroke:#181818;stroke-width:1.0;stroke-dasharray:7.0,7.0;"/><text fill="#000000" font-family="sans-serif" font-size="13" lengthAdjust="spacing" textLength="55" x="140.5" y="801.8638">depends</text><polygon fill="none" points="1796.4247,678.3561,1812.3028,688.7429,1815.3592,677.1387,1796.4247,678.3561" style="stroke:#181818;stroke-width:1.0;"/><path d="M1813.831,682.9408 C1831.478,687.5889 1828.6486,688.9059 1834.5,696.2969 C1844.8753,709.4021 1840.8047,740.7196 1824.5,763.2969 C1819.2095,770.6227 1811.7585,776.5479 1803.9547,781.2459 " fill="none" style="stroke:#181818;stroke-width:1.0;"/><polygon fill="#181818" points="1718.6199,678.5378,1724.0378,686.7626,1722.8292,681.2364,1728.3554,680.0278,1718.6199,678.5378" style="stroke:#181818;stroke-width:1.0;"/><path d="M1781.278,781.0713 C1785.4057,775.8518 1789.348,769.7013 1791.5,763.2969 C1796.03,749.8154 1798.0636,743.914 1791.5,731.2969 C1787.4662,723.5427 1751.0659,699.3387 1723.671,681.7761 " fill="none" style="stroke:#181818;stroke-width:1.0;stroke-dasharray:7.0,7.0;"/><text fill="#000000" font-family="sans-serif" font-size="13" lengthAdjust="spacing" textLength="55" x="1771.5" y="709.3638">depends</text><polygon fill="#181818" points="2483.3943,930.2765,2474.476,926.0973,2478.3953,930.1765,2474.3161,934.0957,2483.3943,930.2765" style="stroke:#181818;stroke-width:1.0;"/><path d="M1787.8054,813.5011 C1814.0235,832.1644 1855.5775,861.5734 1859.5,863.2969 C1925.3482,892.2304 1946.2599,888.398 2017.5,898.2969 C2179.5031,920.8074 2363.6161,927.8813 2477.3955,930.1565 " fill="none" style="stroke:#181818;stroke-width:1.0;stroke-dasharray:7.0,7.0;"/><text fill="#000000" font-family="sans-serif" font-size="13" lengthAdjust="spacing" textLength="55" x="1860.5" y="851.8638">depends</text><polygon fill="#181818" points="1479.0447,916.232,1487.8082,911.7374,1482.1835,912.34,1481.5809,906.7153,1479.0447,916.232" style="stroke:#181818;stroke-width:1.0;"/><path d="M1625.8423,813.324 C1608.7431,817.8591 1591.8964,823.723 1576.5,831.2969 C1534.5605,851.9279 1500.9282,889.097 1482.8113,911.5615 " fill="none" style="stroke:#181818;stroke-width:1.0;stroke-dasharray:7.0,7.0;"/><text fill="#000000" font-family="sans-serif" font-size="13" lengthAdjust="spacing" textLength="55" x="1577.5" y="851.8638">depends</text><polygon fill="#181818" points="1292.5,134.1699,1296.5,125.1699,1292.5,129.1699,1288.5,125.1699,1292.5,134.1699" style="stroke:#181818;stroke-width:1.0;"/><path d="M1292.5,81.5204 C1292.5,96.4962 1292.5,113.2275 1292.5,128.1699 " fill="none" style="stroke:#181818;stroke-width:1.0;stroke-dasharray:7.0,7.0;"/><text fill="#000000" font-family="sans-serif" font-size="13" lengthAdjust="spacing" textLength="30" x="1293.5" y="112.3638">uses</text><polygon fill="#181818" points="3902.5007,831.123,3896.5615,823.2665,3898.1255,828.7028,3892.6891,830.2668,3902.5007,831.123" style="stroke:#181818;stroke-width:1.0;"/><path d="M3765.5784,763.3874 C3778.662,768.7873 3793.3266,775.0803 3806.5,781.2969 C3840.1376,797.1706 3872.5656,814.5641 3897.2504,828.2188 " fill="none" style="stroke:#181818;stroke-width:1.0;stroke-dasharray:7.0,7.0;"/><text fill="#000000" font-family="sans-serif" font-size="13" lengthAdjust="spacing" textLength="30" x="3869.5" y="801.8638">uses</text><polygon fill="#181818" points="3827.4877,832.6504,3819.2138,827.308,3822.5477,831.8779,3817.9778,835.2119,3827.4877,832.6504" style="stroke:#181818;stroke-width:1.0;"/><path d="M3727.3535,763.5393 C3728.0833,778.4415 3731.6528,800.6772 3745.5,813.2969 C3752.2614,819.4589 3782.831,825.6673 3821.5598,831.7234 " fill="none" style="stroke:#181818;stroke-width:1.0;stroke-dasharray:7.0,7.0;"/><text fill="#000000" font-family="sans-serif" font-size="13" lengthAdjust="spacing" textLength="55" x="3746.5" y="801.8638">depends</text><polygon fill="#181818" points="2685.7165,931.9369,2694.7119,935.9471,2690.7165,931.9426,2694.721,927.9471,2685.7165,931.9369" style="stroke:#181818;stroke-width:1.0;"/><path d="M3504.4693,753.5481 C3395.3415,758.024 3282.9854,766.2499 3262.5,781.2969 C3217.468,814.374 3261.839,865.6418 3216.5,898.2969 C3174.5974,928.4769 2859.3975,932.1339 2691.7165,931.9437 " fill="none" style="stroke:#181818;stroke-width:1.0;stroke-dasharray:7.0,7.0;"/><text fill="#000000" font-family="sans-serif" font-size="13" lengthAdjust="spacing" textLength="55" x="3241.5" y="851.8638">depends</text><polygon fill="#181818" points="2685.576,929.9807,2694.6512,933.807,2690.575,929.8846,2694.4974,925.8084,2685.576,929.9807" style="stroke:#181818;stroke-width:1.0;"/><path d="M3490.3051,863.3132 C3429.0158,874.7902 3340.5529,890.006 3262.5,898.2969 C3058.4457,919.9717 2824.3065,927.3129 2691.5749,929.8654 " fill="none" style="stroke:#181818;stroke-width:1.0;stroke-dasharray:7.0,7.0;"/><text fill="#000000" font-family="sans-serif" font-size="13" lengthAdjust="spacing" textLength="55" x="3381.5" y="894.3638">depends</text><polygon fill="#181818" points="3939.2189,831.275,3947.6675,826.2132,3942.0947,827.1848,3941.1232,821.6119,3939.2189,831.275" style="stroke:#181818;stroke-width:1.0;"/><path d="M4035.3206,763.3275 C4019.6897,767.8862 4004.4101,773.7549 3990.5,781.2969 C3968.4604,793.2466 3953.3381,811.1935 3942.6698,826.3667 " fill="none" style="stroke:#181818;stroke-width:1.0;stroke-dasharray:7.0,7.0;"/><text fill="#000000" font-family="sans-serif" font-size="13" lengthAdjust="spacing" textLength="30" x="3991.5" y="801.8638">uses</text><polygon fill="#181818" points="3986.8004,831.143,3996.6326,831.7147,3991.4796,829.381,3993.8133,824.2279,3986.8004,831.143" style="stroke:#181818;stroke-width:1.0;"/><path d="M4090.6328,763.3665 C4076.625,767.8796 4062.7083,773.727 4050.5,781.2969 C4034.4389,791.2557 4038.1348,802.6813 4022.5,813.2969 C4011.7279,820.6108 4004.7703,824.3761 3992.4155,829.0286 " fill="none" style="stroke:#181818;stroke-width:1.0;stroke-dasharray:7.0,7.0;"/><text fill="#000000" font-family="sans-serif" font-size="13" lengthAdjust="spacing" textLength="55" x="4051.5" y="801.8638">depends</text><polygon fill="#181818" points="2685.6652,930.0603,2694.7195,933.9358,2690.6647,929.9913,2694.6092,925.9365,2685.6652,930.0603" style="stroke:#181818;stroke-width:1.0;"/><path d="M4163.8327,763.7078 C4142.698,790.1783 4095.1675,843.358 4040.5,863.2969 C3914.2408,909.3474 3000.8922,925.7131 2691.6646,929.9775 " fill="none" style="stroke:#181818;stroke-width:1.0;stroke-dasharray:7.0,7.0;"/><text fill="#000000" font-family="sans-serif" font-size="13" lengthAdjust="spacing" textLength="55" x="4097.5" y="851.8638">depends</text><polygon fill="none" points="2997.4355,831.2135,3015.8053,826.4646,3009.282,816.3925,2997.4355,831.2135" style="stroke:#181818;stroke-width:1.0;"/><path d="M3012.5436,821.4285 C3019.8655,816.6864 3011.7242,820.5346 3016.5,813.2969 C3026.3097,798.4304 3027.8772,777.5455 3027.605,763.4976 " fill="none" style="stroke:#181818;stroke-width:1.0;"/><polygon fill="#181818" points="2956.4248,831.1359,2956.9185,821.2994,2954.6257,826.4708,2949.4543,824.178,2956.4248,831.1359" style="stroke:#181818;stroke-width:1.0;"/><path d="M2975.1976,763.3491 C2967.3812,767.8768 2960.325,773.7336 2955.5,781.2969 C2945.9606,796.2502 2948.8591,811.518 2954.2659,825.5378 " fill="none" style="stroke:#181818;stroke-width:1.0;stroke-dasharray:7.0,7.0;"/><text fill="#000000" font-family="sans-serif" font-size="13" lengthAdjust="spacing" textLength="55" x="2956.5" y="801.8638">depends</text><polygon fill="#181818" points="3827.3058,832.1837,3818.7333,827.3348,3822.3291,831.7017,3817.9621,835.2975,3827.3058,832.1837" style="stroke:#181818;stroke-width:1.0;"/><path d="M3073.0766,763.3486 C3123.9238,779.0173 3208.0461,802.718 3282.5,813.2969 C3518.0465,846.7649 3580.4143,811.4817 3817.5,831.2969 C3820.7257,831.5665 3818.0289,831.2853 3821.3337,831.6053 " fill="none" style="stroke:#181818;stroke-width:1.0;stroke-dasharray:7.0,7.0;"/><text fill="#000000" font-family="sans-serif" font-size="13" lengthAdjust="spacing" textLength="30" x="3283.5" y="801.8638">uses</text><polygon fill="#181818" points="3827.3044,832.2,3818.7388,827.339,3822.3284,831.711,3817.9564,835.3006,3827.3044,832.2" style="stroke:#181818;stroke-width:1.0;"/><path d="M3166.5271,761.8667 C3236.3973,769.0668 3307.5965,777.2442 3314.5,781.2969 C3329.6044,790.1639 3322.0672,805.0148 3337.5,813.2969 C3384.5269,838.5341 3764.3233,826.7494 3817.5,831.2969 C3820.7252,831.5727 3818.0287,831.2885 3821.3332,831.6132 " fill="none" style="stroke:#181818;stroke-width:1.0;stroke-dasharray:7.0,7.0;"/><text fill="#000000" font-family="sans-serif" font-size="13" lengthAdjust="spacing" textLength="55" x="3338.5" y="801.8638">depends</text><polygon fill="#181818" points="2597.9546,916.2761,2606.9648,912.299,2601.3146,912.5733,2601.0403,906.9231,2597.9546,916.2761" style="stroke:#181818;stroke-width:1.0;"/><path d="M2896.5841,763.318 C2830.5556,774.9872 2750.8886,795.4945 2686.5,831.2969 C2666.1266,842.6252 2624.6993,886.8024 2601.9865,911.8327 " fill="none" style="stroke:#181818;stroke-width:1.0;stroke-dasharray:7.0,7.0;"/><text fill="#000000" font-family="sans-serif" font-size="13" lengthAdjust="spacing" textLength="55" x="2687.5" y="851.8638">depends</text><polygon fill="#181818" points="2653.2628,916.238,2662.9101,918.2201,2658.147,915.1684,2661.1987,910.4053,2653.2628,916.238" style="stroke:#181818;stroke-width:1.0;"/><path d="M2894.866,863.3275 C2826.3918,878.3232 2727.6433,899.9489 2659.1239,914.9544 " fill="none" style="stroke:#181818;stroke-width:1.0;stroke-dasharray:7.0,7.0;"/><text fill="#000000" font-family="sans-serif" font-size="13" lengthAdjust="spacing" textLength="55" x="2809.5" y="894.3638">depends</text><!--SRC=[pLfjRzis4FwkNy5rtP1YiBeC-sIq7PgaMGDaQL076BOW42ZfBBEHI86YdNZT_lj8-IMoGxsHLD9lDdLtpprtnxUJliivJZACKhnaSu6A30Ics1D4f80e3bFCevaVCGv-Z0MUCfvX8V_J1N31U3aebZdubpYwXVW48fBXr2jk2SqnnncAKbmKxuNW99mBE9EQ4_8Fe9yh8hbKnGbCn59YSeYa1qaA5O5G2YISpMbyp5B6qTsCYEhpOePZTaTeWgOuBQfFKa91kOSO5pFcpKWC2B9SB546MGYyyBpIGVJ2cEiBX0jq76pq0wKVFEW7M_rWen_iwAFhwzSB0dV0N_-MiNYUmjkDhP6oDNgmzMFfwrjZLszkqFVd99c9lo1DsHtwwg4HAaX28KPZ53AM0gRbM8HbAiQ8KA7-gWHTa30inuwMClPoC8OfdgT20KoaYTNpIrOGGHQjSXUGu3svl9_08oJa-nxw2RqXb8Xt1w_a-8AHM0sf4O9JMNO7dy8lihwkRzJZtOgLSklmVQAV0SS7eRIw4ZmYYKxgJowhS6rHYQqKb4W1DM4vEAC24k1Q-4TQcnWqQYMrMg-seT58RJsgIaaF9cKr7AnheSdFbPq3fLidTjAK-lwQMv_rclzvb0b0WkM8JQrcv1XXBiWKHsACwkQYXyD2S2c231OGHM0YEE3iH0vDvdakroU3XKHhPzW5HGif5vQlClu6aLZLc-s2gh4oR1GqWEOnM1lu26aEt83zZlwml7UWEZ8-9VSGdmDDn4oLp6UG0l5f-KoqystMTiYs6QWZrpEwa1jDh0oiL3_SHv0BmcWRptfDXnphGJhocoofmFSVE6UyCpETZaDEElDDREQ2fFxHdAHnJV4fWM0jqEQdrhagWlcge1RQmd1FA8RV0mexPfKjH5uDQ6A_-PLcddJlAn7NOR0v3IXZL_A7oTA_LXrurL-ZcAVyOgvkMwk8cM_p6Yl34jS0ciVWRqPjpZXLzM5PLv7wbhTcw-nulAtNTCYs7gGchtAX4oihKvBASz-g56ech19UyLB2mQvm4mkbA4NtlMy4TtBwUbbzJ5JlHTwlx8vaWSxaavtJVlZbLnr-xrbRCNAy6Po04BssgWOZWypW1hoE0JWlsu2dijekCIzaVLonMsWzuUrh1QMMGuhx03BB9SIQ5Q4oy_Aw3llCKfRuvon9Qavwyd6mUcnqpdkmtctngAH7KJbLdLUWukLXopfIenSSsYyfDQPbV0zhAoRB6FNn0fCKXoGbOkbFW2z81EyhOySpY6u_OXgdkjWh4q7LHD1YeZa_ojm8pyNiSPfwEzjC6-wZT5x81KLEEi6PFERZWaGVDgF7gz4_CCL9BUzz6q6JZGx4z-sDliHXL1E9NlutXo87df6YaBSj_tBxiqFQ7_G2lPvThblTQcPr1w4lSEAh3UKA9pKSf5GWfOArL9F7qxkHb1v9wHg7zn3R3rmxMhy31KwYxGkMGfgeFN3j-DwWwOHFW_qrHyz5i_FDlwEHJRFNisaK-_ux9ntRCOeX1neNGtgZxSCCXxpJHdaIWWqjj2V1RstDcdgnlK8O5Bksu9pCF8DeR7YuIOT1D3HzUy_-LKF_IEo_RpAiYvtg6cmIjiCud8GDRO2sV3VV33tpbmmjb1jSxaIv1PtPiDRVniVgBRR0X1R3HSNCB_jmwTogNFJ6Q5x0eFQ7eT2xmJ08KGCl1W-7-Rd6LG3qFThdSS5WPt7kWwvF_poUz3jnE8UtEEtR-MAx2sldL0jcJHUmVHro2kQId9FJaxDhQ_dMrJDv6VpSrzHENZYzddP27E2-w3JP-w-QFGVlnx-5KkZar11phrC8dDTXNmU-vRBKxEoU_TdWkOkogqzEQj8W04vBqW1_W8fqKmPksclEPaVr-EzPt1oUUpxqSSPfRRO2Evc1VUWDKFgMgJQe-OO6rM3PxOdPFx7cfAplYURGpxQtDtwQv7N-XcdGbQa_T7lLMD7fcwtEtsrOjKwrD-h-NrGOz4a70D7Ml1kSBakAmGSPLb3j7p-OfiM1PTTkTuvAbqyI7X_7T5zYUEtVQZpojBCBNIZKedHCOsyxTYuvJL4FWFy1]--></g></svg>