<?xml version="1.0" encoding="us-ascii" standalone="no"?><svg xmlns="http://www.w3.org/2000/svg" xmlns:xlink="http://www.w3.org/1999/xlink" contentStyleType="text/css" height="494px" preserveAspectRatio="none" style="width:6147px;height:494px;background:#FFFFFF;" version="1.1" viewBox="0 0 6147 494" width="6147px" zoomAndPan="magnify"><defs/><g><text fill="#000000" font-family="sans-serif" font-size="14" font-weight="bold" lengthAdjust="spacing" textLength="327" x="2897.5" y="22.9951">nablarch.common.web.csrf.CsrfTokenUtil</text><!--class C_nablarch_common_web_csrf_CsrfTokenUtil--><a href="/viewer/?module=nablarch-fw-web&amp;class=nablarch.common.web.csrf.CsrfTokenUtil" target="_top" title="/viewer/?module=nablarch-fw-web&amp;class=nablarch.common.web.csrf.CsrfTokenUtil" xlink:actuate="onRequest" xlink:href="/viewer/?module=nablarch-fw-web&amp;class=nablarch.common.web.csrf.CsrfTokenUtil" xlink:show="new" xlink:title="/viewer/?module=nablarch-fw-web&amp;class=nablarch.common.web.csrf.CsrfTokenUtil" xlink:type="simple"><g id="elem_C_nablarch_common_web_csrf_CsrfTokenUtil"><rect codeLine="10" fill="#FFFFE0" height="121.4844" id="C_nablarch_common_web_csrf_CsrfTokenUtil" rx="2.5" ry="2.5" style="stroke:#181818;stroke-width:0.5;" width="345" x="1178.7971" y="111.2969"/><ellipse cx="1207.7471" cy="127.2969" fill="#ADD1B2" rx="11" ry="11" style="stroke:#181818;stroke-width:1.0;"/><path d="M1210.7158,132.9375 Q1210.1377,133.2344 1209.4971,133.375 Q1208.8564,133.5313 1208.1533,133.5313 Q1205.6533,133.5313 1204.3252,131.8906 Q1203.0127,130.2344 1203.0127,127.1094 Q1203.0127,123.9844 1204.3252,122.3281 Q1205.6533,120.6719 1208.1533,120.6719 Q1208.8564,120.6719 1209.4971,120.8281 Q1210.1533,120.9844 1210.7158,121.2813 L1210.7158,124 Q1210.0908,123.4219 1209.4971,123.1563 Q1208.9033,122.875 1208.2783,122.875 Q1206.9346,122.875 1206.2471,123.9531 Q1205.5596,125.0156 1205.5596,127.1094 Q1205.5596,129.2031 1206.2471,130.2813 Q1206.9346,131.3438 1208.2783,131.3438 Q1208.9033,131.3438 1209.4971,131.0781 Q1210.0908,130.7969 1210.7158,130.2188 L1210.7158,132.9375 Z " fill="#000000"/><text fill="#000000" font-family="sans-serif" font-size="14" lengthAdjust="spacing" textLength="282" x="1224.8471" y="132.1436">nablarch.common.web.csrf.CsrfTokenUtil</text><line style="stroke:#181818;stroke-width:0.5;" x1="1179.7971" x2="1522.7971" y1="143.2969" y2="143.2969"/><text fill="#000000" font-family="sans-serif" font-size="14" lengthAdjust="spacing" textLength="100" x="1184.7971" y="160.292">-&lt;init&gt;() : void</text><text fill="#000000" font-family="sans-serif" font-size="14" lengthAdjust="spacing" text-decoration="underline" textLength="291" x="1184.7971" y="176.5889">+getCsrfToken(ExecutionContext) : String</text><text fill="#000000" font-family="sans-serif" font-size="14" lengthAdjust="spacing" text-decoration="underline" textLength="188" x="1184.7971" y="192.8857">+getHeaderName() : String</text><text fill="#000000" font-family="sans-serif" font-size="14" lengthAdjust="spacing" text-decoration="underline" textLength="209" x="1184.7971" y="209.1826">+getParameterName() : String</text><text fill="#000000" font-family="sans-serif" font-size="14" lengthAdjust="spacing" text-decoration="underline" textLength="333" x="1184.7971" y="225.4795">+regenerateCsrfToken(ExecutionContext) : void</text></g></a><g id="elem_GMN3"><path d="M1262.7971,49.2969 L1262.7971,74.4297 A0,0 0 0 0 1262.7971,74.4297 L1347.2971,74.4297 L1351.2971,111.0716 L1355.2971,74.4297 L1439.7971,74.4297 A0,0 0 0 0 1439.7971,74.4297 L1439.7971,59.2969 L1429.7971,49.2969 L1262.7971,49.2969 A0,0 0 0 0 1262.7971,49.2969 " fill="#FEFFDD" style="stroke:#181818;stroke-width:0.5;"/><path d="M1429.7971,49.2969 L1429.7971,59.2969 L1439.7971,59.2969 L1429.7971,49.2969 " fill="#FEFFDD" style="stroke:#181818;stroke-width:0.5;"/><text fill="#000000" font-family="sans-serif" font-size="13" lengthAdjust="spacing" textLength="156" x="1268.7971" y="66.3638">artifact: nablarch-fw-web</text></g><!--class C_nablarch_common_web_session_SessionUtil--><a href="/viewer/?module=nablarch-fw-web&amp;class=nablarch.common.web.session.SessionUtil" target="_top" title="/viewer/?module=nablarch-fw-web&amp;class=nablarch.common.web.session.SessionUtil" xlink:actuate="onRequest" xlink:href="/viewer/?module=nablarch-fw-web&amp;class=nablarch.common.web.session.SessionUtil" xlink:show="new" xlink:title="/viewer/?module=nablarch-fw-web&amp;class=nablarch.common.web.session.SessionUtil" xlink:type="simple"><g id="elem_C_nablarch_common_web_session_SessionUtil"><rect codeLine="18" fill="#F1F1F1" height="32" id="C_nablarch_common_web_session_SessionUtil" rx="2.5" ry="2.5" style="stroke:#181818;stroke-width:0.5;" width="327" x="2769.7971" y="285.2969"/><ellipse cx="2784.7971" cy="301.2969" fill="#ADD1B2" rx="11" ry="11" style="stroke:#181818;stroke-width:1.0;"/><path d="M2787.7658,306.9375 Q2787.1877,307.2344 2786.5471,307.375 Q2785.9064,307.5313 2785.2033,307.5313 Q2782.7033,307.5313 2781.3752,305.8906 Q2780.0627,304.2344 2780.0627,301.1094 Q2780.0627,297.9844 2781.3752,296.3281 Q2782.7033,294.6719 2785.2033,294.6719 Q2785.9064,294.6719 2786.5471,294.8281 Q2787.2033,294.9844 2787.7658,295.2813 L2787.7658,298 Q2787.1408,297.4219 2786.5471,297.1563 Q2785.9533,296.875 2785.3283,296.875 Q2783.9846,296.875 2783.2971,297.9531 Q2782.6096,299.0156 2782.6096,301.1094 Q2782.6096,303.2031 2783.2971,304.2813 Q2783.9846,305.3438 2785.3283,305.3438 Q2785.9533,305.3438 2786.5471,305.0781 Q2787.1408,304.7969 2787.7658,304.2188 L2787.7658,306.9375 Z " fill="#000000"/><text fill="#000000" font-family="sans-serif" font-size="14" lengthAdjust="spacing" textLength="295" x="2798.7971" y="306.1436">nablarch.common.web.session.SessionUtil</text></g></a><!--class C_nablarch_common_web_WebConfig--><a href="/viewer/?module=nablarch-fw-web&amp;class=nablarch.common.web.WebConfig" target="_top" title="/viewer/?module=nablarch-fw-web&amp;class=nablarch.common.web.WebConfig" xlink:actuate="onRequest" xlink:href="/viewer/?module=nablarch-fw-web&amp;class=nablarch.common.web.WebConfig" xlink:show="new" xlink:title="/viewer/?module=nablarch-fw-web&amp;class=nablarch.common.web.WebConfig" xlink:type="simple"><g id="elem_C_nablarch_common_web_WebConfig"><rect codeLine="20" fill="#F1F1F1" height="32" id="C_nablarch_common_web_WebConfig" rx="2.5" ry="2.5" style="stroke:#181818;stroke-width:0.5;" width="268" x="23.2971" y="370.2969"/><ellipse cx="38.2971" cy="386.2969" fill="#ADD1B2" rx="11" ry="11" style="stroke:#181818;stroke-width:1.0;"/><path d="M41.2658,391.9375 Q40.6877,392.2344 40.0471,392.375 Q39.4064,392.5313 38.7033,392.5313 Q36.2033,392.5313 34.8752,390.8906 Q33.5627,389.2344 33.5627,386.1094 Q33.5627,382.9844 34.8752,381.3281 Q36.2033,379.6719 38.7033,379.6719 Q39.4064,379.6719 40.0471,379.8281 Q40.7033,379.9844 41.2658,380.2813 L41.2658,383 Q40.6408,382.4219 40.0471,382.1563 Q39.4533,381.875 38.8283,381.875 Q37.4846,381.875 36.7971,382.9531 Q36.1096,384.0156 36.1096,386.1094 Q36.1096,388.2031 36.7971,389.2813 Q37.4846,390.3438 38.8283,390.3438 Q39.4533,390.3438 40.0471,390.0781 Q40.6408,389.7969 41.2658,389.2188 L41.2658,391.9375 Z " fill="#000000"/><text fill="#000000" font-family="sans-serif" font-size="14" lengthAdjust="spacing" textLength="236" x="52.2971" y="391.1436">nablarch.common.web.WebConfig</text></g></a><!--class C_nablarch_common_web_WebConfigFinder--><a href="/viewer/?module=nablarch-fw-web&amp;class=nablarch.common.web.WebConfigFinder" target="_top" title="/viewer/?module=nablarch-fw-web&amp;class=nablarch.common.web.WebConfigFinder" xlink:actuate="onRequest" xlink:href="/viewer/?module=nablarch-fw-web&amp;class=nablarch.common.web.WebConfigFinder" xlink:show="new" xlink:title="/viewer/?module=nablarch-fw-web&amp;class=nablarch.common.web.WebConfigFinder" xlink:type="simple"><g id="elem_C_nablarch_common_web_WebConfigFinder"><rect codeLine="22" fill="#F1F1F1" height="32" id="C_nablarch_common_web_WebConfigFinder" rx="2.5" ry="2.5" style="stroke:#181818;stroke-width:0.5;" width="311" x="81.7971" y="285.2969"/><ellipse cx="96.7971" cy="301.2969" fill="#ADD1B2" rx="11" ry="11" style="stroke:#181818;stroke-width:1.0;"/><path d="M99.7658,306.9375 Q99.1877,307.2344 98.5471,307.375 Q97.9064,307.5313 97.2033,307.5313 Q94.7033,307.5313 93.3752,305.8906 Q92.0627,304.2344 92.0627,301.1094 Q92.0627,297.9844 93.3752,296.3281 Q94.7033,294.6719 97.2033,294.6719 Q97.9064,294.6719 98.5471,294.8281 Q99.2033,294.9844 99.7658,295.2813 L99.7658,298 Q99.1408,297.4219 98.5471,297.1563 Q97.9533,296.875 97.3283,296.875 Q95.9846,296.875 95.2971,297.9531 Q94.6096,299.0156 94.6096,301.1094 Q94.6096,303.2031 95.2971,304.2813 Q95.9846,305.3438 97.3283,305.3438 Q97.9533,305.3438 98.5471,305.0781 Q99.1408,304.7969 99.7658,304.2188 L99.7658,306.9375 Z " fill="#000000"/><text fill="#000000" font-family="sans-serif" font-size="14" lengthAdjust="spacing" textLength="279" x="110.7971" y="306.1436">nablarch.common.web.WebConfigFinder</text></g></a><!--class C_nablarch_fw_ExecutionContext--><a href="/viewer/?module=nablarch-core&amp;class=nablarch.fw.ExecutionContext" target="_top" title="/viewer/?module=nablarch-core&amp;class=nablarch.fw.ExecutionContext" xlink:actuate="onRequest" xlink:href="/viewer/?module=nablarch-core&amp;class=nablarch.fw.ExecutionContext" xlink:show="new" xlink:title="/viewer/?module=nablarch-core&amp;class=nablarch.fw.ExecutionContext" xlink:type="simple"><g id="elem_C_nablarch_fw_ExecutionContext"><rect codeLine="24" fill="#F1F1F1" height="32" id="C_nablarch_fw_ExecutionContext" rx="2.5" ry="2.5" style="stroke:#181818;stroke-width:0.5;" width="236" x="3423.2971" y="370.2969"/><ellipse cx="3438.2971" cy="386.2969" fill="#ADD1B2" rx="11" ry="11" style="stroke:#181818;stroke-width:1.0;"/><path d="M3441.2658,391.9375 Q3440.6877,392.2344 3440.0471,392.375 Q3439.4064,392.5313 3438.7033,392.5313 Q3436.2033,392.5313 3434.8752,390.8906 Q3433.5627,389.2344 3433.5627,386.1094 Q3433.5627,382.9844 3434.8752,381.3281 Q3436.2033,379.6719 3438.7033,379.6719 Q3439.4064,379.6719 3440.0471,379.8281 Q3440.7033,379.9844 3441.2658,380.2813 L3441.2658,383 Q3440.6408,382.4219 3440.0471,382.1563 Q3439.4533,381.875 3438.8283,381.875 Q3437.4846,381.875 3436.7971,382.9531 Q3436.1096,384.0156 3436.1096,386.1094 Q3436.1096,388.2031 3436.7971,389.2813 Q3437.4846,390.3438 3438.8283,390.3438 Q3439.4533,390.3438 3440.0471,390.0781 Q3440.6408,389.7969 3441.2658,389.2188 L3441.2658,391.9375 Z " fill="#000000"/><text fill="#000000" font-family="sans-serif" font-size="14" lengthAdjust="spacing" textLength="204" x="3452.2971" y="391.1436">nablarch.fw.ExecutionContext</text></g></a><!--class C_nablarch_fw_HandlerQueueManager--><a href="/viewer/?module=nablarch-core&amp;class=nablarch.fw.HandlerQueueManager" target="_top" title="/viewer/?module=nablarch-core&amp;class=nablarch.fw.HandlerQueueManager" xlink:actuate="onRequest" xlink:href="/viewer/?module=nablarch-core&amp;class=nablarch.fw.HandlerQueueManager" xlink:show="new" xlink:title="/viewer/?module=nablarch-core&amp;class=nablarch.fw.HandlerQueueManager" xlink:type="simple"><g id="elem_C_nablarch_fw_HandlerQueueManager"><rect codeLine="26" fill="#F1F1F1" height="32" id="C_nablarch_fw_HandlerQueueManager" rx="2.5" ry="2.5" style="stroke:#181818;stroke-width:0.5;" width="275" x="3091.7971" y="455.2969"/><ellipse cx="3106.7971" cy="471.2969" fill="#A9DCDF" rx="11" ry="11" style="stroke:#181818;stroke-width:1.0;"/><path d="M3106.9064,466.6406 L3105.7502,471.7188 L3108.0783,471.7188 L3106.9064,466.6406 Z M3105.4221,464.4063 L3108.4064,464.4063 L3111.7658,476.7969 L3109.3127,476.7969 L3108.5471,473.7344 L3105.2658,473.7344 L3104.5158,476.7969 L3102.0783,476.7969 L3105.4221,464.4063 Z " fill="#000000"/><text fill="#000000" font-family="sans-serif" font-size="14" font-style="italic" lengthAdjust="spacing" textLength="243" x="3120.7971" y="476.1436">nablarch.fw.HandlerQueueManager</text></g></a><!--class C_nablarch_fw_StandaloneExecutionContext--><a href="/viewer/?module=nablarch-fw-standalone&amp;class=nablarch.fw.StandaloneExecutionContext" target="_top" title="/viewer/?module=nablarch-fw-standalone&amp;class=nablarch.fw.StandaloneExecutionContext" xlink:actuate="onRequest" xlink:href="/viewer/?module=nablarch-fw-standalone&amp;class=nablarch.fw.StandaloneExecutionContext" xlink:show="new" xlink:title="/viewer/?module=nablarch-fw-standalone&amp;class=nablarch.fw.StandaloneExecutionContext" xlink:type="simple"><g id="elem_C_nablarch_fw_StandaloneExecutionContext"><rect codeLine="28" fill="#F1F1F1" height="32" id="C_nablarch_fw_StandaloneExecutionContext" rx="2.5" ry="2.5" style="stroke:#181818;stroke-width:0.5;" width="314" x="3385.2971" y="455.2969"/><ellipse cx="3400.2971" cy="471.2969" fill="#ADD1B2" rx="11" ry="11" style="stroke:#181818;stroke-width:1.0;"/><path d="M3403.2658,476.9375 Q3402.6877,477.2344 3402.0471,477.375 Q3401.4064,477.5313 3400.7033,477.5313 Q3398.2033,477.5313 3396.8752,475.8906 Q3395.5627,474.2344 3395.5627,471.1094 Q3395.5627,467.9844 3396.8752,466.3281 Q3398.2033,464.6719 3400.7033,464.6719 Q3401.4064,464.6719 3402.0471,464.8281 Q3402.7033,464.9844 3403.2658,465.2813 L3403.2658,468 Q3402.6408,467.4219 3402.0471,467.1563 Q3401.4533,466.875 3400.8283,466.875 Q3399.4846,466.875 3398.7971,467.9531 Q3398.1096,469.0156 3398.1096,471.1094 Q3398.1096,473.2031 3398.7971,474.2813 Q3399.4846,475.3438 3400.8283,475.3438 Q3401.4533,475.3438 3402.0471,475.0781 Q3402.6408,474.7969 3403.2658,474.2188 L3403.2658,476.9375 Z " fill="#000000"/><text fill="#000000" font-family="sans-serif" font-size="14" lengthAdjust="spacing" textLength="282" x="3414.2971" y="476.1436">nablarch.fw.StandaloneExecutionContext</text></g></a><!--class C_nablarch_fw_web_servlet_ServletExecutionContext--><a href="/viewer/?module=nablarch-fw-web&amp;class=nablarch.fw.web.servlet.ServletExecutionContext" target="_top" title="/viewer/?module=nablarch-fw-web&amp;class=nablarch.fw.web.servlet.ServletExecutionContext" xlink:actuate="onRequest" xlink:href="/viewer/?module=nablarch-fw-web&amp;class=nablarch.fw.web.servlet.ServletExecutionContext" xlink:show="new" xlink:title="/viewer/?module=nablarch-fw-web&amp;class=nablarch.fw.web.servlet.ServletExecutionContext" xlink:type="simple"><g id="elem_C_nablarch_fw_web_servlet_ServletExecutionContext"><rect codeLine="30" fill="#F1F1F1" height="32" id="C_nablarch_fw_web_servlet_ServletExecutionContext" rx="2.5" ry="2.5" style="stroke:#181818;stroke-width:0.5;" width="366" x="2707.2971" y="455.2969"/><ellipse cx="2722.2971" cy="471.2969" fill="#ADD1B2" rx="11" ry="11" style="stroke:#181818;stroke-width:1.0;"/><path d="M2725.2658,476.9375 Q2724.6877,477.2344 2724.0471,477.375 Q2723.4064,477.5313 2722.7033,477.5313 Q2720.2033,477.5313 2718.8752,475.8906 Q2717.5627,474.2344 2717.5627,471.1094 Q2717.5627,467.9844 2718.8752,466.3281 Q2720.2033,464.6719 2722.7033,464.6719 Q2723.4064,464.6719 2724.0471,464.8281 Q2724.7033,464.9844 2725.2658,465.2813 L2725.2658,468 Q2724.6408,467.4219 2724.0471,467.1563 Q2723.4533,466.875 2722.8283,466.875 Q2721.4846,466.875 2720.7971,467.9531 Q2720.1096,469.0156 2720.1096,471.1094 Q2720.1096,473.2031 2720.7971,474.2813 Q2721.4846,475.3438 2722.8283,475.3438 Q2723.4533,475.3438 2724.0471,475.0781 Q2724.6408,474.7969 2725.2658,474.2188 L2725.2658,476.9375 Z " fill="#000000"/><text fill="#000000" font-family="sans-serif" font-size="14" lengthAdjust="spacing" textLength="334" x="2736.2971" y="476.1436">nablarch.fw.web.servlet.ServletExecutionContext</text></g></a><!--class C_nablarch_common_handler_TransactionManagementHandler_1--><a href="/viewer/?module=nablarch-core-transaction&amp;class=nablarch.common.handler.TransactionManagementHandler%241" target="_top" title="/viewer/?module=nablarch-core-transaction&amp;class=nablarch.common.handler.TransactionManagementHandler%241" xlink:actuate="onRequest" xlink:href="/viewer/?module=nablarch-core-transaction&amp;class=nablarch.common.handler.TransactionManagementHandler%241" xlink:show="new" xlink:title="/viewer/?module=nablarch-core-transaction&amp;class=nablarch.common.handler.TransactionManagementHandler%241" xlink:type="simple"><g id="elem_C_nablarch_common_handler_TransactionManagementHandler_1"><rect codeLine="32" fill="#F1F1F1" height="32" id="C_nablarch_common_handler_TransactionManagementHandler_1" rx="2.5" ry="2.5" style="stroke:#181818;stroke-width:0.5;" width="459" x="4133.7971" y="155.7969"/><ellipse cx="4148.7971" cy="171.7969" fill="#ADD1B2" rx="11" ry="11" style="stroke:#181818;stroke-width:1.0;"/><path d="M4151.7658,177.4375 Q4151.1877,177.7344 4150.5471,177.875 Q4149.9064,178.0313 4149.2033,178.0313 Q4146.7033,178.0313 4145.3752,176.3906 Q4144.0627,174.7344 4144.0627,171.6094 Q4144.0627,168.4844 4145.3752,166.8281 Q4146.7033,165.1719 4149.2033,165.1719 Q4149.9064,165.1719 4150.5471,165.3281 Q4151.2033,165.4844 4151.7658,165.7813 L4151.7658,168.5 Q4151.1408,167.9219 4150.5471,167.6563 Q4149.9533,167.375 4149.3283,167.375 Q4147.9846,167.375 4147.2971,168.4531 Q4146.6096,169.5156 4146.6096,171.6094 Q4146.6096,173.7031 4147.2971,174.7813 Q4147.9846,175.8438 4149.3283,175.8438 Q4149.9533,175.8438 4150.5471,175.5781 Q4151.1408,175.2969 4151.7658,174.7188 L4151.7658,177.4375 Z " fill="#000000"/><text fill="#000000" font-family="sans-serif" font-size="14" lengthAdjust="spacing" textLength="427" x="4162.7971" y="176.6436">nablarch.common.handler.TransactionManagementHandler$1</text></g></a><!--class C_nablarch_common_web_session_Session--><a href="/viewer/?module=nablarch-fw-web&amp;class=nablarch.common.web.session.Session" target="_top" title="/viewer/?module=nablarch-fw-web&amp;class=nablarch.common.web.session.Session" xlink:actuate="onRequest" xlink:href="/viewer/?module=nablarch-fw-web&amp;class=nablarch.common.web.session.Session" xlink:show="new" xlink:title="/viewer/?module=nablarch-fw-web&amp;class=nablarch.common.web.session.Session" xlink:type="simple"><g id="elem_C_nablarch_common_web_session_Session"><rect codeLine="34" fill="#F1F1F1" height="32" id="C_nablarch_common_web_session_Session" rx="2.5" ry="2.5" style="stroke:#181818;stroke-width:0.5;" width="306" x="3591.2971" y="285.2969"/><ellipse cx="3606.2971" cy="301.2969" fill="#ADD1B2" rx="11" ry="11" style="stroke:#181818;stroke-width:1.0;"/><path d="M3609.2658,306.9375 Q3608.6877,307.2344 3608.0471,307.375 Q3607.4064,307.5313 3606.7033,307.5313 Q3604.2033,307.5313 3602.8752,305.8906 Q3601.5627,304.2344 3601.5627,301.1094 Q3601.5627,297.9844 3602.8752,296.3281 Q3604.2033,294.6719 3606.7033,294.6719 Q3607.4064,294.6719 3608.0471,294.8281 Q3608.7033,294.9844 3609.2658,295.2813 L3609.2658,298 Q3608.6408,297.4219 3608.0471,297.1563 Q3607.4533,296.875 3606.8283,296.875 Q3605.4846,296.875 3604.7971,297.9531 Q3604.1096,299.0156 3604.1096,301.1094 Q3604.1096,303.2031 3604.7971,304.2813 Q3605.4846,305.3438 3606.8283,305.3438 Q3607.4533,305.3438 3608.0471,305.0781 Q3608.6408,304.7969 3609.2658,304.2188 L3609.2658,306.9375 Z " fill="#000000"/><text fill="#000000" font-family="sans-serif" font-size="14" lengthAdjust="spacing" textLength="274" x="3620.2971" y="306.1436">nablarch.common.web.session.Session</text></g></a><!--class C_nablarch_core_log_Logger--><a href="/viewer/?module=nablarch-core&amp;class=nablarch.core.log.Logger" target="_top" title="/viewer/?module=nablarch-core&amp;class=nablarch.core.log.Logger" xlink:actuate="onRequest" xlink:href="/viewer/?module=nablarch-core&amp;class=nablarch.core.log.Logger" xlink:show="new" xlink:title="/viewer/?module=nablarch-core&amp;class=nablarch.core.log.Logger" xlink:type="simple"><g id="elem_C_nablarch_core_log_Logger"><rect codeLine="36" fill="#F1F1F1" height="32" id="C_nablarch_core_log_Logger" rx="2.5" ry="2.5" style="stroke:#181818;stroke-width:0.5;" width="204" x="5344.2971" y="455.2969"/><ellipse cx="5359.2971" cy="471.2969" fill="#B4A7E5" rx="11" ry="11" style="stroke:#181818;stroke-width:1.0;"/><path d="M5355.2189,467.0625 L5355.2189,464.9063 L5362.6096,464.9063 L5362.6096,467.0625 L5360.1408,467.0625 L5360.1408,475.1406 L5362.6096,475.1406 L5362.6096,477.2969 L5355.2189,477.2969 L5355.2189,475.1406 L5357.6877,475.1406 L5357.6877,467.0625 L5355.2189,467.0625 Z " fill="#000000"/><text fill="#000000" font-family="sans-serif" font-size="14" font-style="italic" lengthAdjust="spacing" textLength="172" x="5373.2971" y="476.1436">nablarch.core.log.Logger</text></g></a><!--class C_nablarch_fw_DataReader--><a href="/viewer/?module=nablarch-core&amp;class=nablarch.fw.DataReader" target="_top" title="/viewer/?module=nablarch-core&amp;class=nablarch.fw.DataReader" xlink:actuate="onRequest" xlink:href="/viewer/?module=nablarch-core&amp;class=nablarch.fw.DataReader" xlink:show="new" xlink:title="/viewer/?module=nablarch-core&amp;class=nablarch.fw.DataReader" xlink:type="simple"><g id="elem_C_nablarch_fw_DataReader"><rect codeLine="38" fill="#F1F1F1" height="32" id="C_nablarch_fw_DataReader" rx="2.5" ry="2.5" style="stroke:#181818;stroke-width:0.5;" width="196" x="3717.2971" y="455.2969"/><ellipse cx="3732.2971" cy="471.2969" fill="#B4A7E5" rx="11" ry="11" style="stroke:#181818;stroke-width:1.0;"/><path d="M3728.2189,467.0625 L3728.2189,464.9063 L3735.6096,464.9063 L3735.6096,467.0625 L3733.1408,467.0625 L3733.1408,475.1406 L3735.6096,475.1406 L3735.6096,477.2969 L3728.2189,477.2969 L3728.2189,475.1406 L3730.6877,475.1406 L3730.6877,467.0625 L3728.2189,467.0625 Z " fill="#000000"/><text fill="#000000" font-family="sans-serif" font-size="14" font-style="italic" lengthAdjust="spacing" textLength="164" x="3746.2971" y="476.1436">nablarch.fw.DataReader</text></g></a><!--class C_nablarch_fw_DataReaderFactory--><a href="/viewer/?module=nablarch-core&amp;class=nablarch.fw.DataReaderFactory" target="_top" title="/viewer/?module=nablarch-core&amp;class=nablarch.fw.DataReaderFactory" xlink:actuate="onRequest" xlink:href="/viewer/?module=nablarch-core&amp;class=nablarch.fw.DataReaderFactory" xlink:show="new" xlink:title="/viewer/?module=nablarch-core&amp;class=nablarch.fw.DataReaderFactory" xlink:type="simple"><g id="elem_C_nablarch_fw_DataReaderFactory"><rect codeLine="40" fill="#F1F1F1" height="32" id="C_nablarch_fw_DataReaderFactory" rx="2.5" ry="2.5" style="stroke:#181818;stroke-width:0.5;" width="247" x="3931.7971" y="455.2969"/><ellipse cx="3946.7971" cy="471.2969" fill="#B4A7E5" rx="11" ry="11" style="stroke:#181818;stroke-width:1.0;"/><path d="M3942.7189,467.0625 L3942.7189,464.9063 L3950.1096,464.9063 L3950.1096,467.0625 L3947.6408,467.0625 L3947.6408,475.1406 L3950.1096,475.1406 L3950.1096,477.2969 L3942.7189,477.2969 L3942.7189,475.1406 L3945.1877,475.1406 L3945.1877,467.0625 L3942.7189,467.0625 Z " fill="#000000"/><text fill="#000000" font-family="sans-serif" font-size="14" font-style="italic" lengthAdjust="spacing" textLength="215" x="3960.7971" y="476.1436">nablarch.fw.DataReaderFactory</text></g></a><!--class C_nablarch_fw_handler_LoopHandler_1--><a href="/viewer/?module=nablarch-fw-standalone&amp;class=nablarch.fw.handler.LoopHandler%241" target="_top" title="/viewer/?module=nablarch-fw-standalone&amp;class=nablarch.fw.handler.LoopHandler%241" xlink:actuate="onRequest" xlink:href="/viewer/?module=nablarch-fw-standalone&amp;class=nablarch.fw.handler.LoopHandler%241" xlink:show="new" xlink:title="/viewer/?module=nablarch-fw-standalone&amp;class=nablarch.fw.handler.LoopHandler%241" xlink:type="simple"><g id="elem_C_nablarch_fw_handler_LoopHandler_1"><rect codeLine="42" fill="#F1F1F1" height="32" id="C_nablarch_fw_handler_LoopHandler_1" rx="2.5" ry="2.5" style="stroke:#181818;stroke-width:0.5;" width="275" x="3915.7971" y="285.2969"/><ellipse cx="3930.7971" cy="301.2969" fill="#ADD1B2" rx="11" ry="11" style="stroke:#181818;stroke-width:1.0;"/><path d="M3933.7658,306.9375 Q3933.1877,307.2344 3932.5471,307.375 Q3931.9064,307.5313 3931.2033,307.5313 Q3928.7033,307.5313 3927.3752,305.8906 Q3926.0627,304.2344 3926.0627,301.1094 Q3926.0627,297.9844 3927.3752,296.3281 Q3928.7033,294.6719 3931.2033,294.6719 Q3931.9064,294.6719 3932.5471,294.8281 Q3933.2033,294.9844 3933.7658,295.2813 L3933.7658,298 Q3933.1408,297.4219 3932.5471,297.1563 Q3931.9533,296.875 3931.3283,296.875 Q3929.9846,296.875 3929.2971,297.9531 Q3928.6096,299.0156 3928.6096,301.1094 Q3928.6096,303.2031 3929.2971,304.2813 Q3929.9846,305.3438 3931.3283,305.3438 Q3931.9533,305.3438 3932.5471,305.0781 Q3933.1408,304.7969 3933.7658,304.2188 L3933.7658,306.9375 Z " fill="#000000"/><text fill="#000000" font-family="sans-serif" font-size="14" lengthAdjust="spacing" textLength="243" x="3944.7971" y="306.1436">nablarch.fw.handler.LoopHandler$1</text></g></a><!--class C_nablarch_fw_handler_LoopHandler_TransactionExecutorImpl--><a href="/viewer/?module=nablarch-fw-standalone&amp;class=nablarch.fw.handler.LoopHandler%24TransactionExecutorImpl" target="_top" title="/viewer/?module=nablarch-fw-standalone&amp;class=nablarch.fw.handler.LoopHandler%24TransactionExecutorImpl" xlink:actuate="onRequest" xlink:href="/viewer/?module=nablarch-fw-standalone&amp;class=nablarch.fw.handler.LoopHandler%24TransactionExecutorImpl" xlink:show="new" xlink:title="/viewer/?module=nablarch-fw-standalone&amp;class=nablarch.fw.handler.LoopHandler%24TransactionExecutorImpl" xlink:type="simple"><g id="elem_C_nablarch_fw_handler_LoopHandler_TransactionExecutorImpl"><rect codeLine="44" fill="#F1F1F1" height="32" id="C_nablarch_fw_handler_LoopHandler_TransactionExecutorImpl" rx="2.5" ry="2.5" style="stroke:#181818;stroke-width:0.5;" width="436" x="4762.2971" y="285.2969"/><ellipse cx="4777.2971" cy="301.2969" fill="#ADD1B2" rx="11" ry="11" style="stroke:#181818;stroke-width:1.0;"/><path d="M4780.2658,306.9375 Q4779.6877,307.2344 4779.0471,307.375 Q4778.4064,307.5313 4777.7033,307.5313 Q4775.2033,307.5313 4773.8752,305.8906 Q4772.5627,304.2344 4772.5627,301.1094 Q4772.5627,297.9844 4773.8752,296.3281 Q4775.2033,294.6719 4777.7033,294.6719 Q4778.4064,294.6719 4779.0471,294.8281 Q4779.7033,294.9844 4780.2658,295.2813 L4780.2658,298 Q4779.6408,297.4219 4779.0471,297.1563 Q4778.4533,296.875 4777.8283,296.875 Q4776.4846,296.875 4775.7971,297.9531 Q4775.1096,299.0156 4775.1096,301.1094 Q4775.1096,303.2031 4775.7971,304.2813 Q4776.4846,305.3438 4777.8283,305.3438 Q4778.4533,305.3438 4779.0471,305.0781 Q4779.6408,304.7969 4780.2658,304.2188 L4780.2658,306.9375 Z " fill="#000000"/><text fill="#000000" font-family="sans-serif" font-size="14" lengthAdjust="spacing" textLength="404" x="4791.2971" y="306.1436">nablarch.fw.handler.LoopHandler$TransactionExecutorImpl</text></g></a><!--class C_nablarch_fw_handler_MultiThreadExecutionHandler_1--><a href="/viewer/?module=nablarch-fw-standalone&amp;class=nablarch.fw.handler.MultiThreadExecutionHandler%241" target="_top" title="/viewer/?module=nablarch-fw-standalone&amp;class=nablarch.fw.handler.MultiThreadExecutionHandler%241" xlink:actuate="onRequest" xlink:href="/viewer/?module=nablarch-fw-standalone&amp;class=nablarch.fw.handler.MultiThreadExecutionHandler%241" xlink:show="new" xlink:title="/viewer/?module=nablarch-fw-standalone&amp;class=nablarch.fw.handler.MultiThreadExecutionHandler%241" xlink:type="simple"><g id="elem_C_nablarch_fw_handler_MultiThreadExecutionHandler_1"><rect codeLine="46" fill="#F1F1F1" height="32" id="C_nablarch_fw_handler_MultiThreadExecutionHandler_1" rx="2.5" ry="2.5" style="stroke:#181818;stroke-width:0.5;" width="390" x="3115.2971" y="285.2969"/><ellipse cx="3130.2971" cy="301.2969" fill="#ADD1B2" rx="11" ry="11" style="stroke:#181818;stroke-width:1.0;"/><path d="M3133.2658,306.9375 Q3132.6877,307.2344 3132.0471,307.375 Q3131.4064,307.5313 3130.7033,307.5313 Q3128.2033,307.5313 3126.8752,305.8906 Q3125.5627,304.2344 3125.5627,301.1094 Q3125.5627,297.9844 3126.8752,296.3281 Q3128.2033,294.6719 3130.7033,294.6719 Q3131.4064,294.6719 3132.0471,294.8281 Q3132.7033,294.9844 3133.2658,295.2813 L3133.2658,298 Q3132.6408,297.4219 3132.0471,297.1563 Q3131.4533,296.875 3130.8283,296.875 Q3129.4846,296.875 3128.7971,297.9531 Q3128.1096,299.0156 3128.1096,301.1094 Q3128.1096,303.2031 3128.7971,304.2813 Q3129.4846,305.3438 3130.8283,305.3438 Q3131.4533,305.3438 3132.0471,305.0781 Q3132.6408,304.7969 3133.2658,304.2188 L3133.2658,306.9375 Z " fill="#000000"/><text fill="#000000" font-family="sans-serif" font-size="14" lengthAdjust="spacing" textLength="358" x="3144.2971" y="306.1436">nablarch.fw.handler.MultiThreadExecutionHandler$1</text></g></a><!--class C_nablarch_fw_invoker_AsyncHandlerListInvoker_1--><a href="/viewer/?module=nablarch-fw&amp;class=nablarch.fw.invoker.AsyncHandlerListInvoker%241" target="_top" title="/viewer/?module=nablarch-fw&amp;class=nablarch.fw.invoker.AsyncHandlerListInvoker%241" xlink:actuate="onRequest" xlink:href="/viewer/?module=nablarch-fw&amp;class=nablarch.fw.invoker.AsyncHandlerListInvoker%241" xlink:show="new" xlink:title="/viewer/?module=nablarch-fw&amp;class=nablarch.fw.invoker.AsyncHandlerListInvoker%241" xlink:type="simple"><g id="elem_C_nablarch_fw_invoker_AsyncHandlerListInvoker_1"><rect codeLine="48" fill="#F1F1F1" height="32" id="C_nablarch_fw_invoker_AsyncHandlerListInvoker_1" rx="2.5" ry="2.5" style="stroke:#181818;stroke-width:0.5;" width="353" x="410.7971" y="285.2969"/><ellipse cx="425.7971" cy="301.2969" fill="#ADD1B2" rx="11" ry="11" style="stroke:#181818;stroke-width:1.0;"/><path d="M428.7658,306.9375 Q428.1877,307.2344 427.5471,307.375 Q426.9064,307.5313 426.2033,307.5313 Q423.7033,307.5313 422.3752,305.8906 Q421.0627,304.2344 421.0627,301.1094 Q421.0627,297.9844 422.3752,296.3281 Q423.7033,294.6719 426.2033,294.6719 Q426.9064,294.6719 427.5471,294.8281 Q428.2033,294.9844 428.7658,295.2813 L428.7658,298 Q428.1408,297.4219 427.5471,297.1563 Q426.9533,296.875 426.3283,296.875 Q424.9846,296.875 424.2971,297.9531 Q423.6096,299.0156 423.6096,301.1094 Q423.6096,303.2031 424.2971,304.2813 Q424.9846,305.3438 426.3283,305.3438 Q426.9533,305.3438 427.5471,305.0781 Q428.1408,304.7969 428.7658,304.2188 L428.7658,306.9375 Z " fill="#000000"/><text fill="#000000" font-family="sans-serif" font-size="14" lengthAdjust="spacing" textLength="321" x="439.7971" y="306.1436">nablarch.fw.invoker.AsyncHandlerListInvoker$1</text></g></a><!--class C_nablarch_test_core_http_HttpRequestTestSupportHandler--><a href="/viewer/?module=nablarch-testing&amp;class=nablarch.test.core.http.HttpRequestTestSupportHandler" target="_top" title="/viewer/?module=nablarch-testing&amp;class=nablarch.test.core.http.HttpRequestTestSupportHandler" xlink:actuate="onRequest" xlink:href="/viewer/?module=nablarch-testing&amp;class=nablarch.test.core.http.HttpRequestTestSupportHandler" xlink:show="new" xlink:title="/viewer/?module=nablarch-testing&amp;class=nablarch.test.core.http.HttpRequestTestSupportHandler" xlink:type="simple"><g id="elem_C_nablarch_test_core_http_HttpRequestTestSupportHandler"><rect codeLine="50" fill="#F1F1F1" height="32" id="C_nablarch_test_core_http_HttpRequestTestSupportHandler" rx="2.5" ry="2.5" style="stroke:#181818;stroke-width:0.5;" width="420" x="782.2971" y="285.2969"/><ellipse cx="797.2971" cy="301.2969" fill="#ADD1B2" rx="11" ry="11" style="stroke:#181818;stroke-width:1.0;"/><path d="M800.2658,306.9375 Q799.6877,307.2344 799.0471,307.375 Q798.4064,307.5313 797.7033,307.5313 Q795.2033,307.5313 793.8752,305.8906 Q792.5627,304.2344 792.5627,301.1094 Q792.5627,297.9844 793.8752,296.3281 Q795.2033,294.6719 797.7033,294.6719 Q798.4064,294.6719 799.0471,294.8281 Q799.7033,294.9844 800.2658,295.2813 L800.2658,298 Q799.6408,297.4219 799.0471,297.1563 Q798.4533,296.875 797.8283,296.875 Q796.4846,296.875 795.7971,297.9531 Q795.1096,299.0156 795.1096,301.1094 Q795.1096,303.2031 795.7971,304.2813 Q796.4846,305.3438 797.8283,305.3438 Q798.4533,305.3438 799.0471,305.0781 Q799.6408,304.7969 800.2658,304.2188 L800.2658,306.9375 Z " fill="#000000"/><text fill="#000000" font-family="sans-serif" font-size="14" lengthAdjust="spacing" textLength="388" x="811.2971" y="306.1436">nablarch.test.core.http.HttpRequestTestSupportHandler</text></g></a><!--class C_nablarch_common_authorization_role_session_SessionStoreUserRoleResolver--><a href="/viewer/?module=nablarch-common-auth-session&amp;class=nablarch.common.authorization.role.session.SessionStoreUserRoleResolver" target="_top" title="/viewer/?module=nablarch-common-auth-session&amp;class=nablarch.common.authorization.role.session.SessionStoreUserRoleResolver" xlink:actuate="onRequest" xlink:href="/viewer/?module=nablarch-common-auth-session&amp;class=nablarch.common.authorization.role.session.SessionStoreUserRoleResolver" xlink:show="new" xlink:title="/viewer/?module=nablarch-common-auth-session&amp;class=nablarch.common.authorization.role.session.SessionStoreUserRoleResolver" xlink:type="simple"><g id="elem_C_nablarch_common_authorization_role_session_SessionStoreUserRoleResolver"><rect codeLine="52" fill="#F1F1F1" height="32" id="C_nablarch_common_authorization_role_session_SessionStoreUserRoleResolver" rx="2.5" ry="2.5" style="stroke:#181818;stroke-width:0.5;" width="557" x="2654.7971" y="155.7969"/><ellipse cx="2669.7971" cy="171.7969" fill="#ADD1B2" rx="11" ry="11" style="stroke:#181818;stroke-width:1.0;"/><path d="M2672.7658,177.4375 Q2672.1877,177.7344 2671.5471,177.875 Q2670.9064,178.0313 2670.2033,178.0313 Q2667.7033,178.0313 2666.3752,176.3906 Q2665.0627,174.7344 2665.0627,171.6094 Q2665.0627,168.4844 2666.3752,166.8281 Q2667.7033,165.1719 2670.2033,165.1719 Q2670.9064,165.1719 2671.5471,165.3281 Q2672.2033,165.4844 2672.7658,165.7813 L2672.7658,168.5 Q2672.1408,167.9219 2671.5471,167.6563 Q2670.9533,167.375 2670.3283,167.375 Q2668.9846,167.375 2668.2971,168.4531 Q2667.6096,169.5156 2667.6096,171.6094 Q2667.6096,173.7031 2668.2971,174.7813 Q2668.9846,175.8438 2670.3283,175.8438 Q2670.9533,175.8438 2671.5471,175.5781 Q2672.1408,175.2969 2672.7658,174.7188 L2672.7658,177.4375 Z " fill="#000000"/><text fill="#000000" font-family="sans-serif" font-size="14" lengthAdjust="spacing" textLength="525" x="2683.7971" y="176.6436">nablarch.common.authorization.role.session.SessionStoreUserRoleResolver</text></g></a><!--class C_nablarch_common_availability_ServiceAvailabilityCheckHandler--><a href="/viewer/?module=nablarch-common-auth&amp;class=nablarch.common.availability.ServiceAvailabilityCheckHandler" target="_top" title="/viewer/?module=nablarch-common-auth&amp;class=nablarch.common.availability.ServiceAvailabilityCheckHandler" xlink:actuate="onRequest" xlink:href="/viewer/?module=nablarch-common-auth&amp;class=nablarch.common.availability.ServiceAvailabilityCheckHandler" xlink:show="new" xlink:title="/viewer/?module=nablarch-common-auth&amp;class=nablarch.common.availability.ServiceAvailabilityCheckHandler" xlink:type="simple"><g id="elem_C_nablarch_common_availability_ServiceAvailabilityCheckHandler"><rect codeLine="54" fill="#F1F1F1" height="32" id="C_nablarch_common_availability_ServiceAvailabilityCheckHandler" rx="2.5" ry="2.5" style="stroke:#181818;stroke-width:0.5;" width="446" x="5694.2971" y="285.2969"/><ellipse cx="5709.2971" cy="301.2969" fill="#ADD1B2" rx="11" ry="11" style="stroke:#181818;stroke-width:1.0;"/><path d="M5712.2658,306.9375 Q5711.6877,307.2344 5711.0471,307.375 Q5710.4064,307.5313 5709.7033,307.5313 Q5707.2033,307.5313 5705.8752,305.8906 Q5704.5627,304.2344 5704.5627,301.1094 Q5704.5627,297.9844 5705.8752,296.3281 Q5707.2033,294.6719 5709.7033,294.6719 Q5710.4064,294.6719 5711.0471,294.8281 Q5711.7033,294.9844 5712.2658,295.2813 L5712.2658,298 Q5711.6408,297.4219 5711.0471,297.1563 Q5710.4533,296.875 5709.8283,296.875 Q5708.4846,296.875 5707.7971,297.9531 Q5707.1096,299.0156 5707.1096,301.1094 Q5707.1096,303.2031 5707.7971,304.2813 Q5708.4846,305.3438 5709.8283,305.3438 Q5710.4533,305.3438 5711.0471,305.0781 Q5711.6408,304.7969 5712.2658,304.2188 L5712.2658,306.9375 Z " fill="#000000"/><text fill="#000000" font-family="sans-serif" font-size="14" lengthAdjust="spacing" textLength="414" x="5723.2971" y="306.1436">nablarch.common.availability.ServiceAvailabilityCheckHandler</text></g></a><!--class C_nablarch_common_handler_DbConnectionManagementHandler--><a href="/viewer/?module=nablarch-common-jdbc&amp;class=nablarch.common.handler.DbConnectionManagementHandler" target="_top" title="/viewer/?module=nablarch-common-jdbc&amp;class=nablarch.common.handler.DbConnectionManagementHandler" xlink:actuate="onRequest" xlink:href="/viewer/?module=nablarch-common-jdbc&amp;class=nablarch.common.handler.DbConnectionManagementHandler" xlink:show="new" xlink:title="/viewer/?module=nablarch-common-jdbc&amp;class=nablarch.common.handler.DbConnectionManagementHandler" xlink:type="simple"><g id="elem_C_nablarch_common_handler_DbConnectionManagementHandler"><rect codeLine="56" fill="#F1F1F1" height="32" id="C_nablarch_common_handler_DbConnectionManagementHandler" rx="2.5" ry="2.5" style="stroke:#181818;stroke-width:0.5;" width="460" x="5216.2971" y="285.2969"/><ellipse cx="5231.2971" cy="301.2969" fill="#ADD1B2" rx="11" ry="11" style="stroke:#181818;stroke-width:1.0;"/><path d="M5234.2658,306.9375 Q5233.6877,307.2344 5233.0471,307.375 Q5232.4064,307.5313 5231.7033,307.5313 Q5229.2033,307.5313 5227.8752,305.8906 Q5226.5627,304.2344 5226.5627,301.1094 Q5226.5627,297.9844 5227.8752,296.3281 Q5229.2033,294.6719 5231.7033,294.6719 Q5232.4064,294.6719 5233.0471,294.8281 Q5233.7033,294.9844 5234.2658,295.2813 L5234.2658,298 Q5233.6408,297.4219 5233.0471,297.1563 Q5232.4533,296.875 5231.8283,296.875 Q5230.4846,296.875 5229.7971,297.9531 Q5229.1096,299.0156 5229.1096,301.1094 Q5229.1096,303.2031 5229.7971,304.2813 Q5230.4846,305.3438 5231.8283,305.3438 Q5232.4533,305.3438 5233.0471,305.0781 Q5233.6408,304.7969 5234.2658,304.2188 L5234.2658,306.9375 Z " fill="#000000"/><text fill="#000000" font-family="sans-serif" font-size="14" lengthAdjust="spacing" textLength="428" x="5245.2971" y="306.1436">nablarch.common.handler.DbConnectionManagementHandler</text></g></a><!--class C_nablarch_common_handler_threadcontext_ThreadContextClearHandler--><a href="/viewer/?module=nablarch-fw&amp;class=nablarch.common.handler.threadcontext.ThreadContextClearHandler" target="_top" title="/viewer/?module=nablarch-fw&amp;class=nablarch.common.handler.threadcontext.ThreadContextClearHandler" xlink:actuate="onRequest" xlink:href="/viewer/?module=nablarch-fw&amp;class=nablarch.common.handler.threadcontext.ThreadContextClearHandler" xlink:show="new" xlink:title="/viewer/?module=nablarch-fw&amp;class=nablarch.common.handler.threadcontext.ThreadContextClearHandler" xlink:type="simple"><g id="elem_C_nablarch_common_handler_threadcontext_ThreadContextClearHandler"><rect codeLine="58" fill="#F1F1F1" height="32" id="C_nablarch_common_handler_threadcontext_ThreadContextClearHandler" rx="2.5" ry="2.5" style="stroke:#181818;stroke-width:0.5;" width="508" x="1220.2971" y="285.2969"/><ellipse cx="1235.2971" cy="301.2969" fill="#ADD1B2" rx="11" ry="11" style="stroke:#181818;stroke-width:1.0;"/><path d="M1238.2658,306.9375 Q1237.6877,307.2344 1237.0471,307.375 Q1236.4064,307.5313 1235.7033,307.5313 Q1233.2033,307.5313 1231.8752,305.8906 Q1230.5627,304.2344 1230.5627,301.1094 Q1230.5627,297.9844 1231.8752,296.3281 Q1233.2033,294.6719 1235.7033,294.6719 Q1236.4064,294.6719 1237.0471,294.8281 Q1237.7033,294.9844 1238.2658,295.2813 L1238.2658,298 Q1237.6408,297.4219 1237.0471,297.1563 Q1236.4533,296.875 1235.8283,296.875 Q1234.4846,296.875 1233.7971,297.9531 Q1233.1096,299.0156 1233.1096,301.1094 Q1233.1096,303.2031 1233.7971,304.2813 Q1234.4846,305.3438 1235.8283,305.3438 Q1236.4533,305.3438 1237.0471,305.0781 Q1237.6408,304.7969 1238.2658,304.2188 L1238.2658,306.9375 Z " fill="#000000"/><text fill="#000000" font-family="sans-serif" font-size="14" lengthAdjust="spacing" textLength="476" x="1249.2971" y="306.1436">nablarch.common.handler.threadcontext.ThreadContextClearHandler</text></g></a><!--class C_nablarch_common_handler_threadcontext_ThreadContextHandler--><a href="/viewer/?module=nablarch-fw&amp;class=nablarch.common.handler.threadcontext.ThreadContextHandler" target="_top" title="/viewer/?module=nablarch-fw&amp;class=nablarch.common.handler.threadcontext.ThreadContextHandler" xlink:actuate="onRequest" xlink:href="/viewer/?module=nablarch-fw&amp;class=nablarch.common.handler.threadcontext.ThreadContextHandler" xlink:show="new" xlink:title="/viewer/?module=nablarch-fw&amp;class=nablarch.common.handler.threadcontext.ThreadContextHandler" xlink:type="simple"><g id="elem_C_nablarch_common_handler_threadcontext_ThreadContextHandler"><rect codeLine="60" fill="#F1F1F1" height="32" id="C_nablarch_common_handler_threadcontext_ThreadContextHandler" rx="2.5" ry="2.5" style="stroke:#181818;stroke-width:0.5;" width="473" x="1746.7971" y="285.2969"/><ellipse cx="1761.7971" cy="301.2969" fill="#ADD1B2" rx="11" ry="11" style="stroke:#181818;stroke-width:1.0;"/><path d="M1764.7658,306.9375 Q1764.1877,307.2344 1763.5471,307.375 Q1762.9064,307.5313 1762.2033,307.5313 Q1759.7033,307.5313 1758.3752,305.8906 Q1757.0627,304.2344 1757.0627,301.1094 Q1757.0627,297.9844 1758.3752,296.3281 Q1759.7033,294.6719 1762.2033,294.6719 Q1762.9064,294.6719 1763.5471,294.8281 Q1764.2033,294.9844 1764.7658,295.2813 L1764.7658,298 Q1764.1408,297.4219 1763.5471,297.1563 Q1762.9533,296.875 1762.3283,296.875 Q1760.9846,296.875 1760.2971,297.9531 Q1759.6096,299.0156 1759.6096,301.1094 Q1759.6096,303.2031 1760.2971,304.2813 Q1760.9846,305.3438 1762.3283,305.3438 Q1762.9533,305.3438 1763.5471,305.0781 Q1764.1408,304.7969 1764.7658,304.2188 L1764.7658,306.9375 Z " fill="#000000"/><text fill="#000000" font-family="sans-serif" font-size="14" lengthAdjust="spacing" textLength="441" x="1775.7971" y="306.1436">nablarch.common.handler.threadcontext.ThreadContextHandler</text></g></a><!--class C_nablarch_common_handler_threadcontext_UserIdAttribute--><a href="/viewer/?module=nablarch-fw&amp;class=nablarch.common.handler.threadcontext.UserIdAttribute" target="_top" title="/viewer/?module=nablarch-fw&amp;class=nablarch.common.handler.threadcontext.UserIdAttribute" xlink:actuate="onRequest" xlink:href="/viewer/?module=nablarch-fw&amp;class=nablarch.common.handler.threadcontext.UserIdAttribute" xlink:show="new" xlink:title="/viewer/?module=nablarch-fw&amp;class=nablarch.common.handler.threadcontext.UserIdAttribute" xlink:type="simple"><g id="elem_C_nablarch_common_handler_threadcontext_UserIdAttribute"><rect codeLine="62" fill="#F1F1F1" height="32" id="C_nablarch_common_handler_threadcontext_UserIdAttribute" rx="2.5" ry="2.5" style="stroke:#181818;stroke-width:0.5;" width="420" x="2238.2971" y="285.2969"/><ellipse cx="2253.2971" cy="301.2969" fill="#ADD1B2" rx="11" ry="11" style="stroke:#181818;stroke-width:1.0;"/><path d="M2256.2658,306.9375 Q2255.6877,307.2344 2255.0471,307.375 Q2254.4064,307.5313 2253.7033,307.5313 Q2251.2033,307.5313 2249.8752,305.8906 Q2248.5627,304.2344 2248.5627,301.1094 Q2248.5627,297.9844 2249.8752,296.3281 Q2251.2033,294.6719 2253.7033,294.6719 Q2254.4064,294.6719 2255.0471,294.8281 Q2255.7033,294.9844 2256.2658,295.2813 L2256.2658,298 Q2255.6408,297.4219 2255.0471,297.1563 Q2254.4533,296.875 2253.8283,296.875 Q2252.4846,296.875 2251.7971,297.9531 Q2251.1096,299.0156 2251.1096,301.1094 Q2251.1096,303.2031 2251.7971,304.2813 Q2252.4846,305.3438 2253.8283,305.3438 Q2254.4533,305.3438 2255.0471,305.0781 Q2255.6408,304.7969 2256.2658,304.2188 L2256.2658,306.9375 Z " fill="#000000"/><text fill="#000000" font-family="sans-serif" font-size="14" lengthAdjust="spacing" textLength="388" x="2267.2971" y="306.1436">nablarch.common.handler.threadcontext.UserIdAttribute</text></g></a><!--class C_nablarch_common_handler_TransactionManagementHandler--><a href="/viewer/?module=nablarch-core-transaction&amp;class=nablarch.common.handler.TransactionManagementHandler" target="_top" title="/viewer/?module=nablarch-core-transaction&amp;class=nablarch.common.handler.TransactionManagementHandler" xlink:actuate="onRequest" xlink:href="/viewer/?module=nablarch-core-transaction&amp;class=nablarch.common.handler.TransactionManagementHandler" xlink:show="new" xlink:title="/viewer/?module=nablarch-core-transaction&amp;class=nablarch.common.handler.TransactionManagementHandler" xlink:type="simple"><g id="elem_C_nablarch_common_handler_TransactionManagementHandler"><rect codeLine="64" fill="#F1F1F1" height="32" id="C_nablarch_common_handler_TransactionManagementHandler" rx="2.5" ry="2.5" style="stroke:#181818;stroke-width:0.5;" width="441" x="4302.7971" y="285.2969"/><ellipse cx="4317.7971" cy="301.2969" fill="#ADD1B2" rx="11" ry="11" style="stroke:#181818;stroke-width:1.0;"/><path d="M4320.7658,306.9375 Q4320.1877,307.2344 4319.5471,307.375 Q4318.9064,307.5313 4318.2033,307.5313 Q4315.7033,307.5313 4314.3752,305.8906 Q4313.0627,304.2344 4313.0627,301.1094 Q4313.0627,297.9844 4314.3752,296.3281 Q4315.7033,294.6719 4318.2033,294.6719 Q4318.9064,294.6719 4319.5471,294.8281 Q4320.2033,294.9844 4320.7658,295.2813 L4320.7658,298 Q4320.1408,297.4219 4319.5471,297.1563 Q4318.9533,296.875 4318.3283,296.875 Q4316.9846,296.875 4316.2971,297.9531 Q4315.6096,299.0156 4315.6096,301.1094 Q4315.6096,303.2031 4316.2971,304.2813 Q4316.9846,305.3438 4318.3283,305.3438 Q4318.9533,305.3438 4319.5471,305.0781 Q4320.1408,304.7969 4320.7658,304.2188 L4320.7658,306.9375 Z " fill="#000000"/><text fill="#000000" font-family="sans-serif" font-size="14" lengthAdjust="spacing" textLength="409" x="4331.7971" y="306.1436">nablarch.common.handler.TransactionManagementHandler</text></g></a><polygon fill="#181818" points="368.7543,285.2513,378.1507,288.2019,373.7218,284.6827,377.241,280.2538,368.7543,285.2513" style="stroke:#181818;stroke-width:1.0;"/><path d="M1178.7619,192.5439 C955.1599,218.1357 576.11,261.5189 374.7153,284.569 " fill="none" style="stroke:#181818;stroke-width:1.0;stroke-dasharray:7.0,7.0;"/><text fill="#000000" font-family="sans-serif" font-size="13" lengthAdjust="spacing" textLength="55" x="663.2971" y="263.3638">depends</text><polygon fill="#181818" points="103.4609,370.2566,96.1511,363.6561,98.7088,368.7017,93.6632,371.2594,103.4609,370.2566" style="stroke:#181818;stroke-width:1.0;"/><path d="M1178.5813,174.5974 C835.0925,179.9795 92.513,201.3056 15.2971,285.2969 C-18.3742,321.9227 44.6461,351.0117 97.7584,368.3907 " fill="none" style="stroke:#181818;stroke-width:1.0;stroke-dasharray:7.0,7.0;"/><text fill="#000000" font-family="sans-serif" font-size="13" lengthAdjust="spacing" textLength="55" x="16.2971" y="305.8638">depends</text><polygon fill="#181818" points="2877.3502,285.2188,2869.6194,279.1168,2872.5056,283.982,2867.6404,286.8682,2877.3502,285.2188" style="stroke:#181818;stroke-width:1.0;"/><path d="M1523.8014,173.7449 C1782.4022,177.1735 2285.3821,191.622 2708.2971,250.2969 C2766.5616,258.3804 2826.288,272.1827 2871.5367,283.7346 " fill="none" style="stroke:#181818;stroke-width:1.0;stroke-dasharray:7.0,7.0;"/><text fill="#000000" font-family="sans-serif" font-size="13" lengthAdjust="spacing" textLength="55" x="2796.2971" y="263.3638">depends</text><polygon fill="#181818" points="3423.2284,384.8769,3414.2735,380.7769,3418.2287,384.8212,3414.1844,388.7764,3423.2284,384.8769" style="stroke:#181818;stroke-width:1.0;"/><path d="M1523.8244,174.1466 C1832.572,178.7584 2466.1088,198.8187 2667.2971,285.2969 C2686.9644,293.7506 2683.6115,308.8855 2703.2971,317.2969 C2829.72,371.3156 3217.833,382.5885 3417.2288,384.8101 " fill="none" style="stroke:#181818;stroke-width:1.0;stroke-dasharray:7.0,7.0;"/><text fill="#000000" font-family="sans-serif" font-size="13" lengthAdjust="spacing" textLength="55" x="2704.2971" y="305.8638">depends</text><polygon fill="#181818" points="3423.0049,371.9553,3414.531,366.9361,3418.0388,371.374,3413.6009,374.8818,3423.0049,371.9553" style="stroke:#181818;stroke-width:1.0;"/><path d="M3027.9958,317.3431 C3094.3532,327.694 3185.1489,341.4727 3265.2971,352.2969 C3316.9468,359.2723 3368.1798,365.5379 3417.0456,371.2577 " fill="none" style="stroke:#181818;stroke-width:1.0;stroke-dasharray:7.0,7.0;"/><text fill="#000000" font-family="sans-serif" font-size="13" lengthAdjust="spacing" textLength="55" x="3266.2971" y="348.3638">depends</text><polygon fill="#181818" points="192.1354,370.2358,201.9302,369.205,196.4669,367.7381,197.9338,362.2747,192.1354,370.2358" style="stroke:#181818;stroke-width:1.0;"/><path d="M233.3176,317.7192 C229.9366,328.4092 224.1908,342.4386 215.2971,352.2969 C208.856,359.4365 205.6924,362.4182 197.3332,367.2385 " fill="none" style="stroke:#181818;stroke-width:1.0;stroke-dasharray:7.0,7.0;"/><text fill="#000000" font-family="sans-serif" font-size="13" lengthAdjust="spacing" textLength="30" x="227.2971" y="348.3638">uses</text><polygon fill="#181818" points="151.7967,370.0076,153.3739,360.2859,150.5239,365.1724,145.6374,362.3224,151.7967,370.0076" style="stroke:#181818;stroke-width:1.0;"/><path d="M174.6171,317.3967 C166.612,321.8923 159.4342,327.7262 154.2971,335.2969 C147.4611,345.3712 147.4719,353.578 150.2693,364.2053 " fill="none" style="stroke:#181818;stroke-width:1.0;stroke-dasharray:7.0,7.0;"/><text fill="#000000" font-family="sans-serif" font-size="13" lengthAdjust="spacing" textLength="55" x="155.2971" y="348.3638">depends</text><polygon fill="none" points="3285.9039,455.238,3304.8414,456.4088,3301.7564,444.8122,3285.9039,455.238" style="stroke:#181818;stroke-width:1.0;"/><path d="M3303.2989,450.6105 C3359.7054,435.6049 3428.427,417.3232 3484.7962,402.3275 " fill="none" style="stroke:#181818;stroke-width:1.0;"/><polygon fill="#181818" points="3244.6495,455.2071,3254.0021,452.1202,3248.3518,451.8467,3248.6253,446.1964,3244.6495,455.2071" style="stroke:#181818;stroke-width:1.0;"/><path d="M3423.1995,391.091 C3381.8799,395.5389 3335.9344,404.1195 3296.2971,420.2969 C3276.5435,428.359 3261.8267,439.6161 3249.0923,451.1746 " fill="none" style="stroke:#181818;stroke-width:1.0;stroke-dasharray:7.0,7.0;"/><text fill="#000000" font-family="sans-serif" font-size="13" lengthAdjust="spacing" textLength="55" x="3297.2971" y="433.3638">depends</text><polygon fill="#181818" points="3756.603,455.2875,3748.9294,449.1136,3751.7701,454.0055,3746.8782,456.8461,3756.603,455.2875" style="stroke:#181818;stroke-width:1.0;"/><path d="M3584.698,402.4054 C3614.7631,412.6898 3655.7898,426.3652 3692.2971,437.2969 C3713.1596,443.5439 3730.3778,448.3307 3750.8035,453.7491 " fill="none" style="stroke:#181818;stroke-width:1.0;stroke-dasharray:7.0,7.0;"/><text fill="#000000" font-family="sans-serif" font-size="13" lengthAdjust="spacing" textLength="30" x="3693.2971" y="433.3638">uses</text><polygon fill="#181818" points="3792.7045,455.1702,3787.2286,446.9839,3788.4762,452.5014,3782.9587,453.7491,3792.7045,455.1702" style="stroke:#181818;stroke-width:1.0;"/><path d="M3657.4831,402.3933 C3679.994,406.9497 3703.1477,412.8057 3724.2971,420.2969 C3748.9353,429.0239 3769.7834,440.7031 3787.6306,451.9677 " fill="none" style="stroke:#181818;stroke-width:1.0;stroke-dasharray:7.0,7.0;"/><text fill="#000000" font-family="sans-serif" font-size="13" lengthAdjust="spacing" textLength="55" x="3761.2971" y="433.3638">depends</text><polygon fill="#181818" points="3992.5339,455.2232,3984.668,449.2963,3987.6627,454.0954,3982.8636,457.0902,3992.5339,455.2232" style="stroke:#181818;stroke-width:1.0;"/><path d="M3659.4854,398.7564 C3709.5473,404.2492 3768.4179,411.5508 3821.2971,420.2969 C3879.701,429.9567 3939.7442,443.0016 3986.6885,453.8699 " fill="none" style="stroke:#181818;stroke-width:1.0;stroke-dasharray:7.0,7.0;"/><text fill="#000000" font-family="sans-serif" font-size="13" lengthAdjust="spacing" textLength="30" x="3906.2971" y="433.3638">uses</text><polygon fill="#181818" points="4027.6456,455.0606,4021.4857,447.3759,4023.2034,452.7656,4017.8137,454.4833,4027.6456,455.0606" style="stroke:#181818;stroke-width:1.0;"/><path d="M3659.3185,392.7266 C3757.7031,398.0482 3889.789,407.2641 3941.2971,420.2969 C3972.0956,428.0896 3999.7822,440.6652 4022.315,452.3066 " fill="none" style="stroke:#181818;stroke-width:1.0;stroke-dasharray:7.0,7.0;"/><text fill="#000000" font-family="sans-serif" font-size="13" lengthAdjust="spacing" textLength="55" x="3990.2971" y="433.3638">depends</text><polygon fill="#181818" points="5344.1431,465.8461,5335.3257,461.4581,5339.1478,465.6284,5334.9775,469.4505,5344.1431,465.8461" style="stroke:#181818;stroke-width:1.0;"/><path d="M3659.3844,392.4419 C4006.3277,407.5581 5012.5543,451.3989 5338.1488,465.5849 " fill="none" style="stroke:#181818;stroke-width:1.0;stroke-dasharray:7.0,7.0;"/><text fill="#000000" font-family="sans-serif" font-size="13" lengthAdjust="spacing" textLength="30" x="4665.2971" y="433.3638">uses</text><polygon fill="#181818" points="5344.103,462.198,5335.4379,457.5166,5339.1178,461.8128,5334.8216,465.4928,5344.103,462.198" style="stroke:#181818;stroke-width:1.0;"/><path d="M3659.3996,389.1603 C3869.0615,392.8032 4320.0274,402.1463 4700.2971,420.2969 C4930.6001,431.2894 5194.4732,450.6367 5338.1208,461.7358 " fill="none" style="stroke:#181818;stroke-width:1.0;stroke-dasharray:7.0,7.0;"/><text fill="#000000" font-family="sans-serif" font-size="13" lengthAdjust="spacing" textLength="55" x="4988.2971" y="433.3638">depends</text><polygon fill="none" points="3540.0079,402.6169,3532.8134,420.1737,3544.7864,420.979,3540.0079,402.6169" style="stroke:#181818;stroke-width:1.0;"/><path d="M3538.7999,420.5763 C3538.1343,430.4728 3538.7696,425.6676 3539.2971,437.2969 C3539.563,443.1587 3540.0932,449.5882 3540.635,455.2025 " fill="none" style="stroke:#181818;stroke-width:1.0;"/><polygon fill="#181818" points="3541.4805,402.5204,3537.5892,411.5679,3541.5407,407.52,3545.5886,411.4715,3541.4805,402.5204" style="stroke:#181818;stroke-width:1.0;"/><path d="M3542.1148,455.1699 C3541.9348,440.2275 3541.7332,423.4958 3541.5528,408.5199 " fill="none" style="stroke:#181818;stroke-width:1.0;stroke-dasharray:7.0,7.0;"/><text fill="#000000" font-family="sans-serif" font-size="13" lengthAdjust="spacing" textLength="55" x="3542.2971" y="433.3638">depends</text><polygon fill="none" points="3422.8916,388.873,3404.7201,383.4143,3405.0792,395.4089,3422.8916,388.873" style="stroke:#181818;stroke-width:1.0;"/><path d="M3404.8997,389.4116 C3308.7358,392.2906 3187.9293,399.5458 3068.2971,420.2969 C3021.806,428.3611 2970.0156,443.6504 2934.3412,455.2083 " fill="none" style="stroke:#181818;stroke-width:1.0;"/><polygon fill="#181818" points="3422.9241,397.1896,3413.6007,394.0156,3417.9444,397.6395,3414.3205,401.9831,3422.9241,397.1896" style="stroke:#181818;stroke-width:1.0;"/><path d="M2975.9984,455.2806 C3039.231,444.546 3127.4457,430.2896 3205.2971,420.2969 C3277.387,411.0437 3352.4962,403.5519 3416.9484,397.7294 " fill="none" style="stroke:#181818;stroke-width:1.0;stroke-dasharray:7.0,7.0;"/><text fill="#000000" font-family="sans-serif" font-size="13" lengthAdjust="spacing" textLength="55" x="3206.2971" y="433.3638">depends</text><polygon fill="#181818" points="3537.4813,370.094,3539.5905,360.4736,3536.4762,365.196,3531.7538,362.0817,3537.4813,370.094" style="stroke:#181818;stroke-width:1.0;"/><path d="M4160.3247,187.8057 C3933.3472,206.6004 3591.869,241.6911 3550.2971,285.2969 C3528.6466,308.0065 3531.7866,342.3417 3536.2752,364.2164 " fill="none" style="stroke:#181818;stroke-width:1.0;stroke-dasharray:7.0,7.0;"/><text fill="#000000" font-family="sans-serif" font-size="13" lengthAdjust="spacing" textLength="30" x="3551.2971" y="305.8638">uses</text><polygon fill="#181818" points="3659.4257,381.8261,3668.5728,385.4774,3664.422,381.634,3668.2654,377.4833,3659.4257,381.8261" style="stroke:#181818;stroke-width:1.0;"/><path d="M4346.4296,187.869 C4305.2008,224.694 4202.507,316.3185 4200.2971,317.2969 C4106.3005,358.9117 3828.274,375.3344 3665.4213,381.5956 " fill="none" style="stroke:#181818;stroke-width:1.0;stroke-dasharray:7.0,7.0;"/><text fill="#000000" font-family="sans-serif" font-size="13" lengthAdjust="spacing" textLength="55" x="4237.2971" y="305.8638">depends</text><polygon fill="#181818" points="4519.3346,284.8592,4520.4429,275.0729,4517.831,280.0907,4512.8132,277.4787,4519.3346,284.8592" style="stroke:#181818;stroke-width:1.0;"/><path d="M4405.1077,187.8893 C4435.2086,200.5689 4474.9873,221.2971 4501.2971,250.2969 C4510.2183,260.1302 4514.1572,268.4397 4517.5302,279.137 " fill="none" style="stroke:#181818;stroke-width:1.0;stroke-dasharray:7.0,7.0;"/><text fill="#000000" font-family="sans-serif" font-size="13" lengthAdjust="spacing" textLength="30" x="4512.2971" y="263.3638">uses</text><polygon fill="#181818" points="4402.6141,285.2207,4394.8909,279.109,4397.771,283.9778,4392.9022,286.8579,4402.6141,285.2207" style="stroke:#181818;stroke-width:1.0;"/><path d="M4358.2533,187.833 C4352.4326,208.2798 4345.8482,244.8692 4364.2971,267.2969 C4370.476,274.8084 4379.0634,279.1766 4396.8024,283.7292 " fill="none" style="stroke:#181818;stroke-width:1.0;stroke-dasharray:7.0,7.0;"/><text fill="#000000" font-family="sans-serif" font-size="13" lengthAdjust="spacing" textLength="55" x="4365.2971" y="263.3638">depends</text><polygon fill="#181818" points="3578.1278,370.238,3587.9722,370.5344,3582.7559,368.3457,3584.9445,363.1294,3578.1278,370.238" style="stroke:#181818;stroke-width:1.0;"/><path d="M3707.5353,317.3275 C3670.8592,332.3232 3620.3819,352.9617 3583.6815,367.9673 " fill="none" style="stroke:#181818;stroke-width:1.0;stroke-dasharray:7.0,7.0;"/><text fill="#000000" font-family="sans-serif" font-size="13" lengthAdjust="spacing" textLength="30" x="3661.2971" y="348.3638">uses</text><polygon fill="#181818" points="3634.1903,370.238,3643.7144,372.7463,3639.1259,369.4379,3642.4342,364.8494,3634.1903,370.238" style="stroke:#181818;stroke-width:1.0;"/><path d="M3960.5777,317.3275 C3868.0744,332.3232 3732.6775,354.2723 3640.113,369.2779 " fill="none" style="stroke:#181818;stroke-width:1.0;stroke-dasharray:7.0,7.0;"/><text fill="#000000" font-family="sans-serif" font-size="13" lengthAdjust="spacing" textLength="30" x="3843.2971" y="348.3638">uses</text><polygon fill="#181818" points="3659.5952,382.6742,3668.6913,386.4507,3664.5937,382.5507,3668.4937,378.4532,3659.5952,382.6742" style="stroke:#181818;stroke-width:1.0;"/><path d="M4832.4866,317.3154 C4717.7248,328.4841 4554.5562,343.2911 4411.2971,352.2969 C4142.7796,369.1767 3833.0577,378.389 3665.5934,382.526 " fill="none" style="stroke:#181818;stroke-width:1.0;stroke-dasharray:7.0,7.0;"/><text fill="#000000" font-family="sans-serif" font-size="13" lengthAdjust="spacing" textLength="30" x="4631.2971" y="348.3638">uses</text><polygon fill="#181818" points="3659.6515,383.7539,3668.7078,387.6247,3664.651,383.6824,3668.5933,379.6255,3659.6515,383.7539" style="stroke:#181818;stroke-width:1.0;"/><path d="M4903.5452,317.348 C4840.1865,329.0892 4747.7737,344.6469 4666.2971,352.2969 C4473.9448,370.3572 3913.4782,380.1208 3665.6509,383.6681 " fill="none" style="stroke:#181818;stroke-width:1.0;stroke-dasharray:7.0,7.0;"/><text fill="#000000" font-family="sans-serif" font-size="13" lengthAdjust="spacing" textLength="55" x="4796.2971" y="348.3638">depends</text><polygon fill="#181818" points="3499.3863,370.238,3492.269,363.4304,3494.6808,368.5473,3489.5638,370.9591,3499.3863,370.238" style="stroke:#181818;stroke-width:1.0;"/><path d="M3352.1294,317.3275 C3393.8644,332.3232 3451.9772,353.2036 3493.7397,368.2092 " fill="none" style="stroke:#181818;stroke-width:1.0;stroke-dasharray:7.0,7.0;"/><text fill="#000000" font-family="sans-serif" font-size="13" lengthAdjust="spacing" textLength="30" x="3447.2971" y="348.3638">uses</text><polygon fill="#181818" points="3423.1727,373.539,3414.8653,368.2485,3418.2279,372.7975,3413.679,376.1601,3423.1727,373.539" style="stroke:#181818;stroke-width:1.0;"/><path d="M3316.287,317.475 C3321.6216,328.9231 3330.5645,344.0223 3343.2971,352.2969 C3357.4326,361.4832 3383.2305,367.5496 3417.239,372.6492 " fill="none" style="stroke:#181818;stroke-width:1.0;stroke-dasharray:7.0,7.0;"/><text fill="#000000" font-family="sans-serif" font-size="13" lengthAdjust="spacing" textLength="55" x="3344.2971" y="348.3638">depends</text><polygon fill="#181818" points="3422.9462,385.177,3413.9524,381.1631,3417.9462,385.1693,3413.94,389.1631,3422.9462,385.177" style="stroke:#181818;stroke-width:1.0;"/><path d="M700.7831,317.3199 C796.0325,329.2129 935.7857,344.9957 1058.2971,352.2969 C1526.8416,380.2201 2988.753,384.5073 3416.9462,385.1678 " fill="none" style="stroke:#181818;stroke-width:1.0;stroke-dasharray:7.0,7.0;"/><text fill="#000000" font-family="sans-serif" font-size="13" lengthAdjust="spacing" textLength="30" x="1059.2971" y="348.3638">uses</text><polygon fill="#181818" points="3423.1607,385.4846,3414.1566,381.4939,3418.1607,385.4898,3414.1648,389.4939,3423.1607,385.4846" style="stroke:#181818;stroke-width:1.0;"/><path d="M1033.3422,317.3661 C1068.3835,329.4167 1120.4055,345.3969 1167.2971,352.2969 C1390.9506,385.2071 2968.6034,385.9528 3417.1607,385.4908 " fill="none" style="stroke:#181818;stroke-width:1.0;stroke-dasharray:7.0,7.0;"/><text fill="#000000" font-family="sans-serif" font-size="13" lengthAdjust="spacing" textLength="30" x="1168.2971" y="348.3638">uses</text><polygon fill="#181818" points="3423.2645,384.2597,3414.3043,380.1713,3418.2647,384.2105,3414.2255,388.1709,3423.2645,384.2597" style="stroke:#181818;stroke-width:1.0;"/><path d="M1202.39,316.7544 C1205.3786,316.938 1208.3489,317.1189 1211.2971,317.2969 C1508.9391,335.2631 1583.3068,341.5544 1881.2971,352.2969 C2459.406,373.1376 3145.2762,381.524 3417.2648,384.2006 " fill="none" style="stroke:#181818;stroke-width:1.0;stroke-dasharray:7.0,7.0;"/><text fill="#000000" font-family="sans-serif" font-size="13" lengthAdjust="spacing" textLength="55" x="1882.2971" y="348.3638">depends</text><polygon fill="#181818" points="2933.2971,285.19,2937.2971,276.19,2933.2971,280.19,2929.2971,276.19,2933.2971,285.19" style="stroke:#181818;stroke-width:1.0;"/><path d="M2933.2971,187.9235 C2933.2971,212.462 2933.2971,254.6641 2933.2971,279.19 " fill="none" style="stroke:#181818;stroke-width:1.0;stroke-dasharray:7.0,7.0;"/><text fill="#000000" font-family="sans-serif" font-size="13" lengthAdjust="spacing" textLength="55" x="2934.2971" y="263.3638">depends</text><polygon fill="#181818" points="5548.5532,466.9852,5557.7239,470.5767,5553.5482,466.7605,5557.3644,462.5848,5548.5532,466.9852" style="stroke:#181818;stroke-width:1.0;"/><path d="M5910.6975,317.5208 C5896.4375,348.0724 5859.4372,415.7717 5803.2971,437.2969 C5758.3284,454.5387 5643.2684,462.7244 5554.5472,466.7156 " fill="none" style="stroke:#181818;stroke-width:1.0;stroke-dasharray:7.0,7.0;"/><text fill="#000000" font-family="sans-serif" font-size="13" lengthAdjust="spacing" textLength="30" x="5880.2971" y="390.8638">uses</text><polygon fill="#181818" points="5488.5843,455.2135,5498.4051,455.9574,5493.2937,453.5337,5495.7174,448.4224,5488.5843,455.2135" style="stroke:#181818;stroke-width:1.0;"/><path d="M5875.0845,317.3536 C5785.6693,349.2469 5583.7165,421.281 5494.2356,453.1978 " fill="none" style="stroke:#181818;stroke-width:1.0;stroke-dasharray:7.0,7.0;"/><text fill="#000000" font-family="sans-serif" font-size="13" lengthAdjust="spacing" textLength="55" x="5721.2971" y="390.8638">depends</text><polygon fill="#181818" points="3659.5021,384.6426,3668.5299,388.5795,3664.5019,384.6076,3668.4738,380.5796,3659.5021,384.6426" style="stroke:#181818;stroke-width:1.0;"/><path d="M5722.0437,317.3108 C5565.8334,328.7468 5341.1343,343.9088 5144.2971,352.2969 C4589.1296,375.9548 3931.0567,382.7407 3665.5019,384.6006 " fill="none" style="stroke:#181818;stroke-width:1.0;stroke-dasharray:7.0,7.0;"/><text fill="#000000" font-family="sans-serif" font-size="13" lengthAdjust="spacing" textLength="55" x="5442.2971" y="348.3638">depends</text><polygon fill="#181818" points="5440.4928,455.1812,5441.2101,445.3585,5438.8003,450.4764,5433.6824,448.0666,5440.4928,455.1812" style="stroke:#181818;stroke-width:1.0;"/><path d="M5440.4928,317.4125 C5435.6004,331.0122 5428.9807,351.6616 5426.2971,370.2969 C5424.2699,384.3739 5424.2699,388.2199 5426.2971,402.2969 C5428.9807,420.9322 5433.5694,435.9358 5438.4618,449.5354 " fill="none" style="stroke:#181818;stroke-width:1.0;stroke-dasharray:7.0,7.0;"/><text fill="#000000" font-family="sans-serif" font-size="13" lengthAdjust="spacing" textLength="30" x="5427.2971" y="390.8638">uses</text><polygon fill="#181818" points="5449.7272,455.2727,5455.5273,447.3129,5450.7768,450.3841,5447.7056,445.6335,5449.7272,455.2727" style="stroke:#181818;stroke-width:1.0;"/><path d="M5449.7272,317.3211 C5452.6713,331.0338 5456.6868,351.9058 5458.2971,370.2969 C5459.5376,384.4649 5459.5376,388.1289 5458.2971,402.2969 C5456.6868,420.688 5453.9308,435.6936 5450.9867,449.4064 " fill="none" style="stroke:#181818;stroke-width:1.0;stroke-dasharray:7.0,7.0;"/><text fill="#000000" font-family="sans-serif" font-size="13" lengthAdjust="spacing" textLength="55" x="5459.2971" y="390.8638">depends</text><polygon fill="#181818" points="3659.7139,384.6824,3668.7435,388.6152,3664.7138,384.6452,3668.6838,380.6154,3659.7139,384.6824" style="stroke:#181818;stroke-width:1.0;"/><path d="M5298.256,317.2978 C5179.0319,328.7861 5007.0544,344.0246 4856.2971,352.2969 C4415.349,376.4925 3896.2397,382.9194 3665.7137,384.6377 " fill="none" style="stroke:#181818;stroke-width:1.0;stroke-dasharray:7.0,7.0;"/><text fill="#000000" font-family="sans-serif" font-size="13" lengthAdjust="spacing" textLength="55" x="5084.2971" y="348.3638">depends</text><polygon fill="#181818" points="3423.1933,383.9144,3414.2471,379.7955,3418.1937,383.8482,3414.1411,387.7948,3423.1933,383.9144" style="stroke:#181818;stroke-width:1.0;"/><path d="M1669.4271,317.3139 C1822.8738,328.5959 2042.1017,343.5519 2234.2971,352.2969 C2672.4865,372.2347 3187.9045,380.7966 3417.1938,383.8349 " fill="none" style="stroke:#181818;stroke-width:1.0;stroke-dasharray:7.0,7.0;"/><text fill="#000000" font-family="sans-serif" font-size="13" lengthAdjust="spacing" textLength="55" x="2235.2971" y="348.3638">depends</text><polygon fill="#181818" points="3423.2412,384.1757,3414.2918,380.0638,3418.2416,384.1134,3414.192,388.0632,3423.2412,384.1757" style="stroke:#181818;stroke-width:1.0;"/><path d="M2110.9974,317.3093 C2213.1895,328.7446 2360.2466,343.9063 2489.2971,352.2969 C2827.7726,374.3038 3222.4994,381.6719 3417.2417,384.1009 " fill="none" style="stroke:#181818;stroke-width:1.0;stroke-dasharray:7.0,7.0;"/><text fill="#000000" font-family="sans-serif" font-size="13" lengthAdjust="spacing" textLength="55" x="2490.2971" y="348.3638">depends</text><polygon fill="#181818" points="3422.8976,384.6038,3413.9325,380.5261,3417.8977,384.5606,3413.8633,388.5258,3422.8976,384.6038" style="stroke:#181818;stroke-width:1.0;"/><path d="M2490.0864,317.3389 C2525.1424,329.2007 2576.7964,344.9302 2623.2971,352.2969 C2773.7226,376.1275 3204.6953,382.7161 3416.8978,384.5519 " fill="none" style="stroke:#181818;stroke-width:1.0;stroke-dasharray:7.0,7.0;"/><text fill="#000000" font-family="sans-serif" font-size="13" lengthAdjust="spacing" textLength="55" x="2624.2971" y="348.3638">depends</text><polygon fill="#181818" points="4374.1375,187.9002,4376.1988,197.531,4377.0795,191.9431,4382.6673,192.8238,4374.1375,187.9002" style="stroke:#181818;stroke-width:1.0;"/><path d="M4473.2985,285.1747 C4461.8616,280.4573 4450.1758,274.5414 4440.2971,267.2969 C4424.5112,255.7204 4394.8594,216.376 4377.6679,192.7516 " fill="none" style="stroke:#181818;stroke-width:1.0;stroke-dasharray:7.0,7.0;"/><text fill="#000000" font-family="sans-serif" font-size="13" lengthAdjust="spacing" textLength="55" x="4441.2971" y="263.3638">depends</text><polygon fill="#181818" points="3659.3236,384.3464,3668.3853,388.2047,3664.323,384.2679,3668.2597,380.2057,3659.3236,384.3464" style="stroke:#181818;stroke-width:1.0;"/><path d="M4453.2569,317.2974 C4396.4164,328.8456 4314.0596,344.1652 4241.2971,352.2969 C4037.5637,375.0654 3804.7635,382.0638 3665.3229,384.2522 " fill="none" style="stroke:#181818;stroke-width:1.0;stroke-dasharray:7.0,7.0;"/><text fill="#000000" font-family="sans-serif" font-size="13" lengthAdjust="spacing" textLength="55" x="4351.2971" y="348.3638">depends</text><!--SRC=[pLXjRzis4FwkNy5rMv5XiBeK-nIq7G9tHGAanHQd68QY46ZfB7EXI8saxBfP__ieItOSXQIe5nVzO1imxvvxxevt9E-xNE0qmuZY3IyKaXaep72WYAA069vJBE9b6FCiuonSmpoCfLY4K_rrms-1lLU41lAMi1mBdA6OOYdFbH9aNYYuZ3cRaS-0VZaGoN5yYrEOgOqs823Mvb8A1m9pBP0ANh1aoYaNQBqawd1TBd72ruIbQ86fF5oXX87Qv82uK4iUB4a22B9SRL06sHo4388jGVJ4px4d24iqZNR2KIKSQU6e58uU2ACF7vwj2An1FFijuqb1uULESR9OJxJIqwtnbtwsFtv4tr-HTAd-1ahv6jq5Q89U44RKgvEVq1bQSP84w6Tq9nLM9Fw2Kb1xW9FVFq5SACBPb3C5drIfCTDPOMbJvm9m0k8Tpk34BlH76LvGRZa1AJ0GM86RnvRvbu1n1KZn7F65VupF41QAB72ipb0ZkgxKIf1IamXdrMzBRclfw41wK78DrdLsxtGC79J_WhcEsOAa3g9xcK7qzYWTIBqXJEyQ7sgLv3W4AomBpSKwREws9h_5EcgAk8Z5N42Jbi5ApGVFfH9wOo83iGlC4WhYpm8AUAlRQ_euTfgRGQe7FGEAFM8ptNqJJ3a3ZzZPXLlIA_UA1hvsL3ljggh4YeBILRNzzU1VrVPMEh9eTT-dVcpSfRMiKXRU2Coata9QhyfS1apL-VpXr59jjNBaKevEspRIHDshMqhHX-MFptyzRMyZZORetuh7RCCrJQBp8_I10W-e2WWfJyChdgQcDYSWqijHjTorHXle3XvwRxt62bzlZsZ3XhvVxD4dxfLz6RpHIUTYuoHIompYKsFOot-t4wyupwtbeMdjIkD0pbq9RRtAODYnuorC3-gdQXDSN6OvzUHlqHxVAukXTb_V5bIHcwNGkTotGPyiEVJ6oPh3W3kBXAtq3LI4vtB3ubhZYaXrMVrlzAhMYImwRHuPt6XXuN11WLHLsragbOSN-kiQ_YtqlpVwColoN3-OQiIcAwLkrV5AtSYfwtAfnD4lXgPVNQYv3nPSw3UV89zncTPGS0hDZZ_JMnZUwvFwMYzUW-HqPRt3Fa2BIhJcMMH4S_Uz4dbI8azgBCjfrTELblYiCA5uJYXHc-qrXSHmVl3VT0dnhMKJx89o81wrG7X6mXQ13cJzxbQlopS40_ErfULgvTJrSFIVP1wtNAgS9lmyLDlE5bSNph3gS_NrSqe12pzV7w14LfHktQiVqy5k3_RuoCuEyBEi_SjaFsdhv693TqJl6iZ3Npq3tZnVwSLJ-nXuZx32y9NdpEGC9P03I-IeuEF2ccPbmmsO1ZLjg2Oc8y0sa-8NuKAp6HNGGD8oCNhntsJIudJG4fF7OJCPif7oW3juk3wELG-84OZi7gx3-TmZzQFL72_qOlGOn9ECOVlO9tI1zu2mRoLwKlGOxGNTXu43suVdPCxBYgMXZ6bYR4UwdDKZEzZDTATpfL-whCEeCT5iew5lneQvlltcFqET607TJBzzqDEBUgUvopTYmLv8VSSfurqyEyqkEf_8Hp5o76VwDd_t4AHln4P27vb-tnZv3a-ER-webfe3XAzmlHXmmkiEFBPrjuV_0m00]--></g></svg>