<?xml version="1.0" encoding="us-ascii" standalone="no"?><svg xmlns="http://www.w3.org/2000/svg" xmlns:xlink="http://www.w3.org/1999/xlink" contentStyleType="text/css" height="535px" preserveAspectRatio="none" style="width:7185px;height:535px;background:#FFFFFF;" version="1.1" viewBox="0 0 7185 535" width="7185px" zoomAndPan="magnify"><defs/><g><text fill="#000000" font-family="sans-serif" font-size="14" font-weight="bold" lengthAdjust="spacing" textLength="429" x="3374.25" y="22.9951">nablarch.common.web.handler.HttpAccessLogHandler</text><!--class C_nablarch_common_web_handler_HttpAccessLogHandler--><a href="/viewer/?module=nablarch-fw-web&amp;class=nablarch.common.web.handler.HttpAccessLogHandler" target="_top" title="/viewer/?module=nablarch-fw-web&amp;class=nablarch.common.web.handler.HttpAccessLogHandler" xlink:actuate="onRequest" xlink:href="/viewer/?module=nablarch-fw-web&amp;class=nablarch.common.web.handler.HttpAccessLogHandler" xlink:show="new" xlink:title="/viewer/?module=nablarch-fw-web&amp;class=nablarch.common.web.handler.HttpAccessLogHandler" xlink:type="simple"><g id="elem_C_nablarch_common_web_handler_HttpAccessLogHandler"><rect codeLine="10" fill="#FFFFE0" height="178.375" id="C_nablarch_common_web_handler_HttpAccessLogHandler" rx="2.5" ry="2.5" style="stroke:#181818;stroke-width:0.5;" width="879" x="4299" y="111.2969"/><ellipse cx="4547.25" cy="127.2969" fill="#ADD1B2" rx="11" ry="11" style="stroke:#181818;stroke-width:1.0;"/><path d="M4550.2188,132.9375 Q4549.6406,133.2344 4549,133.375 Q4548.3594,133.5313 4547.6563,133.5313 Q4545.1563,133.5313 4543.8281,131.8906 Q4542.5156,130.2344 4542.5156,127.1094 Q4542.5156,123.9844 4543.8281,122.3281 Q4545.1563,120.6719 4547.6563,120.6719 Q4548.3594,120.6719 4549,120.8281 Q4549.6563,120.9844 4550.2188,121.2813 L4550.2188,124 Q4549.5938,123.4219 4549,123.1563 Q4548.4063,122.875 4547.7813,122.875 Q4546.4375,122.875 4545.75,123.9531 Q4545.0625,125.0156 4545.0625,127.1094 Q4545.0625,129.2031 4545.75,130.2813 Q4546.4375,131.3438 4547.7813,131.3438 Q4548.4063,131.3438 4549,131.0781 Q4549.5938,130.7969 4550.2188,130.2188 L4550.2188,132.9375 Z " fill="#000000"/><text fill="#000000" font-family="sans-serif" font-size="14" lengthAdjust="spacing" textLength="374" x="4567.75" y="132.1436">nablarch.common.web.handler.HttpAccessLogHandler</text><line style="stroke:#181818;stroke-width:0.5;" x1="4300" x2="5177" y1="143.2969" y2="143.2969"/><text fill="#000000" font-family="sans-serif" font-size="14" lengthAdjust="spacing" text-decoration="underline" textLength="190" x="4305" y="160.292">-EMPTY_OPTIONS : Object[]</text><text fill="#000000" font-family="sans-serif" font-size="14" lengthAdjust="spacing" textLength="8" x="4305" y="176.5889">..</text><line style="stroke:#181818;stroke-width:0.5;" x1="4300" x2="5177" y1="183.8906" y2="183.8906"/><text fill="#000000" font-family="sans-serif" font-size="14" lengthAdjust="spacing" textLength="107" x="4305" y="200.8857">+&lt;init&gt;() : void</text><text fill="#000000" font-family="sans-serif" font-size="14" lengthAdjust="spacing" textLength="400" x="4305" y="217.1826">+handle(HttpRequest, ExecutionContext) : HttpResponse</text><text fill="#000000" font-family="sans-serif" font-size="14" lengthAdjust="spacing" textLength="772" x="4305" y="233.4795">#writeBeginLog(HttpRequest, ServletExecutionContext, HttpAccessLogFormatter$HttpAccessLogContext) : void</text><text fill="#000000" font-family="sans-serif" font-size="14" lengthAdjust="spacing" textLength="867" x="4305" y="249.7764">#writeEndLog(HttpRequest, ServletExecutionContext, HttpAccessLogFormatter$HttpAccessLogContext, HttpResponse) : void</text><text fill="#000000" font-family="sans-serif" font-size="14" lengthAdjust="spacing" textLength="444" x="4305" y="266.0732">#getRequestOptions(HttpRequest, ExecutionContext) : Object[]</text><text fill="#000000" font-family="sans-serif" font-size="14" lengthAdjust="spacing" textLength="564" x="4305" y="282.3701">#getResponseOptions(HttpRequest, HttpResponse, ExecutionContext) : Object[]</text></g></a><g id="elem_GMN3"><path d="M4650,49.2969 L4650,74.4297 A0,0 0 0 0 4650,74.4297 L4734.5,74.4297 L4738.5,110.9997 L4742.5,74.4297 L4827,74.4297 A0,0 0 0 0 4827,74.4297 L4827,59.2969 L4817,49.2969 L4650,49.2969 A0,0 0 0 0 4650,49.2969 " fill="#FEFFDD" style="stroke:#181818;stroke-width:0.5;"/><path d="M4817,49.2969 L4817,59.2969 L4827,59.2969 L4817,49.2969 " fill="#FEFFDD" style="stroke:#181818;stroke-width:0.5;"/><text fill="#000000" font-family="sans-serif" font-size="13" lengthAdjust="spacing" textLength="156" x="4656" y="66.3638">artifact: nablarch-fw-web</text></g><!--class C_nablarch_fw_Handler--><a href="/viewer/?module=nablarch-core&amp;class=nablarch.fw.Handler" target="_top" title="/viewer/?module=nablarch-core&amp;class=nablarch.fw.Handler" xlink:actuate="onRequest" xlink:href="/viewer/?module=nablarch-core&amp;class=nablarch.fw.Handler" xlink:show="new" xlink:title="/viewer/?module=nablarch-core&amp;class=nablarch.fw.Handler" xlink:type="simple"><g id="elem_C_nablarch_fw_Handler"><rect codeLine="21" fill="#F1F1F1" height="32" id="C_nablarch_fw_Handler" rx="2.5" ry="2.5" style="stroke:#181818;stroke-width:0.5;" width="168" x="3815.5" y="427.2969"/><ellipse cx="3830.5" cy="443.2969" fill="#B4A7E5" rx="11" ry="11" style="stroke:#181818;stroke-width:1.0;"/><path d="M3826.4219,439.0625 L3826.4219,436.9063 L3833.8125,436.9063 L3833.8125,439.0625 L3831.3438,439.0625 L3831.3438,447.1406 L3833.8125,447.1406 L3833.8125,449.2969 L3826.4219,449.2969 L3826.4219,447.1406 L3828.8906,447.1406 L3828.8906,439.0625 L3826.4219,439.0625 Z " fill="#000000"/><text fill="#000000" font-family="sans-serif" font-size="14" font-style="italic" lengthAdjust="spacing" textLength="136" x="3844.5" y="448.1436">nablarch.fw.Handler</text></g></a><!--class C_nablarch_fw_ExecutionContext--><a href="/viewer/?module=nablarch-core&amp;class=nablarch.fw.ExecutionContext" target="_top" title="/viewer/?module=nablarch-core&amp;class=nablarch.fw.ExecutionContext" xlink:actuate="onRequest" xlink:href="/viewer/?module=nablarch-core&amp;class=nablarch.fw.ExecutionContext" xlink:show="new" xlink:title="/viewer/?module=nablarch-core&amp;class=nablarch.fw.ExecutionContext" xlink:type="simple"><g id="elem_C_nablarch_fw_ExecutionContext"><rect codeLine="23" fill="#F1F1F1" height="32" id="C_nablarch_fw_ExecutionContext" rx="2.5" ry="2.5" style="stroke:#181818;stroke-width:0.5;" width="236" x="3781.5" y="342.2969"/><ellipse cx="3796.5" cy="358.2969" fill="#ADD1B2" rx="11" ry="11" style="stroke:#181818;stroke-width:1.0;"/><path d="M3799.4688,363.9375 Q3798.8906,364.2344 3798.25,364.375 Q3797.6094,364.5313 3796.9063,364.5313 Q3794.4063,364.5313 3793.0781,362.8906 Q3791.7656,361.2344 3791.7656,358.1094 Q3791.7656,354.9844 3793.0781,353.3281 Q3794.4063,351.6719 3796.9063,351.6719 Q3797.6094,351.6719 3798.25,351.8281 Q3798.9063,351.9844 3799.4688,352.2813 L3799.4688,355 Q3798.8438,354.4219 3798.25,354.1563 Q3797.6563,353.875 3797.0313,353.875 Q3795.6875,353.875 3795,354.9531 Q3794.3125,356.0156 3794.3125,358.1094 Q3794.3125,360.2031 3795,361.2813 Q3795.6875,362.3438 3797.0313,362.3438 Q3797.6563,362.3438 3798.25,362.0781 Q3798.8438,361.7969 3799.4688,361.2188 L3799.4688,363.9375 Z " fill="#000000"/><text fill="#000000" font-family="sans-serif" font-size="14" lengthAdjust="spacing" textLength="204" x="3810.5" y="363.1436">nablarch.fw.ExecutionContext</text></g></a><!--class C_nablarch_fw_web_handler_HttpAccessLogFormatter_HttpAccessLogContext--><a href="/viewer/?module=nablarch-fw-web&amp;class=nablarch.fw.web.handler.HttpAccessLogFormatter%24HttpAccessLogContext" target="_top" title="/viewer/?module=nablarch-fw-web&amp;class=nablarch.fw.web.handler.HttpAccessLogFormatter%24HttpAccessLogContext" xlink:actuate="onRequest" xlink:href="/viewer/?module=nablarch-fw-web&amp;class=nablarch.fw.web.handler.HttpAccessLogFormatter%24HttpAccessLogContext" xlink:show="new" xlink:title="/viewer/?module=nablarch-fw-web&amp;class=nablarch.fw.web.handler.HttpAccessLogFormatter%24HttpAccessLogContext" xlink:type="simple"><g id="elem_C_nablarch_fw_web_handler_HttpAccessLogFormatter_HttpAccessLogContext"><rect codeLine="25" fill="#F1F1F1" height="32" id="C_nablarch_fw_web_handler_HttpAccessLogFormatter_HttpAccessLogContext" rx="2.5" ry="2.5" style="stroke:#181818;stroke-width:0.5;" width="541" x="4729" y="427.2969"/><ellipse cx="4744" cy="443.2969" fill="#ADD1B2" rx="11" ry="11" style="stroke:#181818;stroke-width:1.0;"/><path d="M4746.9688,448.9375 Q4746.3906,449.2344 4745.75,449.375 Q4745.1094,449.5313 4744.4063,449.5313 Q4741.9063,449.5313 4740.5781,447.8906 Q4739.2656,446.2344 4739.2656,443.1094 Q4739.2656,439.9844 4740.5781,438.3281 Q4741.9063,436.6719 4744.4063,436.6719 Q4745.1094,436.6719 4745.75,436.8281 Q4746.4063,436.9844 4746.9688,437.2813 L4746.9688,440 Q4746.3438,439.4219 4745.75,439.1563 Q4745.1563,438.875 4744.5313,438.875 Q4743.1875,438.875 4742.5,439.9531 Q4741.8125,441.0156 4741.8125,443.1094 Q4741.8125,445.2031 4742.5,446.2813 Q4743.1875,447.3438 4744.5313,447.3438 Q4745.1563,447.3438 4745.75,447.0781 Q4746.3438,446.7969 4746.9688,446.2188 L4746.9688,448.9375 Z " fill="#000000"/><text fill="#000000" font-family="sans-serif" font-size="14" lengthAdjust="spacing" textLength="509" x="4758" y="448.1436">nablarch.fw.web.handler.HttpAccessLogFormatter$HttpAccessLogContext</text></g></a><!--class C_nablarch_fw_web_handler_HttpAccessLogUtil--><a href="/viewer/?module=nablarch-fw-web&amp;class=nablarch.fw.web.handler.HttpAccessLogUtil" target="_top" title="/viewer/?module=nablarch-fw-web&amp;class=nablarch.fw.web.handler.HttpAccessLogUtil" xlink:actuate="onRequest" xlink:href="/viewer/?module=nablarch-fw-web&amp;class=nablarch.fw.web.handler.HttpAccessLogUtil" xlink:show="new" xlink:title="/viewer/?module=nablarch-fw-web&amp;class=nablarch.fw.web.handler.HttpAccessLogUtil" xlink:type="simple"><g id="elem_C_nablarch_fw_web_handler_HttpAccessLogUtil"><rect codeLine="27" fill="#F1F1F1" height="32" id="C_nablarch_fw_web_handler_HttpAccessLogUtil" rx="2.5" ry="2.5" style="stroke:#181818;stroke-width:0.5;" width="328" x="4574.5" y="342.2969"/><ellipse cx="4589.5" cy="358.2969" fill="#ADD1B2" rx="11" ry="11" style="stroke:#181818;stroke-width:1.0;"/><path d="M4592.4688,363.9375 Q4591.8906,364.2344 4591.25,364.375 Q4590.6094,364.5313 4589.9063,364.5313 Q4587.4063,364.5313 4586.0781,362.8906 Q4584.7656,361.2344 4584.7656,358.1094 Q4584.7656,354.9844 4586.0781,353.3281 Q4587.4063,351.6719 4589.9063,351.6719 Q4590.6094,351.6719 4591.25,351.8281 Q4591.9063,351.9844 4592.4688,352.2813 L4592.4688,355 Q4591.8438,354.4219 4591.25,354.1563 Q4590.6563,353.875 4590.0313,353.875 Q4588.6875,353.875 4588,354.9531 Q4587.3125,356.0156 4587.3125,358.1094 Q4587.3125,360.2031 4588,361.2813 Q4588.6875,362.3438 4590.0313,362.3438 Q4590.6563,362.3438 4591.25,362.0781 Q4591.8438,361.7969 4592.4688,361.2188 L4592.4688,363.9375 Z " fill="#000000"/><text fill="#000000" font-family="sans-serif" font-size="14" lengthAdjust="spacing" textLength="296" x="4603.5" y="363.1436">nablarch.fw.web.handler.HttpAccessLogUtil</text></g></a><!--class C_nablarch_fw_web_HttpErrorResponse--><a href="/viewer/?module=nablarch-fw-web&amp;class=nablarch.fw.web.HttpErrorResponse" target="_top" title="/viewer/?module=nablarch-fw-web&amp;class=nablarch.fw.web.HttpErrorResponse" xlink:actuate="onRequest" xlink:href="/viewer/?module=nablarch-fw-web&amp;class=nablarch.fw.web.HttpErrorResponse" xlink:show="new" xlink:title="/viewer/?module=nablarch-fw-web&amp;class=nablarch.fw.web.HttpErrorResponse" xlink:type="simple"><g id="elem_C_nablarch_fw_web_HttpErrorResponse"><rect codeLine="29" fill="#F1F1F1" height="32" id="C_nablarch_fw_web_HttpErrorResponse" rx="2.5" ry="2.5" style="stroke:#181818;stroke-width:0.5;" width="280" x="5013.5" y="342.2969"/><ellipse cx="5028.5" cy="358.2969" fill="#ADD1B2" rx="11" ry="11" style="stroke:#181818;stroke-width:1.0;"/><path d="M5031.4688,363.9375 Q5030.8906,364.2344 5030.25,364.375 Q5029.6094,364.5313 5028.9063,364.5313 Q5026.4063,364.5313 5025.0781,362.8906 Q5023.7656,361.2344 5023.7656,358.1094 Q5023.7656,354.9844 5025.0781,353.3281 Q5026.4063,351.6719 5028.9063,351.6719 Q5029.6094,351.6719 5030.25,351.8281 Q5030.9063,351.9844 5031.4688,352.2813 L5031.4688,355 Q5030.8438,354.4219 5030.25,354.1563 Q5029.6563,353.875 5029.0313,353.875 Q5027.6875,353.875 5027,354.9531 Q5026.3125,356.0156 5026.3125,358.1094 Q5026.3125,360.2031 5027,361.2813 Q5027.6875,362.3438 5029.0313,362.3438 Q5029.6563,362.3438 5030.25,362.0781 Q5030.8438,361.7969 5031.4688,361.2188 L5031.4688,363.9375 Z " fill="#000000"/><text fill="#000000" font-family="sans-serif" font-size="14" lengthAdjust="spacing" textLength="248" x="5042.5" y="363.1436">nablarch.fw.web.HttpErrorResponse</text></g></a><!--class C_nablarch_common_availability_ServiceAvailabilityCheckHandler--><a href="/viewer/?module=nablarch-common-auth&amp;class=nablarch.common.availability.ServiceAvailabilityCheckHandler" target="_top" title="/viewer/?module=nablarch-common-auth&amp;class=nablarch.common.availability.ServiceAvailabilityCheckHandler" xlink:actuate="onRequest" xlink:href="/viewer/?module=nablarch-common-auth&amp;class=nablarch.common.availability.ServiceAvailabilityCheckHandler" xlink:show="new" xlink:title="/viewer/?module=nablarch-common-auth&amp;class=nablarch.common.availability.ServiceAvailabilityCheckHandler" xlink:type="simple"><g id="elem_C_nablarch_common_availability_ServiceAvailabilityCheckHandler"><rect codeLine="31" fill="#F1F1F1" height="32" id="C_nablarch_common_availability_ServiceAvailabilityCheckHandler" rx="2.5" ry="2.5" style="stroke:#181818;stroke-width:0.5;" width="446" x="6732.5" y="496.2969"/><ellipse cx="6747.5" cy="512.2969" fill="#ADD1B2" rx="11" ry="11" style="stroke:#181818;stroke-width:1.0;"/><path d="M6750.4688,517.9375 Q6749.8906,518.2344 6749.25,518.375 Q6748.6094,518.5313 6747.9063,518.5313 Q6745.4063,518.5313 6744.0781,516.8906 Q6742.7656,515.2344 6742.7656,512.1094 Q6742.7656,508.9844 6744.0781,507.3281 Q6745.4063,505.6719 6747.9063,505.6719 Q6748.6094,505.6719 6749.25,505.8281 Q6749.9063,505.9844 6750.4688,506.2813 L6750.4688,509 Q6749.8438,508.4219 6749.25,508.1563 Q6748.6563,507.875 6748.0313,507.875 Q6746.6875,507.875 6746,508.9531 Q6745.3125,510.0156 6745.3125,512.1094 Q6745.3125,514.2031 6746,515.2813 Q6746.6875,516.3438 6748.0313,516.3438 Q6748.6563,516.3438 6749.25,516.0781 Q6749.8438,515.7969 6750.4688,515.2188 L6750.4688,517.9375 Z " fill="#000000"/><text fill="#000000" font-family="sans-serif" font-size="14" lengthAdjust="spacing" textLength="414" x="6761.5" y="517.1436">nablarch.common.availability.ServiceAvailabilityCheckHandler</text></g></a><!--class C_nablarch_common_handler_DbConnectionManagementHandler--><a href="/viewer/?module=nablarch-common-jdbc&amp;class=nablarch.common.handler.DbConnectionManagementHandler" target="_top" title="/viewer/?module=nablarch-common-jdbc&amp;class=nablarch.common.handler.DbConnectionManagementHandler" xlink:actuate="onRequest" xlink:href="/viewer/?module=nablarch-common-jdbc&amp;class=nablarch.common.handler.DbConnectionManagementHandler" xlink:show="new" xlink:title="/viewer/?module=nablarch-common-jdbc&amp;class=nablarch.common.handler.DbConnectionManagementHandler" xlink:type="simple"><g id="elem_C_nablarch_common_handler_DbConnectionManagementHandler"><rect codeLine="33" fill="#F1F1F1" height="32" id="C_nablarch_common_handler_DbConnectionManagementHandler" rx="2.5" ry="2.5" style="stroke:#181818;stroke-width:0.5;" width="460" x="5585.5" y="496.2969"/><ellipse cx="5600.5" cy="512.2969" fill="#ADD1B2" rx="11" ry="11" style="stroke:#181818;stroke-width:1.0;"/><path d="M5603.4688,517.9375 Q5602.8906,518.2344 5602.25,518.375 Q5601.6094,518.5313 5600.9063,518.5313 Q5598.4063,518.5313 5597.0781,516.8906 Q5595.7656,515.2344 5595.7656,512.1094 Q5595.7656,508.9844 5597.0781,507.3281 Q5598.4063,505.6719 5600.9063,505.6719 Q5601.6094,505.6719 5602.25,505.8281 Q5602.9063,505.9844 5603.4688,506.2813 L5603.4688,509 Q5602.8438,508.4219 5602.25,508.1563 Q5601.6563,507.875 5601.0313,507.875 Q5599.6875,507.875 5599,508.9531 Q5598.3125,510.0156 5598.3125,512.1094 Q5598.3125,514.2031 5599,515.2813 Q5599.6875,516.3438 5601.0313,516.3438 Q5601.6563,516.3438 5602.25,516.0781 Q5602.8438,515.7969 5603.4688,515.2188 L5603.4688,517.9375 Z " fill="#000000"/><text fill="#000000" font-family="sans-serif" font-size="14" lengthAdjust="spacing" textLength="428" x="5614.5" y="517.1436">nablarch.common.handler.DbConnectionManagementHandler</text></g></a><!--class C_nablarch_common_handler_threadcontext_ThreadContextClearHandler--><a href="/viewer/?module=nablarch-fw&amp;class=nablarch.common.handler.threadcontext.ThreadContextClearHandler" target="_top" title="/viewer/?module=nablarch-fw&amp;class=nablarch.common.handler.threadcontext.ThreadContextClearHandler" xlink:actuate="onRequest" xlink:href="/viewer/?module=nablarch-fw&amp;class=nablarch.common.handler.threadcontext.ThreadContextClearHandler" xlink:show="new" xlink:title="/viewer/?module=nablarch-fw&amp;class=nablarch.common.handler.threadcontext.ThreadContextClearHandler" xlink:type="simple"><g id="elem_C_nablarch_common_handler_threadcontext_ThreadContextClearHandler"><rect codeLine="35" fill="#F1F1F1" height="32" id="C_nablarch_common_handler_threadcontext_ThreadContextClearHandler" rx="2.5" ry="2.5" style="stroke:#181818;stroke-width:0.5;" width="508" x="2408.5" y="496.2969"/><ellipse cx="2423.5" cy="512.2969" fill="#ADD1B2" rx="11" ry="11" style="stroke:#181818;stroke-width:1.0;"/><path d="M2426.4688,517.9375 Q2425.8906,518.2344 2425.25,518.375 Q2424.6094,518.5313 2423.9063,518.5313 Q2421.4063,518.5313 2420.0781,516.8906 Q2418.7656,515.2344 2418.7656,512.1094 Q2418.7656,508.9844 2420.0781,507.3281 Q2421.4063,505.6719 2423.9063,505.6719 Q2424.6094,505.6719 2425.25,505.8281 Q2425.9063,505.9844 2426.4688,506.2813 L2426.4688,509 Q2425.8438,508.4219 2425.25,508.1563 Q2424.6563,507.875 2424.0313,507.875 Q2422.6875,507.875 2422,508.9531 Q2421.3125,510.0156 2421.3125,512.1094 Q2421.3125,514.2031 2422,515.2813 Q2422.6875,516.3438 2424.0313,516.3438 Q2424.6563,516.3438 2425.25,516.0781 Q2425.8438,515.7969 2426.4688,515.2188 L2426.4688,517.9375 Z " fill="#000000"/><text fill="#000000" font-family="sans-serif" font-size="14" lengthAdjust="spacing" textLength="476" x="2437.5" y="517.1436">nablarch.common.handler.threadcontext.ThreadContextClearHandler</text></g></a><!--class C_nablarch_common_handler_threadcontext_ThreadContextHandler--><a href="/viewer/?module=nablarch-fw&amp;class=nablarch.common.handler.threadcontext.ThreadContextHandler" target="_top" title="/viewer/?module=nablarch-fw&amp;class=nablarch.common.handler.threadcontext.ThreadContextHandler" xlink:actuate="onRequest" xlink:href="/viewer/?module=nablarch-fw&amp;class=nablarch.common.handler.threadcontext.ThreadContextHandler" xlink:show="new" xlink:title="/viewer/?module=nablarch-fw&amp;class=nablarch.common.handler.threadcontext.ThreadContextHandler" xlink:type="simple"><g id="elem_C_nablarch_common_handler_threadcontext_ThreadContextHandler"><rect codeLine="37" fill="#F1F1F1" height="32" id="C_nablarch_common_handler_threadcontext_ThreadContextHandler" rx="2.5" ry="2.5" style="stroke:#181818;stroke-width:0.5;" width="473" x="6" y="496.2969"/><ellipse cx="21" cy="512.2969" fill="#ADD1B2" rx="11" ry="11" style="stroke:#181818;stroke-width:1.0;"/><path d="M23.9688,517.9375 Q23.3906,518.2344 22.75,518.375 Q22.1094,518.5313 21.4063,518.5313 Q18.9063,518.5313 17.5781,516.8906 Q16.2656,515.2344 16.2656,512.1094 Q16.2656,508.9844 17.5781,507.3281 Q18.9063,505.6719 21.4063,505.6719 Q22.1094,505.6719 22.75,505.8281 Q23.4063,505.9844 23.9688,506.2813 L23.9688,509 Q23.3438,508.4219 22.75,508.1563 Q22.1563,507.875 21.5313,507.875 Q20.1875,507.875 19.5,508.9531 Q18.8125,510.0156 18.8125,512.1094 Q18.8125,514.2031 19.5,515.2813 Q20.1875,516.3438 21.5313,516.3438 Q22.1563,516.3438 22.75,516.0781 Q23.3438,515.7969 23.9688,515.2188 L23.9688,517.9375 Z " fill="#000000"/><text fill="#000000" font-family="sans-serif" font-size="14" lengthAdjust="spacing" textLength="441" x="35" y="517.1436">nablarch.common.handler.threadcontext.ThreadContextHandler</text></g></a><!--class C_nablarch_common_handler_TransactionManagementHandler--><a href="/viewer/?module=nablarch-core-transaction&amp;class=nablarch.common.handler.TransactionManagementHandler" target="_top" title="/viewer/?module=nablarch-core-transaction&amp;class=nablarch.common.handler.TransactionManagementHandler" xlink:actuate="onRequest" xlink:href="/viewer/?module=nablarch-core-transaction&amp;class=nablarch.common.handler.TransactionManagementHandler" xlink:show="new" xlink:title="/viewer/?module=nablarch-core-transaction&amp;class=nablarch.common.handler.TransactionManagementHandler" xlink:type="simple"><g id="elem_C_nablarch_common_handler_TransactionManagementHandler"><rect codeLine="39" fill="#F1F1F1" height="32" id="C_nablarch_common_handler_TransactionManagementHandler" rx="2.5" ry="2.5" style="stroke:#181818;stroke-width:0.5;" width="441" x="497" y="496.2969"/><ellipse cx="512" cy="512.2969" fill="#ADD1B2" rx="11" ry="11" style="stroke:#181818;stroke-width:1.0;"/><path d="M514.9688,517.9375 Q514.3906,518.2344 513.75,518.375 Q513.1094,518.5313 512.4063,518.5313 Q509.9063,518.5313 508.5781,516.8906 Q507.2656,515.2344 507.2656,512.1094 Q507.2656,508.9844 508.5781,507.3281 Q509.9063,505.6719 512.4063,505.6719 Q513.1094,505.6719 513.75,505.8281 Q514.4063,505.9844 514.9688,506.2813 L514.9688,509 Q514.3438,508.4219 513.75,508.1563 Q513.1563,507.875 512.5313,507.875 Q511.1875,507.875 510.5,508.9531 Q509.8125,510.0156 509.8125,512.1094 Q509.8125,514.2031 510.5,515.2813 Q511.1875,516.3438 512.5313,516.3438 Q513.1563,516.3438 513.75,516.0781 Q514.3438,515.7969 514.9688,515.2188 L514.9688,517.9375 Z " fill="#000000"/><text fill="#000000" font-family="sans-serif" font-size="14" lengthAdjust="spacing" textLength="409" x="526" y="517.1436">nablarch.common.handler.TransactionManagementHandler</text></g></a><!--class C_nablarch_common_io_FileRecordWriterDisposeHandler--><a href="/viewer/?module=nablarch-core-dataformat&amp;class=nablarch.common.io.FileRecordWriterDisposeHandler" target="_top" title="/viewer/?module=nablarch-core-dataformat&amp;class=nablarch.common.io.FileRecordWriterDisposeHandler" xlink:actuate="onRequest" xlink:href="/viewer/?module=nablarch-core-dataformat&amp;class=nablarch.common.io.FileRecordWriterDisposeHandler" xlink:show="new" xlink:title="/viewer/?module=nablarch-core-dataformat&amp;class=nablarch.common.io.FileRecordWriterDisposeHandler" xlink:type="simple"><g id="elem_C_nablarch_common_io_FileRecordWriterDisposeHandler"><rect codeLine="41" fill="#F1F1F1" height="32" id="C_nablarch_common_io_FileRecordWriterDisposeHandler" rx="2.5" ry="2.5" style="stroke:#181818;stroke-width:0.5;" width="399" x="956" y="496.2969"/><ellipse cx="971" cy="512.2969" fill="#ADD1B2" rx="11" ry="11" style="stroke:#181818;stroke-width:1.0;"/><path d="M973.9688,517.9375 Q973.3906,518.2344 972.75,518.375 Q972.1094,518.5313 971.4063,518.5313 Q968.9063,518.5313 967.5781,516.8906 Q966.2656,515.2344 966.2656,512.1094 Q966.2656,508.9844 967.5781,507.3281 Q968.9063,505.6719 971.4063,505.6719 Q972.1094,505.6719 972.75,505.8281 Q973.4063,505.9844 973.9688,506.2813 L973.9688,509 Q973.3438,508.4219 972.75,508.1563 Q972.1563,507.875 971.5313,507.875 Q970.1875,507.875 969.5,508.9531 Q968.8125,510.0156 968.8125,512.1094 Q968.8125,514.2031 969.5,515.2813 Q970.1875,516.3438 971.5313,516.3438 Q972.1563,516.3438 972.75,516.0781 Q973.3438,515.7969 973.9688,515.2188 L973.9688,517.9375 Z " fill="#000000"/><text fill="#000000" font-family="sans-serif" font-size="14" lengthAdjust="spacing" textLength="367" x="985" y="517.1436">nablarch.common.io.FileRecordWriterDisposeHandler</text></g></a><!--class C_nablarch_common_permission_PermissionCheckHandler--><a href="/viewer/?module=nablarch-common-auth&amp;class=nablarch.common.permission.PermissionCheckHandler" target="_top" title="/viewer/?module=nablarch-common-auth&amp;class=nablarch.common.permission.PermissionCheckHandler" xlink:actuate="onRequest" xlink:href="/viewer/?module=nablarch-common-auth&amp;class=nablarch.common.permission.PermissionCheckHandler" xlink:show="new" xlink:title="/viewer/?module=nablarch-common-auth&amp;class=nablarch.common.permission.PermissionCheckHandler" xlink:type="simple"><g id="elem_C_nablarch_common_permission_PermissionCheckHandler"><rect codeLine="43" fill="#F1F1F1" height="32" id="C_nablarch_common_permission_PermissionCheckHandler" rx="2.5" ry="2.5" style="stroke:#181818;stroke-width:0.5;" width="413" x="2935" y="496.2969"/><ellipse cx="2950" cy="512.2969" fill="#ADD1B2" rx="11" ry="11" style="stroke:#181818;stroke-width:1.0;"/><path d="M2952.9688,517.9375 Q2952.3906,518.2344 2951.75,518.375 Q2951.1094,518.5313 2950.4063,518.5313 Q2947.9063,518.5313 2946.5781,516.8906 Q2945.2656,515.2344 2945.2656,512.1094 Q2945.2656,508.9844 2946.5781,507.3281 Q2947.9063,505.6719 2950.4063,505.6719 Q2951.1094,505.6719 2951.75,505.8281 Q2952.4063,505.9844 2952.9688,506.2813 L2952.9688,509 Q2952.3438,508.4219 2951.75,508.1563 Q2951.1563,507.875 2950.5313,507.875 Q2949.1875,507.875 2948.5,508.9531 Q2947.8125,510.0156 2947.8125,512.1094 Q2947.8125,514.2031 2948.5,515.2813 Q2949.1875,516.3438 2950.5313,516.3438 Q2951.1563,516.3438 2951.75,516.0781 Q2952.3438,515.7969 2952.9688,515.2188 L2952.9688,517.9375 Z " fill="#000000"/><text fill="#000000" font-family="sans-serif" font-size="14" lengthAdjust="spacing" textLength="381" x="2964" y="517.1436">nablarch.common.permission.PermissionCheckHandler</text></g></a><!--class C_nablarch_common_web_session_SessionStoreHandler--><a href="/viewer/?module=nablarch-fw-web&amp;class=nablarch.common.web.session.SessionStoreHandler" target="_top" title="/viewer/?module=nablarch-fw-web&amp;class=nablarch.common.web.session.SessionStoreHandler" xlink:actuate="onRequest" xlink:href="/viewer/?module=nablarch-fw-web&amp;class=nablarch.common.web.session.SessionStoreHandler" xlink:show="new" xlink:title="/viewer/?module=nablarch-fw-web&amp;class=nablarch.common.web.session.SessionStoreHandler" xlink:type="simple"><g id="elem_C_nablarch_common_web_session_SessionStoreHandler"><rect codeLine="45" fill="#F1F1F1" height="32" id="C_nablarch_common_web_session_SessionStoreHandler" rx="2.5" ry="2.5" style="stroke:#181818;stroke-width:0.5;" width="396" x="4895.5" y="496.2969"/><ellipse cx="4910.5" cy="512.2969" fill="#ADD1B2" rx="11" ry="11" style="stroke:#181818;stroke-width:1.0;"/><path d="M4913.4688,517.9375 Q4912.8906,518.2344 4912.25,518.375 Q4911.6094,518.5313 4910.9063,518.5313 Q4908.4063,518.5313 4907.0781,516.8906 Q4905.7656,515.2344 4905.7656,512.1094 Q4905.7656,508.9844 4907.0781,507.3281 Q4908.4063,505.6719 4910.9063,505.6719 Q4911.6094,505.6719 4912.25,505.8281 Q4912.9063,505.9844 4913.4688,506.2813 L4913.4688,509 Q4912.8438,508.4219 4912.25,508.1563 Q4911.6563,507.875 4911.0313,507.875 Q4909.6875,507.875 4909,508.9531 Q4908.3125,510.0156 4908.3125,512.1094 Q4908.3125,514.2031 4909,515.2813 Q4909.6875,516.3438 4911.0313,516.3438 Q4911.6563,516.3438 4912.25,516.0781 Q4912.8438,515.7969 4913.4688,515.2188 L4913.4688,517.9375 Z " fill="#000000"/><text fill="#000000" font-family="sans-serif" font-size="14" lengthAdjust="spacing" textLength="364" x="4924.5" y="517.1436">nablarch.common.web.session.SessionStoreHandler</text></g></a><!--class C_nablarch_fw_action_BatchAction--><a href="/viewer/?module=nablarch-fw-batch&amp;class=nablarch.fw.action.BatchAction" target="_top" title="/viewer/?module=nablarch-fw-batch&amp;class=nablarch.fw.action.BatchAction" xlink:actuate="onRequest" xlink:href="/viewer/?module=nablarch-fw-batch&amp;class=nablarch.fw.action.BatchAction" xlink:show="new" xlink:title="/viewer/?module=nablarch-fw-batch&amp;class=nablarch.fw.action.BatchAction" xlink:type="simple"><g id="elem_C_nablarch_fw_action_BatchAction"><rect codeLine="47" fill="#F1F1F1" height="32" id="C_nablarch_fw_action_BatchAction" rx="2.5" ry="2.5" style="stroke:#181818;stroke-width:0.5;" width="244" x="4315.5" y="496.2969"/><ellipse cx="4330.5" cy="512.2969" fill="#A9DCDF" rx="11" ry="11" style="stroke:#181818;stroke-width:1.0;"/><path d="M4330.6094,507.6406 L4329.4531,512.7188 L4331.7813,512.7188 L4330.6094,507.6406 Z M4329.125,505.4063 L4332.1094,505.4063 L4335.4688,517.7969 L4333.0156,517.7969 L4332.25,514.7344 L4328.9688,514.7344 L4328.2188,517.7969 L4325.7813,517.7969 L4329.125,505.4063 Z " fill="#000000"/><text fill="#000000" font-family="sans-serif" font-size="14" font-style="italic" lengthAdjust="spacing" textLength="212" x="4344.5" y="517.1436">nablarch.fw.action.BatchAction</text></g></a><!--class C_nablarch_fw_handler_DataReadHandler--><a href="/viewer/?module=nablarch-fw-standalone&amp;class=nablarch.fw.handler.DataReadHandler" target="_top" title="/viewer/?module=nablarch-fw-standalone&amp;class=nablarch.fw.handler.DataReadHandler" xlink:actuate="onRequest" xlink:href="/viewer/?module=nablarch-fw-standalone&amp;class=nablarch.fw.handler.DataReadHandler" xlink:show="new" xlink:title="/viewer/?module=nablarch-fw-standalone&amp;class=nablarch.fw.handler.DataReadHandler" xlink:type="simple"><g id="elem_C_nablarch_fw_handler_DataReadHandler"><rect codeLine="49" fill="#F1F1F1" height="32" id="C_nablarch_fw_handler_DataReadHandler" rx="2.5" ry="2.5" style="stroke:#181818;stroke-width:0.5;" width="291" x="6064" y="496.2969"/><ellipse cx="6079" cy="512.2969" fill="#ADD1B2" rx="11" ry="11" style="stroke:#181818;stroke-width:1.0;"/><path d="M6081.9688,517.9375 Q6081.3906,518.2344 6080.75,518.375 Q6080.1094,518.5313 6079.4063,518.5313 Q6076.9063,518.5313 6075.5781,516.8906 Q6074.2656,515.2344 6074.2656,512.1094 Q6074.2656,508.9844 6075.5781,507.3281 Q6076.9063,505.6719 6079.4063,505.6719 Q6080.1094,505.6719 6080.75,505.8281 Q6081.4063,505.9844 6081.9688,506.2813 L6081.9688,509 Q6081.3438,508.4219 6080.75,508.1563 Q6080.1563,507.875 6079.5313,507.875 Q6078.1875,507.875 6077.5,508.9531 Q6076.8125,510.0156 6076.8125,512.1094 Q6076.8125,514.2031 6077.5,515.2813 Q6078.1875,516.3438 6079.5313,516.3438 Q6080.1563,516.3438 6080.75,516.0781 Q6081.3438,515.7969 6081.9688,515.2188 L6081.9688,517.9375 Z " fill="#000000"/><text fill="#000000" font-family="sans-serif" font-size="14" lengthAdjust="spacing" textLength="259" x="6093" y="517.1436">nablarch.fw.handler.DataReadHandler</text></g></a><!--class C_nablarch_fw_handler_DbLessLoopHandler--><a href="/viewer/?module=nablarch-fw-standalone&amp;class=nablarch.fw.handler.DbLessLoopHandler" target="_top" title="/viewer/?module=nablarch-fw-standalone&amp;class=nablarch.fw.handler.DbLessLoopHandler" xlink:actuate="onRequest" xlink:href="/viewer/?module=nablarch-fw-standalone&amp;class=nablarch.fw.handler.DbLessLoopHandler" xlink:show="new" xlink:title="/viewer/?module=nablarch-fw-standalone&amp;class=nablarch.fw.handler.DbLessLoopHandler" xlink:type="simple"><g id="elem_C_nablarch_fw_handler_DbLessLoopHandler"><rect codeLine="51" fill="#F1F1F1" height="32" id="C_nablarch_fw_handler_DbLessLoopHandler" rx="2.5" ry="2.5" style="stroke:#181818;stroke-width:0.5;" width="309" x="1373" y="496.2969"/><ellipse cx="1388" cy="512.2969" fill="#ADD1B2" rx="11" ry="11" style="stroke:#181818;stroke-width:1.0;"/><path d="M1390.9688,517.9375 Q1390.3906,518.2344 1389.75,518.375 Q1389.1094,518.5313 1388.4063,518.5313 Q1385.9063,518.5313 1384.5781,516.8906 Q1383.2656,515.2344 1383.2656,512.1094 Q1383.2656,508.9844 1384.5781,507.3281 Q1385.9063,505.6719 1388.4063,505.6719 Q1389.1094,505.6719 1389.75,505.8281 Q1390.4063,505.9844 1390.9688,506.2813 L1390.9688,509 Q1390.3438,508.4219 1389.75,508.1563 Q1389.1563,507.875 1388.5313,507.875 Q1387.1875,507.875 1386.5,508.9531 Q1385.8125,510.0156 1385.8125,512.1094 Q1385.8125,514.2031 1386.5,515.2813 Q1387.1875,516.3438 1388.5313,516.3438 Q1389.1563,516.3438 1389.75,516.0781 Q1390.3438,515.7969 1390.9688,515.2188 L1390.9688,517.9375 Z " fill="#000000"/><text fill="#000000" font-family="sans-serif" font-size="14" lengthAdjust="spacing" textLength="277" x="1402" y="517.1436">nablarch.fw.handler.DbLessLoopHandler</text></g></a><!--class C_nablarch_fw_handler_DispatchHandler--><a href="/viewer/?module=nablarch-fw&amp;class=nablarch.fw.handler.DispatchHandler" target="_top" title="/viewer/?module=nablarch-fw&amp;class=nablarch.fw.handler.DispatchHandler" xlink:actuate="onRequest" xlink:href="/viewer/?module=nablarch-fw&amp;class=nablarch.fw.handler.DispatchHandler" xlink:show="new" xlink:title="/viewer/?module=nablarch-fw&amp;class=nablarch.fw.handler.DispatchHandler" xlink:type="simple"><g id="elem_C_nablarch_fw_handler_DispatchHandler"><rect codeLine="53" fill="#F1F1F1" height="32" id="C_nablarch_fw_handler_DispatchHandler" rx="2.5" ry="2.5" style="stroke:#181818;stroke-width:0.5;" width="284" x="1700.5" y="496.2969"/><ellipse cx="1715.5" cy="512.2969" fill="#A9DCDF" rx="11" ry="11" style="stroke:#181818;stroke-width:1.0;"/><path d="M1715.6094,507.6406 L1714.4531,512.7188 L1716.7813,512.7188 L1715.6094,507.6406 Z M1714.125,505.4063 L1717.1094,505.4063 L1720.4688,517.7969 L1718.0156,517.7969 L1717.25,514.7344 L1713.9688,514.7344 L1713.2188,517.7969 L1710.7813,517.7969 L1714.125,505.4063 Z " fill="#000000"/><text fill="#000000" font-family="sans-serif" font-size="14" font-style="italic" lengthAdjust="spacing" textLength="252" x="1729.5" y="517.1436">nablarch.fw.handler.DispatchHandler</text></g></a><!--class C_nablarch_fw_handler_DuplicateProcessCheckHandler--><a href="/viewer/?module=nablarch-fw-batch&amp;class=nablarch.fw.handler.DuplicateProcessCheckHandler" target="_top" title="/viewer/?module=nablarch-fw-batch&amp;class=nablarch.fw.handler.DuplicateProcessCheckHandler" xlink:actuate="onRequest" xlink:href="/viewer/?module=nablarch-fw-batch&amp;class=nablarch.fw.handler.DuplicateProcessCheckHandler" xlink:show="new" xlink:title="/viewer/?module=nablarch-fw-batch&amp;class=nablarch.fw.handler.DuplicateProcessCheckHandler" xlink:type="simple"><g id="elem_C_nablarch_fw_handler_DuplicateProcessCheckHandler"><rect codeLine="55" fill="#F1F1F1" height="32" id="C_nablarch_fw_handler_DuplicateProcessCheckHandler" rx="2.5" ry="2.5" style="stroke:#181818;stroke-width:0.5;" width="388" x="2002.5" y="496.2969"/><ellipse cx="2017.5" cy="512.2969" fill="#ADD1B2" rx="11" ry="11" style="stroke:#181818;stroke-width:1.0;"/><path d="M2020.4688,517.9375 Q2019.8906,518.2344 2019.25,518.375 Q2018.6094,518.5313 2017.9063,518.5313 Q2015.4063,518.5313 2014.0781,516.8906 Q2012.7656,515.2344 2012.7656,512.1094 Q2012.7656,508.9844 2014.0781,507.3281 Q2015.4063,505.6719 2017.9063,505.6719 Q2018.6094,505.6719 2019.25,505.8281 Q2019.9063,505.9844 2020.4688,506.2813 L2020.4688,509 Q2019.8438,508.4219 2019.25,508.1563 Q2018.6563,507.875 2018.0313,507.875 Q2016.6875,507.875 2016,508.9531 Q2015.3125,510.0156 2015.3125,512.1094 Q2015.3125,514.2031 2016,515.2813 Q2016.6875,516.3438 2018.0313,516.3438 Q2018.6563,516.3438 2019.25,516.0781 Q2019.8438,515.7969 2020.4688,515.2188 L2020.4688,517.9375 Z " fill="#000000"/><text fill="#000000" font-family="sans-serif" font-size="14" lengthAdjust="spacing" textLength="356" x="2031.5" y="517.1436">nablarch.fw.handler.DuplicateProcessCheckHandler</text></g></a><!--class C_nablarch_fw_handler_ExecutionHandler--><a href="/viewer/?module=nablarch-fw-standalone&amp;class=nablarch.fw.handler.ExecutionHandler" target="_top" title="/viewer/?module=nablarch-fw-standalone&amp;class=nablarch.fw.handler.ExecutionHandler" xlink:actuate="onRequest" xlink:href="/viewer/?module=nablarch-fw-standalone&amp;class=nablarch.fw.handler.ExecutionHandler" xlink:show="new" xlink:title="/viewer/?module=nablarch-fw-standalone&amp;class=nablarch.fw.handler.ExecutionHandler" xlink:type="simple"><g id="elem_C_nablarch_fw_handler_ExecutionHandler"><rect codeLine="57" fill="#F1F1F1" height="32" id="C_nablarch_fw_handler_ExecutionHandler" rx="2.5" ry="2.5" style="stroke:#181818;stroke-width:0.5;" width="293" x="3366" y="496.2969"/><ellipse cx="3381" cy="512.2969" fill="#B4A7E5" rx="11" ry="11" style="stroke:#181818;stroke-width:1.0;"/><path d="M3376.9219,508.0625 L3376.9219,505.9063 L3384.3125,505.9063 L3384.3125,508.0625 L3381.8438,508.0625 L3381.8438,516.1406 L3384.3125,516.1406 L3384.3125,518.2969 L3376.9219,518.2969 L3376.9219,516.1406 L3379.3906,516.1406 L3379.3906,508.0625 L3376.9219,508.0625 Z " fill="#000000"/><text fill="#000000" font-family="sans-serif" font-size="14" font-style="italic" lengthAdjust="spacing" textLength="261" x="3395" y="517.1436">nablarch.fw.handler.ExecutionHandler</text></g></a><!--class C_nablarch_fw_handler_GlobalErrorHandler--><a href="/viewer/?module=nablarch-fw&amp;class=nablarch.fw.handler.GlobalErrorHandler" target="_top" title="/viewer/?module=nablarch-fw&amp;class=nablarch.fw.handler.GlobalErrorHandler" xlink:actuate="onRequest" xlink:href="/viewer/?module=nablarch-fw&amp;class=nablarch.fw.handler.GlobalErrorHandler" xlink:show="new" xlink:title="/viewer/?module=nablarch-fw&amp;class=nablarch.fw.handler.GlobalErrorHandler" xlink:type="simple"><g id="elem_C_nablarch_fw_handler_GlobalErrorHandler"><rect codeLine="59" fill="#F1F1F1" height="32" id="C_nablarch_fw_handler_GlobalErrorHandler" rx="2.5" ry="2.5" style="stroke:#181818;stroke-width:0.5;" width="299" x="4578" y="496.2969"/><ellipse cx="4593" cy="512.2969" fill="#ADD1B2" rx="11" ry="11" style="stroke:#181818;stroke-width:1.0;"/><path d="M4595.9688,517.9375 Q4595.3906,518.2344 4594.75,518.375 Q4594.1094,518.5313 4593.4063,518.5313 Q4590.9063,518.5313 4589.5781,516.8906 Q4588.2656,515.2344 4588.2656,512.1094 Q4588.2656,508.9844 4589.5781,507.3281 Q4590.9063,505.6719 4593.4063,505.6719 Q4594.1094,505.6719 4594.75,505.8281 Q4595.4063,505.9844 4595.9688,506.2813 L4595.9688,509 Q4595.3438,508.4219 4594.75,508.1563 Q4594.1563,507.875 4593.5313,507.875 Q4592.1875,507.875 4591.5,508.9531 Q4590.8125,510.0156 4590.8125,512.1094 Q4590.8125,514.2031 4591.5,515.2813 Q4592.1875,516.3438 4593.5313,516.3438 Q4594.1563,516.3438 4594.75,516.0781 Q4595.3438,515.7969 4595.9688,515.2188 L4595.9688,517.9375 Z " fill="#000000"/><text fill="#000000" font-family="sans-serif" font-size="14" lengthAdjust="spacing" textLength="267" x="4607" y="517.1436">nablarch.fw.handler.GlobalErrorHandler</text></g></a><!--class C_nablarch_fw_handler_LoopHandler--><a href="/viewer/?module=nablarch-fw-standalone&amp;class=nablarch.fw.handler.LoopHandler" target="_top" title="/viewer/?module=nablarch-fw-standalone&amp;class=nablarch.fw.handler.LoopHandler" xlink:actuate="onRequest" xlink:href="/viewer/?module=nablarch-fw-standalone&amp;class=nablarch.fw.handler.LoopHandler" xlink:show="new" xlink:title="/viewer/?module=nablarch-fw-standalone&amp;class=nablarch.fw.handler.LoopHandler" xlink:type="simple"><g id="elem_C_nablarch_fw_handler_LoopHandler"><rect codeLine="61" fill="#F1F1F1" height="32" id="C_nablarch_fw_handler_LoopHandler" rx="2.5" ry="2.5" style="stroke:#181818;stroke-width:0.5;" width="257" x="5310" y="496.2969"/><ellipse cx="5325" cy="512.2969" fill="#ADD1B2" rx="11" ry="11" style="stroke:#181818;stroke-width:1.0;"/><path d="M5327.9688,517.9375 Q5327.3906,518.2344 5326.75,518.375 Q5326.1094,518.5313 5325.4063,518.5313 Q5322.9063,518.5313 5321.5781,516.8906 Q5320.2656,515.2344 5320.2656,512.1094 Q5320.2656,508.9844 5321.5781,507.3281 Q5322.9063,505.6719 5325.4063,505.6719 Q5326.1094,505.6719 5326.75,505.8281 Q5327.4063,505.9844 5327.9688,506.2813 L5327.9688,509 Q5327.3438,508.4219 5326.75,508.1563 Q5326.1563,507.875 5325.5313,507.875 Q5324.1875,507.875 5323.5,508.9531 Q5322.8125,510.0156 5322.8125,512.1094 Q5322.8125,514.2031 5323.5,515.2813 Q5324.1875,516.3438 5325.5313,516.3438 Q5326.1563,516.3438 5326.75,516.0781 Q5327.3438,515.7969 5327.9688,515.2188 L5327.9688,517.9375 Z " fill="#000000"/><text fill="#000000" font-family="sans-serif" font-size="14" lengthAdjust="spacing" textLength="225" x="5339" y="517.1436">nablarch.fw.handler.LoopHandler</text></g></a><!--class C_nablarch_fw_handler_MethodBinding_1--><a href="/viewer/?module=nablarch-fw&amp;class=nablarch.fw.handler.MethodBinding%241" target="_top" title="/viewer/?module=nablarch-fw&amp;class=nablarch.fw.handler.MethodBinding%241" xlink:actuate="onRequest" xlink:href="/viewer/?module=nablarch-fw&amp;class=nablarch.fw.handler.MethodBinding%241" xlink:show="new" xlink:title="/viewer/?module=nablarch-fw&amp;class=nablarch.fw.handler.MethodBinding%241" xlink:type="simple"><g id="elem_C_nablarch_fw_handler_MethodBinding_1"><rect codeLine="63" fill="#F1F1F1" height="32" id="C_nablarch_fw_handler_MethodBinding_1" rx="2.5" ry="2.5" style="stroke:#181818;stroke-width:0.5;" width="293" x="3677" y="496.2969"/><ellipse cx="3692" cy="512.2969" fill="#ADD1B2" rx="11" ry="11" style="stroke:#181818;stroke-width:1.0;"/><path d="M3694.9688,517.9375 Q3694.3906,518.2344 3693.75,518.375 Q3693.1094,518.5313 3692.4063,518.5313 Q3689.9063,518.5313 3688.5781,516.8906 Q3687.2656,515.2344 3687.2656,512.1094 Q3687.2656,508.9844 3688.5781,507.3281 Q3689.9063,505.6719 3692.4063,505.6719 Q3693.1094,505.6719 3693.75,505.8281 Q3694.4063,505.9844 3694.9688,506.2813 L3694.9688,509 Q3694.3438,508.4219 3693.75,508.1563 Q3693.1563,507.875 3692.5313,507.875 Q3691.1875,507.875 3690.5,508.9531 Q3689.8125,510.0156 3689.8125,512.1094 Q3689.8125,514.2031 3690.5,515.2813 Q3691.1875,516.3438 3692.5313,516.3438 Q3693.1563,516.3438 3693.75,516.0781 Q3694.3438,515.7969 3694.9688,515.2188 L3694.9688,517.9375 Z " fill="#000000"/><text fill="#000000" font-family="sans-serif" font-size="14" lengthAdjust="spacing" textLength="261" x="3706" y="517.1436">nablarch.fw.handler.MethodBinding$1</text></g></a><!--class C_nablarch_fw_handler_ProcessResidentHandler--><a href="/viewer/?module=nablarch-fw-standalone&amp;class=nablarch.fw.handler.ProcessResidentHandler" target="_top" title="/viewer/?module=nablarch-fw-standalone&amp;class=nablarch.fw.handler.ProcessResidentHandler" xlink:actuate="onRequest" xlink:href="/viewer/?module=nablarch-fw-standalone&amp;class=nablarch.fw.handler.ProcessResidentHandler" xlink:show="new" xlink:title="/viewer/?module=nablarch-fw-standalone&amp;class=nablarch.fw.handler.ProcessResidentHandler" xlink:type="simple"><g id="elem_C_nablarch_fw_handler_ProcessResidentHandler"><rect codeLine="65" fill="#F1F1F1" height="32" id="C_nablarch_fw_handler_ProcessResidentHandler" rx="2.5" ry="2.5" style="stroke:#181818;stroke-width:0.5;" width="341" x="6373" y="496.2969"/><ellipse cx="6388" cy="512.2969" fill="#ADD1B2" rx="11" ry="11" style="stroke:#181818;stroke-width:1.0;"/><path d="M6390.9688,517.9375 Q6390.3906,518.2344 6389.75,518.375 Q6389.1094,518.5313 6388.4063,518.5313 Q6385.9063,518.5313 6384.5781,516.8906 Q6383.2656,515.2344 6383.2656,512.1094 Q6383.2656,508.9844 6384.5781,507.3281 Q6385.9063,505.6719 6388.4063,505.6719 Q6389.1094,505.6719 6389.75,505.8281 Q6390.4063,505.9844 6390.9688,506.2813 L6390.9688,509 Q6390.3438,508.4219 6389.75,508.1563 Q6389.1563,507.875 6388.5313,507.875 Q6387.1875,507.875 6386.5,508.9531 Q6385.8125,510.0156 6385.8125,512.1094 Q6385.8125,514.2031 6386.5,515.2813 Q6387.1875,516.3438 6388.5313,516.3438 Q6389.1563,516.3438 6389.75,516.0781 Q6390.3438,515.7969 6390.9688,515.2188 L6390.9688,517.9375 Z " fill="#000000"/><text fill="#000000" font-family="sans-serif" font-size="14" lengthAdjust="spacing" textLength="309" x="6402" y="517.1436">nablarch.fw.handler.ProcessResidentHandler</text></g></a><!--class C_nablarch_fw_handler_ProcessStopHandler--><a href="/viewer/?module=nablarch-fw-standalone&amp;class=nablarch.fw.handler.ProcessStopHandler" target="_top" title="/viewer/?module=nablarch-fw-standalone&amp;class=nablarch.fw.handler.ProcessStopHandler" xlink:actuate="onRequest" xlink:href="/viewer/?module=nablarch-fw-standalone&amp;class=nablarch.fw.handler.ProcessStopHandler" xlink:show="new" xlink:title="/viewer/?module=nablarch-fw-standalone&amp;class=nablarch.fw.handler.ProcessStopHandler" xlink:type="simple"><g id="elem_C_nablarch_fw_handler_ProcessStopHandler"><rect codeLine="67" fill="#F1F1F1" height="32" id="C_nablarch_fw_handler_ProcessStopHandler" rx="2.5" ry="2.5" style="stroke:#181818;stroke-width:0.5;" width="309" x="3988" y="496.2969"/><ellipse cx="4003" cy="512.2969" fill="#B4A7E5" rx="11" ry="11" style="stroke:#181818;stroke-width:1.0;"/><path d="M3998.9219,508.0625 L3998.9219,505.9063 L4006.3125,505.9063 L4006.3125,508.0625 L4003.8438,508.0625 L4003.8438,516.1406 L4006.3125,516.1406 L4006.3125,518.2969 L3998.9219,518.2969 L3998.9219,516.1406 L4001.3906,516.1406 L4001.3906,508.0625 L3998.9219,508.0625 Z " fill="#000000"/><text fill="#000000" font-family="sans-serif" font-size="14" font-style="italic" lengthAdjust="spacing" textLength="277" x="4017" y="517.1436">nablarch.fw.handler.ProcessStopHandler</text></g></a><polygon fill="none" points="3951.9683,427.2255,3970.9252,428.0228,3967.6122,416.4892,3951.9683,427.2255" style="stroke:#181818;stroke-width:1.0;"/><path d="M3969.2687,422.256 C4064.2749,394.9658 4254.159,340.4222 4432.0403,289.3264 " fill="none" style="stroke:#181818;stroke-width:1.0;stroke-dasharray:7.0,7.0;"/><polygon fill="#181818" points="4738.5,342.135,4742.5,333.135,4738.5,337.135,4734.5,333.135,4738.5,342.135" style="stroke:#181818;stroke-width:1.0;"/><path d="M4738.5,289.3268 C4738.5,309.7839 4738.5,323.305 4738.5,336.135 " fill="none" style="stroke:#181818;stroke-width:1.0;stroke-dasharray:7.0,7.0;"/><text fill="#000000" font-family="sans-serif" font-size="13" lengthAdjust="spacing" textLength="55" x="4739.5" y="320.3638">depends</text><polygon fill="#181818" points="3945.4487,342.2359,3955.2353,343.3414,3950.2168,340.7309,3952.8273,335.7124,3945.4487,342.2359" style="stroke:#181818;stroke-width:1.0;"/><path d="M4298.8447,263.1447 C4222.7242,276.1378 4144.5853,290.9343 4071.5,307.2969 C4028.2569,316.9783 3985.5833,329.568 3951.1704,340.4299 " fill="none" style="stroke:#181818;stroke-width:1.0;stroke-dasharray:7.0,7.0;"/><text fill="#000000" font-family="sans-serif" font-size="13" lengthAdjust="spacing" textLength="55" x="4072.5" y="320.3638">depends</text><polygon fill="#181818" points="5113.5109,342.2648,5106.4939,335.3538,5108.8306,340.5055,5103.6789,342.8422,5113.5109,342.2648" style="stroke:#181818;stroke-width:1.0;"/><path d="M4972.6822,289.3268 C5027.287,309.853 5073.7689,327.3257 5107.8946,340.1536 " fill="none" style="stroke:#181818;stroke-width:1.0;stroke-dasharray:7.0,7.0;"/><text fill="#000000" font-family="sans-serif" font-size="13" lengthAdjust="spacing" textLength="55" x="5065.5" y="320.3638">depends</text><polygon fill="#181818" points="4987.401,427.0291,4984.8624,417.513,4984.2613,423.1378,4978.6364,422.5367,4987.401,427.0291" style="stroke:#181818;stroke-width:1.0;"/><path d="M4852.0324,289.3179 C4872.3473,306.3235 4892.939,324.4249 4911.5,342.2969 C4940.6531,370.3678 4967.3031,402.1211 4983.6333,422.3596 " fill="none" style="stroke:#181818;stroke-width:1.0;stroke-dasharray:7.0,7.0;"/><text fill="#000000" font-family="sans-serif" font-size="13" lengthAdjust="spacing" textLength="55" x="4942.5" y="362.8638">depends</text><polygon fill="#181818" points="3899.5,427.1699,3903.5,418.1699,3899.5,422.1699,3895.5,418.1699,3899.5,427.1699" style="stroke:#181818;stroke-width:1.0;"/><path d="M3899.5,374.5204 C3899.5,389.4962 3899.5,406.2275 3899.5,421.1699 " fill="none" style="stroke:#181818;stroke-width:1.0;stroke-dasharray:7.0,7.0;"/><text fill="#000000" font-family="sans-serif" font-size="13" lengthAdjust="spacing" textLength="55" x="3900.5" y="405.3638">depends</text><polygon fill="#181818" points="4932.5708,427.2819,4924.7877,421.2467,4927.7157,426.0868,4922.8756,429.0148,4932.5708,427.2819" style="stroke:#181818;stroke-width:1.0;"/><path d="M4773.6656,374.2981 C4799.3651,384.9228 4835.2201,399.0501 4867.5,409.2969 C4888.4388,415.9436 4905.7586,420.682 4926.7447,425.8478 " fill="none" style="stroke:#181818;stroke-width:1.0;stroke-dasharray:7.0,7.0;"/><text fill="#000000" font-family="sans-serif" font-size="13" lengthAdjust="spacing" textLength="55" x="4868.5" y="405.3638">depends</text><polygon fill="none" points="3983.5121,452.4349,4000.913,459.9985,4001.971,448.0452,3983.5121,452.4349" style="stroke:#181818;stroke-width:1.0;"/><path d="M4001.442,454.0219 C4029.9803,456.5478 4044.1418,457.5399 4073.5,459.2969 C4324.7477,474.3332 4387.8588,472.9873 4639.5,478.2969 C5565.5507,497.8364 5797.8636,462.4024 6723.5,496.2969 C6726.4243,496.404 6729.369,496.517 6732.3306,496.6356 " fill="none" style="stroke:#181818;stroke-width:1.0;stroke-dasharray:7.0,7.0;"/><polygon fill="#181818" points="4017.6616,359.0362,4026.6287,363.1095,4022.6615,359.077,4026.694,355.1098,4017.6616,359.0362" style="stroke:#181818;stroke-width:1.0;"/><path d="M6732.3291,496.6742 C6729.368,496.5435 6726.4237,496.4176 6723.5,496.2969 C6609.079,491.5734 4767.545,504.9041 4662.5,459.2969 C4644.3366,451.4109 4648.8679,436.8077 4631.5,427.2969 C4528.7909,371.052 4203.2248,360.5502 4023.6614,359.0852 " fill="none" style="stroke:#181818;stroke-width:1.0;stroke-dasharray:7.0,7.0;"/><text fill="#000000" font-family="sans-serif" font-size="13" lengthAdjust="spacing" textLength="55" x="4663.5" y="447.8638">depends</text><polygon fill="none" points="3983.6239,453.2478,4000.9283,461.0298,4002.1366,449.0908,3983.6239,453.2478" style="stroke:#181818;stroke-width:1.0;"/><path d="M4001.5325,455.0603 C4082.0058,463.2045 4188.9279,472.935 4297.5,478.2969 C4865.3087,506.3386 5008.4178,474.4855 5576.5,496.2969 C5579.4081,496.4085 5582.3358,496.5253 5585.28,496.6468 " fill="none" style="stroke:#181818;stroke-width:1.0;stroke-dasharray:7.0,7.0;"/><polygon fill="#181818" points="4017.74,368.2003,4026.3498,372.9825,4022.7203,368.6436,4027.0592,365.014,4017.74,368.2003" style="stroke:#181818;stroke-width:1.0;"/><path d="M5585.2797,496.6549 C5582.3356,496.5308 5579.408,496.4114 5576.5,496.2969 C5451.8028,491.3871 4576.8887,496.9712 4453.5,478.2969 C4423.7411,473.793 4414.8333,473.8719 4388.5,459.2969 C4369.7702,448.9303 4371.4469,437.2611 4352.5,427.2969 C4295.9705,397.568 4138.017,378.907 4023.7163,368.7323 " fill="none" style="stroke:#181818;stroke-width:1.0;stroke-dasharray:7.0,7.0;"/><text fill="#000000" font-family="sans-serif" font-size="13" lengthAdjust="spacing" textLength="55" x="4389.5" y="447.8638">depends</text><polygon fill="none" points="3815.4612,448.6805,3797.1724,443.6287,3797.7991,455.6123,3815.4612,448.6805" style="stroke:#181818;stroke-width:1.0;"/><path d="M3797.4858,449.6205 C3628.774,458.4436 3254.7843,478.1168 2925.5,496.2969 C2922.5318,496.4608 2919.5448,496.626 2916.5418,496.7924 " fill="none" style="stroke:#181818;stroke-width:1.0;stroke-dasharray:7.0,7.0;"/><polygon fill="#181818" points="3781.384,373.6277,3771.9674,370.7421,3776.4205,374.2306,3772.932,378.6837,3781.384,373.6277" style="stroke:#181818;stroke-width:1.0;"/><path d="M2783.3061,496.2845 C2919.0792,479.4278 3146.0888,451.2909 3341.5,427.2969 C3493.3347,408.6535 3662.4786,388.0701 3775.4278,374.3511 " fill="none" style="stroke:#181818;stroke-width:1.0;stroke-dasharray:7.0,7.0;"/><text fill="#000000" font-family="sans-serif" font-size="13" lengthAdjust="spacing" textLength="55" x="3342.5" y="447.8638">depends</text><polygon fill="none" points="3815.3763,446.4907,3797.2288,440.9528,3797.5356,452.9489,3815.3763,446.4907" style="stroke:#181818;stroke-width:1.0;"/><path d="M3797.3822,446.9508 C3671.9581,450.1578 3446.4879,455.6767 3239.5,459.2969 C2016.4654,480.6875 1709.8396,449.8525 487.5,496.2969 C484.7321,496.402 481.9467,496.5115 479.1467,496.6251 " fill="none" style="stroke:#181818;stroke-width:1.0;stroke-dasharray:7.0,7.0;"/><polygon fill="#181818" points="3781.4806,358.8169,3772.489,354.7981,3776.4806,358.8064,3772.4722,362.798,3781.4806,358.8169" style="stroke:#181818;stroke-width:1.0;"/><path d="M394.4045,496.2606 C585.2351,477.805 922.8276,446.5908 1212.5,427.2969 C2204.2509,361.2404 3399.8119,358.0187 3775.4806,358.8043 " fill="none" style="stroke:#181818;stroke-width:1.0;stroke-dasharray:7.0,7.0;"/><text fill="#000000" font-family="sans-serif" font-size="13" lengthAdjust="spacing" textLength="55" x="1213.5" y="447.8638">depends</text><polygon fill="none" points="3815.3744,446.3862,3797.2327,440.8292,3797.5268,452.8256,3815.3744,446.3862" style="stroke:#181818;stroke-width:1.0;"/><path d="M3797.3798,446.8274 C3671.9533,449.9023 3446.4805,455.2749 3239.5,459.2969 C2729.9743,469.1977 1455.6984,475.5245 946.5,496.2969 C943.7134,496.4106 940.9079,496.5292 938.0867,496.6525 " fill="none" style="stroke:#181818;stroke-width:1.0;stroke-dasharray:7.0,7.0;"/><polygon fill="#181818" points="3781.396,359.5002,3772.3804,355.5355,3776.396,359.5198,3772.4117,363.5354,3781.396,359.5002" style="stroke:#181818;stroke-width:1.0;"/><path d="M867.9443,496.2863 C1054.2957,478.0712 1381.5594,447.3175 1662.5,427.2969 C2471.2988,369.6595 3442.0034,360.828 3775.396,359.5237 " fill="none" style="stroke:#181818;stroke-width:1.0;stroke-dasharray:7.0,7.0;"/><text fill="#000000" font-family="sans-serif" font-size="13" lengthAdjust="spacing" textLength="55" x="1663.5" y="447.8638">depends</text><polygon fill="none" points="3815.1108,446.4218,3796.9664,440.8737,3797.2664,452.8699,3815.1108,446.4218" style="stroke:#181818;stroke-width:1.0;"/><path d="M3797.1164,446.8718 C3571.5212,452.5134 2953.6525,467.7097 2424.5,478.2969 C1952.971,487.7311 1834.657,475.3273 1363.5,496.2969 C1360.6969,496.4216 1357.8729,496.5526 1355.0318,496.6892 " fill="none" style="stroke:#181818;stroke-width:1.0;stroke-dasharray:7.0,7.0;"/><polygon fill="#181818" points="3781.1241,360.5123,3772.0768,356.6205,3776.1245,360.5723,3772.1727,364.6199,3781.1241,360.5123" style="stroke:#181818;stroke-width:1.0;"/><path d="M1313.5941,496.2671 C1500.5028,478.7105 1821.0053,449.2722 2096.5,427.2969 C2317.6768,409.6543 2372.8733,402.8818 2594.5,392.2969 C3031.6904,371.4166 3545.9431,363.3315 3775.1245,360.5842 " fill="none" style="stroke:#181818;stroke-width:1.0;stroke-dasharray:7.0,7.0;"/><text fill="#000000" font-family="sans-serif" font-size="13" lengthAdjust="spacing" textLength="55" x="2097.5" y="447.8638">depends</text><polygon fill="none" points="3815.4846,451.723,3797.0262,447.3312,3798.0828,459.2846,3815.4846,451.723" style="stroke:#181818;stroke-width:1.0;"/><path d="M3797.5545,453.3079 C3676.4242,464.0147 3468.0174,482.4358 3311.2505,496.2925 " fill="none" style="stroke:#181818;stroke-width:1.0;stroke-dasharray:7.0,7.0;"/><polygon fill="#181818" points="3824.3976,374.357,3814.7868,372.2046,3819.4951,375.3401,3816.3597,380.0484,3824.3976,374.357" style="stroke:#181818;stroke-width:1.0;"/><path d="M3216.4499,496.2673 C3361.5285,467.1751 3673.3152,404.6532 3818.5147,375.5367 " fill="none" style="stroke:#181818;stroke-width:1.0;stroke-dasharray:7.0,7.0;"/><text fill="#000000" font-family="sans-serif" font-size="13" lengthAdjust="spacing" textLength="55" x="3559.5" y="447.8638">depends</text><polygon fill="none" points="3983.4953,459.3098,4000.2891,468.1397,4002.2283,456.2974,3983.4953,459.3098" style="stroke:#181818;stroke-width:1.0;"/><path d="M4001.2587,462.2185 C4044.4434,469.29 4080.245,474.1569 4128.5,478.2969 C4463.8078,507.0642 4549.3462,480.1888 4885.5,496.2969 C4888.7547,496.4528 4892.0376,496.6164 4895.3428,496.7868 " fill="none" style="stroke:#181818;stroke-width:1.0;stroke-dasharray:7.0,7.0;"/><polygon fill="#181818" points="4005.798,374.3309,4013.841,380.015,4010.7013,375.3095,4015.4068,372.1697,4005.798,374.3309" style="stroke:#181818;stroke-width:1.0;"/><path d="M4895.3416,496.811 C4892.0368,496.6332 4888.7543,496.4615 4885.5,496.2969 C4748.284,489.3541 4403.2071,499.7451 4267.5,478.2969 C4237.7712,473.5983 4228.8333,473.8719 4202.5,459.2969 C4183.7702,448.9303 4185.4083,437.3341 4166.5,427.2969 C4116.8561,400.9441 4062.4198,385.6313 4011.6819,375.5052 " fill="none" style="stroke:#181818;stroke-width:1.0;stroke-dasharray:7.0,7.0;"/><text fill="#000000" font-family="sans-serif" font-size="13" lengthAdjust="spacing" textLength="55" x="4203.5" y="447.8638">depends</text><polygon fill="none" points="3950.0165,459.322,3965.7918,469.8642,3968.9621,458.2906,3950.0165,459.322" style="stroke:#181818;stroke-width:1.0;"/><path d="M3967.377,464.0774 C3992.544,470.9712 4006.2094,473.8323 4034.5,478.2969 C4153.7342,497.1136 4185.2759,485.4793 4305.5,496.2969 C4308.716,496.5862 4311.975,496.8888 4315.2627,497.2023 " fill="none" style="stroke:#181818;stroke-width:1.0;stroke-dasharray:7.0,7.0;"/><polygon fill="none" points="3983.8236,452.7683,4001.1717,460.4524,4002.3125,448.5068,3983.8236,452.7683" style="stroke:#181818;stroke-width:1.0;"/><path d="M4001.7421,454.4796 C4088.7354,462.7878 4210.4833,473.2138 4331.5,478.2969 C5096.6449,510.4355 5289.7745,455.3755 6054.5,496.2969 C6057.6046,496.463 6060.7431,496.6445 6063.9062,496.8396 " fill="none" style="stroke:#181818;stroke-width:1.0;stroke-dasharray:7.0,7.0;"/><polygon fill="#181818" points="4017.7688,364.8188,4026.5209,369.3353,4022.7603,365.1095,4026.9861,361.3489,4017.7688,364.8188" style="stroke:#181818;stroke-width:1.0;"/><path d="M6063.9058,496.8459 C6060.7429,496.6489 6057.6045,496.4653 6054.5,496.2969 C5887.1786,487.2184 4712.2317,503.033 4546.5,478.2969 C4516.732,473.8539 4507.8333,473.8719 4481.5,459.2969 C4462.7702,448.9303 4464.6413,436.8823 4445.5,427.2969 C4372.7923,390.8868 4161.2982,373.179 4023.7586,365.1677 " fill="none" style="stroke:#181818;stroke-width:1.0;stroke-dasharray:7.0,7.0;"/><text fill="#000000" font-family="sans-serif" font-size="13" lengthAdjust="spacing" textLength="55" x="4482.5" y="447.8638">depends</text><polygon fill="none" points="3815.4053,446.6604,3797.2448,441.1651,3797.5798,453.1604,3815.4053,446.6604" style="stroke:#181818;stroke-width:1.0;"/><path d="M3797.4123,447.1627 C3589.8096,452.9591 3054.2954,467.6776 2592.5,478.2969 C2192.0815,487.5047 2091.4056,474.0422 1691.5,496.2969 C1688.5026,496.4637 1685.4751,496.642 1682.4252,496.8307 " fill="none" style="stroke:#181818;stroke-width:1.0;stroke-dasharray:7.0,7.0;"/><polygon fill="#181818" points="3781.0427,360.1083,3772.0002,356.2054,3776.043,360.1621,3772.0863,364.2049,3781.0427,360.1083" style="stroke:#181818;stroke-width:1.0;"/><path d="M1682.0005,497.0274 C1685.1945,496.7773 1688.3639,496.5334 1691.5,496.2969 C1826.0221,486.1518 1860.1818,490.8562 1994.5,478.2969 C2172.4996,461.6531 2215.6447,445.4178 2393.5,427.2969 C2908.3951,374.8364 3520.4418,362.9125 3775.0431,360.1729 " fill="none" style="stroke:#181818;stroke-width:1.0;stroke-dasharray:7.0,7.0;"/><text fill="#000000" font-family="sans-serif" font-size="13" lengthAdjust="spacing" textLength="55" x="2394.5" y="447.8638">depends</text><polygon fill="none" points="3815.3392,446.5524,3797.1849,441.0371,3797.5065,453.0328,3815.3392,446.5524" style="stroke:#181818;stroke-width:1.0;"/><path d="M3797.3457,447.0349 C3431.7313,456.8386 2016.5547,494.8392 1993.5,496.2969 C1990.6079,496.4797 1987.6855,496.6746 1984.7409,496.88 " fill="none" style="stroke:#181818;stroke-width:1.0;stroke-dasharray:7.0,7.0;"/><polygon fill="#181818" points="3781.2269,364.7567,3772.0496,361.1821,3776.2323,364.9906,3772.4238,369.1734,3781.2269,364.7567" style="stroke:#181818;stroke-width:1.0;"/><path d="M1984.7486,496.9901 C1987.6909,496.7513 1990.6107,496.5198 1993.5,496.2969 C2138.6221,485.1001 2175.739,493.4637 2320.5,478.2969 C2467.6631,462.8784 2502.3765,443.0888 2649.5,427.2969 C2907.154,399.6409 2972.7538,406.4678 3231.5,392.2969 C3423.9602,381.7563 3641.7049,371.2906 3775.2334,365.0374 " fill="none" style="stroke:#181818;stroke-width:1.0;stroke-dasharray:7.0,7.0;"/><text fill="#000000" font-family="sans-serif" font-size="13" lengthAdjust="spacing" textLength="55" x="2650.5" y="447.8638">depends</text><polygon fill="none" points="3815.2835,446.0618,3797.1556,440.4602,3797.4201,452.4572,3815.2835,446.0618" style="stroke:#181818;stroke-width:1.0;"/><path d="M3797.2878,446.4587 C3569.2037,451.4886 2938.4193,467.056 2399.5,496.2969 C2396.5888,496.4548 2393.6544,496.6182 2390.7014,496.7864 " fill="none" style="stroke:#181818;stroke-width:1.0;stroke-dasharray:7.0,7.0;"/><polygon fill="#181818" points="3781.1923,367.479,3771.9333,364.1217,3776.2047,367.8306,3772.4958,372.1019,3781.1923,367.479" style="stroke:#181818;stroke-width:1.0;"/><path d="M2349.4457,496.2861 C2406.0225,490.6949 2470.6891,484.259 2529.5,478.2969 C2748.2173,456.1237 2802.5572,447.1196 3021.5,427.2969 C3293.1013,402.7066 3606.494,379.7921 3775.2071,367.9009 " fill="none" style="stroke:#181818;stroke-width:1.0;stroke-dasharray:7.0,7.0;"/><text fill="#000000" font-family="sans-serif" font-size="13" lengthAdjust="spacing" textLength="55" x="3022.5" y="447.8638">depends</text><polygon fill="none" points="3815.0494,458.9175,3796.2897,456.0761,3798.3368,467.9002,3815.0494,458.9175" style="stroke:#181818;stroke-width:1.0;"/><path d="M3797.3133,461.9881 C3733.4834,473.0388 3663.8841,485.0883 3599.4511,496.2433 " fill="none" style="stroke:#181818;stroke-width:1.0;stroke-dasharray:7.0,7.0;"/><polygon fill="none" points="3958.3531,459.3667,3974.5103,469.3138,3977.2472,457.6301,3958.3531,459.3667" style="stroke:#181818;stroke-width:1.0;"/><path d="M3975.8788,463.472 C4005.9326,470.5119 4025.6772,474.1373 4059.5,478.2969 C4284.171,505.9273 4342.6101,481.6602 4568.5,496.2969 C4571.5436,496.4941 4574.6191,496.702 4577.7183,496.9195 " fill="none" style="stroke:#181818;stroke-width:1.0;stroke-dasharray:7.0,7.0;"/><polygon fill="#181818" points="3927.402,374.3558,3933.4852,382.1014,3931.8211,376.6948,3937.2277,375.0307,3927.402,374.3558" style="stroke:#181818;stroke-width:1.0;"/><path d="M4577.7154,496.9625 C4574.6171,496.732 4571.5425,496.5098 4568.5,496.2969 C4393.6338,484.0613 4347.4124,507.0926 4174.5,478.2969 C4144.8111,473.3527 4137.6215,470.0234 4109.5,459.2969 C4042.3417,433.6802 3972.3519,398.1476 3932.705,377.1626 " fill="none" style="stroke:#181818;stroke-width:1.0;stroke-dasharray:7.0,7.0;"/><text fill="#000000" font-family="sans-serif" font-size="13" lengthAdjust="spacing" textLength="55" x="4110.5" y="447.8638">depends</text><polygon fill="none" points="3983.7369,455.2538,4000.875,463.3955,4002.3324,451.4843,3983.7369,455.2538" style="stroke:#181818;stroke-width:1.0;"/><path d="M4001.6037,457.4399 C4066.4676,465.3762 4140.5625,473.3584 4221.5,478.2969 C4700.232,507.5072 4821.8134,466.3517 5300.5,496.2969 C5303.6268,496.4925 5306.7919,496.7069 5309.9834,496.9377 " fill="none" style="stroke:#181818;stroke-width:1.0;stroke-dasharray:7.0,7.0;"/><polygon fill="#181818" points="4017.519,364.0762,4026.0914,368.9253,4022.4957,364.5583,4026.8627,360.9626,4017.519,364.0762" style="stroke:#181818;stroke-width:1.0;"/><path d="M5309.9827,496.9481 C5306.7915,496.7142 5303.6266,496.4963 5300.5,496.2969 C5091.9967,482.9954 4567.0257,509.8833 4360.5,478.2969 C4330.7482,473.7466 4321.8333,473.8719 4295.5,459.2969 C4276.7702,448.9303 4278.4469,437.2611 4259.5,427.2969 C4184.7683,387.9955 4096.71,371.7473 4023.491,364.6547 " fill="none" style="stroke:#181818;stroke-width:1.0;stroke-dasharray:7.0,7.0;"/><text fill="#000000" font-family="sans-serif" font-size="13" lengthAdjust="spacing" textLength="55" x="4296.5" y="447.8638">depends</text><polygon fill="none" points="3882.2544,459.5002,3864.7844,466.9028,3872.7199,475.9043,3882.2544,459.5002" style="stroke:#181818;stroke-width:1.0;"/><path d="M3868.7522,471.4035 C3856.3143,482.3685 3853.0995,485.2026 3840.6773,496.1537 " fill="none" style="stroke:#181818;stroke-width:1.0;stroke-dasharray:7.0,7.0;"/><polygon fill="none" points="3983.538,452.0398,4000.9466,459.5857,4001.9924,447.6314,3983.538,452.0398" style="stroke:#181818;stroke-width:1.0;"/><path d="M4001.4695,453.6086 C4030.0098,456.1055 4044.1642,457.1984 4073.5,459.2969 C4221.8055,469.9054 4258.8966,473.3895 4407.5,478.2969 C5276.8407,507.0053 5495.6216,455.9515 6364.5,496.2969 C6367.3037,496.4271 6370.1314,496.5666 6372.9781,496.7148 " fill="none" style="stroke:#181818;stroke-width:1.0;stroke-dasharray:7.0,7.0;"/><polygon fill="#181818" points="4017.5803,362.0682,4026.4397,366.3707,4022.5774,362.2375,4026.7106,358.3753,4017.5803,362.0682" style="stroke:#181818;stroke-width:1.0;"/><path d="M6372.9779,496.7196 C6370.1313,496.57 6367.3036,496.4288 6364.5,496.2969 C6173.0347,487.2877 4829.0983,506.4497 4639.5,478.2969 C4609.7286,473.8762 4600.8333,473.8719 4574.5,459.2969 C4555.7702,448.9303 4557.6522,436.8606 4538.5,427.2969 C4449.8548,383.0316 4182.5884,367.6594 4023.5768,362.2714 " fill="none" style="stroke:#181818;stroke-width:1.0;stroke-dasharray:7.0,7.0;"/><text fill="#000000" font-family="sans-serif" font-size="13" lengthAdjust="spacing" textLength="55" x="4575.5" y="447.8638">depends</text><polygon fill="none" points="3946.163,459.3593,3961.5364,470.4795,3965.1338,459.0315,3946.163,459.3593" style="stroke:#181818;stroke-width:1.0;"/><path d="M3963.3351,464.7555 C3982.8365,470.8836 3988.6067,472.4809 4009.5,478.2969 C4031.9606,484.5491 4056.7154,490.8505 4078.7163,496.2472 " fill="none" style="stroke:#181818;stroke-width:1.0;stroke-dasharray:7.0,7.0;"/><!--SRC=[nLXHRzis47xdh-3QRkYmH5s6FGLjXoHDrmB94iGPXY8814ewIsmeKgFek5dM_pxAaXrPbaXAjhgdEDBTTzz7tP6y-owJ94u9PkH1p1JEKr244wIeOe0v2HYHOUA58aq5z-OGU0dX4GFfVL0gEmf3oFCp4Nye7wByZlACI9BYa94yFr9Aqc2cu6Ce-8J-0_Zdcab6mZiImqGzw50IGXquPb0p2BH1BCMCHoU22Odd2LNrztb28Z6dFCPJmlBw6qOvg8SCi90g4IYX4M18C_M0KqW3a3b22uBuML-9pp39yOc_TFDBDr-x-PMRt-Q6RsvUtLEOWtprMogY6OCtIuZzwNnVk_-m8FIcBv_RM_pyZCQ9-WICYJb-H7WVF-QAA1f-nQVdbzUV_8lBwuyNVqpm8Ru8Fkjrlhb567iUmZ_XrvHJzVRbZ_hTlQ1HyQYCzh88TWL_po1NU_Zq2uGpHGK_4Lp15rNObmPv9hXUUlmSpwN-EiSGKwxPhRjFGDupK4sKFRocwBsGAL4Av8krnxMG9SKgr2cFHWcqjwQi7ZO6LKMwo0hqtBv8JmjUkPUehVxri1QqhuWB1LY938lfa7Gyn4GgEYMXEiIDH4HKnvFw5TIgOphtEWfWElSTSZmK4feP_eIfa_XHQsgMf3Peha9BzAR901fDY6u-dULepgaMsfsVQ8Najo7rtqYSM7__owzjqGOin9-AiZvo2_lTYYeGpSGByrCfXLoMMmVX3Rl1H3UGEWXMkpwv9vIHW3Ag7hnYKwCX7DMUdIGGtfbFf3g4Ru4mbqm1jqzcAkauelgGDSjUVivtWSu_hhSwNPBd-ZeIGmfScVKkaylewo3qSnI47KATwBafL8a44eLbbNdNY_-gcZjXGAIRrZKKlnF5dBKMiOvCjvQzjUAHnVRIUIq9pycW_3MvsewsVVNaR55g2cFMI8NtdZAu0Xqn-gkuYSbtL6zgEPW5Kk6R_Qpg8gB8T75YTOYpKZChoq2cDC_radYNgvyEM-sJdz_kjzt-QgLbLbKSFpcK_fFoxqJfvRGtD9MNt-ArLJzZO5D98K6kKpbKkEK0BvFMEoOgJ8uMlrjExzB8hnbP60U5PSlXlHcj-sgnEXzqdbxfdQFxnhmwhDOjBHnrLySZmWHlkyDs17TW6vmjxaqYS-3RjDq9uoQeGnAiV7Lv5v_6WVgwPRzZeZkYm_hECaP3ek1IYkA6QjfGwdmDRWDpsOLHfQUZ1rmYh1eckuwcwIuofebf_mY_Cn4GjhY1sobl6W_EbaqeErUtKjnn4MwMdu7XEQX4HCUKHvJ7BmuCBDSi_OF1wxY6evlL0pl9AhbrmqMZxjjNZMkxmouMjntPhTGgNtr8PiuIQiOxf5z3hQYZzZdGwtyzRy1G2WsOOtdUsrw3XaCSGGOyodSJR6Fsj6FyzY742466JA9QQRGjocR8fp5aEuJv8uulmPB9VMOhQClHpD2aiwjmcfYWePEMyNaxJZ_GzlEJ_rNBLZA-dGBJG04D77UCnzewZ4131XZZyRME6D2GiSHuV2tZ0zH_u302rzOvWRjlHnEFt5hzSVHqDkh8jQ4VcTTwzupSUlMHEHdQOJIWEH-NRRFtxO-msPCYvpvuN6tsVFrscTheNFi3j3Tzg5VlEQx4pRuE_GS0]--></g></svg>