<?xml version="1.0" encoding="us-ascii" standalone="no"?><svg xmlns="http://www.w3.org/2000/svg" xmlns:xlink="http://www.w3.org/1999/xlink" contentStyleType="text/css" height="430px" preserveAspectRatio="none" style="width:7575px;height:430px;background:#FFFFFF;" version="1.1" viewBox="0 0 7575 430" width="7575px" zoomAndPan="magnify"><defs/><g><text fill="#000000" font-family="sans-serif" font-size="14" font-weight="bold" lengthAdjust="spacing" textLength="420" x="3573.75" y="22.9951">nablarch.common.io.FileRecordWriterDisposeHandler</text><!--class C_nablarch_common_io_FileRecordWriterDisposeHandler--><a href="/viewer/?module=nablarch-core-dataformat&amp;class=nablarch.common.io.FileRecordWriterDisposeHandler" target="_top" title="/viewer/?module=nablarch-core-dataformat&amp;class=nablarch.common.io.FileRecordWriterDisposeHandler" xlink:actuate="onRequest" xlink:href="/viewer/?module=nablarch-core-dataformat&amp;class=nablarch.common.io.FileRecordWriterDisposeHandler" xlink:show="new" xlink:title="/viewer/?module=nablarch-core-dataformat&amp;class=nablarch.common.io.FileRecordWriterDisposeHandler" xlink:type="simple"><g id="elem_C_nablarch_common_io_FileRecordWriterDisposeHandler"><rect codeLine="10" fill="#FFFFE0" height="72.5938" id="C_nablarch_common_io_FileRecordWriterDisposeHandler" rx="2.5" ry="2.5" style="stroke:#181818;stroke-width:0.5;" width="399" x="3641.5" y="111.2969"/><ellipse cx="3656.5" cy="127.2969" fill="#ADD1B2" rx="11" ry="11" style="stroke:#181818;stroke-width:1.0;"/><path d="M3659.4688,132.9375 Q3658.8906,133.2344 3658.25,133.375 Q3657.6094,133.5313 3656.9063,133.5313 Q3654.4063,133.5313 3653.0781,131.8906 Q3651.7656,130.2344 3651.7656,127.1094 Q3651.7656,123.9844 3653.0781,122.3281 Q3654.4063,120.6719 3656.9063,120.6719 Q3657.6094,120.6719 3658.25,120.8281 Q3658.9063,120.9844 3659.4688,121.2813 L3659.4688,124 Q3658.8438,123.4219 3658.25,123.1563 Q3657.6563,122.875 3657.0313,122.875 Q3655.6875,122.875 3655,123.9531 Q3654.3125,125.0156 3654.3125,127.1094 Q3654.3125,129.2031 3655,130.2813 Q3655.6875,131.3438 3657.0313,131.3438 Q3657.6563,131.3438 3658.25,131.0781 Q3658.8438,130.7969 3659.4688,130.2188 L3659.4688,132.9375 Z " fill="#000000"/><text fill="#000000" font-family="sans-serif" font-size="14" lengthAdjust="spacing" textLength="367" x="3670.5" y="132.1436">nablarch.common.io.FileRecordWriterDisposeHandler</text><line style="stroke:#181818;stroke-width:0.5;" x1="3642.5" x2="4039.5" y1="143.2969" y2="143.2969"/><text fill="#000000" font-family="sans-serif" font-size="14" lengthAdjust="spacing" textLength="107" x="3647.5" y="160.292">+&lt;init&gt;() : void</text><text fill="#000000" font-family="sans-serif" font-size="14" lengthAdjust="spacing" textLength="302" x="3647.5" y="176.5889">+handle(Object, ExecutionContext) : Object</text></g></a><g id="elem_GMN3"><path d="M3721.5,49.2969 L3721.5,74.4297 A0,0 0 0 0 3721.5,74.4297 L3837,74.4297 L3841,111.2494 L3845,74.4297 L3960.5,74.4297 A0,0 0 0 0 3960.5,74.4297 L3960.5,59.2969 L3950.5,49.2969 L3721.5,49.2969 A0,0 0 0 0 3721.5,49.2969 " fill="#FEFFDD" style="stroke:#181818;stroke-width:0.5;"/><path d="M3950.5,49.2969 L3950.5,59.2969 L3960.5,59.2969 L3950.5,49.2969 " fill="#FEFFDD" style="stroke:#181818;stroke-width:0.5;"/><text fill="#000000" font-family="sans-serif" font-size="13" lengthAdjust="spacing" textLength="218" x="3727.5" y="66.3638">artifact: nablarch-core-dataformat</text></g><!--class C_nablarch_common_handler_FileRecordWriterDisposeHandler--><a href="/viewer/?module=nablarch-backward-compatibility&amp;class=nablarch.common.handler.FileRecordWriterDisposeHandler" target="_top" title="/viewer/?module=nablarch-backward-compatibility&amp;class=nablarch.common.handler.FileRecordWriterDisposeHandler" xlink:actuate="onRequest" xlink:href="/viewer/?module=nablarch-backward-compatibility&amp;class=nablarch.common.handler.FileRecordWriterDisposeHandler" xlink:show="new" xlink:title="/viewer/?module=nablarch-backward-compatibility&amp;class=nablarch.common.handler.FileRecordWriterDisposeHandler" xlink:type="simple"><g id="elem_C_nablarch_common_handler_FileRecordWriterDisposeHandler"><rect codeLine="15" fill="#F1F1F1" height="32" id="C_nablarch_common_handler_FileRecordWriterDisposeHandler" rx="2.5" ry="2.5" style="stroke:#181818;stroke-width:0.5;" width="439" x="3216.5" y="237.2969"/><ellipse cx="3231.5" cy="253.2969" fill="#ADD1B2" rx="11" ry="11" style="stroke:#181818;stroke-width:1.0;"/><path d="M3234.4688,258.9375 Q3233.8906,259.2344 3233.25,259.375 Q3232.6094,259.5313 3231.9063,259.5313 Q3229.4063,259.5313 3228.0781,257.8906 Q3226.7656,256.2344 3226.7656,253.1094 Q3226.7656,249.9844 3228.0781,248.3281 Q3229.4063,246.6719 3231.9063,246.6719 Q3232.6094,246.6719 3233.25,246.8281 Q3233.9063,246.9844 3234.4688,247.2813 L3234.4688,250 Q3233.8438,249.4219 3233.25,249.1563 Q3232.6563,248.875 3232.0313,248.875 Q3230.6875,248.875 3230,249.9531 Q3229.3125,251.0156 3229.3125,253.1094 Q3229.3125,255.2031 3230,256.2813 Q3230.6875,257.3438 3232.0313,257.3438 Q3232.6563,257.3438 3233.25,257.0781 Q3233.8438,256.7969 3234.4688,256.2188 L3234.4688,258.9375 Z " fill="#000000"/><text fill="#000000" font-family="sans-serif" font-size="14" lengthAdjust="spacing" textLength="407" x="3245.5" y="258.1436">nablarch.common.handler.FileRecordWriterDisposeHandler</text></g></a><!--class C_nablarch_fw_Handler--><a href="/viewer/?module=nablarch-core&amp;class=nablarch.fw.Handler" target="_top" title="/viewer/?module=nablarch-core&amp;class=nablarch.fw.Handler" xlink:actuate="onRequest" xlink:href="/viewer/?module=nablarch-core&amp;class=nablarch.fw.Handler" xlink:show="new" xlink:title="/viewer/?module=nablarch-core&amp;class=nablarch.fw.Handler" xlink:type="simple"><g id="elem_C_nablarch_fw_Handler"><rect codeLine="17" fill="#F1F1F1" height="32" id="C_nablarch_fw_Handler" rx="2.5" ry="2.5" style="stroke:#181818;stroke-width:0.5;" width="168" x="4403" y="322.2969"/><ellipse cx="4418" cy="338.2969" fill="#B4A7E5" rx="11" ry="11" style="stroke:#181818;stroke-width:1.0;"/><path d="M4413.9219,334.0625 L4413.9219,331.9063 L4421.3125,331.9063 L4421.3125,334.0625 L4418.8438,334.0625 L4418.8438,342.1406 L4421.3125,342.1406 L4421.3125,344.2969 L4413.9219,344.2969 L4413.9219,342.1406 L4416.3906,342.1406 L4416.3906,334.0625 L4413.9219,334.0625 Z " fill="#000000"/><text fill="#000000" font-family="sans-serif" font-size="14" font-style="italic" lengthAdjust="spacing" textLength="136" x="4432" y="343.1436">nablarch.fw.Handler</text></g></a><!--class C_nablarch_common_io_FileRecordWriterHolder--><a href="/viewer/?module=nablarch-core-dataformat&amp;class=nablarch.common.io.FileRecordWriterHolder" target="_top" title="/viewer/?module=nablarch-core-dataformat&amp;class=nablarch.common.io.FileRecordWriterHolder" xlink:actuate="onRequest" xlink:href="/viewer/?module=nablarch-core-dataformat&amp;class=nablarch.common.io.FileRecordWriterHolder" xlink:show="new" xlink:title="/viewer/?module=nablarch-core-dataformat&amp;class=nablarch.common.io.FileRecordWriterHolder" xlink:type="simple"><g id="elem_C_nablarch_common_io_FileRecordWriterHolder"><rect codeLine="19" fill="#F1F1F1" height="32" id="C_nablarch_common_io_FileRecordWriterHolder" rx="2.5" ry="2.5" style="stroke:#181818;stroke-width:0.5;" width="334" x="3674" y="237.2969"/><ellipse cx="3689" cy="253.2969" fill="#ADD1B2" rx="11" ry="11" style="stroke:#181818;stroke-width:1.0;"/><path d="M3691.9688,258.9375 Q3691.3906,259.2344 3690.75,259.375 Q3690.1094,259.5313 3689.4063,259.5313 Q3686.9063,259.5313 3685.5781,257.8906 Q3684.2656,256.2344 3684.2656,253.1094 Q3684.2656,249.9844 3685.5781,248.3281 Q3686.9063,246.6719 3689.4063,246.6719 Q3690.1094,246.6719 3690.75,246.8281 Q3691.4063,246.9844 3691.9688,247.2813 L3691.9688,250 Q3691.3438,249.4219 3690.75,249.1563 Q3690.1563,248.875 3689.5313,248.875 Q3688.1875,248.875 3687.5,249.9531 Q3686.8125,251.0156 3686.8125,253.1094 Q3686.8125,255.2031 3687.5,256.2813 Q3688.1875,257.3438 3689.5313,257.3438 Q3690.1563,257.3438 3690.75,257.0781 Q3691.3438,256.7969 3691.9688,256.2188 L3691.9688,258.9375 Z " fill="#000000"/><text fill="#000000" font-family="sans-serif" font-size="14" lengthAdjust="spacing" textLength="302" x="3703" y="258.1436">nablarch.common.io.FileRecordWriterHolder</text></g></a><!--class C_nablarch_fw_ExecutionContext--><a href="/viewer/?module=nablarch-core&amp;class=nablarch.fw.ExecutionContext" target="_top" title="/viewer/?module=nablarch-core&amp;class=nablarch.fw.ExecutionContext" xlink:actuate="onRequest" xlink:href="/viewer/?module=nablarch-core&amp;class=nablarch.fw.ExecutionContext" xlink:show="new" xlink:title="/viewer/?module=nablarch-core&amp;class=nablarch.fw.ExecutionContext" xlink:type="simple"><g id="elem_C_nablarch_fw_ExecutionContext"><rect codeLine="21" fill="#F1F1F1" height="32" id="C_nablarch_fw_ExecutionContext" rx="2.5" ry="2.5" style="stroke:#181818;stroke-width:0.5;" width="236" x="4026" y="237.2969"/><ellipse cx="4041" cy="253.2969" fill="#ADD1B2" rx="11" ry="11" style="stroke:#181818;stroke-width:1.0;"/><path d="M4043.9688,258.9375 Q4043.3906,259.2344 4042.75,259.375 Q4042.1094,259.5313 4041.4063,259.5313 Q4038.9063,259.5313 4037.5781,257.8906 Q4036.2656,256.2344 4036.2656,253.1094 Q4036.2656,249.9844 4037.5781,248.3281 Q4038.9063,246.6719 4041.4063,246.6719 Q4042.1094,246.6719 4042.75,246.8281 Q4043.4063,246.9844 4043.9688,247.2813 L4043.9688,250 Q4043.3438,249.4219 4042.75,249.1563 Q4042.1563,248.875 4041.5313,248.875 Q4040.1875,248.875 4039.5,249.9531 Q4038.8125,251.0156 4038.8125,253.1094 Q4038.8125,255.2031 4039.5,256.2813 Q4040.1875,257.3438 4041.5313,257.3438 Q4042.1563,257.3438 4042.75,257.0781 Q4043.3438,256.7969 4043.9688,256.2188 L4043.9688,258.9375 Z " fill="#000000"/><text fill="#000000" font-family="sans-serif" font-size="14" lengthAdjust="spacing" textLength="204" x="4055" y="258.1436">nablarch.fw.ExecutionContext</text></g></a><!--class C_nablarch_common_availability_ServiceAvailabilityCheckHandler--><a href="/viewer/?module=nablarch-common-auth&amp;class=nablarch.common.availability.ServiceAvailabilityCheckHandler" target="_top" title="/viewer/?module=nablarch-common-auth&amp;class=nablarch.common.availability.ServiceAvailabilityCheckHandler" xlink:actuate="onRequest" xlink:href="/viewer/?module=nablarch-common-auth&amp;class=nablarch.common.availability.ServiceAvailabilityCheckHandler" xlink:show="new" xlink:title="/viewer/?module=nablarch-common-auth&amp;class=nablarch.common.availability.ServiceAvailabilityCheckHandler" xlink:type="simple"><g id="elem_C_nablarch_common_availability_ServiceAvailabilityCheckHandler"><rect codeLine="23" fill="#F1F1F1" height="32" id="C_nablarch_common_availability_ServiceAvailabilityCheckHandler" rx="2.5" ry="2.5" style="stroke:#181818;stroke-width:0.5;" width="446" x="6" y="391.2969"/><ellipse cx="21" cy="407.2969" fill="#ADD1B2" rx="11" ry="11" style="stroke:#181818;stroke-width:1.0;"/><path d="M23.9688,412.9375 Q23.3906,413.2344 22.75,413.375 Q22.1094,413.5313 21.4063,413.5313 Q18.9063,413.5313 17.5781,411.8906 Q16.2656,410.2344 16.2656,407.1094 Q16.2656,403.9844 17.5781,402.3281 Q18.9063,400.6719 21.4063,400.6719 Q22.1094,400.6719 22.75,400.8281 Q23.4063,400.9844 23.9688,401.2813 L23.9688,404 Q23.3438,403.4219 22.75,403.1563 Q22.1563,402.875 21.5313,402.875 Q20.1875,402.875 19.5,403.9531 Q18.8125,405.0156 18.8125,407.1094 Q18.8125,409.2031 19.5,410.2813 Q20.1875,411.3438 21.5313,411.3438 Q22.1563,411.3438 22.75,411.0781 Q23.3438,410.7969 23.9688,410.2188 L23.9688,412.9375 Z " fill="#000000"/><text fill="#000000" font-family="sans-serif" font-size="14" lengthAdjust="spacing" textLength="414" x="35" y="412.1436">nablarch.common.availability.ServiceAvailabilityCheckHandler</text></g></a><!--class C_nablarch_common_handler_DbConnectionManagementHandler--><a href="/viewer/?module=nablarch-common-jdbc&amp;class=nablarch.common.handler.DbConnectionManagementHandler" target="_top" title="/viewer/?module=nablarch-common-jdbc&amp;class=nablarch.common.handler.DbConnectionManagementHandler" xlink:actuate="onRequest" xlink:href="/viewer/?module=nablarch-common-jdbc&amp;class=nablarch.common.handler.DbConnectionManagementHandler" xlink:show="new" xlink:title="/viewer/?module=nablarch-common-jdbc&amp;class=nablarch.common.handler.DbConnectionManagementHandler" xlink:type="simple"><g id="elem_C_nablarch_common_handler_DbConnectionManagementHandler"><rect codeLine="25" fill="#F1F1F1" height="32" id="C_nablarch_common_handler_DbConnectionManagementHandler" rx="2.5" ry="2.5" style="stroke:#181818;stroke-width:0.5;" width="460" x="470" y="391.2969"/><ellipse cx="485" cy="407.2969" fill="#ADD1B2" rx="11" ry="11" style="stroke:#181818;stroke-width:1.0;"/><path d="M487.9688,412.9375 Q487.3906,413.2344 486.75,413.375 Q486.1094,413.5313 485.4063,413.5313 Q482.9063,413.5313 481.5781,411.8906 Q480.2656,410.2344 480.2656,407.1094 Q480.2656,403.9844 481.5781,402.3281 Q482.9063,400.6719 485.4063,400.6719 Q486.1094,400.6719 486.75,400.8281 Q487.4063,400.9844 487.9688,401.2813 L487.9688,404 Q487.3438,403.4219 486.75,403.1563 Q486.1563,402.875 485.5313,402.875 Q484.1875,402.875 483.5,403.9531 Q482.8125,405.0156 482.8125,407.1094 Q482.8125,409.2031 483.5,410.2813 Q484.1875,411.3438 485.5313,411.3438 Q486.1563,411.3438 486.75,411.0781 Q487.3438,410.7969 487.9688,410.2188 L487.9688,412.9375 Z " fill="#000000"/><text fill="#000000" font-family="sans-serif" font-size="14" lengthAdjust="spacing" textLength="428" x="499" y="412.1436">nablarch.common.handler.DbConnectionManagementHandler</text></g></a><!--class C_nablarch_common_handler_threadcontext_ThreadContextClearHandler--><a href="/viewer/?module=nablarch-fw&amp;class=nablarch.common.handler.threadcontext.ThreadContextClearHandler" target="_top" title="/viewer/?module=nablarch-fw&amp;class=nablarch.common.handler.threadcontext.ThreadContextClearHandler" xlink:actuate="onRequest" xlink:href="/viewer/?module=nablarch-fw&amp;class=nablarch.common.handler.threadcontext.ThreadContextClearHandler" xlink:show="new" xlink:title="/viewer/?module=nablarch-fw&amp;class=nablarch.common.handler.threadcontext.ThreadContextClearHandler" xlink:type="simple"><g id="elem_C_nablarch_common_handler_threadcontext_ThreadContextClearHandler"><rect codeLine="27" fill="#F1F1F1" height="32" id="C_nablarch_common_handler_threadcontext_ThreadContextClearHandler" rx="2.5" ry="2.5" style="stroke:#181818;stroke-width:0.5;" width="508" x="948" y="391.2969"/><ellipse cx="963" cy="407.2969" fill="#ADD1B2" rx="11" ry="11" style="stroke:#181818;stroke-width:1.0;"/><path d="M965.9688,412.9375 Q965.3906,413.2344 964.75,413.375 Q964.1094,413.5313 963.4063,413.5313 Q960.9063,413.5313 959.5781,411.8906 Q958.2656,410.2344 958.2656,407.1094 Q958.2656,403.9844 959.5781,402.3281 Q960.9063,400.6719 963.4063,400.6719 Q964.1094,400.6719 964.75,400.8281 Q965.4063,400.9844 965.9688,401.2813 L965.9688,404 Q965.3438,403.4219 964.75,403.1563 Q964.1563,402.875 963.5313,402.875 Q962.1875,402.875 961.5,403.9531 Q960.8125,405.0156 960.8125,407.1094 Q960.8125,409.2031 961.5,410.2813 Q962.1875,411.3438 963.5313,411.3438 Q964.1563,411.3438 964.75,411.0781 Q965.3438,410.7969 965.9688,410.2188 L965.9688,412.9375 Z " fill="#000000"/><text fill="#000000" font-family="sans-serif" font-size="14" lengthAdjust="spacing" textLength="476" x="977" y="412.1436">nablarch.common.handler.threadcontext.ThreadContextClearHandler</text></g></a><!--class C_nablarch_common_handler_threadcontext_ThreadContextHandler--><a href="/viewer/?module=nablarch-fw&amp;class=nablarch.common.handler.threadcontext.ThreadContextHandler" target="_top" title="/viewer/?module=nablarch-fw&amp;class=nablarch.common.handler.threadcontext.ThreadContextHandler" xlink:actuate="onRequest" xlink:href="/viewer/?module=nablarch-fw&amp;class=nablarch.common.handler.threadcontext.ThreadContextHandler" xlink:show="new" xlink:title="/viewer/?module=nablarch-fw&amp;class=nablarch.common.handler.threadcontext.ThreadContextHandler" xlink:type="simple"><g id="elem_C_nablarch_common_handler_threadcontext_ThreadContextHandler"><rect codeLine="29" fill="#F1F1F1" height="32" id="C_nablarch_common_handler_threadcontext_ThreadContextHandler" rx="2.5" ry="2.5" style="stroke:#181818;stroke-width:0.5;" width="473" x="1474.5" y="391.2969"/><ellipse cx="1489.5" cy="407.2969" fill="#ADD1B2" rx="11" ry="11" style="stroke:#181818;stroke-width:1.0;"/><path d="M1492.4688,412.9375 Q1491.8906,413.2344 1491.25,413.375 Q1490.6094,413.5313 1489.9063,413.5313 Q1487.4063,413.5313 1486.0781,411.8906 Q1484.7656,410.2344 1484.7656,407.1094 Q1484.7656,403.9844 1486.0781,402.3281 Q1487.4063,400.6719 1489.9063,400.6719 Q1490.6094,400.6719 1491.25,400.8281 Q1491.9063,400.9844 1492.4688,401.2813 L1492.4688,404 Q1491.8438,403.4219 1491.25,403.1563 Q1490.6563,402.875 1490.0313,402.875 Q1488.6875,402.875 1488,403.9531 Q1487.3125,405.0156 1487.3125,407.1094 Q1487.3125,409.2031 1488,410.2813 Q1488.6875,411.3438 1490.0313,411.3438 Q1490.6563,411.3438 1491.25,411.0781 Q1491.8438,410.7969 1492.4688,410.2188 L1492.4688,412.9375 Z " fill="#000000"/><text fill="#000000" font-family="sans-serif" font-size="14" lengthAdjust="spacing" textLength="441" x="1503.5" y="412.1436">nablarch.common.handler.threadcontext.ThreadContextHandler</text></g></a><!--class C_nablarch_common_handler_TransactionManagementHandler--><a href="/viewer/?module=nablarch-core-transaction&amp;class=nablarch.common.handler.TransactionManagementHandler" target="_top" title="/viewer/?module=nablarch-core-transaction&amp;class=nablarch.common.handler.TransactionManagementHandler" xlink:actuate="onRequest" xlink:href="/viewer/?module=nablarch-core-transaction&amp;class=nablarch.common.handler.TransactionManagementHandler" xlink:show="new" xlink:title="/viewer/?module=nablarch-core-transaction&amp;class=nablarch.common.handler.TransactionManagementHandler" xlink:type="simple"><g id="elem_C_nablarch_common_handler_TransactionManagementHandler"><rect codeLine="31" fill="#F1F1F1" height="32" id="C_nablarch_common_handler_TransactionManagementHandler" rx="2.5" ry="2.5" style="stroke:#181818;stroke-width:0.5;" width="441" x="1965.5" y="391.2969"/><ellipse cx="1980.5" cy="407.2969" fill="#ADD1B2" rx="11" ry="11" style="stroke:#181818;stroke-width:1.0;"/><path d="M1983.4688,412.9375 Q1982.8906,413.2344 1982.25,413.375 Q1981.6094,413.5313 1980.9063,413.5313 Q1978.4063,413.5313 1977.0781,411.8906 Q1975.7656,410.2344 1975.7656,407.1094 Q1975.7656,403.9844 1977.0781,402.3281 Q1978.4063,400.6719 1980.9063,400.6719 Q1981.6094,400.6719 1982.25,400.8281 Q1982.9063,400.9844 1983.4688,401.2813 L1983.4688,404 Q1982.8438,403.4219 1982.25,403.1563 Q1981.6563,402.875 1981.0313,402.875 Q1979.6875,402.875 1979,403.9531 Q1978.3125,405.0156 1978.3125,407.1094 Q1978.3125,409.2031 1979,410.2813 Q1979.6875,411.3438 1981.0313,411.3438 Q1981.6563,411.3438 1982.25,411.0781 Q1982.8438,410.7969 1983.4688,410.2188 L1983.4688,412.9375 Z " fill="#000000"/><text fill="#000000" font-family="sans-serif" font-size="14" lengthAdjust="spacing" textLength="409" x="1994.5" y="412.1436">nablarch.common.handler.TransactionManagementHandler</text></g></a><!--class C_nablarch_common_permission_PermissionCheckHandler--><a href="/viewer/?module=nablarch-common-auth&amp;class=nablarch.common.permission.PermissionCheckHandler" target="_top" title="/viewer/?module=nablarch-common-auth&amp;class=nablarch.common.permission.PermissionCheckHandler" xlink:actuate="onRequest" xlink:href="/viewer/?module=nablarch-common-auth&amp;class=nablarch.common.permission.PermissionCheckHandler" xlink:show="new" xlink:title="/viewer/?module=nablarch-common-auth&amp;class=nablarch.common.permission.PermissionCheckHandler" xlink:type="simple"><g id="elem_C_nablarch_common_permission_PermissionCheckHandler"><rect codeLine="33" fill="#F1F1F1" height="32" id="C_nablarch_common_permission_PermissionCheckHandler" rx="2.5" ry="2.5" style="stroke:#181818;stroke-width:0.5;" width="413" x="2424.5" y="391.2969"/><ellipse cx="2439.5" cy="407.2969" fill="#ADD1B2" rx="11" ry="11" style="stroke:#181818;stroke-width:1.0;"/><path d="M2442.4688,412.9375 Q2441.8906,413.2344 2441.25,413.375 Q2440.6094,413.5313 2439.9063,413.5313 Q2437.4063,413.5313 2436.0781,411.8906 Q2434.7656,410.2344 2434.7656,407.1094 Q2434.7656,403.9844 2436.0781,402.3281 Q2437.4063,400.6719 2439.9063,400.6719 Q2440.6094,400.6719 2441.25,400.8281 Q2441.9063,400.9844 2442.4688,401.2813 L2442.4688,404 Q2441.8438,403.4219 2441.25,403.1563 Q2440.6563,402.875 2440.0313,402.875 Q2438.6875,402.875 2438,403.9531 Q2437.3125,405.0156 2437.3125,407.1094 Q2437.3125,409.2031 2438,410.2813 Q2438.6875,411.3438 2440.0313,411.3438 Q2440.6563,411.3438 2441.25,411.0781 Q2441.8438,410.7969 2442.4688,410.2188 L2442.4688,412.9375 Z " fill="#000000"/><text fill="#000000" font-family="sans-serif" font-size="14" lengthAdjust="spacing" textLength="381" x="2453.5" y="412.1436">nablarch.common.permission.PermissionCheckHandler</text></g></a><!--class C_nablarch_common_web_handler_HttpAccessLogHandler--><a href="/viewer/?module=nablarch-fw-web&amp;class=nablarch.common.web.handler.HttpAccessLogHandler" target="_top" title="/viewer/?module=nablarch-fw-web&amp;class=nablarch.common.web.handler.HttpAccessLogHandler" xlink:actuate="onRequest" xlink:href="/viewer/?module=nablarch-fw-web&amp;class=nablarch.common.web.handler.HttpAccessLogHandler" xlink:show="new" xlink:title="/viewer/?module=nablarch-fw-web&amp;class=nablarch.common.web.handler.HttpAccessLogHandler" xlink:type="simple"><g id="elem_C_nablarch_common_web_handler_HttpAccessLogHandler"><rect codeLine="35" fill="#F1F1F1" height="32" id="C_nablarch_common_web_handler_HttpAccessLogHandler" rx="2.5" ry="2.5" style="stroke:#181818;stroke-width:0.5;" width="406" x="3215" y="391.2969"/><ellipse cx="3230" cy="407.2969" fill="#ADD1B2" rx="11" ry="11" style="stroke:#181818;stroke-width:1.0;"/><path d="M3232.9688,412.9375 Q3232.3906,413.2344 3231.75,413.375 Q3231.1094,413.5313 3230.4063,413.5313 Q3227.9063,413.5313 3226.5781,411.8906 Q3225.2656,410.2344 3225.2656,407.1094 Q3225.2656,403.9844 3226.5781,402.3281 Q3227.9063,400.6719 3230.4063,400.6719 Q3231.1094,400.6719 3231.75,400.8281 Q3232.4063,400.9844 3232.9688,401.2813 L3232.9688,404 Q3232.3438,403.4219 3231.75,403.1563 Q3231.1563,402.875 3230.5313,402.875 Q3229.1875,402.875 3228.5,403.9531 Q3227.8125,405.0156 3227.8125,407.1094 Q3227.8125,409.2031 3228.5,410.2813 Q3229.1875,411.3438 3230.5313,411.3438 Q3231.1563,411.3438 3231.75,411.0781 Q3232.3438,410.7969 3232.9688,410.2188 L3232.9688,412.9375 Z " fill="#000000"/><text fill="#000000" font-family="sans-serif" font-size="14" lengthAdjust="spacing" textLength="374" x="3244" y="412.1436">nablarch.common.web.handler.HttpAccessLogHandler</text></g></a><!--class C_nablarch_common_web_session_SessionStoreHandler--><a href="/viewer/?module=nablarch-fw-web&amp;class=nablarch.common.web.session.SessionStoreHandler" target="_top" title="/viewer/?module=nablarch-fw-web&amp;class=nablarch.common.web.session.SessionStoreHandler" xlink:actuate="onRequest" xlink:href="/viewer/?module=nablarch-fw-web&amp;class=nablarch.common.web.session.SessionStoreHandler" xlink:show="new" xlink:title="/viewer/?module=nablarch-fw-web&amp;class=nablarch.common.web.session.SessionStoreHandler" xlink:type="simple"><g id="elem_C_nablarch_common_web_session_SessionStoreHandler"><rect codeLine="37" fill="#F1F1F1" height="32" id="C_nablarch_common_web_session_SessionStoreHandler" rx="2.5" ry="2.5" style="stroke:#181818;stroke-width:0.5;" width="396" x="4023" y="391.2969"/><ellipse cx="4038" cy="407.2969" fill="#ADD1B2" rx="11" ry="11" style="stroke:#181818;stroke-width:1.0;"/><path d="M4040.9688,412.9375 Q4040.3906,413.2344 4039.75,413.375 Q4039.1094,413.5313 4038.4063,413.5313 Q4035.9063,413.5313 4034.5781,411.8906 Q4033.2656,410.2344 4033.2656,407.1094 Q4033.2656,403.9844 4034.5781,402.3281 Q4035.9063,400.6719 4038.4063,400.6719 Q4039.1094,400.6719 4039.75,400.8281 Q4040.4063,400.9844 4040.9688,401.2813 L4040.9688,404 Q4040.3438,403.4219 4039.75,403.1563 Q4039.1563,402.875 4038.5313,402.875 Q4037.1875,402.875 4036.5,403.9531 Q4035.8125,405.0156 4035.8125,407.1094 Q4035.8125,409.2031 4036.5,410.2813 Q4037.1875,411.3438 4038.5313,411.3438 Q4039.1563,411.3438 4039.75,411.0781 Q4040.3438,410.7969 4040.9688,410.2188 L4040.9688,412.9375 Z " fill="#000000"/><text fill="#000000" font-family="sans-serif" font-size="14" lengthAdjust="spacing" textLength="364" x="4052" y="412.1436">nablarch.common.web.session.SessionStoreHandler</text></g></a><!--class C_nablarch_fw_action_BatchAction--><a href="/viewer/?module=nablarch-fw-batch&amp;class=nablarch.fw.action.BatchAction" target="_top" title="/viewer/?module=nablarch-fw-batch&amp;class=nablarch.fw.action.BatchAction" xlink:actuate="onRequest" xlink:href="/viewer/?module=nablarch-fw-batch&amp;class=nablarch.fw.action.BatchAction" xlink:show="new" xlink:title="/viewer/?module=nablarch-fw-batch&amp;class=nablarch.fw.action.BatchAction" xlink:type="simple"><g id="elem_C_nablarch_fw_action_BatchAction"><rect codeLine="39" fill="#F1F1F1" height="32" id="C_nablarch_fw_action_BatchAction" rx="2.5" ry="2.5" style="stroke:#181818;stroke-width:0.5;" width="244" x="5076" y="391.2969"/><ellipse cx="5091" cy="407.2969" fill="#A9DCDF" rx="11" ry="11" style="stroke:#181818;stroke-width:1.0;"/><path d="M5091.1094,402.6406 L5089.9531,407.7188 L5092.2813,407.7188 L5091.1094,402.6406 Z M5089.625,400.4063 L5092.6094,400.4063 L5095.9688,412.7969 L5093.5156,412.7969 L5092.75,409.7344 L5089.4688,409.7344 L5088.7188,412.7969 L5086.2813,412.7969 L5089.625,400.4063 Z " fill="#000000"/><text fill="#000000" font-family="sans-serif" font-size="14" font-style="italic" lengthAdjust="spacing" textLength="212" x="5105" y="412.1436">nablarch.fw.action.BatchAction</text></g></a><!--class C_nablarch_fw_handler_DataReadHandler--><a href="/viewer/?module=nablarch-fw-standalone&amp;class=nablarch.fw.handler.DataReadHandler" target="_top" title="/viewer/?module=nablarch-fw-standalone&amp;class=nablarch.fw.handler.DataReadHandler" xlink:actuate="onRequest" xlink:href="/viewer/?module=nablarch-fw-standalone&amp;class=nablarch.fw.handler.DataReadHandler" xlink:show="new" xlink:title="/viewer/?module=nablarch-fw-standalone&amp;class=nablarch.fw.handler.DataReadHandler" xlink:type="simple"><g id="elem_C_nablarch_fw_handler_DataReadHandler"><rect codeLine="41" fill="#F1F1F1" height="32" id="C_nablarch_fw_handler_DataReadHandler" rx="2.5" ry="2.5" style="stroke:#181818;stroke-width:0.5;" width="291" x="5649.5" y="391.2969"/><ellipse cx="5664.5" cy="407.2969" fill="#ADD1B2" rx="11" ry="11" style="stroke:#181818;stroke-width:1.0;"/><path d="M5667.4688,412.9375 Q5666.8906,413.2344 5666.25,413.375 Q5665.6094,413.5313 5664.9063,413.5313 Q5662.4063,413.5313 5661.0781,411.8906 Q5659.7656,410.2344 5659.7656,407.1094 Q5659.7656,403.9844 5661.0781,402.3281 Q5662.4063,400.6719 5664.9063,400.6719 Q5665.6094,400.6719 5666.25,400.8281 Q5666.9063,400.9844 5667.4688,401.2813 L5667.4688,404 Q5666.8438,403.4219 5666.25,403.1563 Q5665.6563,402.875 5665.0313,402.875 Q5663.6875,402.875 5663,403.9531 Q5662.3125,405.0156 5662.3125,407.1094 Q5662.3125,409.2031 5663,410.2813 Q5663.6875,411.3438 5665.0313,411.3438 Q5665.6563,411.3438 5666.25,411.0781 Q5666.8438,410.7969 5667.4688,410.2188 L5667.4688,412.9375 Z " fill="#000000"/><text fill="#000000" font-family="sans-serif" font-size="14" lengthAdjust="spacing" textLength="259" x="5678.5" y="412.1436">nablarch.fw.handler.DataReadHandler</text></g></a><!--class C_nablarch_fw_handler_DbLessLoopHandler--><a href="/viewer/?module=nablarch-fw-standalone&amp;class=nablarch.fw.handler.DbLessLoopHandler" target="_top" title="/viewer/?module=nablarch-fw-standalone&amp;class=nablarch.fw.handler.DbLessLoopHandler" xlink:actuate="onRequest" xlink:href="/viewer/?module=nablarch-fw-standalone&amp;class=nablarch.fw.handler.DbLessLoopHandler" xlink:show="new" xlink:title="/viewer/?module=nablarch-fw-standalone&amp;class=nablarch.fw.handler.DbLessLoopHandler" xlink:type="simple"><g id="elem_C_nablarch_fw_handler_DbLessLoopHandler"><rect codeLine="43" fill="#F1F1F1" height="32" id="C_nablarch_fw_handler_DbLessLoopHandler" rx="2.5" ry="2.5" style="stroke:#181818;stroke-width:0.5;" width="309" x="5958.5" y="391.2969"/><ellipse cx="5973.5" cy="407.2969" fill="#ADD1B2" rx="11" ry="11" style="stroke:#181818;stroke-width:1.0;"/><path d="M5976.4688,412.9375 Q5975.8906,413.2344 5975.25,413.375 Q5974.6094,413.5313 5973.9063,413.5313 Q5971.4063,413.5313 5970.0781,411.8906 Q5968.7656,410.2344 5968.7656,407.1094 Q5968.7656,403.9844 5970.0781,402.3281 Q5971.4063,400.6719 5973.9063,400.6719 Q5974.6094,400.6719 5975.25,400.8281 Q5975.9063,400.9844 5976.4688,401.2813 L5976.4688,404 Q5975.8438,403.4219 5975.25,403.1563 Q5974.6563,402.875 5974.0313,402.875 Q5972.6875,402.875 5972,403.9531 Q5971.3125,405.0156 5971.3125,407.1094 Q5971.3125,409.2031 5972,410.2813 Q5972.6875,411.3438 5974.0313,411.3438 Q5974.6563,411.3438 5975.25,411.0781 Q5975.8438,410.7969 5976.4688,410.2188 L5976.4688,412.9375 Z " fill="#000000"/><text fill="#000000" font-family="sans-serif" font-size="14" lengthAdjust="spacing" textLength="277" x="5987.5" y="412.1436">nablarch.fw.handler.DbLessLoopHandler</text></g></a><!--class C_nablarch_fw_handler_DispatchHandler--><a href="/viewer/?module=nablarch-fw&amp;class=nablarch.fw.handler.DispatchHandler" target="_top" title="/viewer/?module=nablarch-fw&amp;class=nablarch.fw.handler.DispatchHandler" xlink:actuate="onRequest" xlink:href="/viewer/?module=nablarch-fw&amp;class=nablarch.fw.handler.DispatchHandler" xlink:show="new" xlink:title="/viewer/?module=nablarch-fw&amp;class=nablarch.fw.handler.DispatchHandler" xlink:type="simple"><g id="elem_C_nablarch_fw_handler_DispatchHandler"><rect codeLine="45" fill="#F1F1F1" height="32" id="C_nablarch_fw_handler_DispatchHandler" rx="2.5" ry="2.5" style="stroke:#181818;stroke-width:0.5;" width="284" x="6286" y="391.2969"/><ellipse cx="6301" cy="407.2969" fill="#A9DCDF" rx="11" ry="11" style="stroke:#181818;stroke-width:1.0;"/><path d="M6301.1094,402.6406 L6299.9531,407.7188 L6302.2813,407.7188 L6301.1094,402.6406 Z M6299.625,400.4063 L6302.6094,400.4063 L6305.9688,412.7969 L6303.5156,412.7969 L6302.75,409.7344 L6299.4688,409.7344 L6298.7188,412.7969 L6296.2813,412.7969 L6299.625,400.4063 Z " fill="#000000"/><text fill="#000000" font-family="sans-serif" font-size="14" font-style="italic" lengthAdjust="spacing" textLength="252" x="6315" y="412.1436">nablarch.fw.handler.DispatchHandler</text></g></a><!--class C_nablarch_fw_handler_DuplicateProcessCheckHandler--><a href="/viewer/?module=nablarch-fw-batch&amp;class=nablarch.fw.handler.DuplicateProcessCheckHandler" target="_top" title="/viewer/?module=nablarch-fw-batch&amp;class=nablarch.fw.handler.DuplicateProcessCheckHandler" xlink:actuate="onRequest" xlink:href="/viewer/?module=nablarch-fw-batch&amp;class=nablarch.fw.handler.DuplicateProcessCheckHandler" xlink:show="new" xlink:title="/viewer/?module=nablarch-fw-batch&amp;class=nablarch.fw.handler.DuplicateProcessCheckHandler" xlink:type="simple"><g id="elem_C_nablarch_fw_handler_DuplicateProcessCheckHandler"><rect codeLine="47" fill="#F1F1F1" height="32" id="C_nablarch_fw_handler_DuplicateProcessCheckHandler" rx="2.5" ry="2.5" style="stroke:#181818;stroke-width:0.5;" width="388" x="6588" y="391.2969"/><ellipse cx="6603" cy="407.2969" fill="#ADD1B2" rx="11" ry="11" style="stroke:#181818;stroke-width:1.0;"/><path d="M6605.9688,412.9375 Q6605.3906,413.2344 6604.75,413.375 Q6604.1094,413.5313 6603.4063,413.5313 Q6600.9063,413.5313 6599.5781,411.8906 Q6598.2656,410.2344 6598.2656,407.1094 Q6598.2656,403.9844 6599.5781,402.3281 Q6600.9063,400.6719 6603.4063,400.6719 Q6604.1094,400.6719 6604.75,400.8281 Q6605.4063,400.9844 6605.9688,401.2813 L6605.9688,404 Q6605.3438,403.4219 6604.75,403.1563 Q6604.1563,402.875 6603.5313,402.875 Q6602.1875,402.875 6601.5,403.9531 Q6600.8125,405.0156 6600.8125,407.1094 Q6600.8125,409.2031 6601.5,410.2813 Q6602.1875,411.3438 6603.5313,411.3438 Q6604.1563,411.3438 6604.75,411.0781 Q6605.3438,410.7969 6605.9688,410.2188 L6605.9688,412.9375 Z " fill="#000000"/><text fill="#000000" font-family="sans-serif" font-size="14" lengthAdjust="spacing" textLength="356" x="6617" y="412.1436">nablarch.fw.handler.DuplicateProcessCheckHandler</text></g></a><!--class C_nablarch_fw_handler_ExecutionHandler--><a href="/viewer/?module=nablarch-fw-standalone&amp;class=nablarch.fw.handler.ExecutionHandler" target="_top" title="/viewer/?module=nablarch-fw-standalone&amp;class=nablarch.fw.handler.ExecutionHandler" xlink:actuate="onRequest" xlink:href="/viewer/?module=nablarch-fw-standalone&amp;class=nablarch.fw.handler.ExecutionHandler" xlink:show="new" xlink:title="/viewer/?module=nablarch-fw-standalone&amp;class=nablarch.fw.handler.ExecutionHandler" xlink:type="simple"><g id="elem_C_nablarch_fw_handler_ExecutionHandler"><rect codeLine="49" fill="#F1F1F1" height="32" id="C_nablarch_fw_handler_ExecutionHandler" rx="2.5" ry="2.5" style="stroke:#181818;stroke-width:0.5;" width="293" x="5338.5" y="391.2969"/><ellipse cx="5353.5" cy="407.2969" fill="#B4A7E5" rx="11" ry="11" style="stroke:#181818;stroke-width:1.0;"/><path d="M5349.4219,403.0625 L5349.4219,400.9063 L5356.8125,400.9063 L5356.8125,403.0625 L5354.3438,403.0625 L5354.3438,411.1406 L5356.8125,411.1406 L5356.8125,413.2969 L5349.4219,413.2969 L5349.4219,411.1406 L5351.8906,411.1406 L5351.8906,403.0625 L5349.4219,403.0625 Z " fill="#000000"/><text fill="#000000" font-family="sans-serif" font-size="14" font-style="italic" lengthAdjust="spacing" textLength="261" x="5367.5" y="412.1436">nablarch.fw.handler.ExecutionHandler</text></g></a><!--class C_nablarch_fw_handler_GlobalErrorHandler--><a href="/viewer/?module=nablarch-fw&amp;class=nablarch.fw.handler.GlobalErrorHandler" target="_top" title="/viewer/?module=nablarch-fw&amp;class=nablarch.fw.handler.GlobalErrorHandler" xlink:actuate="onRequest" xlink:href="/viewer/?module=nablarch-fw&amp;class=nablarch.fw.handler.GlobalErrorHandler" xlink:show="new" xlink:title="/viewer/?module=nablarch-fw&amp;class=nablarch.fw.handler.GlobalErrorHandler" xlink:type="simple"><g id="elem_C_nablarch_fw_handler_GlobalErrorHandler"><rect codeLine="51" fill="#F1F1F1" height="32" id="C_nablarch_fw_handler_GlobalErrorHandler" rx="2.5" ry="2.5" style="stroke:#181818;stroke-width:0.5;" width="299" x="6994.5" y="391.2969"/><ellipse cx="7009.5" cy="407.2969" fill="#ADD1B2" rx="11" ry="11" style="stroke:#181818;stroke-width:1.0;"/><path d="M7012.4688,412.9375 Q7011.8906,413.2344 7011.25,413.375 Q7010.6094,413.5313 7009.9063,413.5313 Q7007.4063,413.5313 7006.0781,411.8906 Q7004.7656,410.2344 7004.7656,407.1094 Q7004.7656,403.9844 7006.0781,402.3281 Q7007.4063,400.6719 7009.9063,400.6719 Q7010.6094,400.6719 7011.25,400.8281 Q7011.9063,400.9844 7012.4688,401.2813 L7012.4688,404 Q7011.8438,403.4219 7011.25,403.1563 Q7010.6563,402.875 7010.0313,402.875 Q7008.6875,402.875 7008,403.9531 Q7007.3125,405.0156 7007.3125,407.1094 Q7007.3125,409.2031 7008,410.2813 Q7008.6875,411.3438 7010.0313,411.3438 Q7010.6563,411.3438 7011.25,411.0781 Q7011.8438,410.7969 7012.4688,410.2188 L7012.4688,412.9375 Z " fill="#000000"/><text fill="#000000" font-family="sans-serif" font-size="14" lengthAdjust="spacing" textLength="267" x="7023.5" y="412.1436">nablarch.fw.handler.GlobalErrorHandler</text></g></a><!--class C_nablarch_fw_handler_LoopHandler--><a href="/viewer/?module=nablarch-fw-standalone&amp;class=nablarch.fw.handler.LoopHandler" target="_top" title="/viewer/?module=nablarch-fw-standalone&amp;class=nablarch.fw.handler.LoopHandler" xlink:actuate="onRequest" xlink:href="/viewer/?module=nablarch-fw-standalone&amp;class=nablarch.fw.handler.LoopHandler" xlink:show="new" xlink:title="/viewer/?module=nablarch-fw-standalone&amp;class=nablarch.fw.handler.LoopHandler" xlink:type="simple"><g id="elem_C_nablarch_fw_handler_LoopHandler"><rect codeLine="53" fill="#F1F1F1" height="32" id="C_nablarch_fw_handler_LoopHandler" rx="2.5" ry="2.5" style="stroke:#181818;stroke-width:0.5;" width="257" x="7311.5" y="391.2969"/><ellipse cx="7326.5" cy="407.2969" fill="#ADD1B2" rx="11" ry="11" style="stroke:#181818;stroke-width:1.0;"/><path d="M7329.4688,412.9375 Q7328.8906,413.2344 7328.25,413.375 Q7327.6094,413.5313 7326.9063,413.5313 Q7324.4063,413.5313 7323.0781,411.8906 Q7321.7656,410.2344 7321.7656,407.1094 Q7321.7656,403.9844 7323.0781,402.3281 Q7324.4063,400.6719 7326.9063,400.6719 Q7327.6094,400.6719 7328.25,400.8281 Q7328.9063,400.9844 7329.4688,401.2813 L7329.4688,404 Q7328.8438,403.4219 7328.25,403.1563 Q7327.6563,402.875 7327.0313,402.875 Q7325.6875,402.875 7325,403.9531 Q7324.3125,405.0156 7324.3125,407.1094 Q7324.3125,409.2031 7325,410.2813 Q7325.6875,411.3438 7327.0313,411.3438 Q7327.6563,411.3438 7328.25,411.0781 Q7328.8438,410.7969 7329.4688,410.2188 L7329.4688,412.9375 Z " fill="#000000"/><text fill="#000000" font-family="sans-serif" font-size="14" lengthAdjust="spacing" textLength="225" x="7340.5" y="412.1436">nablarch.fw.handler.LoopHandler</text></g></a><!--class C_nablarch_fw_handler_MethodBinding_1--><a href="/viewer/?module=nablarch-fw&amp;class=nablarch.fw.handler.MethodBinding%241" target="_top" title="/viewer/?module=nablarch-fw&amp;class=nablarch.fw.handler.MethodBinding%241" xlink:actuate="onRequest" xlink:href="/viewer/?module=nablarch-fw&amp;class=nablarch.fw.handler.MethodBinding%241" xlink:show="new" xlink:title="/viewer/?module=nablarch-fw&amp;class=nablarch.fw.handler.MethodBinding%241" xlink:type="simple"><g id="elem_C_nablarch_fw_handler_MethodBinding_1"><rect codeLine="55" fill="#F1F1F1" height="32" id="C_nablarch_fw_handler_MethodBinding_1" rx="2.5" ry="2.5" style="stroke:#181818;stroke-width:0.5;" width="293" x="4437.5" y="391.2969"/><ellipse cx="4452.5" cy="407.2969" fill="#ADD1B2" rx="11" ry="11" style="stroke:#181818;stroke-width:1.0;"/><path d="M4455.4688,412.9375 Q4454.8906,413.2344 4454.25,413.375 Q4453.6094,413.5313 4452.9063,413.5313 Q4450.4063,413.5313 4449.0781,411.8906 Q4447.7656,410.2344 4447.7656,407.1094 Q4447.7656,403.9844 4449.0781,402.3281 Q4450.4063,400.6719 4452.9063,400.6719 Q4453.6094,400.6719 4454.25,400.8281 Q4454.9063,400.9844 4455.4688,401.2813 L4455.4688,404 Q4454.8438,403.4219 4454.25,403.1563 Q4453.6563,402.875 4453.0313,402.875 Q4451.6875,402.875 4451,403.9531 Q4450.3125,405.0156 4450.3125,407.1094 Q4450.3125,409.2031 4451,410.2813 Q4451.6875,411.3438 4453.0313,411.3438 Q4453.6563,411.3438 4454.25,411.0781 Q4454.8438,410.7969 4455.4688,410.2188 L4455.4688,412.9375 Z " fill="#000000"/><text fill="#000000" font-family="sans-serif" font-size="14" lengthAdjust="spacing" textLength="261" x="4466.5" y="412.1436">nablarch.fw.handler.MethodBinding$1</text></g></a><!--class C_nablarch_fw_handler_ProcessResidentHandler--><a href="/viewer/?module=nablarch-fw-standalone&amp;class=nablarch.fw.handler.ProcessResidentHandler" target="_top" title="/viewer/?module=nablarch-fw-standalone&amp;class=nablarch.fw.handler.ProcessResidentHandler" xlink:actuate="onRequest" xlink:href="/viewer/?module=nablarch-fw-standalone&amp;class=nablarch.fw.handler.ProcessResidentHandler" xlink:show="new" xlink:title="/viewer/?module=nablarch-fw-standalone&amp;class=nablarch.fw.handler.ProcessResidentHandler" xlink:type="simple"><g id="elem_C_nablarch_fw_handler_ProcessResidentHandler"><rect codeLine="57" fill="#F1F1F1" height="32" id="C_nablarch_fw_handler_ProcessResidentHandler" rx="2.5" ry="2.5" style="stroke:#181818;stroke-width:0.5;" width="341" x="2855.5" y="391.2969"/><ellipse cx="2870.5" cy="407.2969" fill="#ADD1B2" rx="11" ry="11" style="stroke:#181818;stroke-width:1.0;"/><path d="M2873.4688,412.9375 Q2872.8906,413.2344 2872.25,413.375 Q2871.6094,413.5313 2870.9063,413.5313 Q2868.4063,413.5313 2867.0781,411.8906 Q2865.7656,410.2344 2865.7656,407.1094 Q2865.7656,403.9844 2867.0781,402.3281 Q2868.4063,400.6719 2870.9063,400.6719 Q2871.6094,400.6719 2872.25,400.8281 Q2872.9063,400.9844 2873.4688,401.2813 L2873.4688,404 Q2872.8438,403.4219 2872.25,403.1563 Q2871.6563,402.875 2871.0313,402.875 Q2869.6875,402.875 2869,403.9531 Q2868.3125,405.0156 2868.3125,407.1094 Q2868.3125,409.2031 2869,410.2813 Q2869.6875,411.3438 2871.0313,411.3438 Q2871.6563,411.3438 2872.25,411.0781 Q2872.8438,410.7969 2873.4688,410.2188 L2873.4688,412.9375 Z " fill="#000000"/><text fill="#000000" font-family="sans-serif" font-size="14" lengthAdjust="spacing" textLength="309" x="2884.5" y="412.1436">nablarch.fw.handler.ProcessResidentHandler</text></g></a><!--class C_nablarch_fw_handler_ProcessStopHandler--><a href="/viewer/?module=nablarch-fw-standalone&amp;class=nablarch.fw.handler.ProcessStopHandler" target="_top" title="/viewer/?module=nablarch-fw-standalone&amp;class=nablarch.fw.handler.ProcessStopHandler" xlink:actuate="onRequest" xlink:href="/viewer/?module=nablarch-fw-standalone&amp;class=nablarch.fw.handler.ProcessStopHandler" xlink:show="new" xlink:title="/viewer/?module=nablarch-fw-standalone&amp;class=nablarch.fw.handler.ProcessStopHandler" xlink:type="simple"><g id="elem_C_nablarch_fw_handler_ProcessStopHandler"><rect codeLine="59" fill="#F1F1F1" height="32" id="C_nablarch_fw_handler_ProcessStopHandler" rx="2.5" ry="2.5" style="stroke:#181818;stroke-width:0.5;" width="309" x="4748.5" y="391.2969"/><ellipse cx="4763.5" cy="407.2969" fill="#B4A7E5" rx="11" ry="11" style="stroke:#181818;stroke-width:1.0;"/><path d="M4759.4219,403.0625 L4759.4219,400.9063 L4766.8125,400.9063 L4766.8125,403.0625 L4764.3438,403.0625 L4764.3438,411.1406 L4766.8125,411.1406 L4766.8125,413.2969 L4759.4219,413.2969 L4759.4219,411.1406 L4761.8906,411.1406 L4761.8906,403.0625 L4759.4219,403.0625 Z " fill="#000000"/><text fill="#000000" font-family="sans-serif" font-size="14" font-style="italic" lengthAdjust="spacing" textLength="277" x="4777.5" y="412.1436">nablarch.fw.handler.ProcessStopHandler</text></g></a><!--class C_nablarch_fw_handler_RequestThreadLoopHandler--><a href="/viewer/?module=nablarch-fw-standalone&amp;class=nablarch.fw.handler.RequestThreadLoopHandler" target="_top" title="/viewer/?module=nablarch-fw-standalone&amp;class=nablarch.fw.handler.RequestThreadLoopHandler" xlink:actuate="onRequest" xlink:href="/viewer/?module=nablarch-fw-standalone&amp;class=nablarch.fw.handler.RequestThreadLoopHandler" xlink:show="new" xlink:title="/viewer/?module=nablarch-fw-standalone&amp;class=nablarch.fw.handler.RequestThreadLoopHandler" xlink:type="simple"><g id="elem_C_nablarch_fw_handler_RequestThreadLoopHandler"><rect codeLine="61" fill="#F1F1F1" height="32" id="C_nablarch_fw_handler_RequestThreadLoopHandler" rx="2.5" ry="2.5" style="stroke:#181818;stroke-width:0.5;" width="365" x="3639.5" y="391.2969"/><ellipse cx="3654.5" cy="407.2969" fill="#ADD1B2" rx="11" ry="11" style="stroke:#181818;stroke-width:1.0;"/><path d="M3657.4688,412.9375 Q3656.8906,413.2344 3656.25,413.375 Q3655.6094,413.5313 3654.9063,413.5313 Q3652.4063,413.5313 3651.0781,411.8906 Q3649.7656,410.2344 3649.7656,407.1094 Q3649.7656,403.9844 3651.0781,402.3281 Q3652.4063,400.6719 3654.9063,400.6719 Q3655.6094,400.6719 3656.25,400.8281 Q3656.9063,400.9844 3657.4688,401.2813 L3657.4688,404 Q3656.8438,403.4219 3656.25,403.1563 Q3655.6563,402.875 3655.0313,402.875 Q3653.6875,402.875 3653,403.9531 Q3652.3125,405.0156 3652.3125,407.1094 Q3652.3125,409.2031 3653,410.2813 Q3653.6875,411.3438 3655.0313,411.3438 Q3655.6563,411.3438 3656.25,411.0781 Q3656.8438,410.7969 3657.4688,410.2188 L3657.4688,412.9375 Z " fill="#000000"/><text fill="#000000" font-family="sans-serif" font-size="14" lengthAdjust="spacing" textLength="333" x="3668.5" y="412.1436">nablarch.fw.handler.RequestThreadLoopHandler</text></g></a><polygon fill="none" points="4465.9297,322.2074,4454.4975,307.0646,4447.6982,316.9525,4465.9297,322.2074" style="stroke:#181818;stroke-width:1.0;"/><path d="M4451.0978,312.0085 C4435.5846,301.3411 4428.5367,297.3978 4408,287.2969 C4292.7483,230.6105 4152.6279,196.1049 4040.5174,175.712 " fill="none" style="stroke:#181818;stroke-width:1.0;stroke-dasharray:7.0,7.0;"/><polygon fill="#181818" points="3841,237.1328,3845,228.1328,3841,232.1328,3837,228.1328,3841,237.1328" style="stroke:#181818;stroke-width:1.0;"/><path d="M3841,184.4157 C3841,202.4258 3841,217.3322 3841,231.1328 " fill="none" style="stroke:#181818;stroke-width:1.0;stroke-dasharray:7.0,7.0;"/><text fill="#000000" font-family="sans-serif" font-size="13" lengthAdjust="spacing" textLength="55" x="3842" y="215.3638">depends</text><polygon fill="#181818" points="4099.9994,237.267,4092.7756,230.5725,4095.2678,235.6507,4090.1896,238.143,4099.9994,237.267" style="stroke:#181818;stroke-width:1.0;"/><path d="M3945.2754,184.4157 C3998.1718,202.4843 4053.9244,221.5285 4094.3215,235.3275 " fill="none" style="stroke:#181818;stroke-width:1.0;stroke-dasharray:7.0,7.0;"/><text fill="#000000" font-family="sans-serif" font-size="13" lengthAdjust="spacing" textLength="55" x="4047" y="215.3638">depends</text><polygon fill="none" points="3707.3768,184.3317,3688.443,183.1027,3691.4924,194.7088,3707.3768,184.3317" style="stroke:#181818;stroke-width:1.0;"/><path d="M3689.9677,188.9058 C3646.8051,200.2463 3616.1196,208.1636 3572,219.2969 C3548.2066,225.3009 3522.0187,231.704 3499.0291,237.2567 " fill="none" style="stroke:#181818;stroke-width:1.0;"/><polygon fill="#181818" points="3641.4408,167.1051,3631.8765,164.7546,3636.5191,167.9867,3633.287,172.6293,3641.4408,167.1051" style="stroke:#181818;stroke-width:1.0;"/><path d="M3453.8633,237.1633 C3468.3309,225.7397 3489.7347,210.6518 3511,202.2969 C3551.9201,186.2198 3591.6112,176.0307 3635.5348,168.163 " fill="none" style="stroke:#181818;stroke-width:1.0;stroke-dasharray:7.0,7.0;"/><text fill="#000000" font-family="sans-serif" font-size="13" lengthAdjust="spacing" textLength="55" x="3512" y="215.3638">depends</text><polygon fill="#181818" points="4424.7688,322.238,4416.962,316.2335,4419.9091,321.062,4415.0805,324.0091,4424.7688,322.238" style="stroke:#181818;stroke-width:1.0;"/><path d="M4206.1147,269.3275 C4268.0848,284.3232 4356.9261,305.8213 4418.9371,320.8268 " fill="none" style="stroke:#181818;stroke-width:1.0;stroke-dasharray:7.0,7.0;"/><text fill="#000000" font-family="sans-serif" font-size="13" lengthAdjust="spacing" textLength="55" x="4348" y="300.3638">depends</text><polygon fill="none" points="4402.935,345.8193,4384.5542,341.1135,4385.4069,353.0832,4402.935,345.8193" style="stroke:#181818;stroke-width:1.0;"/><path d="M4384.9805,347.0984 C4340.698,350.2531 4303.419,352.4665 4254,354.2969 C3411.6486,385.4964 1303.3471,359.9809 461,391.2969 C458.0758,391.4056 455.1311,391.5202 452.1695,391.6402 " fill="none" style="stroke:#181818;stroke-width:1.0;stroke-dasharray:7.0,7.0;"/><polygon fill="#181818" points="4025.7343,268.6759,4016.4553,265.3742,4020.7489,269.0574,4017.0657,273.3509,4025.7343,268.6759" style="stroke:#181818;stroke-width:1.0;"/><path d="M428.3921,391.2888 C682.4286,372.6427 1135.1093,341.0081 1523,322.2969 C2015.1178,298.5579 2138.4322,298.2741 2631,287.2969 C2938.9495,280.434 3709.63,289.3893 4017,269.2969 C4019.8801,269.1086 4016.8127,269.3586 4019.7518,269.1337 " fill="none" style="stroke:#181818;stroke-width:1.0;stroke-dasharray:7.0,7.0;"/><text fill="#000000" font-family="sans-serif" font-size="13" lengthAdjust="spacing" textLength="55" x="1524" y="342.8638">depends</text><polygon fill="none" points="4402.934,345.7907,4384.5539,341.0817,4385.4045,353.0516,4402.934,345.7907" style="stroke:#181818;stroke-width:1.0;"/><path d="M4384.9792,347.0667 C4340.6965,350.2135 4303.4177,352.4317 4254,354.2969 C3517.8116,382.0827 1675.2105,364.1035 939,391.2969 C936.0918,391.4043 933.1639,391.5171 930.2196,391.6348 " fill="none" style="stroke:#181818;stroke-width:1.0;stroke-dasharray:7.0,7.0;"/><polygon fill="#181818" points="4025.7323,268.6459,4016.4433,265.3724,4020.748,269.0425,4017.0779,273.3472,4025.7323,268.6459" style="stroke:#181818;stroke-width:1.0;"/><path d="M930.2277,391.807 C933.1695,391.6351 936.0946,391.465 939,391.2969 C1919.7811,334.5521 2165.0111,316.4418 3147,287.2969 C3533.5792,275.8234 3631.1742,296.0101 4017,269.2969 C4019.8793,269.0975 4016.8127,269.3557 4019.7512,269.1219 " fill="none" style="stroke:#181818;stroke-width:1.0;stroke-dasharray:7.0,7.0;"/><text fill="#000000" font-family="sans-serif" font-size="13" lengthAdjust="spacing" textLength="55" x="2177" y="342.8638">depends</text><polygon fill="none" points="4402.9306,345.703,4384.5531,340.984,4385.3972,352.9543,4402.9306,345.703" style="stroke:#181818;stroke-width:1.0;"/><path d="M4384.9751,346.9691 C4340.6914,350.092 4303.4135,352.3249 4254,354.2969 C3709.0351,376.0451 3572.349,365.9323 3027,373.2969 C2332.795,382.6716 2158.8612,367.5243 1465,391.2969 C1462.029,391.3987 1459.0394,391.505 1456.0339,391.6155 " fill="none" style="stroke:#181818;stroke-width:1.0;stroke-dasharray:7.0,7.0;"/><polygon fill="#181818" points="4025.7283,268.591,4016.4213,265.3692,4020.7463,269.0153,4017.1002,273.3404,4025.7283,268.591" style="stroke:#181818;stroke-width:1.0;"/><path d="M1456.0389,391.7351 C1459.0428,391.5868 1462.0308,391.4407 1465,391.2969 C1665.8128,381.5725 1716.1743,382.7503 1917,373.2969 C2620.8137,340.1665 2796.1057,318.6677 3500,287.2969 C3729.689,277.0602 3787.7499,286.7959 4017,269.2969 C4019.8779,269.0772 4016.8126,269.3504 4019.7499,269.1002 " fill="none" style="stroke:#181818;stroke-width:1.0;stroke-dasharray:7.0,7.0;"/><text fill="#000000" font-family="sans-serif" font-size="13" lengthAdjust="spacing" textLength="55" x="2828" y="342.8638">depends</text><polygon fill="none" points="4402.9246,345.5603,4384.5513,340.8252,4385.3849,352.7962,4402.9246,345.5603" style="stroke:#181818;stroke-width:1.0;"/><path d="M4384.9681,346.8107 C4340.6827,349.8945 4303.4063,352.1514 4254,354.2969 C3879.1471,370.5752 3785.1491,366.7523 3410,373.2969 C2763.8266,384.5696 2601.8351,367.543 1956,391.2969 C1953.2319,391.3987 1950.4465,391.505 1947.6463,391.6155 " fill="none" style="stroke:#181818;stroke-width:1.0;stroke-dasharray:7.0,7.0;"/><polygon fill="#181818" points="4025.7216,268.5098,4016.3885,265.3647,4020.7433,268.9751,4017.1329,273.33,4025.7216,268.5098" style="stroke:#181818;stroke-width:1.0;"/><path d="M1947.6478,391.6522 C1950.4475,391.5301 1953.2324,391.4116 1956,391.2969 C2324.6592,376.0198 2417.6461,394.7067 2786,373.2969 C3190.6786,349.7758 3289.7795,317.6911 3694,287.2969 C3837.3736,276.5163 3873.7607,281.7351 4017,269.2969 C4019.8754,269.0472 4016.8123,269.3425 4019.7477,269.0682 " fill="none" style="stroke:#181818;stroke-width:1.0;stroke-dasharray:7.0,7.0;"/><text fill="#000000" font-family="sans-serif" font-size="13" lengthAdjust="spacing" textLength="55" x="3326" y="342.8638">depends</text><polygon fill="none" points="4402.9164,345.3799,4384.5483,340.6243,4385.3686,352.5963,4402.9164,345.3799" style="stroke:#181818;stroke-width:1.0;"/><path d="M4384.9585,346.6103 C4340.6709,349.6447 4303.3963,351.9319 4254,354.2969 C3437.4366,393.3926 3231.8449,358.6079 2415,391.2969 C2412.2133,391.4084 2409.4077,391.525 2406.5865,391.6464 " fill="none" style="stroke:#181818;stroke-width:1.0;stroke-dasharray:7.0,7.0;"/><polygon fill="#181818" points="4025.7069,268.3573,4016.3262,265.3569,4020.7364,268.8996,4017.1938,273.3097,4025.7069,268.3573" style="stroke:#181818;stroke-width:1.0;"/><path d="M2406.5876,391.6723 C2409.4085,391.5428 2412.2137,391.4175 2415,391.2969 C2793.3967,374.9149 2889.8537,408.1266 3267,373.2969 C3406.0382,360.4566 3438.9548,343.2736 3577,322.2969 C3688.3566,305.3756 3716.1319,300.4172 3828,287.2969 C3911.8057,277.4678 3933.0958,278.2461 4017,269.2969 C4019.87,268.9908 4016.8113,269.3277 4019.7423,269.008 " fill="none" style="stroke:#181818;stroke-width:1.0;stroke-dasharray:7.0,7.0;"/><text fill="#000000" font-family="sans-serif" font-size="13" lengthAdjust="spacing" textLength="55" x="3578" y="342.8638">depends</text><polygon fill="none" points="4402.9041,345.1392,4384.5432,340.3564,4385.3457,352.3295,4402.9041,345.1392" style="stroke:#181818;stroke-width:1.0;"/><path d="M4384.9444,346.3429 C4340.6535,349.3115 4303.3814,351.639 4254,354.2969 C4058.9885,364.793 4010.2005,367.2606 3815,373.2969 C3384.4648,386.6104 3276.3219,372.3013 2846,391.2969 C2843.1964,391.4206 2840.3726,391.55 2837.5321,391.6846 " fill="none" style="stroke:#181818;stroke-width:1.0;stroke-dasharray:7.0,7.0;"/><polygon fill="#181818" points="4033.5802,269.342,4024.0948,266.6911,4028.6332,270.068,4025.2564,274.6064,4033.5802,269.342" style="stroke:#181818;stroke-width:1.0;"/><path d="M2837.5334,391.7117 C2840.3735,391.5686 2843.1969,391.4302 2846,391.2969 C3003.2064,383.8182 3398.3021,396.274 3554,373.2969 C3638.7995,360.7826 3656.4407,341.4121 3740,322.2969 C3838.4549,299.7741 3946.0519,282.1866 4027.6438,270.2132 " fill="none" style="stroke:#181818;stroke-width:1.0;stroke-dasharray:7.0,7.0;"/><text fill="#000000" font-family="sans-serif" font-size="13" lengthAdjust="spacing" textLength="55" x="3741" y="342.8638">depends</text><polygon fill="none" points="4402.6291,346.846,4384.1767,342.4291,4385.217,354.3839,4402.6291,346.846" style="stroke:#181818;stroke-width:1.0;"/><path d="M4384.6969,348.4065 C4297.6659,355.98 4175.9023,365.9813 4055,373.2969 C3866.2869,384.7156 3818.7567,380.6241 3630,391.2969 C3627.0529,391.4635 3624.083,391.6344 3621.0945,391.8091 " fill="none" style="stroke:#181818;stroke-width:1.0;stroke-dasharray:7.0,7.0;"/><polygon fill="#181818" points="4106.5347,269.4252,4096.6892,269.1682,4101.9143,271.336,4099.7465,276.561,4106.5347,269.4252" style="stroke:#181818;stroke-width:1.0;"/><path d="M3621.1018,391.9246 C3624.088,391.7139 3627.0555,391.5046 3630,391.2969 C3743.776,383.2718 3774.8721,398.9868 3886,373.2969 C3907.9522,368.2221 3912.7281,364.1308 3933,354.2969 C3958.7913,341.7855 3963.3944,335.1842 3989,322.2969 C4028.3726,302.4806 4069.2759,284.8335 4100.9902,271.7181 " fill="none" style="stroke:#181818;stroke-width:1.0;stroke-dasharray:7.0,7.0;"/><text fill="#000000" font-family="sans-serif" font-size="13" lengthAdjust="spacing" textLength="55" x="3990" y="342.8638">depends</text><polygon fill="none" points="4427.3044,354.333,4408.3841,352.9112,4411.3151,364.5478,4427.3044,354.333" style="stroke:#181818;stroke-width:1.0;"/><path d="M4409.8496,358.7295 C4366.1947,369.7253 4324.6716,380.1841 4280.956,391.1952 " fill="none" style="stroke:#181818;stroke-width:1.0;stroke-dasharray:7.0,7.0;"/><polygon fill="#181818" points="4151.6646,269.4269,4152.1634,279.2631,4153.9241,273.8873,4159.3,275.6479,4151.6646,269.4269" style="stroke:#181818;stroke-width:1.0;"/><path d="M4213.3664,391.228 C4198.6316,362.141 4169.1353,303.9146 4154.376,274.7793 " fill="none" style="stroke:#181818;stroke-width:1.0;stroke-dasharray:7.0,7.0;"/><text fill="#000000" font-family="sans-serif" font-size="13" lengthAdjust="spacing" textLength="55" x="4196" y="342.8638">depends</text><polygon fill="none" points="4571.4415,346.2526,4588.8787,353.7322,4589.879,341.7739,4571.4415,346.2526" style="stroke:#181818;stroke-width:1.0;"/><path d="M4589.3789,347.753 C4702.1771,357.1883 4890.287,373.4253 5066,391.2969 C5069.2124,391.6236 5072.4682,391.9595 5075.7531,392.3025 " fill="none" style="stroke:#181818;stroke-width:1.0;stroke-dasharray:7.0,7.0;"/><polygon fill="none" points="4571.098,344.2499,4588.7205,351.282,4589.4152,339.3021,4571.098,344.2499" style="stroke:#181818;stroke-width:1.0;"/><path d="M4589.0679,345.2921 C4711.3938,352.3863 4927.6069,364.5099 5127,373.2969 C5355.3628,383.3605 5412.914,376.2097 5641,391.2969 C5643.6804,391.4742 5646.3864,391.6605 5649.1119,391.8549 " fill="none" style="stroke:#181818;stroke-width:1.0;stroke-dasharray:7.0,7.0;"/><polygon fill="#181818" points="4262.074,268.0451,4270.5542,273.0538,4267.0408,268.6202,4271.4744,265.1069,4262.074,268.0451" style="stroke:#181818;stroke-width:1.0;"/><path d="M5649.1093,391.8923 C5646.3846,391.6865 5643.6795,391.4877 5641,391.2969 C5463.9347,378.6882 5418.9942,386.8669 5242,373.2969 C5053.6875,358.859 4510.9481,296.8629 4268.0342,268.7353 " fill="none" style="stroke:#181818;stroke-width:1.0;stroke-dasharray:7.0,7.0;"/><text fill="#000000" font-family="sans-serif" font-size="13" lengthAdjust="spacing" textLength="55" x="5035" y="342.8638">depends</text><polygon fill="none" points="4571.0108,343.9806,4588.6567,350.9537,4589.3114,338.9716,4571.0108,343.9806" style="stroke:#181818;stroke-width:1.0;"/><path d="M4588.984,344.9626 C4721.6915,352.2135 4970.0154,365.1821 5196,373.2969 C5530.9907,385.3259 5615.3535,371.927 5950,391.2969 C5952.6952,391.4529 5955.4149,391.618 5958.1534,391.7912 " fill="none" style="stroke:#181818;stroke-width:1.0;stroke-dasharray:7.0,7.0;"/><polygon fill="#181818" points="4262.047,257.5037,4270.9072,261.8046,4267.0442,257.6721,4271.1767,253.8091,4262.047,257.5037" style="stroke:#181818;stroke-width:1.0;"/><path d="M5958.1522,391.8114 C5955.414,391.632 5952.6948,391.4601 5950,391.2969 C5677.0501,374.7597 5606.506,405.8483 5335,373.2969 C5226.727,360.3158 5202.9756,337.5553 5095,322.2969 C4796.9118,280.173 4448.3673,263.7828 4268.0436,257.7058 " fill="none" style="stroke:#181818;stroke-width:1.0;stroke-dasharray:7.0,7.0;"/><text fill="#000000" font-family="sans-serif" font-size="13" lengthAdjust="spacing" textLength="55" x="5236" y="342.8638">depends</text><polygon fill="none" points="4571.2659,343.5395,4588.9484,350.419,4589.5396,338.4335,4571.2659,343.5395" style="stroke:#181818;stroke-width:1.0;"/><path d="M4589.244,344.4262 C4735.3311,351.6315 5027.1212,365.3615 5289,373.2969 C5727.9825,386.5989 5838.5703,365.5689 6277,391.2969 C6279.8929,391.4666 6282.816,391.6495 6285.7613,391.844 " fill="none" style="stroke:#181818;stroke-width:1.0;stroke-dasharray:7.0,7.0;"/><polygon fill="#181818" points="4262.1464,258.1868,4271.0003,262.5007,4267.1433,258.3626,4271.2815,254.5056,4262.1464,258.1868" style="stroke:#181818;stroke-width:1.0;"/><path d="M6285.7606,391.8559 C6282.8155,391.6578 6279.8926,391.4709 6277,391.2969 C6088.6317,379.9612 5614.5106,402.018 5428,373.2969 C5398.2529,368.7161 5391.1153,365.0397 5363,354.2969 C5332.1739,342.5182 5327.8508,330.9289 5296,322.2969 C5116.4906,273.6473 5064.6006,299.2479 4879,287.2969 C4661.5065,273.2923 4413.4226,263.5073 4268.1427,258.3977 " fill="none" style="stroke:#181818;stroke-width:1.0;stroke-dasharray:7.0,7.0;"/><text fill="#000000" font-family="sans-serif" font-size="13" lengthAdjust="spacing" textLength="55" x="5364" y="342.8638">depends</text><polygon fill="none" points="4571.1953,343.1398,4588.9091,349.9383,4589.4455,337.9503,4571.1953,343.1398" style="stroke:#181818;stroke-width:1.0;"/><path d="M4589.1773,343.9443 C4747.7839,351.0403 5083.7506,365.3904 5382,373.2969 C5913.8733,387.3967 6047.4641,367.6827 6579,391.2969 C6581.9126,391.4263 6584.8483,391.5629 6587.8026,391.7062 " fill="none" style="stroke:#181818;stroke-width:1.0;stroke-dasharray:7.0,7.0;"/><polygon fill="#181818" points="4262.2242,256.2229,4271.1453,260.3959,4267.2232,256.3194,4271.2997,252.3974,4262.2242,256.2229" style="stroke:#181818;stroke-width:1.0;"/><path d="M6587.8022,391.7143 C6584.8481,391.5685 6581.9125,391.4291 6579,391.2969 C6461.5485,385.9627 5637.2401,390.9479 5521,373.2969 C5491.2433,368.7783 5482.3333,368.8719 5456,354.2969 C5437.2702,343.9303 5439.6155,330.8702 5420,322.2969 C5273.5111,258.271 5221.5143,297.9513 5062,287.2969 C4775.1801,268.1393 4443.153,259.7152 4268.223,256.3387 " fill="none" style="stroke:#181818;stroke-width:1.0;stroke-dasharray:7.0,7.0;"/><text fill="#000000" font-family="sans-serif" font-size="13" lengthAdjust="spacing" textLength="55" x="5457" y="342.8638">depends</text><polygon fill="none" points="4571.0223,343.5329,4588.6877,350.4563,4589.3087,338.4724,4571.0223,343.5329" style="stroke:#181818;stroke-width:1.0;"/><path d="M4588.9982,344.4643 C4740.5609,352.3178 5051.7731,369.4146 5329,391.2969 C5332.1192,391.5431 5335.2731,391.7974 5338.452,392.0587 " fill="none" style="stroke:#181818;stroke-width:1.0;stroke-dasharray:7.0,7.0;"/><polygon fill="none" points="4571.2367,342.8346,4588.9747,349.5699,4589.4683,337.5801,4571.2367,342.8346" style="stroke:#181818;stroke-width:1.0;"/><path d="M4589.2215,343.575 C4759.7697,350.5964 5140.1981,365.5416 5475,373.2969 C6145.9788,388.8393 6314.7833,355.7484 6985,391.2969 C6988.0457,391.4584 6991.1231,391.6338 6994.2241,391.8215 " fill="none" style="stroke:#181818;stroke-width:1.0;stroke-dasharray:7.0,7.0;"/><polygon fill="#181818" points="4262.0155,254.2856,4270.9997,258.321,4267.0155,254.3053,4271.0312,250.321,4262.0155,254.2856" style="stroke:#181818;stroke-width:1.0;"/><path d="M6994.2238,391.8265 C6991.123,391.6373 6988.0456,391.4603 6985,391.2969 C6832.8723,383.1358 5764.664,395.8759 5614,373.2969 C5584.2346,368.8361 5575.3333,368.8719 5549,354.2969 C5530.2702,343.9303 5532.5023,331.1248 5513,322.2969 C5397.9436,270.2157 5356.9216,297.0014 5231,287.2969 C4879.219,260.1859 4467.7932,255.0947 4268.0155,254.3092 " fill="none" style="stroke:#181818;stroke-width:1.0;stroke-dasharray:7.0,7.0;"/><text fill="#000000" font-family="sans-serif" font-size="13" lengthAdjust="spacing" textLength="55" x="5550" y="342.8638">depends</text><polygon fill="none" points="4571.1058,342.3952,4588.8771,349.0421,4589.311,337.0499,4571.1058,342.3952" style="stroke:#181818;stroke-width:1.0;"/><path d="M4589.0941,343.046 C4776.3842,349.8223 5224.0519,365.3377 5614,373.2969 C5989.2765,380.9566 6928.3175,368.8432 7303,391.2969 C7305.7467,391.4615 7308.523,391.6416 7311.3209,391.8354 " fill="none" style="stroke:#181818;stroke-width:1.0;stroke-dasharray:7.0,7.0;"/><polygon fill="#181818" points="4262.0412,256.4582,4270.962,260.6318,4267.0402,256.5551,4271.117,252.6333,4262.0412,256.4582" style="stroke:#181818;stroke-width:1.0;"/><path d="M7311.3095,391.9964 C7308.5151,391.7539 7305.7425,391.5203 7303,391.2969 C6441.9489,321.1457 6225.2024,322.1099 5362,287.2969 C4958.5588,271.0261 4485.6127,260.7891 4268.04,256.5745 " fill="none" style="stroke:#181818;stroke-width:1.0;stroke-dasharray:7.0,7.0;"/><text fill="#000000" font-family="sans-serif" font-size="13" lengthAdjust="spacing" textLength="55" x="6811" y="342.8638">depends</text><polygon fill="none" points="4509.0108,354.5002,4520.4113,369.6669,4527.2312,359.7933,4509.0108,354.5002" style="stroke:#181818;stroke-width:1.0;"/><path d="M4523.8212,364.7301 C4539.6959,375.6951 4546.2217,380.2026 4562.0763,391.1537 " fill="none" style="stroke:#181818;stroke-width:1.0;stroke-dasharray:7.0,7.0;"/><polygon fill="none" points="4402.8826,344.7708,4384.5326,339.9462,4385.3079,351.9211,4402.8826,344.7708" style="stroke:#181818;stroke-width:1.0;"/><path d="M4384.9202,345.9336 C4340.6234,348.8014 4303.3552,351.1908 4254,354.2969 C4116.679,362.9389 4082.4662,367.3984 3945,373.2969 C3616.7602,387.3811 3534.0674,373.6473 3206,391.2969 C3202.8687,391.4653 3199.7074,391.6435 3196.5231,391.8304 " fill="none" style="stroke:#181818;stroke-width:1.0;stroke-dasharray:7.0,7.0;"/><polygon fill="#181818" points="4072.8194,269.3412,4063.164,267.3984,4067.9395,270.4307,4064.9072,275.2062,4072.8194,269.3412" style="stroke:#181818;stroke-width:1.0;"/><path d="M3196.5253,391.8698 C3199.7089,391.6709 3202.8695,391.4796 3206,391.2969 C3325.4193,384.3277 3626.9141,397.8005 3744,373.2969 C3803.9397,360.7527 3813.7195,341.0987 3872,322.2969 C3939.1706,300.627 4011.6556,282.9969 4066.9635,270.6486 " fill="none" style="stroke:#181818;stroke-width:1.0;stroke-dasharray:7.0,7.0;"/><text fill="#000000" font-family="sans-serif" font-size="13" lengthAdjust="spacing" textLength="55" x="3873" y="342.8638">depends</text><polygon fill="none" points="4571.1838,352.8553,4588.0007,361.6411,4589.9088,349.7938,4571.1838,352.8553" style="stroke:#181818;stroke-width:1.0;"/><path d="M4588.9548,355.7175 C4658.0425,366.8446 4738.0133,379.7245 4809.52,391.2412 " fill="none" style="stroke:#181818;stroke-width:1.0;stroke-dasharray:7.0,7.0;"/><polygon fill="none" points="4402.9168,348.0648,4384.3931,343.9571,4385.6332,355.8928,4402.9168,348.0648" style="stroke:#181818;stroke-width:1.0;"/><path d="M4385.0131,349.925 C4318.3305,356.8531 4240.6649,364.8661 4157,373.2969 C4097.8357,379.2588 4032.7807,385.6946 3975.8641,391.2858 " fill="none" style="stroke:#181818;stroke-width:1.0;stroke-dasharray:7.0,7.0;"/><polygon fill="#181818" points="4133.1557,269.4569,4124.5652,274.274,4130.1636,273.4629,4130.9747,279.0613,4133.1557,269.4569" style="stroke:#181818;stroke-width:1.0;"/><path d="M3963.5845,391.2509 C3993.8988,383.4656 4024.4541,371.7829 4050,354.2969 C4085.1952,330.206 4113.5389,295.7212 4129.5652,274.2641 " fill="none" style="stroke:#181818;stroke-width:1.0;stroke-dasharray:7.0,7.0;"/><text fill="#000000" font-family="sans-serif" font-size="13" lengthAdjust="spacing" textLength="55" x="4088" y="342.8638">depends</text><!--SRC=[nLXRRzis57xdh-2w2pfiLfTXJq7Q8NMxfK2A5N61OIWAWPAE9JOKgP5qLA_TVnzjEOuiIoGbMTrJ7FjSlk_my7A-hmf9qfnWHjPYfR7AGHDEaAQQ0UOaOaJ6MH2BF1Sye2BuZJAuWLZ8v4z9DSWNL1L2mHNX2GE9r2tb1P4anp4ZIbrgBMcqql0g5dn1_m7yKysa8F4jIM6XroQNXDXaJXdK329Za4gnuibSC25ncPcKjTzLHX9HKfxY9M6g_WkZ7FIw02oapWJAQ08OyaAlSGvv158Xj0M87_Nc-0WJXUVXlLzO-OLKX7O__ExTapiA9SWdl-OYMJ5uUXzZPdnWbX1DbaBcH7-tnVQqDxJtx_7NrpJDz5_0c2Zn9uH_m1UKK_tiyVVu7Dy9cco-ohRcZ_-8FfYY_uXVVeHufQdWSy4rVDGRq-etz2_YGWFMei1YEOZrEIPIqoM9zJdkujkr5XLEEMn1TiuZLcNJVYMHYO6R5qJJY3AgrnsBuuVLhD0dKrHgwYnDJQ36ULa67OIMPUZPGqri3p5tYVsR_agmf4-pL_QJD7aLkeE1eTZitvRwDKq65B8PmbvHSaSe8rN710kGTpI6ozftympYMti3rqE4ZX1sFfjmCxBIMKVD-u2rqxxV1IyYKoLkJX1JhzVcGaaX1wxzDgpLruFeXoIA7PlKciAFeSuaa2IkUY5uk_rlrnbp1aJwSJs84dP6iR5UbWwodaX7qnxDU6AolNY-bOGhCgX_RQxEyr4_E3kOsjBOEHOWSwgKSGpUx3zw74WFVc6xtxXJo0dBpgg4Q5-RAwsBopW6fQv5QYTbtFOhr-PcxyQPSU-WuyBZPgEWgiQY-hlGfa7SP7PUOOlNA2uMD3ig95AcVMEDM-xegb63vqJ7sUNsSyijNHc5DIC7ucXZsN9N7sVhVZtixmJpChanfqNt8sn_GHrQEZ0gCzOaX0dUzgZeIEw1DhhUTfCeFF0sRK-2k1dKemdslkPDl5aQ3-Y7blskXkwC7lLT5Op6HCCRAJRxrdOyrl5Qt0RsiWyY-rXn7s7_WdNpQ9gUecEQCTsBy3iJ4M4lfHJI3VdOU72t78ToO_NRYYVUXCVRpuBmDUXC9CyfJoXFlpcpe3om3Cy6r_4WphS__tBc1hbhxXjGDEb-STMmjZkSehZjaVsssixNN9A5DuMQyGdXrwAwgty3Vwz0wUhPxDVHNIwdeD0LUqS4jMia5v-3O8XKXOR8Mq7mh9S-SeuJA80dwXJPseIDSGakFizcWxKqD5Y4ywxYaRZOGhQjAiU5SuLmT5CVSGQDr7Q6hhgRXPVaWePADTFZzfHFq7W1vd_bCeh6bsDWKoJGGBraEjHEDGCDKK2cm-iIAj00RMDQj1Ob0lNNBYR0sYev-Fjsw078JpMOXa_dp8zyjO69SHqEuiXlx9yOasMoHWFc_6dHDiVe_X6EnrlaFL9FoytThr-kKnj3SFy0xVCZwZN6JalnU4Ji7wDhHaCznyLUJFy3]--></g></svg>