<?xml version="1.0" encoding="us-ascii" standalone="no"?><svg xmlns="http://www.w3.org/2000/svg" xmlns:xlink="http://www.w3.org/1999/xlink" contentStyleType="text/css" height="866px" preserveAspectRatio="none" style="width:3803px;height:866px;background:#FFFFFF;" version="1.1" viewBox="0 0 3803 866" width="3803px" zoomAndPan="magnify"><defs/><g><text fill="#000000" font-family="sans-serif" font-size="14" font-weight="bold" lengthAdjust="spacing" textLength="361" x="1692" y="22.9951">nablarch.common.web.interceptor.InjectForm</text><!--class C_nablarch_common_web_interceptor_InjectForm--><a href="/viewer/?module=nablarch-fw-web&amp;class=nablarch.common.web.interceptor.InjectForm" target="_top" title="/viewer/?module=nablarch-fw-web&amp;class=nablarch.common.web.interceptor.InjectForm" xlink:actuate="onRequest" xlink:href="/viewer/?module=nablarch-fw-web&amp;class=nablarch.common.web.interceptor.InjectForm" xlink:show="new" xlink:title="/viewer/?module=nablarch-fw-web&amp;class=nablarch.common.web.interceptor.InjectForm" xlink:type="simple"><g id="elem_C_nablarch_common_web_interceptor_InjectForm"><rect codeLine="10" fill="#FFFFE0" height="137.7813" id="C_nablarch_common_web_interceptor_InjectForm" rx="2.5" ry="2.5" style="stroke:#181818;stroke-width:0.5;" width="345" x="2044" y="111.2969"/><ellipse cx="2059" cy="127.2969" fill="#E3664A" rx="11" ry="11" style="stroke:#181818;stroke-width:1.0;"/><path d="M2061.0781,127.7656 Q2061.0781,126.8281 2060.6563,126.2969 Q2060.2344,125.7656 2059.4844,125.7656 Q2058.75,125.7656 2058.3281,126.2969 Q2057.9219,126.8281 2057.9219,127.7656 Q2057.9219,128.7188 2058.3281,129.25 Q2058.75,129.7813 2059.4844,129.7813 Q2060.2344,129.7813 2060.6563,129.25 Q2061.0781,128.7188 2061.0781,127.7656 Z M2062.625,131.1719 L2061,131.1719 L2061,130.5 Q2060.6719,130.9375 2060.25,131.1406 Q2059.8281,131.3438 2059.2188,131.3438 Q2057.8594,131.3438 2057.0313,130.375 Q2056.2031,129.3906 2056.2031,127.7656 Q2056.2031,126.1719 2057.0313,125.2031 Q2057.8594,124.2188 2059.2188,124.2188 Q2059.8125,124.2188 2060.2656,124.4219 Q2060.7188,124.625 2061,125.0156 L2061,124.6719 Q2061,123.5469 2060.375,122.9375 Q2059.75,122.3125 2058.6094,122.3125 Q2056.8906,122.3125 2055.7969,123.8438 Q2054.7031,125.3594 2054.7031,127.7969 Q2054.7031,130.3438 2055.9531,131.8438 Q2057.2188,133.3438 2059.3281,133.3438 Q2059.9844,133.3438 2060.6094,133.1563 Q2061.2344,132.9688 2061.8125,132.5781 L2062.5781,134.0313 Q2061.9063,134.4844 2061.1094,134.7031 Q2060.3125,134.9375 2059.4063,134.9375 Q2056.5,134.9375 2054.7656,133 Q2053.0469,131.0781 2053.0469,127.7969 Q2053.0469,124.5781 2054.5938,122.6563 Q2056.1563,120.7188 2058.7188,120.7188 Q2060.5156,120.7188 2061.5625,121.8125 Q2062.625,122.9063 2062.625,124.7813 L2062.625,131.1719 Z " fill="#000000"/><text fill="#000000" font-family="sans-serif" font-size="14" lengthAdjust="spacing" textLength="313" x="2073" y="132.1436">nablarch.common.web.interceptor.InjectForm</text><line style="stroke:#181818;stroke-width:0.5;" x1="2045" x2="2388" y1="143.2969" y2="143.2969"/><text fill="#000000" font-family="sans-serif" font-size="14" font-style="italic" lengthAdjust="spacing" textLength="101" x="2050" y="160.292">+form() : Class</text><text fill="#000000" font-family="sans-serif" font-size="14" font-style="italic" lengthAdjust="spacing" textLength="113" x="2050" y="176.5889">+prefix() : String</text><text fill="#000000" font-family="sans-serif" font-size="14" font-style="italic" lengthAdjust="spacing" textLength="114" x="2050" y="192.8857">+name() : String</text><text fill="#000000" font-family="sans-serif" font-size="14" font-style="italic" lengthAdjust="spacing" textLength="128" x="2050" y="209.1826">+initialize() : String</text><text fill="#000000" font-family="sans-serif" font-size="14" font-style="italic" lengthAdjust="spacing" textLength="128" x="2050" y="225.4795">+validate() : String</text><text fill="#000000" font-family="sans-serif" font-size="14" font-style="italic" lengthAdjust="spacing" textLength="188" x="2050" y="241.7764">+validationGroup() : Class[]</text></g></a><g id="elem_GMN3"><path d="M2128,49.2969 L2128,74.4297 A0,0 0 0 0 2128,74.4297 L2212.5,74.4297 L2216.5,111.2386 L2220.5,74.4297 L2305,74.4297 A0,0 0 0 0 2305,74.4297 L2305,59.2969 L2295,49.2969 L2128,49.2969 A0,0 0 0 0 2128,49.2969 " fill="#FEFFDD" style="stroke:#181818;stroke-width:0.5;"/><path d="M2295,49.2969 L2295,59.2969 L2305,59.2969 L2295,49.2969 " fill="#FEFFDD" style="stroke:#181818;stroke-width:0.5;"/><text fill="#000000" font-family="sans-serif" font-size="13" lengthAdjust="spacing" textLength="156" x="2134" y="66.3638">artifact: nablarch-fw-web</text></g><!--class C_nablarch_common_web_interceptor_InjectForm_Impl--><a href="/viewer/?module=nablarch-fw-web&amp;class=nablarch.common.web.interceptor.InjectForm%24Impl" target="_top" title="/viewer/?module=nablarch-fw-web&amp;class=nablarch.common.web.interceptor.InjectForm%24Impl" xlink:actuate="onRequest" xlink:href="/viewer/?module=nablarch-fw-web&amp;class=nablarch.common.web.interceptor.InjectForm%24Impl" xlink:show="new" xlink:title="/viewer/?module=nablarch-fw-web&amp;class=nablarch.common.web.interceptor.InjectForm%24Impl" xlink:type="simple"><g id="elem_C_nablarch_common_web_interceptor_InjectForm_Impl"><rect codeLine="19" fill="#F1F1F1" height="32" id="C_nablarch_common_web_interceptor_InjectForm_Impl" rx="2.5" ry="2.5" style="stroke:#181818;stroke-width:0.5;" width="382" x="2892.5" y="302.2969"/><ellipse cx="2907.5" cy="318.2969" fill="#ADD1B2" rx="11" ry="11" style="stroke:#181818;stroke-width:1.0;"/><path d="M2910.4688,323.9375 Q2909.8906,324.2344 2909.25,324.375 Q2908.6094,324.5313 2907.9063,324.5313 Q2905.4063,324.5313 2904.0781,322.8906 Q2902.7656,321.2344 2902.7656,318.1094 Q2902.7656,314.9844 2904.0781,313.3281 Q2905.4063,311.6719 2907.9063,311.6719 Q2908.6094,311.6719 2909.25,311.8281 Q2909.9063,311.9844 2910.4688,312.2813 L2910.4688,315 Q2909.8438,314.4219 2909.25,314.1563 Q2908.6563,313.875 2908.0313,313.875 Q2906.6875,313.875 2906,314.9531 Q2905.3125,316.0156 2905.3125,318.1094 Q2905.3125,320.2031 2906,321.2813 Q2906.6875,322.3438 2908.0313,322.3438 Q2908.6563,322.3438 2909.25,322.0781 Q2909.8438,321.7969 2910.4688,321.2188 L2910.4688,323.9375 Z " fill="#000000"/><text fill="#000000" font-family="sans-serif" font-size="14" lengthAdjust="spacing" textLength="350" x="2921.5" y="323.1436">nablarch.common.web.interceptor.InjectForm$Impl</text></g></a><!--class C_nablarch_common_web_validator_BeanValidationStrategy--><a href="/viewer/?module=nablarch-fw-web&amp;class=nablarch.common.web.validator.BeanValidationStrategy" target="_top" title="/viewer/?module=nablarch-fw-web&amp;class=nablarch.common.web.validator.BeanValidationStrategy" xlink:actuate="onRequest" xlink:href="/viewer/?module=nablarch-fw-web&amp;class=nablarch.common.web.validator.BeanValidationStrategy" xlink:show="new" xlink:title="/viewer/?module=nablarch-fw-web&amp;class=nablarch.common.web.validator.BeanValidationStrategy" xlink:type="simple"><g id="elem_C_nablarch_common_web_validator_BeanValidationStrategy"><rect codeLine="21" fill="#F1F1F1" height="32" id="C_nablarch_common_web_validator_BeanValidationStrategy" rx="2.5" ry="2.5" style="stroke:#181818;stroke-width:0.5;" width="413" x="1994" y="472.2969"/><ellipse cx="2009" cy="488.2969" fill="#ADD1B2" rx="11" ry="11" style="stroke:#181818;stroke-width:1.0;"/><path d="M2011.9688,493.9375 Q2011.3906,494.2344 2010.75,494.375 Q2010.1094,494.5313 2009.4063,494.5313 Q2006.9063,494.5313 2005.5781,492.8906 Q2004.2656,491.2344 2004.2656,488.1094 Q2004.2656,484.9844 2005.5781,483.3281 Q2006.9063,481.6719 2009.4063,481.6719 Q2010.1094,481.6719 2010.75,481.8281 Q2011.4063,481.9844 2011.9688,482.2813 L2011.9688,485 Q2011.3438,484.4219 2010.75,484.1563 Q2010.1563,483.875 2009.5313,483.875 Q2008.1875,483.875 2007.5,484.9531 Q2006.8125,486.0156 2006.8125,488.1094 Q2006.8125,490.2031 2007.5,491.2813 Q2008.1875,492.3438 2009.5313,492.3438 Q2010.1563,492.3438 2010.75,492.0781 Q2011.3438,491.7969 2011.9688,491.2188 L2011.9688,493.9375 Z " fill="#000000"/><text fill="#000000" font-family="sans-serif" font-size="14" lengthAdjust="spacing" textLength="381" x="2023" y="493.1436">nablarch.common.web.validator.BeanValidationStrategy</text></g></a><!--class C_nablarch_common_web_validator_NablarchValidationStrategy--><a href="/viewer/?module=nablarch-fw-web&amp;class=nablarch.common.web.validator.NablarchValidationStrategy" target="_top" title="/viewer/?module=nablarch-fw-web&amp;class=nablarch.common.web.validator.NablarchValidationStrategy" xlink:actuate="onRequest" xlink:href="/viewer/?module=nablarch-fw-web&amp;class=nablarch.common.web.validator.NablarchValidationStrategy" xlink:show="new" xlink:title="/viewer/?module=nablarch-fw-web&amp;class=nablarch.common.web.validator.NablarchValidationStrategy" xlink:type="simple"><g id="elem_C_nablarch_common_web_validator_NablarchValidationStrategy"><rect codeLine="23" fill="#F1F1F1" height="32" id="C_nablarch_common_web_validator_NablarchValidationStrategy" rx="2.5" ry="2.5" style="stroke:#181818;stroke-width:0.5;" width="437" x="1539" y="472.2969"/><ellipse cx="1554" cy="488.2969" fill="#ADD1B2" rx="11" ry="11" style="stroke:#181818;stroke-width:1.0;"/><path d="M1556.9688,493.9375 Q1556.3906,494.2344 1555.75,494.375 Q1555.1094,494.5313 1554.4063,494.5313 Q1551.9063,494.5313 1550.5781,492.8906 Q1549.2656,491.2344 1549.2656,488.1094 Q1549.2656,484.9844 1550.5781,483.3281 Q1551.9063,481.6719 1554.4063,481.6719 Q1555.1094,481.6719 1555.75,481.8281 Q1556.4063,481.9844 1556.9688,482.2813 L1556.9688,485 Q1556.3438,484.4219 1555.75,484.1563 Q1555.1563,483.875 1554.5313,483.875 Q1553.1875,483.875 1552.5,484.9531 Q1551.8125,486.0156 1551.8125,488.1094 Q1551.8125,490.2031 1552.5,491.2813 Q1553.1875,492.3438 1554.5313,492.3438 Q1555.1563,492.3438 1555.75,492.0781 Q1556.3438,491.7969 1556.9688,491.2188 L1556.9688,493.9375 Z " fill="#000000"/><text fill="#000000" font-family="sans-serif" font-size="14" lengthAdjust="spacing" textLength="405" x="1568" y="493.1436">nablarch.common.web.validator.NablarchValidationStrategy</text></g></a><!--class C_nablarch_common_web_validator_ValidationStrategy--><a href="/viewer/?module=nablarch-fw-web&amp;class=nablarch.common.web.validator.ValidationStrategy" target="_top" title="/viewer/?module=nablarch-fw-web&amp;class=nablarch.common.web.validator.ValidationStrategy" xlink:actuate="onRequest" xlink:href="/viewer/?module=nablarch-fw-web&amp;class=nablarch.common.web.validator.ValidationStrategy" xlink:show="new" xlink:title="/viewer/?module=nablarch-fw-web&amp;class=nablarch.common.web.validator.ValidationStrategy" xlink:type="simple"><g id="elem_C_nablarch_common_web_validator_ValidationStrategy"><rect codeLine="25" fill="#F1F1F1" height="32" id="C_nablarch_common_web_validator_ValidationStrategy" rx="2.5" ry="2.5" style="stroke:#181818;stroke-width:0.5;" width="380" x="2347.5" y="387.2969"/><ellipse cx="2362.5" cy="403.2969" fill="#B4A7E5" rx="11" ry="11" style="stroke:#181818;stroke-width:1.0;"/><path d="M2358.4219,399.0625 L2358.4219,396.9063 L2365.8125,396.9063 L2365.8125,399.0625 L2363.3438,399.0625 L2363.3438,407.1406 L2365.8125,407.1406 L2365.8125,409.2969 L2358.4219,409.2969 L2358.4219,407.1406 L2360.8906,407.1406 L2360.8906,399.0625 L2358.4219,399.0625 Z " fill="#000000"/><text fill="#000000" font-family="sans-serif" font-size="14" font-style="italic" lengthAdjust="spacing" textLength="348" x="2376.5" y="408.1436">nablarch.common.web.validator.ValidationStrategy</text></g></a><!--class C_nablarch_fw_Interceptor_Impl--><a href="/viewer/?module=nablarch-core&amp;class=nablarch.fw.Interceptor%24Impl" target="_top" title="/viewer/?module=nablarch-core&amp;class=nablarch.fw.Interceptor%24Impl" xlink:actuate="onRequest" xlink:href="/viewer/?module=nablarch-core&amp;class=nablarch.fw.Interceptor%24Impl" xlink:show="new" xlink:title="/viewer/?module=nablarch-core&amp;class=nablarch.fw.Interceptor%24Impl" xlink:type="simple"><g id="elem_C_nablarch_fw_Interceptor_Impl"><rect codeLine="27" fill="#F1F1F1" height="32" id="C_nablarch_fw_Interceptor_Impl" rx="2.5" ry="2.5" style="stroke:#181818;stroke-width:0.5;" width="229" x="3517" y="387.2969"/><ellipse cx="3532" cy="403.2969" fill="#A9DCDF" rx="11" ry="11" style="stroke:#181818;stroke-width:1.0;"/><path d="M3532.1094,398.6406 L3530.9531,403.7188 L3533.2813,403.7188 L3532.1094,398.6406 Z M3530.625,396.4063 L3533.6094,396.4063 L3536.9688,408.7969 L3534.5156,408.7969 L3533.75,405.7344 L3530.4688,405.7344 L3529.7188,408.7969 L3527.2813,408.7969 L3530.625,396.4063 Z " fill="#000000"/><text fill="#000000" font-family="sans-serif" font-size="14" font-style="italic" lengthAdjust="spacing" textLength="197" x="3546" y="408.1436">nablarch.fw.Interceptor$Impl</text></g></a><!--class C_nablarch_common_web_validator_BeanValidationFormFactory--><a href="/viewer/?module=nablarch-fw-web&amp;class=nablarch.common.web.validator.BeanValidationFormFactory" target="_top" title="/viewer/?module=nablarch-fw-web&amp;class=nablarch.common.web.validator.BeanValidationFormFactory" xlink:actuate="onRequest" xlink:href="/viewer/?module=nablarch-fw-web&amp;class=nablarch.common.web.validator.BeanValidationFormFactory" xlink:show="new" xlink:title="/viewer/?module=nablarch-fw-web&amp;class=nablarch.common.web.validator.BeanValidationFormFactory" xlink:type="simple"><g id="elem_C_nablarch_common_web_validator_BeanValidationFormFactory"><rect codeLine="29" fill="#F1F1F1" height="32" id="C_nablarch_common_web_validator_BeanValidationFormFactory" rx="2.5" ry="2.5" style="stroke:#181818;stroke-width:0.5;" width="444" x="2855.5" y="557.2969"/><ellipse cx="2870.5" cy="573.2969" fill="#B4A7E5" rx="11" ry="11" style="stroke:#181818;stroke-width:1.0;"/><path d="M2866.4219,569.0625 L2866.4219,566.9063 L2873.8125,566.9063 L2873.8125,569.0625 L2871.3438,569.0625 L2871.3438,577.1406 L2873.8125,577.1406 L2873.8125,579.2969 L2866.4219,579.2969 L2866.4219,577.1406 L2868.8906,577.1406 L2868.8906,569.0625 L2866.4219,569.0625 Z " fill="#000000"/><text fill="#000000" font-family="sans-serif" font-size="14" font-style="italic" lengthAdjust="spacing" textLength="412" x="2884.5" y="578.1436">nablarch.common.web.validator.BeanValidationFormFactory</text></g></a><!--class C_nablarch_common_web_validator_SimpleReflectionBeanValidationFormFactory--><a href="/viewer/?module=nablarch-fw-web&amp;class=nablarch.common.web.validator.SimpleReflectionBeanValidationFormFactory" target="_top" title="/viewer/?module=nablarch-fw-web&amp;class=nablarch.common.web.validator.SimpleReflectionBeanValidationFormFactory" xlink:actuate="onRequest" xlink:href="/viewer/?module=nablarch-fw-web&amp;class=nablarch.common.web.validator.SimpleReflectionBeanValidationFormFactory" xlink:show="new" xlink:title="/viewer/?module=nablarch-fw-web&amp;class=nablarch.common.web.validator.SimpleReflectionBeanValidationFormFactory" xlink:type="simple"><g id="elem_C_nablarch_common_web_validator_SimpleReflectionBeanValidationFormFactory"><rect codeLine="31" fill="#F1F1F1" height="32" id="C_nablarch_common_web_validator_SimpleReflectionBeanValidationFormFactory" rx="2.5" ry="2.5" style="stroke:#181818;stroke-width:0.5;" width="556" x="2862.5" y="657.2969"/><ellipse cx="2877.5" cy="673.2969" fill="#ADD1B2" rx="11" ry="11" style="stroke:#181818;stroke-width:1.0;"/><path d="M2880.4688,678.9375 Q2879.8906,679.2344 2879.25,679.375 Q2878.6094,679.5313 2877.9063,679.5313 Q2875.4063,679.5313 2874.0781,677.8906 Q2872.7656,676.2344 2872.7656,673.1094 Q2872.7656,669.9844 2874.0781,668.3281 Q2875.4063,666.6719 2877.9063,666.6719 Q2878.6094,666.6719 2879.25,666.8281 Q2879.9063,666.9844 2880.4688,667.2813 L2880.4688,670 Q2879.8438,669.4219 2879.25,669.1563 Q2878.6563,668.875 2878.0313,668.875 Q2876.6875,668.875 2876,669.9531 Q2875.3125,671.0156 2875.3125,673.1094 Q2875.3125,675.2031 2876,676.2813 Q2876.6875,677.3438 2878.0313,677.3438 Q2878.6563,677.3438 2879.25,677.0781 Q2879.8438,676.7969 2880.4688,676.2188 L2880.4688,678.9375 Z " fill="#000000"/><text fill="#000000" font-family="sans-serif" font-size="14" lengthAdjust="spacing" textLength="524" x="2891.5" y="678.1436">nablarch.common.web.validator.SimpleReflectionBeanValidationFormFactory</text></g></a><!--class C_nablarch_core_beans_BeanUtil--><a href="/viewer/?module=nablarch-core-beans&amp;class=nablarch.core.beans.BeanUtil" target="_top" title="/viewer/?module=nablarch-core-beans&amp;class=nablarch.core.beans.BeanUtil" xlink:actuate="onRequest" xlink:href="/viewer/?module=nablarch-core-beans&amp;class=nablarch.core.beans.BeanUtil" xlink:show="new" xlink:title="/viewer/?module=nablarch-core-beans&amp;class=nablarch.core.beans.BeanUtil" xlink:type="simple"><g id="elem_C_nablarch_core_beans_BeanUtil"><rect codeLine="33" fill="#F1F1F1" height="32" id="C_nablarch_core_beans_BeanUtil" rx="2.5" ry="2.5" style="stroke:#181818;stroke-width:0.5;" width="234" x="2510.5" y="557.2969"/><ellipse cx="2525.5" cy="573.2969" fill="#ADD1B2" rx="11" ry="11" style="stroke:#181818;stroke-width:1.0;"/><path d="M2528.4688,578.9375 Q2527.8906,579.2344 2527.25,579.375 Q2526.6094,579.5313 2525.9063,579.5313 Q2523.4063,579.5313 2522.0781,577.8906 Q2520.7656,576.2344 2520.7656,573.1094 Q2520.7656,569.9844 2522.0781,568.3281 Q2523.4063,566.6719 2525.9063,566.6719 Q2526.6094,566.6719 2527.25,566.8281 Q2527.9063,566.9844 2528.4688,567.2813 L2528.4688,570 Q2527.8438,569.4219 2527.25,569.1563 Q2526.6563,568.875 2526.0313,568.875 Q2524.6875,568.875 2524,569.9531 Q2523.3125,571.0156 2523.3125,573.1094 Q2523.3125,575.2031 2524,576.2813 Q2524.6875,577.3438 2526.0313,577.3438 Q2526.6563,577.3438 2527.25,577.0781 Q2527.8438,576.7969 2528.4688,576.2188 L2528.4688,578.9375 Z " fill="#000000"/><text fill="#000000" font-family="sans-serif" font-size="14" lengthAdjust="spacing" textLength="202" x="2539.5" y="578.1436">nablarch.core.beans.BeanUtil</text></g></a><!--class C_nablarch_core_beans_CopyOptions--><a href="/viewer/?module=nablarch-core-beans&amp;class=nablarch.core.beans.CopyOptions" target="_top" title="/viewer/?module=nablarch-core-beans&amp;class=nablarch.core.beans.CopyOptions" xlink:actuate="onRequest" xlink:href="/viewer/?module=nablarch-core-beans&amp;class=nablarch.core.beans.CopyOptions" xlink:show="new" xlink:title="/viewer/?module=nablarch-core-beans&amp;class=nablarch.core.beans.CopyOptions" xlink:type="simple"><g id="elem_C_nablarch_core_beans_CopyOptions"><rect codeLine="35" fill="#F1F1F1" height="32" id="C_nablarch_core_beans_CopyOptions" rx="2.5" ry="2.5" style="stroke:#181818;stroke-width:0.5;" width="266" x="2540.5" y="657.2969"/><ellipse cx="2555.5" cy="673.2969" fill="#ADD1B2" rx="11" ry="11" style="stroke:#181818;stroke-width:1.0;"/><path d="M2558.4688,678.9375 Q2557.8906,679.2344 2557.25,679.375 Q2556.6094,679.5313 2555.9063,679.5313 Q2553.4063,679.5313 2552.0781,677.8906 Q2550.7656,676.2344 2550.7656,673.1094 Q2550.7656,669.9844 2552.0781,668.3281 Q2553.4063,666.6719 2555.9063,666.6719 Q2556.6094,666.6719 2557.25,666.8281 Q2557.9063,666.9844 2558.4688,667.2813 L2558.4688,670 Q2557.8438,669.4219 2557.25,669.1563 Q2556.6563,668.875 2556.0313,668.875 Q2554.6875,668.875 2554,669.9531 Q2553.3125,671.0156 2553.3125,673.1094 Q2553.3125,675.2031 2554,676.2813 Q2554.6875,677.3438 2556.0313,677.3438 Q2556.6563,677.3438 2557.25,677.0781 Q2557.8438,676.7969 2558.4688,676.2188 L2558.4688,678.9375 Z " fill="#000000"/><text fill="#000000" font-family="sans-serif" font-size="14" lengthAdjust="spacing" textLength="234" x="2569.5" y="678.1436">nablarch.core.beans.CopyOptions</text></g></a><!--class C_nablarch_core_message_ApplicationException--><a href="/viewer/?module=nablarch-core&amp;class=nablarch.core.message.ApplicationException" target="_top" title="/viewer/?module=nablarch-core&amp;class=nablarch.core.message.ApplicationException" xlink:actuate="onRequest" xlink:href="/viewer/?module=nablarch-core&amp;class=nablarch.core.message.ApplicationException" xlink:show="new" xlink:title="/viewer/?module=nablarch-core&amp;class=nablarch.core.message.ApplicationException" xlink:type="simple"><g id="elem_C_nablarch_core_message_ApplicationException"><rect codeLine="37" fill="#F1F1F1" height="32" id="C_nablarch_core_message_ApplicationException" rx="2.5" ry="2.5" style="stroke:#181818;stroke-width:0.5;" width="341" x="694" y="657.2969"/><ellipse cx="709" cy="673.2969" fill="#ADD1B2" rx="11" ry="11" style="stroke:#181818;stroke-width:1.0;"/><path d="M711.9688,678.9375 Q711.3906,679.2344 710.75,679.375 Q710.1094,679.5313 709.4063,679.5313 Q706.9063,679.5313 705.5781,677.8906 Q704.2656,676.2344 704.2656,673.1094 Q704.2656,669.9844 705.5781,668.3281 Q706.9063,666.6719 709.4063,666.6719 Q710.1094,666.6719 710.75,666.8281 Q711.4063,666.9844 711.9688,667.2813 L711.9688,670 Q711.3438,669.4219 710.75,669.1563 Q710.1563,668.875 709.5313,668.875 Q708.1875,668.875 707.5,669.9531 Q706.8125,671.0156 706.8125,673.1094 Q706.8125,675.2031 707.5,676.2813 Q708.1875,677.3438 709.5313,677.3438 Q710.1563,677.3438 710.75,677.0781 Q711.3438,676.7969 711.9688,676.2188 L711.9688,678.9375 Z " fill="#000000"/><text fill="#000000" font-family="sans-serif" font-size="14" lengthAdjust="spacing" textLength="309" x="723" y="678.1436">nablarch.core.message.ApplicationException</text></g></a><!--class C_nablarch_core_repository_SystemRepository--><a href="/viewer/?module=nablarch-core&amp;class=nablarch.core.repository.SystemRepository" target="_top" title="/viewer/?module=nablarch-core&amp;class=nablarch.core.repository.SystemRepository" xlink:actuate="onRequest" xlink:href="/viewer/?module=nablarch-core&amp;class=nablarch.core.repository.SystemRepository" xlink:show="new" xlink:title="/viewer/?module=nablarch-core&amp;class=nablarch.core.repository.SystemRepository" xlink:type="simple"><g id="elem_C_nablarch_core_repository_SystemRepository"><rect codeLine="39" fill="#F1F1F1" height="32" id="C_nablarch_core_repository_SystemRepository" rx="2.5" ry="2.5" style="stroke:#181818;stroke-width:0.5;" width="328" x="1216.5" y="742.2969"/><ellipse cx="1231.5" cy="758.2969" fill="#ADD1B2" rx="11" ry="11" style="stroke:#181818;stroke-width:1.0;"/><path d="M1234.4688,763.9375 Q1233.8906,764.2344 1233.25,764.375 Q1232.6094,764.5313 1231.9063,764.5313 Q1229.4063,764.5313 1228.0781,762.8906 Q1226.7656,761.2344 1226.7656,758.1094 Q1226.7656,754.9844 1228.0781,753.3281 Q1229.4063,751.6719 1231.9063,751.6719 Q1232.6094,751.6719 1233.25,751.8281 Q1233.9063,751.9844 1234.4688,752.2813 L1234.4688,755 Q1233.8438,754.4219 1233.25,754.1563 Q1232.6563,753.875 1232.0313,753.875 Q1230.6875,753.875 1230,754.9531 Q1229.3125,756.0156 1229.3125,758.1094 Q1229.3125,760.2031 1230,761.2813 Q1230.6875,762.3438 1232.0313,762.3438 Q1232.6563,762.3438 1233.25,762.0781 Q1233.8438,761.7969 1234.4688,761.2188 L1234.4688,763.9375 Z " fill="#000000"/><text fill="#000000" font-family="sans-serif" font-size="14" lengthAdjust="spacing" textLength="296" x="1245.5" y="763.1436">nablarch.core.repository.SystemRepository</text></g></a><!--class C_nablarch_core_util_StringUtil--><a href="/viewer/?module=nablarch-core&amp;class=nablarch.core.util.StringUtil" target="_top" title="/viewer/?module=nablarch-core&amp;class=nablarch.core.util.StringUtil" xlink:actuate="onRequest" xlink:href="/viewer/?module=nablarch-core&amp;class=nablarch.core.util.StringUtil" xlink:show="new" xlink:title="/viewer/?module=nablarch-core&amp;class=nablarch.core.util.StringUtil" xlink:type="simple"><g id="elem_C_nablarch_core_util_StringUtil"><rect codeLine="41" fill="#F1F1F1" height="32" id="C_nablarch_core_util_StringUtil" rx="2.5" ry="2.5" style="stroke:#181818;stroke-width:0.5;" width="215" x="1402" y="827.2969"/><ellipse cx="1417" cy="843.2969" fill="#ADD1B2" rx="11" ry="11" style="stroke:#181818;stroke-width:1.0;"/><path d="M1419.9688,848.9375 Q1419.3906,849.2344 1418.75,849.375 Q1418.1094,849.5313 1417.4063,849.5313 Q1414.9063,849.5313 1413.5781,847.8906 Q1412.2656,846.2344 1412.2656,843.1094 Q1412.2656,839.9844 1413.5781,838.3281 Q1414.9063,836.6719 1417.4063,836.6719 Q1418.1094,836.6719 1418.75,836.8281 Q1419.4063,836.9844 1419.9688,837.2813 L1419.9688,840 Q1419.3438,839.4219 1418.75,839.1563 Q1418.1563,838.875 1417.5313,838.875 Q1416.1875,838.875 1415.5,839.9531 Q1414.8125,841.0156 1414.8125,843.1094 Q1414.8125,845.2031 1415.5,846.2813 Q1416.1875,847.3438 1417.5313,847.3438 Q1418.1563,847.3438 1418.75,847.0781 Q1419.3438,846.7969 1419.9688,846.2188 L1419.9688,848.9375 Z " fill="#000000"/><text fill="#000000" font-family="sans-serif" font-size="14" lengthAdjust="spacing" textLength="183" x="1431" y="848.1436">nablarch.core.util.StringUtil</text></g></a><!--class C_nablarch_core_validation_ee_ConstraintViolationConverter--><a href="/viewer/?module=nablarch-core-validation-ee&amp;class=nablarch.core.validation.ee.ConstraintViolationConverter" target="_top" title="/viewer/?module=nablarch-core-validation-ee&amp;class=nablarch.core.validation.ee.ConstraintViolationConverter" xlink:actuate="onRequest" xlink:href="/viewer/?module=nablarch-core-validation-ee&amp;class=nablarch.core.validation.ee.ConstraintViolationConverter" xlink:show="new" xlink:title="/viewer/?module=nablarch-core-validation-ee&amp;class=nablarch.core.validation.ee.ConstraintViolationConverter" xlink:type="simple"><g id="elem_C_nablarch_core_validation_ee_ConstraintViolationConverter"><rect codeLine="43" fill="#F1F1F1" height="32" id="C_nablarch_core_validation_ee_ConstraintViolationConverter" rx="2.5" ry="2.5" style="stroke:#181818;stroke-width:0.5;" width="417" x="601" y="742.2969"/><ellipse cx="616" cy="758.2969" fill="#ADD1B2" rx="11" ry="11" style="stroke:#181818;stroke-width:1.0;"/><path d="M618.9688,763.9375 Q618.3906,764.2344 617.75,764.375 Q617.1094,764.5313 616.4063,764.5313 Q613.9063,764.5313 612.5781,762.8906 Q611.2656,761.2344 611.2656,758.1094 Q611.2656,754.9844 612.5781,753.3281 Q613.9063,751.6719 616.4063,751.6719 Q617.1094,751.6719 617.75,751.8281 Q618.4063,751.9844 618.9688,752.2813 L618.9688,755 Q618.3438,754.4219 617.75,754.1563 Q617.1563,753.875 616.5313,753.875 Q615.1875,753.875 614.5,754.9531 Q613.8125,756.0156 613.8125,758.1094 Q613.8125,760.2031 614.5,761.2813 Q615.1875,762.3438 616.5313,762.3438 Q617.1563,762.3438 617.75,762.0781 Q618.3438,761.7969 618.9688,761.2188 L618.9688,763.9375 Z " fill="#000000"/><text fill="#000000" font-family="sans-serif" font-size="14" lengthAdjust="spacing" textLength="385" x="630" y="763.1436">nablarch.core.validation.ee.ConstraintViolationConverter</text></g></a><!--class C_nablarch_core_validation_ee_ConstraintViolationConverterFactory--><a href="/viewer/?module=nablarch-core-validation-ee&amp;class=nablarch.core.validation.ee.ConstraintViolationConverterFactory" target="_top" title="/viewer/?module=nablarch-core-validation-ee&amp;class=nablarch.core.validation.ee.ConstraintViolationConverterFactory" xlink:actuate="onRequest" xlink:href="/viewer/?module=nablarch-core-validation-ee&amp;class=nablarch.core.validation.ee.ConstraintViolationConverterFactory" xlink:show="new" xlink:title="/viewer/?module=nablarch-core-validation-ee&amp;class=nablarch.core.validation.ee.ConstraintViolationConverterFactory" xlink:type="simple"><g id="elem_C_nablarch_core_validation_ee_ConstraintViolationConverterFactory"><rect codeLine="45" fill="#F1F1F1" height="32" id="C_nablarch_core_validation_ee_ConstraintViolationConverterFactory" rx="2.5" ry="2.5" style="stroke:#181818;stroke-width:0.5;" width="467" x="1147" y="657.2969"/><ellipse cx="1162" cy="673.2969" fill="#ADD1B2" rx="11" ry="11" style="stroke:#181818;stroke-width:1.0;"/><path d="M1164.9688,678.9375 Q1164.3906,679.2344 1163.75,679.375 Q1163.1094,679.5313 1162.4063,679.5313 Q1159.9063,679.5313 1158.5781,677.8906 Q1157.2656,676.2344 1157.2656,673.1094 Q1157.2656,669.9844 1158.5781,668.3281 Q1159.9063,666.6719 1162.4063,666.6719 Q1163.1094,666.6719 1163.75,666.8281 Q1164.4063,666.9844 1164.9688,667.2813 L1164.9688,670 Q1164.3438,669.4219 1163.75,669.1563 Q1163.1563,668.875 1162.5313,668.875 Q1161.1875,668.875 1160.5,669.9531 Q1159.8125,671.0156 1159.8125,673.1094 Q1159.8125,675.2031 1160.5,676.2813 Q1161.1875,677.3438 1162.5313,677.3438 Q1163.1563,677.3438 1163.75,677.0781 Q1164.3438,676.7969 1164.9688,676.2188 L1164.9688,678.9375 Z " fill="#000000"/><text fill="#000000" font-family="sans-serif" font-size="14" lengthAdjust="spacing" textLength="435" x="1176" y="678.1436">nablarch.core.validation.ee.ConstraintViolationConverterFactory</text></g></a><!--class C_nablarch_core_validation_ee_ValidatorUtil--><a href="/viewer/?module=nablarch-core-validation-ee&amp;class=nablarch.core.validation.ee.ValidatorUtil" target="_top" title="/viewer/?module=nablarch-core-validation-ee&amp;class=nablarch.core.validation.ee.ValidatorUtil" xlink:actuate="onRequest" xlink:href="/viewer/?module=nablarch-core-validation-ee&amp;class=nablarch.core.validation.ee.ValidatorUtil" xlink:show="new" xlink:title="/viewer/?module=nablarch-core-validation-ee&amp;class=nablarch.core.validation.ee.ValidatorUtil" xlink:type="simple"><g id="elem_C_nablarch_core_validation_ee_ValidatorUtil"><rect codeLine="47" fill="#F1F1F1" height="32" id="C_nablarch_core_validation_ee_ValidatorUtil" rx="2.5" ry="2.5" style="stroke:#181818;stroke-width:0.5;" width="300" x="744.5" y="557.2969"/><ellipse cx="759.5" cy="573.2969" fill="#ADD1B2" rx="11" ry="11" style="stroke:#181818;stroke-width:1.0;"/><path d="M762.4688,578.9375 Q761.8906,579.2344 761.25,579.375 Q760.6094,579.5313 759.9063,579.5313 Q757.4063,579.5313 756.0781,577.8906 Q754.7656,576.2344 754.7656,573.1094 Q754.7656,569.9844 756.0781,568.3281 Q757.4063,566.6719 759.9063,566.6719 Q760.6094,566.6719 761.25,566.8281 Q761.9063,566.9844 762.4688,567.2813 L762.4688,570 Q761.8438,569.4219 761.25,569.1563 Q760.6563,568.875 760.0313,568.875 Q758.6875,568.875 758,569.9531 Q757.3125,571.0156 757.3125,573.1094 Q757.3125,575.2031 758,576.2813 Q758.6875,577.3438 760.0313,577.3438 Q760.6563,577.3438 761.25,577.0781 Q761.8438,576.7969 762.4688,576.2188 L762.4688,578.9375 Z " fill="#000000"/><text fill="#000000" font-family="sans-serif" font-size="14" lengthAdjust="spacing" textLength="268" x="773.5" y="578.1436">nablarch.core.validation.ee.ValidatorUtil</text></g></a><!--class C_nablarch_core_validation_ValidationContext--><a href="/viewer/?module=nablarch-core-validation&amp;class=nablarch.core.validation.ValidationContext" target="_top" title="/viewer/?module=nablarch-core-validation&amp;class=nablarch.core.validation.ValidationContext" xlink:actuate="onRequest" xlink:href="/viewer/?module=nablarch-core-validation&amp;class=nablarch.core.validation.ValidationContext" xlink:show="new" xlink:title="/viewer/?module=nablarch-core-validation&amp;class=nablarch.core.validation.ValidationContext" xlink:type="simple"><g id="elem_C_nablarch_core_validation_ValidationContext"><rect codeLine="49" fill="#F1F1F1" height="32" id="C_nablarch_core_validation_ValidationContext" rx="2.5" ry="2.5" style="stroke:#181818;stroke-width:0.5;" width="318" x="355.5" y="557.2969"/><ellipse cx="370.5" cy="573.2969" fill="#ADD1B2" rx="11" ry="11" style="stroke:#181818;stroke-width:1.0;"/><path d="M373.4688,578.9375 Q372.8906,579.2344 372.25,579.375 Q371.6094,579.5313 370.9063,579.5313 Q368.4063,579.5313 367.0781,577.8906 Q365.7656,576.2344 365.7656,573.1094 Q365.7656,569.9844 367.0781,568.3281 Q368.4063,566.6719 370.9063,566.6719 Q371.6094,566.6719 372.25,566.8281 Q372.9063,566.9844 373.4688,567.2813 L373.4688,570 Q372.8438,569.4219 372.25,569.1563 Q371.6563,568.875 371.0313,568.875 Q369.6875,568.875 369,569.9531 Q368.3125,571.0156 368.3125,573.1094 Q368.3125,575.2031 369,576.2813 Q369.6875,577.3438 371.0313,577.3438 Q371.6563,577.3438 372.25,577.0781 Q372.8438,576.7969 373.4688,576.2188 L373.4688,578.9375 Z " fill="#000000"/><text fill="#000000" font-family="sans-serif" font-size="14" lengthAdjust="spacing" textLength="286" x="384.5" y="578.1436">nablarch.core.validation.ValidationContext</text></g></a><!--class C_nablarch_core_validation_ValidationResultMessage--><a href="/viewer/?module=nablarch-core-validation&amp;class=nablarch.core.validation.ValidationResultMessage" target="_top" title="/viewer/?module=nablarch-core-validation&amp;class=nablarch.core.validation.ValidationResultMessage" xlink:actuate="onRequest" xlink:href="/viewer/?module=nablarch-core-validation&amp;class=nablarch.core.validation.ValidationResultMessage" xlink:show="new" xlink:title="/viewer/?module=nablarch-core-validation&amp;class=nablarch.core.validation.ValidationResultMessage" xlink:type="simple"><g id="elem_C_nablarch_core_validation_ValidationResultMessage"><rect codeLine="51" fill="#F1F1F1" height="32" id="C_nablarch_core_validation_ValidationResultMessage" rx="2.5" ry="2.5" style="stroke:#181818;stroke-width:0.5;" width="371" x="184" y="827.2969"/><ellipse cx="199" cy="843.2969" fill="#ADD1B2" rx="11" ry="11" style="stroke:#181818;stroke-width:1.0;"/><path d="M201.9688,848.9375 Q201.3906,849.2344 200.75,849.375 Q200.1094,849.5313 199.4063,849.5313 Q196.9063,849.5313 195.5781,847.8906 Q194.2656,846.2344 194.2656,843.1094 Q194.2656,839.9844 195.5781,838.3281 Q196.9063,836.6719 199.4063,836.6719 Q200.1094,836.6719 200.75,836.8281 Q201.4063,836.9844 201.9688,837.2813 L201.9688,840 Q201.3438,839.4219 200.75,839.1563 Q200.1563,838.875 199.5313,838.875 Q198.1875,838.875 197.5,839.9531 Q196.8125,841.0156 196.8125,843.1094 Q196.8125,845.2031 197.5,846.2813 Q198.1875,847.3438 199.5313,847.3438 Q200.1563,847.3438 200.75,847.0781 Q201.3438,846.7969 201.9688,846.2188 L201.9688,848.9375 Z " fill="#000000"/><text fill="#000000" font-family="sans-serif" font-size="14" lengthAdjust="spacing" textLength="339" x="213" y="848.1436">nablarch.core.validation.ValidationResultMessage</text></g></a><!--class C_nablarch_core_validation_ValidationUtil--><a href="/viewer/?module=nablarch-core-validation&amp;class=nablarch.core.validation.ValidationUtil" target="_top" title="/viewer/?module=nablarch-core-validation&amp;class=nablarch.core.validation.ValidationUtil" xlink:actuate="onRequest" xlink:href="/viewer/?module=nablarch-core-validation&amp;class=nablarch.core.validation.ValidationUtil" xlink:show="new" xlink:title="/viewer/?module=nablarch-core-validation&amp;class=nablarch.core.validation.ValidationUtil" xlink:type="simple"><g id="elem_C_nablarch_core_validation_ValidationUtil"><rect codeLine="53" fill="#F1F1F1" height="32" id="C_nablarch_core_validation_ValidationUtil" rx="2.5" ry="2.5" style="stroke:#181818;stroke-width:0.5;" width="285" x="6" y="657.2969"/><ellipse cx="21" cy="673.2969" fill="#ADD1B2" rx="11" ry="11" style="stroke:#181818;stroke-width:1.0;"/><path d="M23.9688,678.9375 Q23.3906,679.2344 22.75,679.375 Q22.1094,679.5313 21.4063,679.5313 Q18.9063,679.5313 17.5781,677.8906 Q16.2656,676.2344 16.2656,673.1094 Q16.2656,669.9844 17.5781,668.3281 Q18.9063,666.6719 21.4063,666.6719 Q22.1094,666.6719 22.75,666.8281 Q23.4063,666.9844 23.9688,667.2813 L23.9688,670 Q23.3438,669.4219 22.75,669.1563 Q22.1563,668.875 21.5313,668.875 Q20.1875,668.875 19.5,669.9531 Q18.8125,671.0156 18.8125,673.1094 Q18.8125,675.2031 19.5,676.2813 Q20.1875,677.3438 21.5313,677.3438 Q22.1563,677.3438 22.75,677.0781 Q23.3438,676.7969 23.9688,676.2188 L23.9688,678.9375 Z " fill="#000000"/><text fill="#000000" font-family="sans-serif" font-size="14" lengthAdjust="spacing" textLength="253" x="35" y="678.1436">nablarch.core.validation.ValidationUtil</text></g></a><!--class C_nablarch_fw_ExecutionContext--><a href="/viewer/?module=nablarch-core&amp;class=nablarch.fw.ExecutionContext" target="_top" title="/viewer/?module=nablarch-core&amp;class=nablarch.fw.ExecutionContext" xlink:actuate="onRequest" xlink:href="/viewer/?module=nablarch-core&amp;class=nablarch.fw.ExecutionContext" xlink:show="new" xlink:title="/viewer/?module=nablarch-core&amp;class=nablarch.fw.ExecutionContext" xlink:type="simple"><g id="elem_C_nablarch_fw_ExecutionContext"><rect codeLine="55" fill="#F1F1F1" height="32" id="C_nablarch_fw_ExecutionContext" rx="2.5" ry="2.5" style="stroke:#181818;stroke-width:0.5;" width="236" x="2286.5" y="657.2969"/><ellipse cx="2301.5" cy="673.2969" fill="#ADD1B2" rx="11" ry="11" style="stroke:#181818;stroke-width:1.0;"/><path d="M2304.4688,678.9375 Q2303.8906,679.2344 2303.25,679.375 Q2302.6094,679.5313 2301.9063,679.5313 Q2299.4063,679.5313 2298.0781,677.8906 Q2296.7656,676.2344 2296.7656,673.1094 Q2296.7656,669.9844 2298.0781,668.3281 Q2299.4063,666.6719 2301.9063,666.6719 Q2302.6094,666.6719 2303.25,666.8281 Q2303.9063,666.9844 2304.4688,667.2813 L2304.4688,670 Q2303.8438,669.4219 2303.25,669.1563 Q2302.6563,668.875 2302.0313,668.875 Q2300.6875,668.875 2300,669.9531 Q2299.3125,671.0156 2299.3125,673.1094 Q2299.3125,675.2031 2300,676.2813 Q2300.6875,677.3438 2302.0313,677.3438 Q2302.6563,677.3438 2303.25,677.0781 Q2303.8438,676.7969 2304.4688,676.2188 L2304.4688,678.9375 Z " fill="#000000"/><text fill="#000000" font-family="sans-serif" font-size="14" lengthAdjust="spacing" textLength="204" x="2315.5" y="678.1436">nablarch.fw.ExecutionContext</text></g></a><!--class C_nablarch_fw_Handler--><a href="/viewer/?module=nablarch-core&amp;class=nablarch.fw.Handler" target="_top" title="/viewer/?module=nablarch-core&amp;class=nablarch.fw.Handler" xlink:actuate="onRequest" xlink:href="/viewer/?module=nablarch-core&amp;class=nablarch.fw.Handler" xlink:show="new" xlink:title="/viewer/?module=nablarch-core&amp;class=nablarch.fw.Handler" xlink:type="simple"><g id="elem_C_nablarch_fw_Handler"><rect codeLine="57" fill="#F1F1F1" height="32" id="C_nablarch_fw_Handler" rx="2.5" ry="2.5" style="stroke:#181818;stroke-width:0.5;" width="168" x="3512.5" y="742.2969"/><ellipse cx="3527.5" cy="758.2969" fill="#B4A7E5" rx="11" ry="11" style="stroke:#181818;stroke-width:1.0;"/><path d="M3523.4219,754.0625 L3523.4219,751.9063 L3530.8125,751.9063 L3530.8125,754.0625 L3528.3438,754.0625 L3528.3438,762.1406 L3530.8125,762.1406 L3530.8125,764.2969 L3523.4219,764.2969 L3523.4219,762.1406 L3525.8906,762.1406 L3525.8906,754.0625 L3523.4219,754.0625 Z " fill="#000000"/><text fill="#000000" font-family="sans-serif" font-size="14" font-style="italic" lengthAdjust="spacing" textLength="136" x="3541.5" y="763.1436">nablarch.fw.Handler</text></g></a><!--class C_nablarch_fw_web_HttpRequest--><a href="/viewer/?module=nablarch-fw-web&amp;class=nablarch.fw.web.HttpRequest" target="_top" title="/viewer/?module=nablarch-fw-web&amp;class=nablarch.fw.web.HttpRequest" xlink:actuate="onRequest" xlink:href="/viewer/?module=nablarch-fw-web&amp;class=nablarch.fw.web.HttpRequest" xlink:show="new" xlink:title="/viewer/?module=nablarch-fw-web&amp;class=nablarch.fw.web.HttpRequest" xlink:type="simple"><g id="elem_C_nablarch_fw_web_HttpRequest"><rect codeLine="59" fill="#F1F1F1" height="32" id="C_nablarch_fw_web_HttpRequest" rx="2.5" ry="2.5" style="stroke:#181818;stroke-width:0.5;" width="235" x="1493" y="607.2969"/><ellipse cx="1508" cy="623.2969" fill="#A9DCDF" rx="11" ry="11" style="stroke:#181818;stroke-width:1.0;"/><path d="M1508.1094,618.6406 L1506.9531,623.7188 L1509.2813,623.7188 L1508.1094,618.6406 Z M1506.625,616.4063 L1509.6094,616.4063 L1512.9688,628.7969 L1510.5156,628.7969 L1509.75,625.7344 L1506.4688,625.7344 L1505.7188,628.7969 L1503.2813,628.7969 L1506.625,616.4063 Z " fill="#000000"/><text fill="#000000" font-family="sans-serif" font-size="14" font-style="italic" lengthAdjust="spacing" textLength="203" x="1522" y="628.1436">nablarch.fw.web.HttpRequest</text></g></a><!--class C_nablarch_fw_web_servlet_NablarchHttpServletRequestWrapper--><a href="/viewer/?module=nablarch-fw-web&amp;class=nablarch.fw.web.servlet.NablarchHttpServletRequestWrapper" target="_top" title="/viewer/?module=nablarch-fw-web&amp;class=nablarch.fw.web.servlet.NablarchHttpServletRequestWrapper" xlink:actuate="onRequest" xlink:href="/viewer/?module=nablarch-fw-web&amp;class=nablarch.fw.web.servlet.NablarchHttpServletRequestWrapper" xlink:show="new" xlink:title="/viewer/?module=nablarch-fw-web&amp;class=nablarch.fw.web.servlet.NablarchHttpServletRequestWrapper" xlink:type="simple"><g id="elem_C_nablarch_fw_web_servlet_NablarchHttpServletRequestWrapper"><rect codeLine="61" fill="#F1F1F1" height="32" id="C_nablarch_fw_web_servlet_NablarchHttpServletRequestWrapper" rx="2.5" ry="2.5" style="stroke:#181818;stroke-width:0.5;" width="450" x="1818.5" y="657.2969"/><ellipse cx="1833.5" cy="673.2969" fill="#ADD1B2" rx="11" ry="11" style="stroke:#181818;stroke-width:1.0;"/><path d="M1836.4688,678.9375 Q1835.8906,679.2344 1835.25,679.375 Q1834.6094,679.5313 1833.9063,679.5313 Q1831.4063,679.5313 1830.0781,677.8906 Q1828.7656,676.2344 1828.7656,673.1094 Q1828.7656,669.9844 1830.0781,668.3281 Q1831.4063,666.6719 1833.9063,666.6719 Q1834.6094,666.6719 1835.25,666.8281 Q1835.9063,666.9844 1836.4688,667.2813 L1836.4688,670 Q1835.8438,669.4219 1835.25,669.1563 Q1834.6563,668.875 1834.0313,668.875 Q1832.6875,668.875 1832,669.9531 Q1831.3125,671.0156 1831.3125,673.1094 Q1831.3125,675.2031 1832,676.2813 Q1832.6875,677.3438 1834.0313,677.3438 Q1834.6563,677.3438 1835.25,677.0781 Q1835.8438,676.7969 1836.4688,676.2188 L1836.4688,678.9375 Z " fill="#000000"/><text fill="#000000" font-family="sans-serif" font-size="14" lengthAdjust="spacing" textLength="418" x="1847.5" y="678.1436">nablarch.fw.web.servlet.NablarchHttpServletRequestWrapper</text></g></a><!--class C_nablarch_fw_web_servlet_ServletExecutionContext--><a href="/viewer/?module=nablarch-fw-web&amp;class=nablarch.fw.web.servlet.ServletExecutionContext" target="_top" title="/viewer/?module=nablarch-fw-web&amp;class=nablarch.fw.web.servlet.ServletExecutionContext" xlink:actuate="onRequest" xlink:href="/viewer/?module=nablarch-fw-web&amp;class=nablarch.fw.web.servlet.ServletExecutionContext" xlink:show="new" xlink:title="/viewer/?module=nablarch-fw-web&amp;class=nablarch.fw.web.servlet.ServletExecutionContext" xlink:type="simple"><g id="elem_C_nablarch_fw_web_servlet_ServletExecutionContext"><rect codeLine="63" fill="#F1F1F1" height="32" id="C_nablarch_fw_web_servlet_ServletExecutionContext" rx="2.5" ry="2.5" style="stroke:#181818;stroke-width:0.5;" width="366" x="2033.5" y="557.2969"/><ellipse cx="2048.5" cy="573.2969" fill="#ADD1B2" rx="11" ry="11" style="stroke:#181818;stroke-width:1.0;"/><path d="M2051.4688,578.9375 Q2050.8906,579.2344 2050.25,579.375 Q2049.6094,579.5313 2048.9063,579.5313 Q2046.4063,579.5313 2045.0781,577.8906 Q2043.7656,576.2344 2043.7656,573.1094 Q2043.7656,569.9844 2045.0781,568.3281 Q2046.4063,566.6719 2048.9063,566.6719 Q2049.6094,566.6719 2050.25,566.8281 Q2050.9063,566.9844 2051.4688,567.2813 L2051.4688,570 Q2050.8438,569.4219 2050.25,569.1563 Q2049.6563,568.875 2049.0313,568.875 Q2047.6875,568.875 2047,569.9531 Q2046.3125,571.0156 2046.3125,573.1094 Q2046.3125,575.2031 2047,576.2813 Q2047.6875,577.3438 2049.0313,577.3438 Q2049.6563,577.3438 2050.25,577.0781 Q2050.8438,576.7969 2051.4688,576.2188 L2051.4688,578.9375 Z " fill="#000000"/><text fill="#000000" font-family="sans-serif" font-size="14" lengthAdjust="spacing" textLength="334" x="2062.5" y="578.1436">nablarch.fw.web.servlet.ServletExecutionContext</text></g></a><polygon fill="none" points="2389.1501,240.3819,2393.7365,245.9465,2400.6371,243.8532,2396.0507,238.2885,2389.1501,240.3819" style="stroke:#181818;stroke-width:1.0;"/><path d="M2400.6371,243.8532 C2456.5929,260.763 2507.8691,273.932 2566.5,284.2969 C2673.3331,303.1831 2794.2736,311.598 2892.3076,315.2164 " fill="none" style="stroke:#181818;stroke-width:1.0;"/><text fill="#000000" font-family="sans-serif" font-size="13" lengthAdjust="spacing" textLength="54" x="2567.5" y="280.3638">contains</text><polygon fill="none" points="3624.223,387.1763,3620.7095,368.5308,3610.2249,374.3681,3624.223,387.1763" style="stroke:#181818;stroke-width:1.0;"/><path d="M3615.4672,371.4494 C3608.931,359.7095 3606.9023,359.9153 3592.5,352.2969 C3564.3448,337.4036 3407.0654,328.8274 3274.6935,324.1719 " fill="none" style="stroke:#181818;stroke-width:1.0;"/><polygon fill="#181818" points="3578.8016,387.213,3571.4835,380.6217,3574.0476,385.6641,3569.0052,388.2282,3578.8016,387.213" style="stroke:#181818;stroke-width:1.0;"/><path d="M3274.7547,326.0951 C3364.2761,330.9525 3460.3403,339.0515 3502.5,352.2969 C3516.7533,356.7749 3517.8857,363.1438 3531.5,369.2969 C3546.4936,376.0733 3557.5996,380.3051 3573.0968,385.3543 " fill="none" style="stroke:#181818;stroke-width:1.0;stroke-dasharray:7.0,7.0;"/><text fill="#000000" font-family="sans-serif" font-size="13" lengthAdjust="spacing" textLength="55" x="3532.5" y="365.3638">depends</text><polygon fill="#181818" points="2580.4089,387.2898,2590.2107,388.2523,2585.1546,385.7154,2587.6915,380.6593,2580.4089,387.2898" style="stroke:#181818;stroke-width:1.0;"/><path d="M2892.2564,328.96 C2833.319,333.8672 2768.4399,341.2392 2709.5,352.2969 C2664.7237,360.6973 2620.5622,373.9683 2586.1037,385.4005 " fill="none" style="stroke:#181818;stroke-width:1.0;stroke-dasharray:7.0,7.0;"/><text fill="#000000" font-family="sans-serif" font-size="13" lengthAdjust="spacing" textLength="30" x="2710.5" y="365.3638">uses</text><polygon fill="#181818" points="2546.4671,387.1383,2554.7974,381.884,2549.2483,382.9832,2548.1492,377.4341,2546.4671,387.1383" style="stroke:#181818;stroke-width:1.0;"/><path d="M2892.198,324.9957 C2762.773,330.033 2610.4611,338.7253 2582.5,352.2969 C2566.9507,359.8441 2557.6774,370.3901 2549.8046,382.1522 " fill="none" style="stroke:#181818;stroke-width:1.0;stroke-dasharray:7.0,7.0;"/><text fill="#000000" font-family="sans-serif" font-size="13" lengthAdjust="spacing" textLength="55" x="2583.5" y="365.3638">depends</text><polygon fill="#181818" points="2389.0874,208.3694,2397.3588,213.7158,2394.027,209.1442,2398.5985,205.8124,2389.0874,208.3694" style="stroke:#181818;stroke-width:1.0;"/><path d="M2987.7455,302.2766 C2843.6268,279.6697 2574.6776,237.4816 2395.0149,209.2992 " fill="none" style="stroke:#181818;stroke-width:1.0;stroke-dasharray:7.0,7.0;"/><text fill="#000000" font-family="sans-serif" font-size="13" lengthAdjust="spacing" textLength="55" x="2852.5" y="280.3638">depends</text><polygon fill="#181818" points="1617.0871,840.6108,1626.152,844.4616,1622.0865,840.5282,1626.0199,836.4627,1617.0871,840.6108" style="stroke:#181818;stroke-width:1.0;"/><path d="M3178.6507,334.3125 C3202.9721,339.1199 3228.9093,345.104 3252.5,352.2969 C3388.4222,393.7402 3484.5,430.1969 3484.5,572.2969 C3484.5,572.2969 3484.5,572.2969 3484.5,759.2969 C3484.5,806.4311 2035.2246,833.7047 1623.0863,840.5117 " fill="none" style="stroke:#181818;stroke-width:1.0;stroke-dasharray:7.0,7.0;"/><text fill="#000000" font-family="sans-serif" font-size="13" lengthAdjust="spacing" textLength="55" x="3485.5" y="577.8638">depends</text><polygon fill="#181818" points="2654.8046,557.1476,2664.615,556.279,2659.1767,554.7219,2660.7338,549.2835,2654.8046,557.1476" style="stroke:#181818;stroke-width:1.0;"/><path d="M3056.3407,334.3655 C2975.3327,379.3108 2741.2482,509.1866 2660.0511,554.2367 " fill="none" style="stroke:#181818;stroke-width:1.0;stroke-dasharray:7.0,7.0;"/><text fill="#000000" font-family="sans-serif" font-size="13" lengthAdjust="spacing" textLength="55" x="2867.5" y="450.3638">depends</text><polygon fill="#181818" points="2522.7899,658.2062,2532.1614,661.2354,2527.7621,657.6792,2531.3182,653.2799,2522.7899,658.2062" style="stroke:#181818;stroke-width:1.0;"/><path d="M3274.6757,322.5879 C3376.6326,326.4907 3503.9329,334.794 3616.5,352.2969 C3684.2657,362.8336 3796.8877,364.6135 3755.5,419.2969 C3653.7762,553.699 3540.0056,444.4526 3390.5,522.2969 C3348.7566,544.0317 3352.0965,571.5695 3308.5,589.2969 C3072.5145,685.2543 2991.2798,617.0982 2737.5,639.2969 C2645.9452,647.3054 2622.9233,647.9058 2531.5,657.2969 C2528.6289,657.5918 2531.6884,657.2631 2528.7565,657.5738 " fill="none" style="stroke:#181818;stroke-width:1.0;stroke-dasharray:7.0,7.0;"/><text fill="#000000" font-family="sans-serif" font-size="13" lengthAdjust="spacing" textLength="55" x="3695.5" y="492.8638">depends</text><polygon fill="#181818" points="3593.3063,742.057,3595.3342,732.4192,3592.2599,737.1677,3587.5113,734.0934,3593.3063,742.057" style="stroke:#181818;stroke-width:1.0;"/><path d="M3274.573,327.0416 C3361.3297,332.1675 3448.2963,340.2211 3464.5,352.2969 C3503.7757,381.5668 3530.4181,510.6938 3545.5,557.2969 C3567.4559,625.141 3584.839,702.4942 3592.0506,736.1899 " fill="none" style="stroke:#181818;stroke-width:1.0;stroke-dasharray:7.0,7.0;"/><text fill="#000000" font-family="sans-serif" font-size="13" lengthAdjust="spacing" textLength="55" x="3541.5" y="535.3638">depends</text><polygon fill="#181818" points="1544.9066,749.6914,1554.0786,753.2796,1549.9015,749.4649,1553.7162,745.2878,1544.9066,749.6914" style="stroke:#181818;stroke-width:1.0;"/><path d="M3157.3867,334.3619 C3230.6964,353.3844 3340.275,393.6139 3398.5,472.2969 C3405.7349,482.0738 3436.0044,680.6016 3427.5,689.2969 C3411.7443,705.4061 2639.0223,706.5914 2616.5,707.2969 C2232.5384,719.3231 1787.6968,738.6826 1550.9004,749.4196 " fill="none" style="stroke:#181818;stroke-width:1.0;stroke-dasharray:7.0,7.0;"/><text fill="#000000" font-family="sans-serif" font-size="13" lengthAdjust="spacing" textLength="55" x="3413.5" y="535.3638">depends</text><polygon fill="#181818" points="1850.8356,472.2611,1860.3707,474.7275,1855.7677,471.4393,1859.0558,466.8363,1850.8356,472.2611" style="stroke:#181818;stroke-width:1.0;"/><path d="M2892.4439,328.3583 C2792.5356,333.8363 2668.2902,341.8074 2557.5,352.2969 C2434.4015,363.9516 2403.4936,367.1315 2281.5,387.2969 C2134.704,411.5621 2099.7724,427.0522 1953.5,454.2969 C1920.0856,460.5206 1889.2863,465.8544 1856.7541,471.275 " fill="none" style="stroke:#181818;stroke-width:1.0;stroke-dasharray:7.0,7.0;"/><text fill="#000000" font-family="sans-serif" font-size="13" lengthAdjust="spacing" textLength="55" x="2282.5" y="407.8638">depends</text><polygon fill="none" points="2489.973,419.3004,2471.0047,418.8507,2474.5286,430.3217,2489.973,419.3004" style="stroke:#181818;stroke-width:1.0;"/><path d="M2472.7666,424.5862 C2438.3956,435.145 2407.9378,443.905 2365.5,454.2969 C2338.8277,460.8282 2309.4965,467.0124 2283.0551,472.2237 " fill="none" style="stroke:#181818;stroke-width:1.0;stroke-dasharray:7.0,7.0;"/><polygon fill="#181818" points="3006.3159,557.29,2998.2778,551.5988,3001.4135,556.3071,2996.7052,559.4427,3006.3159,557.29" style="stroke:#181818;stroke-width:1.0;"/><path d="M2407.1908,494.7204 C2521.624,499.243 2666.2505,507.4586 2794.5,522.2969 C2867.1087,530.6976 2943.4106,544.6784 3000.433,556.1105 " fill="none" style="stroke:#181818;stroke-width:1.0;stroke-dasharray:7.0,7.0;"/><text fill="#000000" font-family="sans-serif" font-size="13" lengthAdjust="spacing" textLength="30" x="2905.5" y="535.3638">uses</text><polygon fill="#181818" points="3045.0946,557.2688,3038.4362,550.0117,3040.5093,555.275,3035.246,557.3481,3045.0946,557.2688" style="stroke:#181818;stroke-width:1.0;"/><path d="M2407.3233,491.4937 C2590.0808,494.7232 2842.3736,502.6861 2940.5,522.2969 C2977.4941,529.6903 3012.3327,543.0227 3039.5923,554.8762 " fill="none" style="stroke:#181818;stroke-width:1.0;stroke-dasharray:7.0,7.0;"/><text fill="#000000" font-family="sans-serif" font-size="13" lengthAdjust="spacing" textLength="55" x="2999.5" y="535.3638">depends</text><polygon fill="#181818" points="3068.6833,657.2856,3060.7096,651.5046,3063.7922,656.2477,3059.0491,659.3303,3068.6833,657.2856" style="stroke:#181818;stroke-width:1.0;"/><path d="M2407.0778,502.9661 C2463.4661,507.8588 2524.4603,514.2212 2580.5,522.2969 C2658.1446,533.486 2683.317,522.2508 2753.5,557.2969 C2772.6522,566.8606 2770.5061,579.4224 2789.5,589.2969 C2814.1541,602.114 2967.4929,635.814 3062.814,656.0402 " fill="none" style="stroke:#181818;stroke-width:1.0;stroke-dasharray:7.0,7.0;"/><text fill="#000000" font-family="sans-serif" font-size="13" lengthAdjust="spacing" textLength="55" x="2790.5" y="577.8638">depends</text><polygon fill="#181818" points="1614.9124,607.2028,1621.5386,599.9162,1616.484,602.4562,1613.944,597.4016,1614.9124,607.2028" style="stroke:#181818;stroke-width:1.0;"/><path d="M1993.8546,503.6984 C1990.7148,503.9005 1987.595,504.1001 1984.5,504.2969 C1949.8456,506.4997 1702.3418,504.5418 1672.5,522.2969 C1640.3744,541.4107 1624.3822,578.602 1616.7983,601.5069 " fill="none" style="stroke:#181818;stroke-width:1.0;stroke-dasharray:7.0,7.0;"/><text fill="#000000" font-family="sans-serif" font-size="13" lengthAdjust="spacing" textLength="55" x="1673.5" y="535.3638">depends</text><polygon fill="#181818" points="2212.9292,249.5884,2208.4647,258.3672,2212.6681,254.5816,2216.4538,258.785,2212.9292,249.5884" style="stroke:#181818;stroke-width:1.0;"/><path d="M2201.2878,472.2311 C2203.3709,432.3906 2208.8121,328.3272 2212.6159,255.5802 " fill="none" style="stroke:#181818;stroke-width:1.0;stroke-dasharray:7.0,7.0;"/><text fill="#000000" font-family="sans-serif" font-size="13" lengthAdjust="spacing" textLength="55" x="2208.5" y="365.3638">depends</text><polygon fill="#181818" points="2613.3537,657.2696,2605.7795,650.9742,2608.5419,655.9108,2603.6053,658.6731,2613.3537,657.2696" style="stroke:#181818;stroke-width:1.0;"/><path d="M2269.9751,504.3736 C2311.887,515.2858 2365.3415,532.5111 2408.5,557.2969 C2427.0637,567.958 2426.1078,578.3424 2444.5,589.2969 C2497.9077,621.1067 2559.7133,642.1216 2607.5795,655.639 " fill="none" style="stroke:#181818;stroke-width:1.0;stroke-dasharray:7.0,7.0;"/><text fill="#000000" font-family="sans-serif" font-size="13" lengthAdjust="spacing" textLength="55" x="2445.5" y="577.8638">depends</text><polygon fill="#181818" points="2580.7263,557.1907,2573.311,550.709,2575.9498,555.7126,2570.9461,558.3514,2580.7263,557.1907" style="stroke:#181818;stroke-width:1.0;"/><path d="M2340.6819,504.3268 C2376.3404,509.1206 2414.475,515.0947 2449.5,522.2969 C2494.6178,531.5744 2539.3523,544.3879 2574.9945,555.417 " fill="none" style="stroke:#181818;stroke-width:1.0;stroke-dasharray:7.0,7.0;"/><text fill="#000000" font-family="sans-serif" font-size="13" lengthAdjust="spacing" textLength="55" x="2520.5" y="535.3638">depends</text><polygon fill="#181818" points="942.0041,557.2095,951.7719,558.471,946.7957,555.7808,949.4859,550.8046,942.0041,557.2095" style="stroke:#181818;stroke-width:1.0;"/><path d="M1993.8634,503.8611 C1990.7208,504.0126 1987.5981,504.1581 1984.5,504.2969 C1786.8801,513.1517 1290.5817,496.1429 1094.5,522.2969 C1041.4624,529.3712 987.9133,543.5203 947.754,555.495 " fill="none" style="stroke:#181818;stroke-width:1.0;stroke-dasharray:7.0,7.0;"/><text fill="#000000" font-family="sans-serif" font-size="13" lengthAdjust="spacing" textLength="55" x="1095.5" y="535.3638">depends</text><polygon fill="#181818" points="2213.584,557.1699,2215.8081,547.5755,2212.6375,552.2603,2207.9527,549.0898,2213.584,557.1699" style="stroke:#181818;stroke-width:1.0;"/><path d="M2203.4346,504.5204 C2206.3216,519.4962 2209.5678,536.3359 2212.4482,551.2784 " fill="none" style="stroke:#181818;stroke-width:1.0;stroke-dasharray:7.0,7.0;"/><text fill="#000000" font-family="sans-serif" font-size="13" lengthAdjust="spacing" textLength="55" x="2211.5" y="535.3638">depends</text><polygon fill="#181818" points="1401.4592,657.1373,1411.1131,655.1872,1405.5357,654.2421,1406.4808,648.6648,1401.4592,657.1373" style="stroke:#181818;stroke-width:1.0;"/><path d="M1993.8557,503.7155 C1990.7155,503.9123 1987.5953,504.1063 1984.5,504.2969 C1835.6783,513.4619 1795.1353,490.3239 1649.5,522.2969 C1608.3881,531.3226 1598.9835,538.1489 1561.5,557.2969 C1500.8275,588.2906 1439.2983,630.264 1406.351,653.6631 " fill="none" style="stroke:#181818;stroke-width:1.0;stroke-dasharray:7.0,7.0;"/><text fill="#000000" font-family="sans-serif" font-size="13" lengthAdjust="spacing" textLength="55" x="1562.5" y="577.8638">depends</text><polygon fill="#181818" points="707.6512,742.2358,699.9866,736.0508,702.8202,740.9468,697.9242,743.7803,707.6512,742.2358" style="stroke:#181818;stroke-width:1.0;"/><path d="M1993.8638,503.8689 C1990.7211,504.018 1987.5982,504.1608 1984.5,504.2969 C1550.6221,523.3465 1440.633,490.5359 1007.5,522.2969 C885.9408,531.2106 850.5867,517.1577 735.5,557.2969 C709.5188,566.3584 708.2862,579.6943 682.5,589.2969 C638.1293,605.8202 608.0205,571.0991 577.5,607.2969 C568.3323,618.17 572.7923,625.8764 577.5,639.2969 C586.1366,663.918 635.1305,712.6927 658.5,724.2969 C673.7617,731.8751 684.9455,736.1774 701.854,740.689 " fill="none" style="stroke:#181818;stroke-width:1.0;stroke-dasharray:7.0,7.0;"/><text fill="#000000" font-family="sans-serif" font-size="13" lengthAdjust="spacing" textLength="55" x="578.5" y="627.8638">depends</text><polygon fill="#181818" points="937.0594,657.2928,946.6827,659.3885,941.9559,656.2809,945.0636,651.5541,937.0594,657.2928" style="stroke:#181818;stroke-width:1.0;"/><path d="M1993.8576,503.7484 C1990.7168,503.935 1987.596,504.118 1984.5,504.2969 C1811.2712,514.308 1766.684,500.8232 1594.5,522.2969 C1407.6738,545.5967 1363.9167,569.3837 1179.5,607.2969 C1096.3624,624.3886 1006.7768,642.8846 942.9352,656.0785 " fill="none" style="stroke:#181818;stroke-width:1.0;stroke-dasharray:7.0,7.0;"/><text fill="#000000" font-family="sans-serif" font-size="13" lengthAdjust="spacing" textLength="55" x="1395.5" y="577.8638">depends</text><polygon fill="#181818" points="2020.8058,657.2068,2015.8705,648.6837,2016.7589,654.2704,2011.1722,655.1588,2020.8058,657.2068" style="stroke:#181818;stroke-width:1.0;"/><path d="M2109.6789,504.305 C2052.0105,515.8972 1985.0384,533.9083 1967.5,557.2969 C1941.5853,591.8558 1985.1404,631.3281 2015.9495,653.6831 " fill="none" style="stroke:#181818;stroke-width:1.0;stroke-dasharray:7.0,7.0;"/><text fill="#000000" font-family="sans-serif" font-size="13" lengthAdjust="spacing" textLength="55" x="1968.5" y="577.8638">depends</text><polygon fill="#181818" points="356.4412,827.2319,354.0606,817.6751,353.3663,823.2891,347.7522,822.5948,356.4412,827.2319" style="stroke:#181818;stroke-width:1.0;"/><path d="M1993.8648,503.8934 C1990.7218,504.0349 1987.5986,504.1696 1984.5,504.2969 C1672.0713,517.1333 889.1522,496.8151 577.5,522.2969 C464.5653,531.5308 327.5,458.9853 327.5,572.2969 C327.5,572.2969 327.5,572.2969 327.5,759.2969 C327.5,785.2977 340.4221,806.6915 352.7513,822.5006 " fill="none" style="stroke:#181818;stroke-width:1.0;stroke-dasharray:7.0,7.0;"/><text fill="#000000" font-family="sans-serif" font-size="13" lengthAdjust="spacing" textLength="55" x="328.5" y="677.8638">depends</text><polygon fill="#181818" points="1600.3054,827.2692,1609.9274,829.3713,1605.2026,826.2605,1608.3134,821.5358,1600.3054,827.2692" style="stroke:#181818;stroke-width:1.0;"/><path d="M2033.5726,504.2988 C1903.0244,518.3713 1743.5,541.8056 1743.5,572.2969 C1743.5,572.2969 1743.5,572.2969 1743.5,759.2969 C1743.5,791.0328 1671.9578,812.5101 1606.1821,826.0588 " fill="none" style="stroke:#181818;stroke-width:1.0;stroke-dasharray:7.0,7.0;"/><text fill="#000000" font-family="sans-serif" font-size="13" lengthAdjust="spacing" textLength="55" x="1744.5" y="677.8638">depends</text><polygon fill="none" points="2456.9235,419.37,2438.1184,416.8463,2440.3652,428.6341,2456.9235,419.37" style="stroke:#181818;stroke-width:1.0;"/><path d="M2439.2418,422.7402 C2410.3762,428.2421 2395.2951,431.2336 2365.5,437.2969 C2330.3065,444.4587 2322.0845,449.4366 2286.5,454.2969 C2153.2765,472.4932 2118.6957,463.864 1984.5,472.2969 C1981.7407,472.4703 1978.9627,472.6454 1976.1688,472.822 " fill="none" style="stroke:#181818;stroke-width:1.0;stroke-dasharray:7.0,7.0;"/><polygon fill="#181818" points="2114.348,249.3982,2104.6408,251.0623,2110.1878,252.1717,2109.0784,257.7187,2114.348,249.3982" style="stroke:#181818;stroke-width:1.0;"/><path d="M1780.1288,472.211 C1839.9672,432.3187 2000.2562,325.4594 2109.3557,252.7264 " fill="none" style="stroke:#181818;stroke-width:1.0;stroke-dasharray:7.0,7.0;"/><text fill="#000000" font-family="sans-serif" font-size="13" lengthAdjust="spacing" textLength="55" x="1956.5" y="365.3638">depends</text><polygon fill="#181818" points="158.0711,657.0478,166.3717,651.747,160.8289,652.8772,159.6988,647.3344,158.0711,657.0478" style="stroke:#181818;stroke-width:1.0;"/><path d="M1538.896,491.3003 C1149.5199,495.2886 371.0369,505.3298 313.5,522.2969 C239.2343,544.1971 183.6102,618.4262 161.3805,652.0431 " fill="none" style="stroke:#181818;stroke-width:1.0;stroke-dasharray:7.0,7.0;"/><text fill="#000000" font-family="sans-serif" font-size="13" lengthAdjust="spacing" textLength="55" x="247.5" y="577.8638">depends</text><polygon fill="#181818" points="541.6352,557.0998,551.4646,556.4811,546.0677,554.7861,547.7627,549.3892,541.6352,557.0998" style="stroke:#181818;stroke-width:1.0;"/><path d="M1538.7045,491.284 C1235.8347,494.7123 716.2586,503.2886 630.5,522.2969 C598.5985,529.3678 569.8551,542.3693 546.9542,554.3234 " fill="none" style="stroke:#181818;stroke-width:1.0;stroke-dasharray:7.0,7.0;"/><text fill="#000000" font-family="sans-serif" font-size="13" lengthAdjust="spacing" textLength="55" x="631.5" y="535.3638">depends</text><polygon fill="#181818" points="3604.6009,742.1731,3612.1452,735.8419,3606.7954,737.6804,3604.9569,732.3307,3604.6009,742.1731" style="stroke:#181818;stroke-width:1.0;"/><path d="M3629.143,419.552 C3626.7832,436.1695 3623.5,463.5554 3623.5,487.2969 C3623.5,487.2969 3623.5,487.2969 3623.5,674.2969 C3623.5,698.9962 3615.1873,720.5004 3607.2343,736.7819 " fill="none" style="stroke:#181818;stroke-width:1.0;stroke-dasharray:7.0,7.0;"/><text fill="#000000" font-family="sans-serif" font-size="13" lengthAdjust="spacing" textLength="30" x="3624.5" y="577.8638">uses</text><polygon fill="none" points="3087.3438,589.6094,3092.0303,607.9951,3102.1245,601.506,3087.3438,589.6094" style="stroke:#181818;stroke-width:1.0;"/><path d="M3097.0774,604.7506 C3108.913,623.1615 3118.9207,638.7291 3130.7254,657.0919 " fill="none" style="stroke:#181818;stroke-width:1.0;stroke-dasharray:7.0,7.0;"/><polygon fill="#181818" points="2675.5979,657.1751,2680.3548,648.5511,2676.0266,652.1935,2672.3842,647.8653,2675.5979,657.1751" style="stroke:#181818;stroke-width:1.0;"/><path d="M2652.8818,589.4293 C2659.008,594.3394 2664.837,600.3448 2668.5,607.2969 C2676.6776,622.8173 2677.3,637.394 2676.1123,651.1971 " fill="none" style="stroke:#181818;stroke-width:1.0;stroke-dasharray:7.0,7.0;"/><text fill="#000000" font-family="sans-serif" font-size="13" lengthAdjust="spacing" textLength="55" x="2677.5" y="627.8638">depends</text><polygon fill="#181818" points="1617.1997,840.3199,1626.2853,844.1216,1622.1985,840.2102,1626.1099,836.1235,1617.1997,840.3199" style="stroke:#181818;stroke-width:1.0;"/><path d="M2717.8567,589.3347 C2755.8784,600.8917 2795.8156,621.2971 2815.5,657.2969 C2829.8004,683.4501 2833.5264,703.1691 2812.5,724.2969 C2728.8318,808.3684 1920.259,833.6726 1623.1983,840.1883 " fill="none" style="stroke:#181818;stroke-width:1.0;stroke-dasharray:7.0,7.0;"/><text fill="#000000" font-family="sans-serif" font-size="13" lengthAdjust="spacing" textLength="55" x="2825.5" y="720.3638">depends</text><polygon fill="#181818" points="2616.1244,589.3968,2607.8871,594.7956,2613.4162,593.5998,2614.612,599.1288,2616.1244,589.3968" style="stroke:#181818;stroke-width:1.0;"/><path d="M2626.7385,657.2331 C2619.0839,652.6794 2612.1472,646.8162 2607.5,639.2969 C2597.8788,623.7295 2603.9903,608.2284 2612.8745,594.4404 " fill="none" style="stroke:#181818;stroke-width:1.0;stroke-dasharray:7.0,7.0;"/><text fill="#000000" font-family="sans-serif" font-size="13" lengthAdjust="spacing" textLength="55" x="2608.5" y="627.8638">depends</text><polygon fill="#181818" points="1401.745,829.5202,1393.2786,824.4883,1396.7798,828.9315,1392.3366,832.4327,1401.745,829.5202" style="stroke:#181818;stroke-width:1.0;"/><path d="M936.2647,774.3275 C1069.3334,790.1057 1270.3317,813.9383 1395.7867,828.8137 " fill="none" style="stroke:#181818;stroke-width:1.0;stroke-dasharray:7.0,7.0;"/><text fill="#000000" font-family="sans-serif" font-size="13" lengthAdjust="spacing" textLength="55" x="1223.5" y="805.3638">depends</text><polygon fill="#181818" points="449.3301,827.238,458.9156,829.5004,454.2435,826.3112,457.4327,821.639,449.3301,827.238" style="stroke:#181818;stroke-width:1.0;"/><path d="M729.8193,774.3275 C650.3242,789.3232 534.7737,811.1202 455.2261,826.1258 " fill="none" style="stroke:#181818;stroke-width:1.0;stroke-dasharray:7.0,7.0;"/><text fill="#000000" font-family="sans-serif" font-size="13" lengthAdjust="spacing" textLength="55" x="630.5" y="805.3638">depends</text><polygon fill="#181818" points="913.0977,742.238,922.5795,744.9018,918.0457,741.5188,921.4287,736.985,913.0977,742.238" style="stroke:#181818;stroke-width:1.0;"/><path d="M1277.0962,689.3275 C1173.9333,704.3232 1022.2664,726.3694 919.0353,741.3749 " fill="none" style="stroke:#181818;stroke-width:1.0;stroke-dasharray:7.0,7.0;"/><text fill="#000000" font-family="sans-serif" font-size="13" lengthAdjust="spacing" textLength="55" x="1147.5" y="720.3638">depends</text><polygon fill="#181818" points="1380.5,742.1699,1384.5,733.1699,1380.5,737.1699,1376.5,733.1699,1380.5,742.1699" style="stroke:#181818;stroke-width:1.0;"/><path d="M1380.5,689.5204 C1380.5,704.4962 1380.5,721.2275 1380.5,736.1699 " fill="none" style="stroke:#181818;stroke-width:1.0;stroke-dasharray:7.0,7.0;"/><text fill="#000000" font-family="sans-serif" font-size="13" lengthAdjust="spacing" textLength="55" x="1381.5" y="720.3638">depends</text><polygon fill="#181818" points="1251.3407,742.2318,1243.1985,736.6906,1246.4209,741.34,1241.7715,744.5623,1251.3407,742.2318" style="stroke:#181818;stroke-width:1.0;"/><path d="M925.8512,589.3879 C956.7915,604.8209 1004.9276,630.3006 1043.5,657.2969 C1061.3123,669.7634 1061.0962,679.4896 1080.5,689.2969 C1133.2863,715.9765 1190.6436,731.2285 1245.4369,741.1616 " fill="none" style="stroke:#181818;stroke-width:1.0;stroke-dasharray:7.0,7.0;"/><text fill="#000000" font-family="sans-serif" font-size="13" lengthAdjust="spacing" textLength="55" x="1081.5" y="677.8638">depends</text><polygon fill="#181818" points="1316.2244,657.2447,1308.3535,651.3244,1311.3523,656.121,1306.5557,659.1198,1316.2244,657.2447" style="stroke:#181818;stroke-width:1.0;"/><path d="M986.4641,589.3094 C1017.929,594.6785 1053.3056,600.9723 1085.5,607.2969 C1165.2633,622.9664 1250.7365,642.1412 1310.3779,655.8963 " fill="none" style="stroke:#181818;stroke-width:1.0;stroke-dasharray:7.0,7.0;"/><text fill="#000000" font-family="sans-serif" font-size="13" lengthAdjust="spacing" textLength="55" x="1232.5" y="627.8638">depends</text><polygon fill="#181818" points="760.7919,742.257,753.429,735.7158,756.0274,740.7406,751.0027,743.339,760.7919,742.257" style="stroke:#181818;stroke-width:1.0;"/><path d="M851.7183,589.3322 C811.9875,603.0757 751.0684,623.5913 697.5,639.2969 C666.6743,648.3346 647.1839,631.911 627.5,657.2969 C618.7851,668.5362 619.3921,677.6121 627.5,689.2969 C635.4802,700.7976 703.9195,724.1556 755.0745,740.4373 " fill="none" style="stroke:#181818;stroke-width:1.0;stroke-dasharray:7.0,7.0;"/><text fill="#000000" font-family="sans-serif" font-size="13" lengthAdjust="spacing" textLength="55" x="628.5" y="677.8638">depends</text><polygon fill="#181818" points="869.1546,657.0919,875.6138,649.657,870.6182,652.3109,867.9642,647.3152,869.1546,657.0919" style="stroke:#181818;stroke-width:1.0;"/><path d="M889.8125,589.6094 C884.1765,608.0203 876.5322,632.9919 870.9109,651.3547 " fill="none" style="stroke:#181818;stroke-width:1.0;stroke-dasharray:7.0,7.0;"/><text fill="#000000" font-family="sans-serif" font-size="13" lengthAdjust="spacing" textLength="55" x="885.5" y="627.8638">depends</text><polygon fill="#181818" points="1401.7162,842.3512,1392.7338,838.3119,1396.7162,842.3294,1392.6988,846.3118,1401.7162,842.3512" style="stroke:#181818;stroke-width:1.0;"/><path d="M744.4731,589.0652 C729.0997,593.7044 714.1394,599.6635 700.5,607.2969 C684.0089,616.5262 688.2646,628.8752 672.5,639.2969 C651.0443,653.4808 635.627,639.0502 617.5,657.2969 C579.9577,695.0872 555.2514,735.2639 591.5,774.2969 C645.6371,832.5924 1164.9659,841.315 1395.7162,842.325 " fill="none" style="stroke:#181818;stroke-width:1.0;stroke-dasharray:7.0,7.0;"/><text fill="#000000" font-family="sans-serif" font-size="13" lengthAdjust="spacing" textLength="55" x="581.5" y="720.3638">depends</text><polygon fill="#181818" points="373.0352,827.2265,379.0715,819.4443,374.2309,822.3716,371.3036,817.5311,373.0352,827.2265" style="stroke:#181818;stroke-width:1.0;"/><path d="M496.0544,589.5762 C490.1372,594.8917 483.7598,601.0852 478.5,607.2969 C444.2453,647.7505 436.3524,659.4675 413.5,707.2969 C393.627,748.8904 380.7444,795.9264 374.4701,821.4006 " fill="none" style="stroke:#181818;stroke-width:1.0;stroke-dasharray:7.0,7.0;"/><text fill="#000000" font-family="sans-serif" font-size="13" lengthAdjust="spacing" textLength="55" x="414.5" y="720.3638">depends</text><polygon fill="#181818" points="1401.8013,841.7871,1392.8275,837.7288,1396.8014,841.7547,1392.7756,845.7286,1401.8013,841.7871" style="stroke:#181818;stroke-width:1.0;"/><path d="M510.4238,589.4494 C499.7212,633.0441 476.2514,758.8806 546.5,809.2969 C580.7316,833.8643 1151.6935,840.1631 1395.8015,841.7482 " fill="none" style="stroke:#181818;stroke-width:1.0;stroke-dasharray:7.0,7.0;"/><text fill="#000000" font-family="sans-serif" font-size="13" lengthAdjust="spacing" textLength="55" x="502.5" y="720.3638">depends</text><polygon fill="#181818" points="810.8057,657.2625,803.2176,650.984,805.9909,655.9143,801.0605,658.6877,810.8057,657.2625" style="stroke:#181818;stroke-width:1.0;"/><path d="M568.4205,589.3946 C634.2878,607.8375 739.2636,637.2307 805.0279,655.6447 " fill="none" style="stroke:#181818;stroke-width:1.0;stroke-dasharray:7.0,7.0;"/><text fill="#000000" font-family="sans-serif" font-size="13" lengthAdjust="spacing" textLength="55" x="742.5" y="627.8638">depends</text><polygon fill="#181818" points="1216.1701,749.7732,1207.3516,745.3876,1211.1748,749.5569,1207.0055,753.3801,1216.1701,749.7732" style="stroke:#181818;stroke-width:1.0;"/><path d="M192.3594,689.3266 C229.4575,701.2666 284.2824,717.1116 333.5,724.2969 C485.9361,746.551 872.5379,737.0358 1026.5,742.2969 C1088.4387,744.4134 1150.4599,746.9277 1210.1757,749.5137 " fill="none" style="stroke:#181818;stroke-width:1.0;stroke-dasharray:7.0,7.0;"/><text fill="#000000" font-family="sans-serif" font-size="13" lengthAdjust="spacing" textLength="55" x="334.5" y="720.3638">depends</text><polygon fill="#181818" points="343.7939,827.2804,338.0619,819.2714,339.4833,824.7467,334.008,826.1682,343.7939,827.2804" style="stroke:#181818;stroke-width:1.0;"/><path d="M163.0503,689.5288 C183.0562,710.0468 220.6649,747.1218 256.5,774.2969 C280.1873,792.2598 288.0264,793.9721 313.5,809.2969 C323.3632,815.2305 329.0841,818.6342 338.6212,824.24 " fill="none" style="stroke:#181818;stroke-width:1.0;stroke-dasharray:7.0,7.0;"/><text fill="#000000" font-family="sans-serif" font-size="13" lengthAdjust="spacing" textLength="55" x="257.5" y="762.8638">depends</text><polygon fill="#181818" points="3512.4603,756.8401,3503.4991,752.7538,3507.4605,756.7921,3503.4223,760.7535,3512.4603,756.8401" style="stroke:#181818;stroke-width:1.0;"/><path d="M2492.201,689.3308 C2563.0287,700.8577 2665.3867,716.1321 2755.5,724.2969 C3031.8122,749.3322 3354.8926,755.3264 3506.4606,756.7825 " fill="none" style="stroke:#181818;stroke-width:1.0;stroke-dasharray:7.0,7.0;"/><text fill="#000000" font-family="sans-serif" font-size="13" lengthAdjust="spacing" textLength="55" x="2756.5" y="720.3638">depends</text><polygon fill="#181818" points="1477.3809,742.2597,1486.9744,744.4877,1482.2909,741.3152,1485.4633,736.6317,1477.3809,742.2597" style="stroke:#181818;stroke-width:1.0;"/><path d="M1619.3775,639.4984 C1626.4023,653.7432 1633.3808,674.9372 1622.5,689.2969 C1604.4787,713.0799 1542.5484,729.7244 1483.2729,741.1264 " fill="none" style="stroke:#181818;stroke-width:1.0;stroke-dasharray:7.0,7.0;"/><text fill="#000000" font-family="sans-serif" font-size="13" lengthAdjust="spacing" textLength="55" x="1629.5" y="677.8638">depends</text><polygon fill="none" points="2396.4398,657.25,2392.4833,638.6934,2382.1406,644.7786,2396.4398,657.25" style="stroke:#181818;stroke-width:1.0;"/><path d="M2387.312,641.736 C2378.5051,626.7676 2372.1254,619.7946 2352.5,607.2969 C2340.6137,599.7275 2327.1324,593.8941 2313.389,589.3986 " fill="none" style="stroke:#181818;stroke-width:1.0;"/><polygon fill="#181818" points="2333.2952,657.2262,2325.9418,650.6743,2328.533,655.7028,2323.5044,658.2939,2333.2952,657.2262" style="stroke:#181818;stroke-width:1.0;"/><path d="M2236.5006,589.3285 C2243.5797,594.8264 2251.5161,601.1963 2258.5,607.2969 C2273.8864,620.7372 2273.8428,629.0205 2291.5,639.2969 C2304.3062,646.75 2313.2073,650.8003 2327.5805,655.3981 " fill="none" style="stroke:#181818;stroke-width:1.0;stroke-dasharray:7.0,7.0;"/><text fill="#000000" font-family="sans-serif" font-size="13" lengthAdjust="spacing" textLength="55" x="2292.5" y="627.8638">depends</text><polygon fill="#181818" points="2061.5671,657.1849,2071.0826,654.6442,2065.4576,654.0443,2066.0575,648.4193,2061.5671,657.1849" style="stroke:#181818;stroke-width:1.0;"/><path d="M2172.4953,589.4584 C2159.6252,594.5098 2145.7346,600.582 2133.5,607.2969 C2106.9727,621.8563 2083.8012,639.2363 2066.2357,653.4161 " fill="none" style="stroke:#181818;stroke-width:1.0;stroke-dasharray:7.0,7.0;"/><text fill="#000000" font-family="sans-serif" font-size="13" lengthAdjust="spacing" textLength="30" x="2134.5" y="627.8638">uses</text><polygon fill="#181818" points="2127.6371,657.2134,2137.4446,658.1161,2132.3731,655.61,2134.8791,650.5385,2127.6371,657.2134" style="stroke:#181818;stroke-width:1.0;"/><path d="M2208.4361,589.5182 C2199.7736,604.4039 2184.6356,626.627 2165.5,639.2969 C2154.0656,646.8677 2146.6258,650.7847 2133.3203,655.2893 " fill="none" style="stroke:#181818;stroke-width:1.0;stroke-dasharray:7.0,7.0;"/><text fill="#000000" font-family="sans-serif" font-size="13" lengthAdjust="spacing" textLength="55" x="2198.5" y="627.8638">depends</text><!--SRC=[nLXjZzis3FxkNw5rMx5XY3iC-nIq6xf3knwm5-22tJ0S3eRYC8bMMz8avNBPjV-zSiv9RCUM9TcwVWjYaWyVYgGeVi45NkKOPNZ7DWh971IcE594PO0edcTOfEiuPNdEQBo5UKoe0f42Lqp4b_HVIDLR9l98lYUKOu5pb6POojTA2JBVABXC6PsH_m5zNn7XE7sFLp1JEmqYj0bCLnbK1EPQO2NOXYukMCO4sgw9gdwNQxnWMq9NQ8apMVsI4Gfgnm4neTOiMfC58CYvsg4SyZa86KMOKgQm8eoYP_OCdo4iqKLoK4WU5HAja5GKafC2khbvSKTW2-B5ppbRR39uTL2UBBSJhVXy7wfNzZxStg8lVoEhjVe7ienjqKE4laCFU2wLmAdwY9PQvfjlqHHT58OR7xc09RdVVvxfmw6hndUAS-Z-IYXH16Vw9BjbxlJt1LRz4Zhql-hJvITVRswZZv4-5a2ASSIMRf6U8YmKMMg8AMh4EDh7sEMWlxhCUUPysacX5U38l_xXnyAoFla77I43cJAqMlaNmFJw66Xz3lf8LZi3ewDgqguwY5QVNoxC_YY_UhBhLX-9OJT0oN9_nZfFeO-f9yDWp3eP7MeRDGzmkTLPVCperg9QRfFBQZ7rL53A13IThQFKYyKwsFN4BAhkhMR4X4_DLBI3b4t5lalbp8YE2rp1CjDzHPiPHjdQsaWXiCRh38c0UAwLv3wQVodIqk0597kHv23IbukJlVWvWJEiVgyk6D_zoGioqk1OHMgmRnLR9lToa59FQl5hpZEIxiFzvhueDlsZrTDI8MbJS2tkNWzCdWlWJ98YAUBPJYh8huv_j3f-aa-Qybv-6_1DRczqliIFirDdcXOooKd6oxq6Zicbqz0M0-Z4eKN7rytrch1i_xV-wmw4RhQjtfxK4u34fDwRr2TJ4sYdPU_hE8mxkwOJSOjkEJf_YuvPDtPzQCUTULadN9CVdLhDkYM9qvMXew3WNlMnE5DmeD77uSosCuaha9jC_VxO7-sfrDI24AeXEDEoIQ-wT10IXhpIG-URUqWtXapIesrJn6EqRPem3BPQ-XscY-oy2MjNoYyU7fIQ5iD-CR6zKufVmNyRa6q1AMR8YeJxR7YEqdr0XQ04SPU1EZxB2iNPut-b_jy2SzuQiiBPKZ_frVUcOksX7T5IrI8vg_Gwj0QJwh1RKecSDZniCl5OnqnHgZ7r_IUZdcVdomy-096xIt7yKzyJU8eMm84kv73pjak2ATf8U5Ay41GxjuCZWhMCtsFRRxn2HpJVTYkDQ_vmqumT4zFhB7Iz6DQ6VT368dZv8OuzDxAHvoBNXcxtCiVO9O9ZsqPw0BpzNcjiTrh6eu2CFHkbEsBhwYeWZ7NJzC8mlMy39KJVZFO4F6qM5v_PZJ3unbLcuFFkVtA43ddNmY08hkj8DVnUxRxKem7pGC2Mwu9gN9OyBQInKRMzVampfSVuKRsqhHB3UWQ8UgwWGPUXdJdBica5zhz4tLhpCBy70ldtCwzhCCmjDfeh7e-edgddyw6CDgC4nHuHr6SQyO3nAitpTX-o6EtG0X8PVXIDApb86LbW-9v8snx9SHVKyk0T9GfjhZMNktPlgyZzDUQxRlCsx_faQ0vGJmPy8Fq9]--></g></svg>