<?xml version="1.0" encoding="us-ascii" standalone="no"?><svg xmlns="http://www.w3.org/2000/svg" xmlns:xlink="http://www.w3.org/1999/xlink" contentStyleType="text/css" height="944px" preserveAspectRatio="none" style="width:2874px;height:944px;background:#FFFFFF;" version="1.1" viewBox="0 0 2874 944" width="2874px" zoomAndPan="magnify"><defs/><g><text fill="#000000" font-family="sans-serif" font-size="14" font-weight="bold" lengthAdjust="spacing" textLength="494" x="1172" y="22.9951">nablarch.common.web.session.HttpSessionManagedExpiration</text><!--class C_nablarch_common_web_session_HttpSessionManagedExpiration--><a href="/viewer/?module=nablarch-fw-web&amp;class=nablarch.common.web.session.HttpSessionManagedExpiration" target="_top" title="/viewer/?module=nablarch-fw-web&amp;class=nablarch.common.web.session.HttpSessionManagedExpiration" xlink:actuate="onRequest" xlink:href="/viewer/?module=nablarch-fw-web&amp;class=nablarch.common.web.session.HttpSessionManagedExpiration" xlink:show="new" xlink:title="/viewer/?module=nablarch-fw-web&amp;class=nablarch.common.web.session.HttpSessionManagedExpiration" xlink:type="simple"><g id="elem_C_nablarch_common_web_session_HttpSessionManagedExpiration"><rect codeLine="10" fill="#FFFFE0" height="145.7813" id="C_nablarch_common_web_session_HttpSessionManagedExpiration" rx="2.5" ry="2.5" style="stroke:#181818;stroke-width:0.5;" width="466" x="386.0354" y="111.2969"/><ellipse cx="401.0354" cy="127.2969" fill="#ADD1B2" rx="11" ry="11" style="stroke:#181818;stroke-width:1.0;"/><path d="M404.0041,132.9375 Q403.426,133.2344 402.7854,133.375 Q402.1447,133.5313 401.4416,133.5313 Q398.9416,133.5313 397.6135,131.8906 Q396.301,130.2344 396.301,127.1094 Q396.301,123.9844 397.6135,122.3281 Q398.9416,120.6719 401.4416,120.6719 Q402.1447,120.6719 402.7854,120.8281 Q403.4416,120.9844 404.0041,121.2813 L404.0041,124 Q403.3791,123.4219 402.7854,123.1563 Q402.1916,122.875 401.5666,122.875 Q400.2229,122.875 399.5354,123.9531 Q398.8479,125.0156 398.8479,127.1094 Q398.8479,129.2031 399.5354,130.2813 Q400.2229,131.3438 401.5666,131.3438 Q402.1916,131.3438 402.7854,131.0781 Q403.3791,130.7969 404.0041,130.2188 L404.0041,132.9375 Z " fill="#000000"/><text fill="#000000" font-family="sans-serif" font-size="14" lengthAdjust="spacing" textLength="434" x="415.0354" y="132.1436">nablarch.common.web.session.HttpSessionManagedExpiration</text><line style="stroke:#181818;stroke-width:0.5;" x1="387.0354" x2="851.0354" y1="143.2969" y2="143.2969"/><text fill="#000000" font-family="sans-serif" font-size="14" lengthAdjust="spacing" text-decoration="underline" textLength="219" x="392.0354" y="160.292">-EXPIRATION_DATE_KEY : String</text><text fill="#000000" font-family="sans-serif" font-size="14" lengthAdjust="spacing" textLength="8" x="392.0354" y="176.5889">..</text><line style="stroke:#181818;stroke-width:0.5;" x1="387.0354" x2="851.0354" y1="183.8906" y2="183.8906"/><text fill="#000000" font-family="sans-serif" font-size="14" lengthAdjust="spacing" textLength="107" x="392.0354" y="200.8857">+&lt;init&gt;() : void</text><text fill="#000000" font-family="sans-serif" font-size="14" lengthAdjust="spacing" textLength="361" x="392.0354" y="217.1826">+isExpired(String, long, ExecutionContext) : boolean</text><text fill="#000000" font-family="sans-serif" font-size="14" lengthAdjust="spacing" textLength="437" x="392.0354" y="233.4795">+saveExpirationDateTime(String, long, ExecutionContext) : void</text><text fill="#000000" font-family="sans-serif" font-size="14" lengthAdjust="spacing" textLength="365" x="392.0354" y="249.7764">+isDeterminable(String, ExecutionContext) : boolean</text></g></a><g id="elem_GMN3"><path d="M530.5354,49.2969 L530.5354,74.4297 A0,0 0 0 0 530.5354,74.4297 L615.0354,74.4297 L619.0354,111.2961 L623.0354,74.4297 L707.5354,74.4297 A0,0 0 0 0 707.5354,74.4297 L707.5354,59.2969 L697.5354,49.2969 L530.5354,49.2969 A0,0 0 0 0 530.5354,49.2969 " fill="#FEFFDD" style="stroke:#181818;stroke-width:0.5;"/><path d="M697.5354,49.2969 L697.5354,59.2969 L707.5354,59.2969 L697.5354,49.2969 " fill="#FEFFDD" style="stroke:#181818;stroke-width:0.5;"/><text fill="#000000" font-family="sans-serif" font-size="13" lengthAdjust="spacing" textLength="156" x="536.5354" y="66.3638">artifact: nablarch-fw-web</text></g><!--class C_nablarch_common_web_session_Expiration--><a href="/viewer/?module=nablarch-fw-web&amp;class=nablarch.common.web.session.Expiration" target="_top" title="/viewer/?module=nablarch-fw-web&amp;class=nablarch.common.web.session.Expiration" xlink:actuate="onRequest" xlink:href="/viewer/?module=nablarch-fw-web&amp;class=nablarch.common.web.session.Expiration" xlink:show="new" xlink:title="/viewer/?module=nablarch-fw-web&amp;class=nablarch.common.web.session.Expiration" xlink:type="simple"><g id="elem_C_nablarch_common_web_session_Expiration"><rect codeLine="19" fill="#F1F1F1" height="32" id="C_nablarch_common_web_session_Expiration" rx="2.5" ry="2.5" style="stroke:#181818;stroke-width:0.5;" width="316" x="411.0354" y="565.2969"/><ellipse cx="426.0354" cy="581.2969" fill="#B4A7E5" rx="11" ry="11" style="stroke:#181818;stroke-width:1.0;"/><path d="M421.9572,577.0625 L421.9572,574.9063 L429.3479,574.9063 L429.3479,577.0625 L426.8791,577.0625 L426.8791,585.1406 L429.3479,585.1406 L429.3479,587.2969 L421.9572,587.2969 L421.9572,585.1406 L424.426,585.1406 L424.426,577.0625 L421.9572,577.0625 Z " fill="#000000"/><text fill="#000000" font-family="sans-serif" font-size="14" font-style="italic" lengthAdjust="spacing" textLength="284" x="440.0354" y="586.1436">nablarch.common.web.session.Expiration</text></g></a><!--class C_nablarch_common_web_session_SessionStoreHandler--><a href="/viewer/?module=nablarch-fw-web&amp;class=nablarch.common.web.session.SessionStoreHandler" target="_top" title="/viewer/?module=nablarch-fw-web&amp;class=nablarch.common.web.session.SessionStoreHandler" xlink:actuate="onRequest" xlink:href="/viewer/?module=nablarch-fw-web&amp;class=nablarch.common.web.session.SessionStoreHandler" xlink:show="new" xlink:title="/viewer/?module=nablarch-fw-web&amp;class=nablarch.common.web.session.SessionStoreHandler" xlink:type="simple"><g id="elem_C_nablarch_common_web_session_SessionStoreHandler"><rect codeLine="21" fill="#F1F1F1" height="32" id="C_nablarch_common_web_session_SessionStoreHandler" rx="2.5" ry="2.5" style="stroke:#181818;stroke-width:0.5;" width="396" x="748.0354" y="480.2969"/><ellipse cx="763.0354" cy="496.2969" fill="#ADD1B2" rx="11" ry="11" style="stroke:#181818;stroke-width:1.0;"/><path d="M766.0041,501.9375 Q765.426,502.2344 764.7854,502.375 Q764.1447,502.5313 763.4416,502.5313 Q760.9416,502.5313 759.6135,500.8906 Q758.301,499.2344 758.301,496.1094 Q758.301,492.9844 759.6135,491.3281 Q760.9416,489.6719 763.4416,489.6719 Q764.1447,489.6719 764.7854,489.8281 Q765.4416,489.9844 766.0041,490.2813 L766.0041,493 Q765.3791,492.4219 764.7854,492.1563 Q764.1916,491.875 763.5666,491.875 Q762.2229,491.875 761.5354,492.9531 Q760.8479,494.0156 760.8479,496.1094 Q760.8479,498.2031 761.5354,499.2813 Q762.2229,500.3438 763.5666,500.3438 Q764.1916,500.3438 764.7854,500.0781 Q765.3791,499.7969 766.0041,499.2188 L766.0041,501.9375 Z " fill="#000000"/><text fill="#000000" font-family="sans-serif" font-size="14" lengthAdjust="spacing" textLength="364" x="777.0354" y="501.1436">nablarch.common.web.session.SessionStoreHandler</text></g></a><!--class C_nablarch_fw_ExecutionContext--><a href="/viewer/?module=nablarch-core&amp;class=nablarch.fw.ExecutionContext" target="_top" title="/viewer/?module=nablarch-core&amp;class=nablarch.fw.ExecutionContext" xlink:actuate="onRequest" xlink:href="/viewer/?module=nablarch-core&amp;class=nablarch.fw.ExecutionContext" xlink:show="new" xlink:title="/viewer/?module=nablarch-core&amp;class=nablarch.fw.ExecutionContext" xlink:type="simple"><g id="elem_C_nablarch_fw_ExecutionContext"><rect codeLine="23" fill="#F1F1F1" height="32" id="C_nablarch_fw_ExecutionContext" rx="2.5" ry="2.5" style="stroke:#181818;stroke-width:0.5;" width="236" x="1651.0354" y="310.2969"/><ellipse cx="1666.0354" cy="326.2969" fill="#ADD1B2" rx="11" ry="11" style="stroke:#181818;stroke-width:1.0;"/><path d="M1669.0041,331.9375 Q1668.426,332.2344 1667.7854,332.375 Q1667.1447,332.5313 1666.4416,332.5313 Q1663.9416,332.5313 1662.6135,330.8906 Q1661.301,329.2344 1661.301,326.1094 Q1661.301,322.9844 1662.6135,321.3281 Q1663.9416,319.6719 1666.4416,319.6719 Q1667.1447,319.6719 1667.7854,319.8281 Q1668.4416,319.9844 1669.0041,320.2813 L1669.0041,323 Q1668.3791,322.4219 1667.7854,322.1563 Q1667.1916,321.875 1666.5666,321.875 Q1665.2229,321.875 1664.5354,322.9531 Q1663.8479,324.0156 1663.8479,326.1094 Q1663.8479,328.2031 1664.5354,329.2813 Q1665.2229,330.3438 1666.5666,330.3438 Q1667.1916,330.3438 1667.7854,330.0781 Q1668.3791,329.7969 1669.0041,329.2188 L1669.0041,331.9375 Z " fill="#000000"/><text fill="#000000" font-family="sans-serif" font-size="14" lengthAdjust="spacing" textLength="204" x="1680.0354" y="331.1436">nablarch.fw.ExecutionContext</text></g></a><!--class C_nablarch_fw_web_servlet_ServletExecutionContext--><a href="/viewer/?module=nablarch-fw-web&amp;class=nablarch.fw.web.servlet.ServletExecutionContext" target="_top" title="/viewer/?module=nablarch-fw-web&amp;class=nablarch.fw.web.servlet.ServletExecutionContext" xlink:actuate="onRequest" xlink:href="/viewer/?module=nablarch-fw-web&amp;class=nablarch.fw.web.servlet.ServletExecutionContext" xlink:show="new" xlink:title="/viewer/?module=nablarch-fw-web&amp;class=nablarch.fw.web.servlet.ServletExecutionContext" xlink:type="simple"><g id="elem_C_nablarch_fw_web_servlet_ServletExecutionContext"><rect codeLine="25" fill="#F1F1F1" height="32" id="C_nablarch_fw_web_servlet_ServletExecutionContext" rx="2.5" ry="2.5" style="stroke:#181818;stroke-width:0.5;" width="366" x="1655.0354" y="565.2969"/><ellipse cx="1670.0354" cy="581.2969" fill="#ADD1B2" rx="11" ry="11" style="stroke:#181818;stroke-width:1.0;"/><path d="M1673.0041,586.9375 Q1672.426,587.2344 1671.7854,587.375 Q1671.1447,587.5313 1670.4416,587.5313 Q1667.9416,587.5313 1666.6135,585.8906 Q1665.301,584.2344 1665.301,581.1094 Q1665.301,577.9844 1666.6135,576.3281 Q1667.9416,574.6719 1670.4416,574.6719 Q1671.1447,574.6719 1671.7854,574.8281 Q1672.4416,574.9844 1673.0041,575.2813 L1673.0041,578 Q1672.3791,577.4219 1671.7854,577.1563 Q1671.1916,576.875 1670.5666,576.875 Q1669.2229,576.875 1668.5354,577.9531 Q1667.8479,579.0156 1667.8479,581.1094 Q1667.8479,583.2031 1668.5354,584.2813 Q1669.2229,585.3438 1670.5666,585.3438 Q1671.1916,585.3438 1671.7854,585.0781 Q1672.3791,584.7969 1673.0041,584.2188 L1673.0041,586.9375 Z " fill="#000000"/><text fill="#000000" font-family="sans-serif" font-size="14" lengthAdjust="spacing" textLength="334" x="1684.0354" y="586.1436">nablarch.fw.web.servlet.ServletExecutionContext</text></g></a><!--class C_nablarch_common_web_session_DbManagedExpiration--><a href="/viewer/?module=nablarch-fw-web-dbstore&amp;class=nablarch.common.web.session.DbManagedExpiration" target="_top" title="/viewer/?module=nablarch-fw-web-dbstore&amp;class=nablarch.common.web.session.DbManagedExpiration" xlink:actuate="onRequest" xlink:href="/viewer/?module=nablarch-fw-web-dbstore&amp;class=nablarch.common.web.session.DbManagedExpiration" xlink:show="new" xlink:title="/viewer/?module=nablarch-fw-web-dbstore&amp;class=nablarch.common.web.session.DbManagedExpiration" xlink:type="simple"><g id="elem_C_nablarch_common_web_session_DbManagedExpiration"><rect codeLine="27" fill="#F1F1F1" height="32" id="C_nablarch_common_web_session_DbManagedExpiration" rx="2.5" ry="2.5" style="stroke:#181818;stroke-width:0.5;" width="402" x="574.0354" y="650.2969"/><ellipse cx="589.0354" cy="666.2969" fill="#ADD1B2" rx="11" ry="11" style="stroke:#181818;stroke-width:1.0;"/><path d="M592.0041,671.9375 Q591.426,672.2344 590.7854,672.375 Q590.1447,672.5313 589.4416,672.5313 Q586.9416,672.5313 585.6135,670.8906 Q584.301,669.2344 584.301,666.1094 Q584.301,662.9844 585.6135,661.3281 Q586.9416,659.6719 589.4416,659.6719 Q590.1447,659.6719 590.7854,659.8281 Q591.4416,659.9844 592.0041,660.2813 L592.0041,663 Q591.3791,662.4219 590.7854,662.1563 Q590.1916,661.875 589.5666,661.875 Q588.2229,661.875 587.5354,662.9531 Q586.8479,664.0156 586.8479,666.1094 Q586.8479,668.2031 587.5354,669.2813 Q588.2229,670.3438 589.5666,670.3438 Q590.1916,670.3438 590.7854,670.0781 Q591.3791,669.7969 592.0041,669.2188 L592.0041,671.9375 Z " fill="#000000"/><text fill="#000000" font-family="sans-serif" font-size="14" lengthAdjust="spacing" textLength="370" x="603.0354" y="671.1436">nablarch.common.web.session.DbManagedExpiration</text></g></a><!--class C_nablarch_fw_Handler--><a href="/viewer/?module=nablarch-core&amp;class=nablarch.fw.Handler" target="_top" title="/viewer/?module=nablarch-core&amp;class=nablarch.fw.Handler" xlink:actuate="onRequest" xlink:href="/viewer/?module=nablarch-core&amp;class=nablarch.fw.Handler" xlink:show="new" xlink:title="/viewer/?module=nablarch-core&amp;class=nablarch.fw.Handler" xlink:type="simple"><g id="elem_C_nablarch_fw_Handler"><rect codeLine="29" fill="#F1F1F1" height="32" id="C_nablarch_fw_Handler" rx="2.5" ry="2.5" style="stroke:#181818;stroke-width:0.5;" width="168" x="968.0354" y="395.2969"/><ellipse cx="983.0354" cy="411.2969" fill="#B4A7E5" rx="11" ry="11" style="stroke:#181818;stroke-width:1.0;"/><path d="M978.9572,407.0625 L978.9572,404.9063 L986.3479,404.9063 L986.3479,407.0625 L983.8791,407.0625 L983.8791,415.1406 L986.3479,415.1406 L986.3479,417.2969 L978.9572,417.2969 L978.9572,415.1406 L981.426,415.1406 L981.426,407.0625 L978.9572,407.0625 Z " fill="#000000"/><text fill="#000000" font-family="sans-serif" font-size="14" font-style="italic" lengthAdjust="spacing" textLength="136" x="997.0354" y="416.1436">nablarch.fw.Handler</text></g></a><!--class C_nablarch_fw_HandlerQueueManager--><a href="/viewer/?module=nablarch-core&amp;class=nablarch.fw.HandlerQueueManager" target="_top" title="/viewer/?module=nablarch-core&amp;class=nablarch.fw.HandlerQueueManager" xlink:actuate="onRequest" xlink:href="/viewer/?module=nablarch-core&amp;class=nablarch.fw.HandlerQueueManager" xlink:show="new" xlink:title="/viewer/?module=nablarch-core&amp;class=nablarch.fw.HandlerQueueManager" xlink:type="simple"><g id="elem_C_nablarch_fw_HandlerQueueManager"><rect codeLine="31" fill="#F1F1F1" height="32" id="C_nablarch_fw_HandlerQueueManager" rx="2.5" ry="2.5" style="stroke:#181818;stroke-width:0.5;" width="275" x="1285.5354" y="395.2969"/><ellipse cx="1300.5354" cy="411.2969" fill="#A9DCDF" rx="11" ry="11" style="stroke:#181818;stroke-width:1.0;"/><path d="M1300.6447,406.6406 L1299.4885,411.7188 L1301.8166,411.7188 L1300.6447,406.6406 Z M1299.1604,404.4063 L1302.1447,404.4063 L1305.5041,416.7969 L1303.051,416.7969 L1302.2854,413.7344 L1299.0041,413.7344 L1298.2541,416.7969 L1295.8166,416.7969 L1299.1604,404.4063 Z " fill="#000000"/><text fill="#000000" font-family="sans-serif" font-size="14" font-style="italic" lengthAdjust="spacing" textLength="243" x="1314.5354" y="416.1436">nablarch.fw.HandlerQueueManager</text></g></a><!--class C_nablarch_fw_StandaloneExecutionContext--><a href="/viewer/?module=nablarch-fw-standalone&amp;class=nablarch.fw.StandaloneExecutionContext" target="_top" title="/viewer/?module=nablarch-fw-standalone&amp;class=nablarch.fw.StandaloneExecutionContext" xlink:actuate="onRequest" xlink:href="/viewer/?module=nablarch-fw-standalone&amp;class=nablarch.fw.StandaloneExecutionContext" xlink:show="new" xlink:title="/viewer/?module=nablarch-fw-standalone&amp;class=nablarch.fw.StandaloneExecutionContext" xlink:type="simple"><g id="elem_C_nablarch_fw_StandaloneExecutionContext"><rect codeLine="33" fill="#F1F1F1" height="32" id="C_nablarch_fw_StandaloneExecutionContext" rx="2.5" ry="2.5" style="stroke:#181818;stroke-width:0.5;" width="314" x="1579.0354" y="395.2969"/><ellipse cx="1594.0354" cy="411.2969" fill="#ADD1B2" rx="11" ry="11" style="stroke:#181818;stroke-width:1.0;"/><path d="M1597.0041,416.9375 Q1596.426,417.2344 1595.7854,417.375 Q1595.1447,417.5313 1594.4416,417.5313 Q1591.9416,417.5313 1590.6135,415.8906 Q1589.301,414.2344 1589.301,411.1094 Q1589.301,407.9844 1590.6135,406.3281 Q1591.9416,404.6719 1594.4416,404.6719 Q1595.1447,404.6719 1595.7854,404.8281 Q1596.4416,404.9844 1597.0041,405.2813 L1597.0041,408 Q1596.3791,407.4219 1595.7854,407.1563 Q1595.1916,406.875 1594.5666,406.875 Q1593.2229,406.875 1592.5354,407.9531 Q1591.8479,409.0156 1591.8479,411.1094 Q1591.8479,413.2031 1592.5354,414.2813 Q1593.2229,415.3438 1594.5666,415.3438 Q1595.1916,415.3438 1595.7854,415.0781 Q1596.3791,414.7969 1597.0041,414.2188 L1597.0041,416.9375 Z " fill="#000000"/><text fill="#000000" font-family="sans-serif" font-size="14" lengthAdjust="spacing" textLength="282" x="1608.0354" y="416.1436">nablarch.fw.StandaloneExecutionContext</text></g></a><!--class C_nablarch_fw_web_servlet_MockServletExecutionContext--><a href="/viewer/?module=nablarch-testing&amp;class=nablarch.fw.web.servlet.MockServletExecutionContext" target="_top" title="/viewer/?module=nablarch-testing&amp;class=nablarch.fw.web.servlet.MockServletExecutionContext" xlink:actuate="onRequest" xlink:href="/viewer/?module=nablarch-testing&amp;class=nablarch.fw.web.servlet.MockServletExecutionContext" xlink:show="new" xlink:title="/viewer/?module=nablarch-testing&amp;class=nablarch.fw.web.servlet.MockServletExecutionContext" xlink:type="simple"><g id="elem_C_nablarch_fw_web_servlet_MockServletExecutionContext"><rect codeLine="35" fill="#F1F1F1" height="32" id="C_nablarch_fw_web_servlet_MockServletExecutionContext" rx="2.5" ry="2.5" style="stroke:#181818;stroke-width:0.5;" width="403" x="1666.5354" y="650.2969"/><ellipse cx="1681.5354" cy="666.2969" fill="#ADD1B2" rx="11" ry="11" style="stroke:#181818;stroke-width:1.0;"/><path d="M1684.5041,671.9375 Q1683.926,672.2344 1683.2854,672.375 Q1682.6447,672.5313 1681.9416,672.5313 Q1679.4416,672.5313 1678.1135,670.8906 Q1676.801,669.2344 1676.801,666.1094 Q1676.801,662.9844 1678.1135,661.3281 Q1679.4416,659.6719 1681.9416,659.6719 Q1682.6447,659.6719 1683.2854,659.8281 Q1683.9416,659.9844 1684.5041,660.2813 L1684.5041,663 Q1683.8791,662.4219 1683.2854,662.1563 Q1682.6916,661.875 1682.0666,661.875 Q1680.7229,661.875 1680.0354,662.9531 Q1679.3479,664.0156 1679.3479,666.1094 Q1679.3479,668.2031 1680.0354,669.2813 Q1680.7229,670.3438 1682.0666,670.3438 Q1682.6916,670.3438 1683.2854,670.0781 Q1683.8791,669.7969 1684.5041,669.2188 L1684.5041,671.9375 Z " fill="#000000"/><text fill="#000000" font-family="sans-serif" font-size="14" lengthAdjust="spacing" textLength="371" x="1695.5354" y="671.1436">nablarch.fw.web.servlet.MockServletExecutionContext</text></g></a><!--class C_nablarch_integration_redisstore_lettuce_LettuceRedisManagedExpiration--><a href="/viewer/?module=nablarch-lettuce-adaptor&amp;class=nablarch.integration.redisstore.lettuce.LettuceRedisManagedExpiration" target="_top" title="/viewer/?module=nablarch-lettuce-adaptor&amp;class=nablarch.integration.redisstore.lettuce.LettuceRedisManagedExpiration" xlink:actuate="onRequest" xlink:href="/viewer/?module=nablarch-lettuce-adaptor&amp;class=nablarch.integration.redisstore.lettuce.LettuceRedisManagedExpiration" xlink:show="new" xlink:title="/viewer/?module=nablarch-lettuce-adaptor&amp;class=nablarch.integration.redisstore.lettuce.LettuceRedisManagedExpiration" xlink:type="simple"><g id="elem_C_nablarch_integration_redisstore_lettuce_LettuceRedisManagedExpiration"><rect codeLine="37" fill="#F1F1F1" height="32" id="C_nablarch_integration_redisstore_lettuce_LettuceRedisManagedExpiration" rx="2.5" ry="2.5" style="stroke:#181818;stroke-width:0.5;" width="521" x="34.5354" y="650.2969"/><ellipse cx="49.5354" cy="666.2969" fill="#ADD1B2" rx="11" ry="11" style="stroke:#181818;stroke-width:1.0;"/><path d="M52.5041,671.9375 Q51.926,672.2344 51.2854,672.375 Q50.6447,672.5313 49.9416,672.5313 Q47.4416,672.5313 46.1135,670.8906 Q44.801,669.2344 44.801,666.1094 Q44.801,662.9844 46.1135,661.3281 Q47.4416,659.6719 49.9416,659.6719 Q50.6447,659.6719 51.2854,659.8281 Q51.9416,659.9844 52.5041,660.2813 L52.5041,663 Q51.8791,662.4219 51.2854,662.1563 Q50.6916,661.875 50.0666,661.875 Q48.7229,661.875 48.0354,662.9531 Q47.3479,664.0156 47.3479,666.1094 Q47.3479,668.2031 48.0354,669.2813 Q48.7229,670.3438 50.0666,670.3438 Q50.6916,670.3438 51.2854,670.0781 Q51.8791,669.7969 52.5041,669.2188 L52.5041,671.9375 Z " fill="#000000"/><text fill="#000000" font-family="sans-serif" font-size="14" lengthAdjust="spacing" textLength="489" x="63.5354" y="671.1436">nablarch.integration.redisstore.lettuce.LettuceRedisManagedExpiration</text></g></a><!--class C_nablarch_common_handler_TransactionManagementHandler_1--><a href="/viewer/?module=nablarch-core-transaction&amp;class=nablarch.common.handler.TransactionManagementHandler%241" target="_top" title="/viewer/?module=nablarch-core-transaction&amp;class=nablarch.common.handler.TransactionManagementHandler%241" xlink:actuate="onRequest" xlink:href="/viewer/?module=nablarch-core-transaction&amp;class=nablarch.common.handler.TransactionManagementHandler%241" xlink:show="new" xlink:title="/viewer/?module=nablarch-core-transaction&amp;class=nablarch.common.handler.TransactionManagementHandler%241" xlink:type="simple"><g id="elem_C_nablarch_common_handler_TransactionManagementHandler_1"><rect codeLine="39" fill="#F1F1F1" height="32" id="C_nablarch_common_handler_TransactionManagementHandler_1" rx="2.5" ry="2.5" style="stroke:#181818;stroke-width:0.5;" width="459" x="2408.5354" y="168.2969"/><ellipse cx="2423.5354" cy="184.2969" fill="#ADD1B2" rx="11" ry="11" style="stroke:#181818;stroke-width:1.0;"/><path d="M2426.5041,189.9375 Q2425.926,190.2344 2425.2854,190.375 Q2424.6447,190.5313 2423.9416,190.5313 Q2421.4416,190.5313 2420.1135,188.8906 Q2418.801,187.2344 2418.801,184.1094 Q2418.801,180.9844 2420.1135,179.3281 Q2421.4416,177.6719 2423.9416,177.6719 Q2424.6447,177.6719 2425.2854,177.8281 Q2425.9416,177.9844 2426.5041,178.2813 L2426.5041,181 Q2425.8791,180.4219 2425.2854,180.1563 Q2424.6916,179.875 2424.0666,179.875 Q2422.7229,179.875 2422.0354,180.9531 Q2421.3479,182.0156 2421.3479,184.1094 Q2421.3479,186.2031 2422.0354,187.2813 Q2422.7229,188.3438 2424.0666,188.3438 Q2424.6916,188.3438 2425.2854,188.0781 Q2425.8791,187.7969 2426.5041,187.2188 L2426.5041,189.9375 Z " fill="#000000"/><text fill="#000000" font-family="sans-serif" font-size="14" lengthAdjust="spacing" textLength="427" x="2437.5354" y="189.1436">nablarch.common.handler.TransactionManagementHandler$1</text></g></a><!--class C_nablarch_common_web_session_Session--><a href="/viewer/?module=nablarch-fw-web&amp;class=nablarch.common.web.session.Session" target="_top" title="/viewer/?module=nablarch-fw-web&amp;class=nablarch.common.web.session.Session" xlink:actuate="onRequest" xlink:href="/viewer/?module=nablarch-fw-web&amp;class=nablarch.common.web.session.Session" xlink:show="new" xlink:title="/viewer/?module=nablarch-fw-web&amp;class=nablarch.common.web.session.Session" xlink:type="simple"><g id="elem_C_nablarch_common_web_session_Session"><rect codeLine="41" fill="#F1F1F1" height="32" id="C_nablarch_common_web_session_Session" rx="2.5" ry="2.5" style="stroke:#181818;stroke-width:0.5;" width="306" x="994.0354" y="650.2969"/><ellipse cx="1009.0354" cy="666.2969" fill="#ADD1B2" rx="11" ry="11" style="stroke:#181818;stroke-width:1.0;"/><path d="M1012.0041,671.9375 Q1011.426,672.2344 1010.7854,672.375 Q1010.1447,672.5313 1009.4416,672.5313 Q1006.9416,672.5313 1005.6135,670.8906 Q1004.301,669.2344 1004.301,666.1094 Q1004.301,662.9844 1005.6135,661.3281 Q1006.9416,659.6719 1009.4416,659.6719 Q1010.1447,659.6719 1010.7854,659.8281 Q1011.4416,659.9844 1012.0041,660.2813 L1012.0041,663 Q1011.3791,662.4219 1010.7854,662.1563 Q1010.1916,661.875 1009.5666,661.875 Q1008.2229,661.875 1007.5354,662.9531 Q1006.8479,664.0156 1006.8479,666.1094 Q1006.8479,668.2031 1007.5354,669.2813 Q1008.2229,670.3438 1009.5666,670.3438 Q1010.1916,670.3438 1010.7854,670.0781 Q1011.3791,669.7969 1012.0041,669.2188 L1012.0041,671.9375 Z " fill="#000000"/><text fill="#000000" font-family="sans-serif" font-size="14" lengthAdjust="spacing" textLength="274" x="1023.0354" y="671.1436">nablarch.common.web.session.Session</text></g></a><!--class C_nablarch_common_web_session_SessionManager--><a href="/viewer/?module=nablarch-fw-web&amp;class=nablarch.common.web.session.SessionManager" target="_top" title="/viewer/?module=nablarch-fw-web&amp;class=nablarch.common.web.session.SessionManager" xlink:actuate="onRequest" xlink:href="/viewer/?module=nablarch-fw-web&amp;class=nablarch.common.web.session.SessionManager" xlink:show="new" xlink:title="/viewer/?module=nablarch-fw-web&amp;class=nablarch.common.web.session.SessionManager" xlink:type="simple"><g id="elem_C_nablarch_common_web_session_SessionManager"><rect codeLine="43" fill="#F1F1F1" height="32" id="C_nablarch_common_web_session_SessionManager" rx="2.5" ry="2.5" style="stroke:#181818;stroke-width:0.5;" width="366" x="745.0354" y="565.2969"/><ellipse cx="760.0354" cy="581.2969" fill="#ADD1B2" rx="11" ry="11" style="stroke:#181818;stroke-width:1.0;"/><path d="M763.0041,586.9375 Q762.426,587.2344 761.7854,587.375 Q761.1447,587.5313 760.4416,587.5313 Q757.9416,587.5313 756.6135,585.8906 Q755.301,584.2344 755.301,581.1094 Q755.301,577.9844 756.6135,576.3281 Q757.9416,574.6719 760.4416,574.6719 Q761.1447,574.6719 761.7854,574.8281 Q762.4416,574.9844 763.0041,575.2813 L763.0041,578 Q762.3791,577.4219 761.7854,577.1563 Q761.1916,576.875 760.5666,576.875 Q759.2229,576.875 758.5354,577.9531 Q757.8479,579.0156 757.8479,581.1094 Q757.8479,583.2031 758.5354,584.2813 Q759.2229,585.3438 760.5666,585.3438 Q761.1916,585.3438 761.7854,585.0781 Q762.3791,584.7969 763.0041,584.2188 L763.0041,586.9375 Z " fill="#000000"/><text fill="#000000" font-family="sans-serif" font-size="14" lengthAdjust="spacing" textLength="334" x="774.0354" y="586.1436">nablarch.common.web.session.SessionManager</text></g></a><!--class C_nablarch_core_log_Logger--><a href="/viewer/?module=nablarch-core&amp;class=nablarch.core.log.Logger" target="_top" title="/viewer/?module=nablarch-core&amp;class=nablarch.core.log.Logger" xlink:actuate="onRequest" xlink:href="/viewer/?module=nablarch-core&amp;class=nablarch.core.log.Logger" xlink:show="new" xlink:title="/viewer/?module=nablarch-core&amp;class=nablarch.core.log.Logger" xlink:type="simple"><g id="elem_C_nablarch_core_log_Logger"><rect codeLine="45" fill="#F1F1F1" height="32" id="C_nablarch_core_log_Logger" rx="2.5" ry="2.5" style="stroke:#181818;stroke-width:0.5;" width="204" x="1623.0354" y="905.2969"/><ellipse cx="1638.0354" cy="921.2969" fill="#B4A7E5" rx="11" ry="11" style="stroke:#181818;stroke-width:1.0;"/><path d="M1633.9572,917.0625 L1633.9572,914.9063 L1641.3479,914.9063 L1641.3479,917.0625 L1638.8791,917.0625 L1638.8791,925.1406 L1641.3479,925.1406 L1641.3479,927.2969 L1633.9572,927.2969 L1633.9572,925.1406 L1636.426,925.1406 L1636.426,917.0625 L1633.9572,917.0625 Z " fill="#000000"/><text fill="#000000" font-family="sans-serif" font-size="14" font-style="italic" lengthAdjust="spacing" textLength="172" x="1652.0354" y="926.1436">nablarch.core.log.Logger</text></g></a><!--class C_nablarch_fw_DataReader--><a href="/viewer/?module=nablarch-core&amp;class=nablarch.fw.DataReader" target="_top" title="/viewer/?module=nablarch-core&amp;class=nablarch.fw.DataReader" xlink:actuate="onRequest" xlink:href="/viewer/?module=nablarch-core&amp;class=nablarch.fw.DataReader" xlink:show="new" xlink:title="/viewer/?module=nablarch-core&amp;class=nablarch.fw.DataReader" xlink:type="simple"><g id="elem_C_nablarch_fw_DataReader"><rect codeLine="47" fill="#F1F1F1" height="32" id="C_nablarch_fw_DataReader" rx="2.5" ry="2.5" style="stroke:#181818;stroke-width:0.5;" width="196" x="1911.0354" y="395.2969"/><ellipse cx="1926.0354" cy="411.2969" fill="#B4A7E5" rx="11" ry="11" style="stroke:#181818;stroke-width:1.0;"/><path d="M1921.9572,407.0625 L1921.9572,404.9063 L1929.3479,404.9063 L1929.3479,407.0625 L1926.8791,407.0625 L1926.8791,415.1406 L1929.3479,415.1406 L1929.3479,417.2969 L1921.9572,417.2969 L1921.9572,415.1406 L1924.426,415.1406 L1924.426,407.0625 L1921.9572,407.0625 Z " fill="#000000"/><text fill="#000000" font-family="sans-serif" font-size="14" font-style="italic" lengthAdjust="spacing" textLength="164" x="1940.0354" y="416.1436">nablarch.fw.DataReader</text></g></a><!--class C_nablarch_fw_DataReaderFactory--><a href="/viewer/?module=nablarch-core&amp;class=nablarch.fw.DataReaderFactory" target="_top" title="/viewer/?module=nablarch-core&amp;class=nablarch.fw.DataReaderFactory" xlink:actuate="onRequest" xlink:href="/viewer/?module=nablarch-core&amp;class=nablarch.fw.DataReaderFactory" xlink:show="new" xlink:title="/viewer/?module=nablarch-core&amp;class=nablarch.fw.DataReaderFactory" xlink:type="simple"><g id="elem_C_nablarch_fw_DataReaderFactory"><rect codeLine="49" fill="#F1F1F1" height="32" id="C_nablarch_fw_DataReaderFactory" rx="2.5" ry="2.5" style="stroke:#181818;stroke-width:0.5;" width="247" x="2125.5354" y="395.2969"/><ellipse cx="2140.5354" cy="411.2969" fill="#B4A7E5" rx="11" ry="11" style="stroke:#181818;stroke-width:1.0;"/><path d="M2136.4572,407.0625 L2136.4572,404.9063 L2143.8479,404.9063 L2143.8479,407.0625 L2141.3791,407.0625 L2141.3791,415.1406 L2143.8479,415.1406 L2143.8479,417.2969 L2136.4572,417.2969 L2136.4572,415.1406 L2138.926,415.1406 L2138.926,407.0625 L2136.4572,407.0625 Z " fill="#000000"/><text fill="#000000" font-family="sans-serif" font-size="14" font-style="italic" lengthAdjust="spacing" textLength="215" x="2154.5354" y="416.1436">nablarch.fw.DataReaderFactory</text></g></a><!--class C_nablarch_fw_handler_LoopHandler_1--><a href="/viewer/?module=nablarch-fw-standalone&amp;class=nablarch.fw.handler.LoopHandler%241" target="_top" title="/viewer/?module=nablarch-fw-standalone&amp;class=nablarch.fw.handler.LoopHandler%241" xlink:actuate="onRequest" xlink:href="/viewer/?module=nablarch-fw-standalone&amp;class=nablarch.fw.handler.LoopHandler%241" xlink:show="new" xlink:title="/viewer/?module=nablarch-fw-standalone&amp;class=nablarch.fw.handler.LoopHandler%241" xlink:type="simple"><g id="elem_C_nablarch_fw_handler_LoopHandler_1"><rect codeLine="51" fill="#F1F1F1" height="32" id="C_nablarch_fw_handler_LoopHandler_1" rx="2.5" ry="2.5" style="stroke:#181818;stroke-width:0.5;" width="275" x="881.5354" y="168.2969"/><ellipse cx="896.5354" cy="184.2969" fill="#ADD1B2" rx="11" ry="11" style="stroke:#181818;stroke-width:1.0;"/><path d="M899.5041,189.9375 Q898.926,190.2344 898.2854,190.375 Q897.6447,190.5313 896.9416,190.5313 Q894.4416,190.5313 893.1135,188.8906 Q891.801,187.2344 891.801,184.1094 Q891.801,180.9844 893.1135,179.3281 Q894.4416,177.6719 896.9416,177.6719 Q897.6447,177.6719 898.2854,177.8281 Q898.9416,177.9844 899.5041,178.2813 L899.5041,181 Q898.8791,180.4219 898.2854,180.1563 Q897.6916,179.875 897.0666,179.875 Q895.7229,179.875 895.0354,180.9531 Q894.3479,182.0156 894.3479,184.1094 Q894.3479,186.2031 895.0354,187.2813 Q895.7229,188.3438 897.0666,188.3438 Q897.6916,188.3438 898.2854,188.0781 Q898.8791,187.7969 899.5041,187.2188 L899.5041,189.9375 Z " fill="#000000"/><text fill="#000000" font-family="sans-serif" font-size="14" lengthAdjust="spacing" textLength="243" x="910.5354" y="189.1436">nablarch.fw.handler.LoopHandler$1</text></g></a><!--class C_nablarch_fw_handler_LoopHandler_TransactionExecutorImpl--><a href="/viewer/?module=nablarch-fw-standalone&amp;class=nablarch.fw.handler.LoopHandler%24TransactionExecutorImpl" target="_top" title="/viewer/?module=nablarch-fw-standalone&amp;class=nablarch.fw.handler.LoopHandler%24TransactionExecutorImpl" xlink:actuate="onRequest" xlink:href="/viewer/?module=nablarch-fw-standalone&amp;class=nablarch.fw.handler.LoopHandler%24TransactionExecutorImpl" xlink:show="new" xlink:title="/viewer/?module=nablarch-fw-standalone&amp;class=nablarch.fw.handler.LoopHandler%24TransactionExecutorImpl" xlink:type="simple"><g id="elem_C_nablarch_fw_handler_LoopHandler_TransactionExecutorImpl"><rect codeLine="53" fill="#F1F1F1" height="32" id="C_nablarch_fw_handler_LoopHandler_TransactionExecutorImpl" rx="2.5" ry="2.5" style="stroke:#181818;stroke-width:0.5;" width="436" x="1175.0354" y="168.2969"/><ellipse cx="1190.0354" cy="184.2969" fill="#ADD1B2" rx="11" ry="11" style="stroke:#181818;stroke-width:1.0;"/><path d="M1193.0041,189.9375 Q1192.426,190.2344 1191.7854,190.375 Q1191.1447,190.5313 1190.4416,190.5313 Q1187.9416,190.5313 1186.6135,188.8906 Q1185.301,187.2344 1185.301,184.1094 Q1185.301,180.9844 1186.6135,179.3281 Q1187.9416,177.6719 1190.4416,177.6719 Q1191.1447,177.6719 1191.7854,177.8281 Q1192.4416,177.9844 1193.0041,178.2813 L1193.0041,181 Q1192.3791,180.4219 1191.7854,180.1563 Q1191.1916,179.875 1190.5666,179.875 Q1189.2229,179.875 1188.5354,180.9531 Q1187.8479,182.0156 1187.8479,184.1094 Q1187.8479,186.2031 1188.5354,187.2813 Q1189.2229,188.3438 1190.5666,188.3438 Q1191.1916,188.3438 1191.7854,188.0781 Q1192.3791,187.7969 1193.0041,187.2188 L1193.0041,189.9375 Z " fill="#000000"/><text fill="#000000" font-family="sans-serif" font-size="14" lengthAdjust="spacing" textLength="404" x="1204.0354" y="189.1436">nablarch.fw.handler.LoopHandler$TransactionExecutorImpl</text></g></a><!--class C_nablarch_fw_handler_MultiThreadExecutionHandler_1--><a href="/viewer/?module=nablarch-fw-standalone&amp;class=nablarch.fw.handler.MultiThreadExecutionHandler%241" target="_top" title="/viewer/?module=nablarch-fw-standalone&amp;class=nablarch.fw.handler.MultiThreadExecutionHandler%241" xlink:actuate="onRequest" xlink:href="/viewer/?module=nablarch-fw-standalone&amp;class=nablarch.fw.handler.MultiThreadExecutionHandler%241" xlink:show="new" xlink:title="/viewer/?module=nablarch-fw-standalone&amp;class=nablarch.fw.handler.MultiThreadExecutionHandler%241" xlink:type="simple"><g id="elem_C_nablarch_fw_handler_MultiThreadExecutionHandler_1"><rect codeLine="55" fill="#F1F1F1" height="32" id="C_nablarch_fw_handler_MultiThreadExecutionHandler_1" rx="2.5" ry="2.5" style="stroke:#181818;stroke-width:0.5;" width="390" x="1629.0354" y="168.2969"/><ellipse cx="1644.0354" cy="184.2969" fill="#ADD1B2" rx="11" ry="11" style="stroke:#181818;stroke-width:1.0;"/><path d="M1647.0041,189.9375 Q1646.426,190.2344 1645.7854,190.375 Q1645.1447,190.5313 1644.4416,190.5313 Q1641.9416,190.5313 1640.6135,188.8906 Q1639.301,187.2344 1639.301,184.1094 Q1639.301,180.9844 1640.6135,179.3281 Q1641.9416,177.6719 1644.4416,177.6719 Q1645.1447,177.6719 1645.7854,177.8281 Q1646.4416,177.9844 1647.0041,178.2813 L1647.0041,181 Q1646.3791,180.4219 1645.7854,180.1563 Q1645.1916,179.875 1644.5666,179.875 Q1643.2229,179.875 1642.5354,180.9531 Q1641.8479,182.0156 1641.8479,184.1094 Q1641.8479,186.2031 1642.5354,187.2813 Q1643.2229,188.3438 1644.5666,188.3438 Q1645.1916,188.3438 1645.7854,188.0781 Q1646.3791,187.7969 1647.0041,187.2188 L1647.0041,189.9375 Z " fill="#000000"/><text fill="#000000" font-family="sans-serif" font-size="14" lengthAdjust="spacing" textLength="358" x="1658.0354" y="189.1436">nablarch.fw.handler.MultiThreadExecutionHandler$1</text></g></a><!--class C_nablarch_fw_invoker_AsyncHandlerListInvoker_1--><a href="/viewer/?module=nablarch-fw&amp;class=nablarch.fw.invoker.AsyncHandlerListInvoker%241" target="_top" title="/viewer/?module=nablarch-fw&amp;class=nablarch.fw.invoker.AsyncHandlerListInvoker%241" xlink:actuate="onRequest" xlink:href="/viewer/?module=nablarch-fw&amp;class=nablarch.fw.invoker.AsyncHandlerListInvoker%241" xlink:show="new" xlink:title="/viewer/?module=nablarch-fw&amp;class=nablarch.fw.invoker.AsyncHandlerListInvoker%241" xlink:type="simple"><g id="elem_C_nablarch_fw_invoker_AsyncHandlerListInvoker_1"><rect codeLine="57" fill="#F1F1F1" height="32" id="C_nablarch_fw_invoker_AsyncHandlerListInvoker_1" rx="2.5" ry="2.5" style="stroke:#181818;stroke-width:0.5;" width="353" x="2037.5354" y="168.2969"/><ellipse cx="2052.5354" cy="184.2969" fill="#ADD1B2" rx="11" ry="11" style="stroke:#181818;stroke-width:1.0;"/><path d="M2055.5041,189.9375 Q2054.926,190.2344 2054.2854,190.375 Q2053.6447,190.5313 2052.9416,190.5313 Q2050.4416,190.5313 2049.1135,188.8906 Q2047.801,187.2344 2047.801,184.1094 Q2047.801,180.9844 2049.1135,179.3281 Q2050.4416,177.6719 2052.9416,177.6719 Q2053.6447,177.6719 2054.2854,177.8281 Q2054.9416,177.9844 2055.5041,178.2813 L2055.5041,181 Q2054.8791,180.4219 2054.2854,180.1563 Q2053.6916,179.875 2053.0666,179.875 Q2051.7229,179.875 2051.0354,180.9531 Q2050.3479,182.0156 2050.3479,184.1094 Q2050.3479,186.2031 2051.0354,187.2813 Q2051.7229,188.3438 2053.0666,188.3438 Q2053.6916,188.3438 2054.2854,188.0781 Q2054.8791,187.7969 2055.5041,187.2188 L2055.5041,189.9375 Z " fill="#000000"/><text fill="#000000" font-family="sans-serif" font-size="14" lengthAdjust="spacing" textLength="321" x="2066.5354" y="189.1436">nablarch.fw.invoker.AsyncHandlerListInvoker$1</text></g></a><!--class C_nablarch_fw_jaxrs_JaxRsAccessLogFormatter_JaxRsAccessLogContext--><a href="/viewer/?module=nablarch-fw-jaxrs&amp;class=nablarch.fw.jaxrs.JaxRsAccessLogFormatter%24JaxRsAccessLogContext" target="_top" title="/viewer/?module=nablarch-fw-jaxrs&amp;class=nablarch.fw.jaxrs.JaxRsAccessLogFormatter%24JaxRsAccessLogContext" xlink:actuate="onRequest" xlink:href="/viewer/?module=nablarch-fw-jaxrs&amp;class=nablarch.fw.jaxrs.JaxRsAccessLogFormatter%24JaxRsAccessLogContext" xlink:show="new" xlink:title="/viewer/?module=nablarch-fw-jaxrs&amp;class=nablarch.fw.jaxrs.JaxRsAccessLogFormatter%24JaxRsAccessLogContext" xlink:type="simple"><g id="elem_C_nablarch_fw_jaxrs_JaxRsAccessLogFormatter_JaxRsAccessLogContext"><rect codeLine="59" fill="#F1F1F1" height="32" id="C_nablarch_fw_jaxrs_JaxRsAccessLogFormatter_JaxRsAccessLogContext" rx="2.5" ry="2.5" style="stroke:#181818;stroke-width:0.5;" width="501" x="1311.5354" y="480.2969"/><ellipse cx="1326.5354" cy="496.2969" fill="#ADD1B2" rx="11" ry="11" style="stroke:#181818;stroke-width:1.0;"/><path d="M1329.5041,501.9375 Q1328.926,502.2344 1328.2854,502.375 Q1327.6447,502.5313 1326.9416,502.5313 Q1324.4416,502.5313 1323.1135,500.8906 Q1321.801,499.2344 1321.801,496.1094 Q1321.801,492.9844 1323.1135,491.3281 Q1324.4416,489.6719 1326.9416,489.6719 Q1327.6447,489.6719 1328.2854,489.8281 Q1328.9416,489.9844 1329.5041,490.2813 L1329.5041,493 Q1328.8791,492.4219 1328.2854,492.1563 Q1327.6916,491.875 1327.0666,491.875 Q1325.7229,491.875 1325.0354,492.9531 Q1324.3479,494.0156 1324.3479,496.1094 Q1324.3479,498.2031 1325.0354,499.2813 Q1325.7229,500.3438 1327.0666,500.3438 Q1327.6916,500.3438 1328.2854,500.0781 Q1328.8791,499.7969 1329.5041,499.2188 L1329.5041,501.9375 Z " fill="#000000"/><text fill="#000000" font-family="sans-serif" font-size="14" lengthAdjust="spacing" textLength="469" x="1340.5354" y="501.1436">nablarch.fw.jaxrs.JaxRsAccessLogFormatter$JaxRsAccessLogContext</text></g></a><!--class C_nablarch_fw_web_handler_HttpAccessLogFormatter_HttpAccessLogContext--><a href="/viewer/?module=nablarch-fw-web&amp;class=nablarch.fw.web.handler.HttpAccessLogFormatter%24HttpAccessLogContext" target="_top" title="/viewer/?module=nablarch-fw-web&amp;class=nablarch.fw.web.handler.HttpAccessLogFormatter%24HttpAccessLogContext" xlink:actuate="onRequest" xlink:href="/viewer/?module=nablarch-fw-web&amp;class=nablarch.fw.web.handler.HttpAccessLogFormatter%24HttpAccessLogContext" xlink:show="new" xlink:title="/viewer/?module=nablarch-fw-web&amp;class=nablarch.fw.web.handler.HttpAccessLogFormatter%24HttpAccessLogContext" xlink:type="simple"><g id="elem_C_nablarch_fw_web_handler_HttpAccessLogFormatter_HttpAccessLogContext"><rect codeLine="61" fill="#F1F1F1" height="32" id="C_nablarch_fw_web_handler_HttpAccessLogFormatter_HttpAccessLogContext" rx="2.5" ry="2.5" style="stroke:#181818;stroke-width:0.5;" width="541" x="1869.5354" y="480.2969"/><ellipse cx="1884.5354" cy="496.2969" fill="#ADD1B2" rx="11" ry="11" style="stroke:#181818;stroke-width:1.0;"/><path d="M1887.5041,501.9375 Q1886.926,502.2344 1886.2854,502.375 Q1885.6447,502.5313 1884.9416,502.5313 Q1882.4416,502.5313 1881.1135,500.8906 Q1879.801,499.2344 1879.801,496.1094 Q1879.801,492.9844 1881.1135,491.3281 Q1882.4416,489.6719 1884.9416,489.6719 Q1885.6447,489.6719 1886.2854,489.8281 Q1886.9416,489.9844 1887.5041,490.2813 L1887.5041,493 Q1886.8791,492.4219 1886.2854,492.1563 Q1885.6916,491.875 1885.0666,491.875 Q1883.7229,491.875 1883.0354,492.9531 Q1882.3479,494.0156 1882.3479,496.1094 Q1882.3479,498.2031 1883.0354,499.2813 Q1883.7229,500.3438 1885.0666,500.3438 Q1885.6916,500.3438 1886.2854,500.0781 Q1886.8791,499.7969 1887.5041,499.2188 L1887.5041,501.9375 Z " fill="#000000"/><text fill="#000000" font-family="sans-serif" font-size="14" lengthAdjust="spacing" textLength="509" x="1898.5354" y="501.1436">nablarch.fw.web.handler.HttpAccessLogFormatter$HttpAccessLogContext</text></g></a><!--class C_nablarch_fw_web_servlet_HttpRequestWrapper--><a href="/viewer/?module=nablarch-fw-web&amp;class=nablarch.fw.web.servlet.HttpRequestWrapper" target="_top" title="/viewer/?module=nablarch-fw-web&amp;class=nablarch.fw.web.servlet.HttpRequestWrapper" xlink:actuate="onRequest" xlink:href="/viewer/?module=nablarch-fw-web&amp;class=nablarch.fw.web.servlet.HttpRequestWrapper" xlink:show="new" xlink:title="/viewer/?module=nablarch-fw-web&amp;class=nablarch.fw.web.servlet.HttpRequestWrapper" xlink:type="simple"><g id="elem_C_nablarch_fw_web_servlet_HttpRequestWrapper"><rect codeLine="63" fill="#F1F1F1" height="32" id="C_nablarch_fw_web_servlet_HttpRequestWrapper" rx="2.5" ry="2.5" style="stroke:#181818;stroke-width:0.5;" width="343" x="1473.5354" y="735.2969"/><ellipse cx="1488.5354" cy="751.2969" fill="#ADD1B2" rx="11" ry="11" style="stroke:#181818;stroke-width:1.0;"/><path d="M1491.5041,756.9375 Q1490.926,757.2344 1490.2854,757.375 Q1489.6447,757.5313 1488.9416,757.5313 Q1486.4416,757.5313 1485.1135,755.8906 Q1483.801,754.2344 1483.801,751.1094 Q1483.801,747.9844 1485.1135,746.3281 Q1486.4416,744.6719 1488.9416,744.6719 Q1489.6447,744.6719 1490.2854,744.8281 Q1490.9416,744.9844 1491.5041,745.2813 L1491.5041,748 Q1490.8791,747.4219 1490.2854,747.1563 Q1489.6916,746.875 1489.0666,746.875 Q1487.7229,746.875 1487.0354,747.9531 Q1486.3479,749.0156 1486.3479,751.1094 Q1486.3479,753.2031 1487.0354,754.2813 Q1487.7229,755.3438 1489.0666,755.3438 Q1489.6916,755.3438 1490.2854,755.0781 Q1490.8791,754.7969 1491.5041,754.2188 L1491.5041,756.9375 Z " fill="#000000"/><text fill="#000000" font-family="sans-serif" font-size="14" lengthAdjust="spacing" textLength="311" x="1502.5354" y="756.1436">nablarch.fw.web.servlet.HttpRequestWrapper</text></g></a><!--class C_nablarch_fw_web_servlet_NablarchHttpServletRequestWrapper--><a href="/viewer/?module=nablarch-fw-web&amp;class=nablarch.fw.web.servlet.NablarchHttpServletRequestWrapper" target="_top" title="/viewer/?module=nablarch-fw-web&amp;class=nablarch.fw.web.servlet.NablarchHttpServletRequestWrapper" xlink:actuate="onRequest" xlink:href="/viewer/?module=nablarch-fw-web&amp;class=nablarch.fw.web.servlet.NablarchHttpServletRequestWrapper" xlink:show="new" xlink:title="/viewer/?module=nablarch-fw-web&amp;class=nablarch.fw.web.servlet.NablarchHttpServletRequestWrapper" xlink:type="simple"><g id="elem_C_nablarch_fw_web_servlet_NablarchHttpServletRequestWrapper"><rect codeLine="65" fill="#F1F1F1" height="32" id="C_nablarch_fw_web_servlet_NablarchHttpServletRequestWrapper" rx="2.5" ry="2.5" style="stroke:#181818;stroke-width:0.5;" width="450" x="1500.0354" y="820.2969"/><ellipse cx="1515.0354" cy="836.2969" fill="#ADD1B2" rx="11" ry="11" style="stroke:#181818;stroke-width:1.0;"/><path d="M1518.0041,841.9375 Q1517.426,842.2344 1516.7854,842.375 Q1516.1447,842.5313 1515.4416,842.5313 Q1512.9416,842.5313 1511.6135,840.8906 Q1510.301,839.2344 1510.301,836.1094 Q1510.301,832.9844 1511.6135,831.3281 Q1512.9416,829.6719 1515.4416,829.6719 Q1516.1447,829.6719 1516.7854,829.8281 Q1517.4416,829.9844 1518.0041,830.2813 L1518.0041,833 Q1517.3791,832.4219 1516.7854,832.1563 Q1516.1916,831.875 1515.5666,831.875 Q1514.2229,831.875 1513.5354,832.9531 Q1512.8479,834.0156 1512.8479,836.1094 Q1512.8479,838.2031 1513.5354,839.2813 Q1514.2229,840.3438 1515.5666,840.3438 Q1516.1916,840.3438 1516.7854,840.0781 Q1517.3791,839.7969 1518.0041,839.2188 L1518.0041,841.9375 Z " fill="#000000"/><text fill="#000000" font-family="sans-serif" font-size="14" lengthAdjust="spacing" textLength="418" x="1529.0354" y="841.1436">nablarch.fw.web.servlet.NablarchHttpServletRequestWrapper</text></g></a><polygon fill="none" points="569.0354,564.9993,575.0354,546.9993,563.0354,546.9993,569.0354,564.9993" style="stroke:#181818;stroke-width:1.0;"/><path d="M569.0354,546.9993 C569.0354,530.3456 569.0354,520.9288 569.0354,497.2969 C569.0354,325.2969 569.0354,325.2969 569.0354,325.2969 C569.0354,302.4558 575.0109,278.6757 582.8304,257.3355 " fill="none" style="stroke:#181818;stroke-width:1.0;stroke-dasharray:7.0,7.0;"/><polygon fill="#181818" points="1650.9356,321.5906,1642.086,317.2681,1645.9389,321.41,1641.797,325.2629,1650.9356,321.5906" style="stroke:#181818;stroke-width:1.0;"/><path d="M852.261,253.6821 C858.9051,254.9826 865.5063,256.1927 872.0354,257.2969 C1008.5504,280.3842 1047.0677,249.1783 1183.0354,275.2969 C1206.4991,279.8041 1210.5802,287.7452 1234.0354,292.2969 C1310.9442,307.2218 1512.1238,316.5727 1644.9395,321.3739 " fill="none" style="stroke:#181818;stroke-width:1.0;stroke-dasharray:7.0,7.0;"/><text fill="#000000" font-family="sans-serif" font-size="13" lengthAdjust="spacing" textLength="55" x="1235.0354" y="288.3638">depends</text><polygon fill="#181818" points="1678.9635,565.2752,1670.394,560.421,1673.9871,564.7902,1669.6179,568.3833,1678.9635,565.2752" style="stroke:#181818;stroke-width:1.0;"/><path d="M852.2821,252.3534 C986.1303,292.3509 1132.6177,339.3151 1158.0354,360.2969 C1184.2687,381.9521 1177.5627,398.1105 1195.0354,427.2969 C1218.1478,465.9039 1211.812,488.5551 1250.0354,512.2969 C1268.19,523.5733 1505.1308,548.3319 1672.9918,564.6931 " fill="none" style="stroke:#181818;stroke-width:1.0;stroke-dasharray:7.0,7.0;"/><text fill="#000000" font-family="sans-serif" font-size="13" lengthAdjust="spacing" textLength="55" x="1196.0354" y="415.8638">depends</text><polygon fill="none" points="1032.5933,427.5204,1014.722,433.8934,1022.1201,443.3416,1032.5933,427.5204" style="stroke:#181818;stroke-width:1.0;"/><path d="M1018.421,438.6175 C999.2952,453.5934 984.4373,465.2275 965.3541,480.1699 " fill="none" style="stroke:#181818;stroke-width:1.0;stroke-dasharray:7.0,7.0;"/><polygon fill="#181818" points="937.6984,565.0992,945.5052,559.0948,940.082,560.704,938.4728,555.2809,937.6984,565.0992" style="stroke:#181818;stroke-width:1.0;"/><path d="M947.4916,512.4105 C948.0332,522.4539 947.932,535.8498 945.0354,547.2969 C943.486,553.4197 943.492,554.4164 940.5588,559.8249 " fill="none" style="stroke:#181818;stroke-width:1.0;stroke-dasharray:7.0,7.0;"/><text fill="#000000" font-family="sans-serif" font-size="13" lengthAdjust="spacing" textLength="30" x="949.0354" y="543.3638">uses</text><polygon fill="#181818" points="900.9264,565.248,895.915,556.7695,896.8534,562.348,891.2749,563.2864,900.9264,565.248" style="stroke:#181818;stroke-width:1.0;"/><path d="M902.6804,512.462 C895.2466,517.0316 888.4927,522.875 884.0354,530.2969 C876.2961,543.1835 882.8758,552.3957 896.0388,561.768 " fill="none" style="stroke:#181818;stroke-width:1.0;stroke-dasharray:7.0,7.0;"/><text fill="#000000" font-family="sans-serif" font-size="13" lengthAdjust="spacing" textLength="55" x="885.0354" y="543.3638">depends</text><polygon fill="#181818" points="610.1827,565.2052,619.9997,565.9968,614.9002,563.5483,617.3487,558.4488,610.1827,565.2052" style="stroke:#181818;stroke-width:1.0;"/><path d="M822.3294,512.318 C790.7438,517.1186 756.9753,523.0981 726.0354,530.2969 C686.0539,539.5994 647.225,552.1953 615.8437,563.2169 " fill="none" style="stroke:#181818;stroke-width:1.0;stroke-dasharray:7.0,7.0;"/><text fill="#000000" font-family="sans-serif" font-size="13" lengthAdjust="spacing" textLength="30" x="727.0354" y="543.3638">uses</text><polygon fill="#181818" points="665.0317,565.2708,674.5796,567.6868,669.9593,564.423,673.2231,559.8026,665.0317,565.2708" style="stroke:#181818;stroke-width:1.0;"/><path d="M888.7678,512.3454 C867.4918,517.9547 843.1548,524.3928 821.0354,530.2969 C793.0149,537.7761 786.3491,541.0185 758.0354,547.2969 C727.9553,553.9669 700.8504,559.1078 670.9448,564.2534 " fill="none" style="stroke:#181818;stroke-width:1.0;stroke-dasharray:7.0,7.0;"/><text fill="#000000" font-family="sans-serif" font-size="13" lengthAdjust="spacing" textLength="55" x="822.0354" y="543.3638">depends</text><polygon fill="#181818" points="594.4618,257.4746,588.6273,265.4093,593.3911,262.3587,596.4417,267.1224,594.4618,257.4746" style="stroke:#181818;stroke-width:1.0;"/><path d="M788.6007,480.2795 C721.5135,465.1774 649.3278,435.4491 608.0354,377.2969 C583.7757,343.132 584.6606,302.1822 593.177,263.3355 " fill="none" style="stroke:#181818;stroke-width:1.0;stroke-dasharray:7.0,7.0;"/><text fill="#000000" font-family="sans-serif" font-size="13" lengthAdjust="spacing" textLength="55" x="609.0354" y="373.3638">depends</text><polygon fill="#181818" points="1650.7957,327.5311,1641.7653,323.6,1645.7958,327.5693,1641.8265,331.5998,1650.7957,327.5311" style="stroke:#181818;stroke-width:1.0;"/><path d="M930.1562,480.2472 C909.9298,459.2732 880.082,420.9468 902.0354,395.2969 C949.7424,339.5568 1418.8311,329.3048 1644.7958,327.5769 " fill="none" style="stroke:#181818;stroke-width:1.0;stroke-dasharray:7.0,7.0;"/><text fill="#000000" font-family="sans-serif" font-size="13" lengthAdjust="spacing" textLength="55" x="903.0354" y="415.8638">depends</text><polygon fill="#181818" points="1147.0092,650.1028,1150.6521,640.9525,1146.8125,645.1067,1142.6583,641.2671,1147.0092,650.1028" style="stroke:#181818;stroke-width:1.0;"/><path d="M1027.5795,512.3679 C1060.4198,522.2968 1096.1095,538.6141 1120.0354,565.2969 C1141.5248,589.2625 1145.9271,622.609 1146.7732,644.1075 " fill="none" style="stroke:#181818;stroke-width:1.0;stroke-dasharray:7.0,7.0;"/><text fill="#000000" font-family="sans-serif" font-size="13" lengthAdjust="spacing" textLength="55" x="1139.0354" y="585.8638">depends</text><polygon fill="#181818" points="1654.6965,575.1272,1645.8492,570.7998,1649.6999,574.9438,1645.5559,578.7945,1654.6965,575.1272" style="stroke:#181818;stroke-width:1.0;"/><path d="M1144.1315,511.9432 C1178.3708,516.5033 1213.4257,522.4762 1246.0354,530.2969 C1266.8254,535.2829 1270.1287,542.8248 1291.0354,547.2969 C1358.1356,561.65 1517.2968,570.0855 1648.7005,574.9072 " fill="none" style="stroke:#181818;stroke-width:1.0;stroke-dasharray:7.0,7.0;"/><text fill="#000000" font-family="sans-serif" font-size="13" lengthAdjust="spacing" textLength="55" x="1292.0354" y="543.3638">depends</text><polygon fill="#181818" points="1540.4419,820.2563,1532.0446,815.1099,1535.4852,819.6002,1530.9949,823.0408,1540.4419,820.2563" style="stroke:#181818;stroke-width:1.0;"/><path d="M1043.8355,512.307 C1092.5661,522.5303 1151.1498,539.1085 1199.0354,565.2969 C1314.6397,628.5203 1321.2864,675.7315 1416.0354,767.2969 C1433.2638,783.9464 1435.1061,792.6464 1457.0354,802.2969 C1473.7159,809.6375 1499.0366,814.7759 1534.4938,819.469 " fill="none" style="stroke:#181818;stroke-width:1.0;stroke-dasharray:7.0,7.0;"/><text fill="#000000" font-family="sans-serif" font-size="13" lengthAdjust="spacing" textLength="55" x="1339.0354" y="670.8638">depends</text><polygon fill="none" points="1485.8109,395.238,1504.7139,396.8737,1501.9147,385.2047,1485.8109,395.238" style="stroke:#181818;stroke-width:1.0;"/><path d="M1503.3143,391.0392 C1565.8676,376.0336 1643.8653,357.3232 1706.3774,342.3275 " fill="none" style="stroke:#181818;stroke-width:1.0;"/><polygon fill="#181818" points="1442.1213,395.2093,1451.7401,393.0931,1446.1473,392.2443,1446.9961,386.6515,1442.1213,395.2093" style="stroke:#181818;stroke-width:1.0;"/><path d="M1650.7868,331.1718 C1604.0443,335.4771 1550.5006,343.9408 1504.0354,360.2969 C1481.1205,368.3631 1462.6452,380.094 1446.9525,391.6513 " fill="none" style="stroke:#181818;stroke-width:1.0;stroke-dasharray:7.0,7.0;"/><text fill="#000000" font-family="sans-serif" font-size="13" lengthAdjust="spacing" textLength="55" x="1505.0354" y="373.3638">depends</text><polygon fill="#181818" points="1965.4917,395.238,1958.2933,388.5161,1960.7663,393.6038,1955.6786,396.0768,1965.4917,395.238" style="stroke:#181818;stroke-width:1.0;"/><path d="M1812.4975,342.3275 C1855.8585,357.3232 1916.4316,378.2714 1959.8212,393.277 " fill="none" style="stroke:#181818;stroke-width:1.0;stroke-dasharray:7.0,7.0;"/><text fill="#000000" font-family="sans-serif" font-size="13" lengthAdjust="spacing" textLength="30" x="1911.0354" y="373.3638">uses</text><polygon fill="#181818" points="1994.4115,395.2182,1990.6607,386.1115,1990.7938,391.7668,1985.1385,391.8999,1994.4115,395.2182" style="stroke:#181818;stroke-width:1.0;"/><path d="M1887.1903,341.0326 C1907.3511,345.6936 1927.6887,351.9362 1946.0354,360.2969 C1964.5867,368.7509 1978.1278,379.6832 1990.0703,391.0765 " fill="none" style="stroke:#181818;stroke-width:1.0;stroke-dasharray:7.0,7.0;"/><text fill="#000000" font-family="sans-serif" font-size="13" lengthAdjust="spacing" textLength="55" x="1973.0354" y="373.3638">depends</text><polygon fill="#181818" points="2191.1547,395.1875,2183.4015,389.114,2186.3056,393.9685,2181.4511,396.8726,2191.1547,395.1875" style="stroke:#181818;stroke-width:1.0;"/><path d="M1887.0468,339.4143 C1932.7964,344.7998 1985.5117,351.8494 2033.0354,360.2969 C2087.0393,369.8962 2142.0301,382.8384 2185.3357,393.7247 " fill="none" style="stroke:#181818;stroke-width:1.0;stroke-dasharray:7.0,7.0;"/><text fill="#000000" font-family="sans-serif" font-size="13" lengthAdjust="spacing" textLength="30" x="2111.0354" y="373.3638">uses</text><polygon fill="#181818" points="2224.6477,395.2926,2218.8459,387.3339,2220.3152,392.7966,2214.8525,394.2659,2224.6477,395.2926" style="stroke:#181818;stroke-width:1.0;"/><path d="M1887.3,332.9662 C1979.2861,338.2492 2098.9352,347.2808 2146.0354,360.2969 C2174.3913,368.133 2199.1872,380.6249 2219.4487,392.2975 " fill="none" style="stroke:#181818;stroke-width:1.0;stroke-dasharray:7.0,7.0;"/><text fill="#000000" font-family="sans-serif" font-size="13" lengthAdjust="spacing" textLength="55" x="2190.0354" y="373.3638">depends</text><polygon fill="#181818" points="1827.3879,919.9097,1836.4282,923.8178,1832.3877,919.8587,1836.3467,915.8182,1827.3879,919.9097" style="stroke:#181818;stroke-width:1.0;"/><path d="M1887.4279,328.6458 C2096.9147,332.6223 2511.0354,348.3209 2511.0354,410.2969 C2511.0354,410.2969 2511.0354,410.2969 2511.0354,837.2969 C2511.0354,905.2622 2046.2516,917.6799 1833.3876,919.8486 " fill="none" style="stroke:#181818;stroke-width:1.0;stroke-dasharray:7.0,7.0;"/><text fill="#000000" font-family="sans-serif" font-size="13" lengthAdjust="spacing" textLength="30" x="2512.0354" y="628.3638">uses</text><polygon fill="#181818" points="1622.9701,920.7345,1613.9601,916.757,1617.9701,920.747,1613.9801,924.757,1622.9701,920.7345" style="stroke:#181818;stroke-width:1.0;"/><path d="M1651.0196,328.0979 C1455.1684,330.0803 1071.3608,336.9131 938.0354,360.2969 C911.8257,364.8938 43.9599,631.5903 25.0354,650.2969 C5.8939,669.2178 6.0354,680.8823 6.0354,707.7969 C6.0354,707.7969 6.0354,707.7969 6.0354,837.2969 C6.0354,918.7392 1247.298,921.673 1616.9701,920.7495 " fill="none" style="stroke:#181818;stroke-width:1.0;stroke-dasharray:7.0,7.0;"/><text fill="#000000" font-family="sans-serif" font-size="13" lengthAdjust="spacing" textLength="55" x="117.0354" y="628.3638">depends</text><polygon fill="#181818" points="1083.9868,395.2573,1093.8357,395.2785,1088.5603,393.2365,1090.6023,387.9611,1083.9868,395.2573" style="stroke:#181818;stroke-width:1.0;"/><path d="M1650.7359,329.8079 C1506.567,333.5994 1271.6095,342.34 1186.0354,360.2969 C1149.9478,367.8695 1116.1258,381.0562 1089.475,392.8323 " fill="none" style="stroke:#181818;stroke-width:1.0;stroke-dasharray:7.0,7.0;"/><text fill="#000000" font-family="sans-serif" font-size="13" lengthAdjust="spacing" textLength="55" x="1187.0354" y="373.3638">depends</text><polygon fill="none" points="1887.0368,331.4383,1904.7635,338.203,1905.2771,326.214,1887.0368,331.4383" style="stroke:#181818;stroke-width:1.0;"/><path d="M1905.0203,332.2085 C2074.6448,339.474 2352.4078,356.7897 2382.0354,395.2969 C2390.708,406.5688 2391.5695,416.7436 2382.0354,427.2969 C2304.0207,513.6504 1948.2923,403.294 1861.0354,480.2969 C1836.8591,501.632 1835.372,542.7873 1836.5758,565.0704 " fill="none" style="stroke:#181818;stroke-width:1.0;"/><polygon fill="#181818" points="1887.2939,329.7669,1896.183,334.0077,1892.2921,329.9015,1896.3983,326.0106,1887.2939,329.7669" style="stroke:#181818;stroke-width:1.0;"/><path d="M2021.1543,571.033 C2181.7571,560.9716 2393.7277,542.2066 2420.0354,512.2969 C2429.4283,501.6178 2421.7535,494.4149 2420.0354,480.2969 C2415.3343,441.6682 2424.3111,424.8842 2399.0354,395.2969 C2373.0315,364.8573 2355.0188,369.4105 2316.0354,360.2969 C2237.5229,341.942 2029.1773,333.5877 1893.2917,329.9284 " fill="none" style="stroke:#181818;stroke-width:1.0;stroke-dasharray:7.0,7.0;"/><text fill="#000000" font-family="sans-serif" font-size="13" lengthAdjust="spacing" textLength="55" x="2419.0354" y="458.3638">depends</text><polygon fill="#181818" points="1950.2175,824.9763,1959.4692,828.3538,1955.2059,824.6356,1958.9241,820.3723,1950.2175,824.9763" style="stroke:#181818;stroke-width:1.0;"/><path d="M2021.2122,591.5237 C2060.7348,596.4201 2095.5992,603.8949 2112.0354,615.2969 C2152.6013,643.4381 2167.7151,669.3269 2156.0354,717.2969 C2145.9719,758.6286 2147.4042,778.6616 2112.0354,802.2969 C2097.0204,812.3306 2032.7916,819.3367 1956.2036,824.5675 " fill="none" style="stroke:#181818;stroke-width:1.0;stroke-dasharray:7.0,7.0;"/><text fill="#000000" font-family="sans-serif" font-size="13" lengthAdjust="spacing" textLength="30" x="2160.0354" y="713.3638">uses</text><polygon fill="#181818" points="1835.5046,820.2672,1845.1425,822.2947,1840.3939,819.2206,1843.468,814.4719,1835.5046,820.2672" style="stroke:#181818;stroke-width:1.0;"/><path d="M1990.1248,597.3609 C2054.8808,610.6242 2109.3322,635.5358 2079.0354,682.2969 C2025.8828,764.3341 1924.0837,801.306 1841.3717,819.0113 " fill="none" style="stroke:#181818;stroke-width:1.0;stroke-dasharray:7.0,7.0;"/><text fill="#000000" font-family="sans-serif" font-size="13" lengthAdjust="spacing" textLength="55" x="2066.0354" y="713.3638">depends</text><polygon fill="#181818" points="1598.9774,735.2934,1592.3695,727.9903,1594.4061,733.2678,1589.1285,735.3044,1598.9774,735.2934" style="stroke:#181818;stroke-width:1.0;"/><path d="M1658.8585,597.3393 C1624.0558,602.043 1593.3351,607.9728 1577.0354,615.2969 C1555.4881,624.9788 1546.7966,628.7854 1537.0354,650.2969 C1531.1585,663.2481 1531.1585,669.3457 1537.0354,682.2969 C1548.6172,707.8207 1569.6383,722.293 1593.4918,732.8627 " fill="none" style="stroke:#181818;stroke-width:1.0;stroke-dasharray:7.0,7.0;"/><text fill="#000000" font-family="sans-serif" font-size="13" lengthAdjust="spacing" textLength="30" x="1538.0354" y="670.8638">uses</text><polygon fill="#181818" points="1629.2795,735.2657,1625.9586,725.9936,1625.8271,731.649,1620.1718,731.5175,1629.2795,735.2657" style="stroke:#181818;stroke-width:1.0;"/><path d="M1744.4047,597.3471 C1686.0453,608.8547 1618.7765,626.7496 1601.0354,650.2969 C1580.8332,677.1105 1605.4578,710.3101 1625.1366,730.9256 " fill="none" style="stroke:#181818;stroke-width:1.0;stroke-dasharray:7.0,7.0;"/><text fill="#000000" font-family="sans-serif" font-size="13" lengthAdjust="spacing" textLength="55" x="1602.0354" y="670.8638">depends</text><polygon fill="none" points="606.3404,597.3275,620.7938,609.6197,625.2785,598.4892,606.3404,597.3275" style="stroke:#181818;stroke-width:1.0;"/><path d="M623.0362,604.0545 C660.2543,619.0501 700.4176,635.2324 737.6603,650.238 " fill="none" style="stroke:#181818;stroke-width:1.0;stroke-dasharray:7.0,7.0;"/><polygon fill="none" points="1759.3202,342.3347,1744.9707,354.748,1755.2886,360.8751,1759.3202,342.3347" style="stroke:#181818;stroke-width:1.0;"/><path d="M1750.1296,357.8116 C1746.8644,363.3101 1752.5958,354.2019 1750.0354,360.2969 C1745.2872,371.5996 1741.6327,385.0045 1739.25,395.0881 " fill="none" style="stroke:#181818;stroke-width:1.0;"/><polygon fill="#181818" points="1762.9826,342.5204,1755.9405,349.4057,1761.1353,347.1666,1763.3745,352.3614,1762.9826,342.5204" style="stroke:#181818;stroke-width:1.0;"/><path d="M1742.0497,395.1699 C1747.9907,380.2275 1754.8116,363.0717 1760.7659,348.0958 " fill="none" style="stroke:#181818;stroke-width:1.0;stroke-dasharray:7.0,7.0;"/><text fill="#000000" font-family="sans-serif" font-size="13" lengthAdjust="spacing" textLength="55" x="1756.0354" y="373.3638">depends</text><polygon fill="none" points="1840.5987,597.4874,1838.1482,616.3022,1849.9271,614.0095,1840.5987,597.4874" style="stroke:#181818;stroke-width:1.0;"/><path d="M1844.0377,615.1558 C1845.9989,625.2317 1845.674,620.9665 1850.0354,632.2969 C1852.3797,638.3873 1855.6391,644.7549 1858.741,650.254 " fill="none" style="stroke:#181818;stroke-width:1.0;"/><polygon fill="#181818" points="1843.5378,597.5204,1842.8353,607.3441,1845.2374,602.2226,1850.3589,604.6247,1843.5378,597.5204" style="stroke:#181818;stroke-width:1.0;"/><path d="M1862.5678,650.1699 C1857.1669,635.2275 1850.9903,618.1389 1845.5773,603.1631 " fill="none" style="stroke:#181818;stroke-width:1.0;stroke-dasharray:7.0,7.0;"/><text fill="#000000" font-family="sans-serif" font-size="13" lengthAdjust="spacing" textLength="55" x="1856.0354" y="628.3638">depends</text><polygon fill="#181818" points="1685.4947,735.238,1695.3247,735.8474,1690.1807,733.4939,1692.5341,728.3499,1685.4947,735.238" style="stroke:#181818;stroke-width:1.0;"/><path d="M1827.6517,682.3275 C1787.3622,697.3232 1731.434,718.1395 1691.1178,733.1451 " fill="none" style="stroke:#181818;stroke-width:1.0;stroke-dasharray:7.0,7.0;"/><text fill="#000000" font-family="sans-serif" font-size="13" lengthAdjust="spacing" textLength="30" x="1777.0354" y="713.3638">uses</text><polygon fill="#181818" points="1756.8803,820.147,1766.7012,819.4053,1761.2835,817.778,1762.9108,812.3603,1756.8803,820.147" style="stroke:#181818;stroke-width:1.0;"/><path d="M1864.5508,682.6322 C1859.1742,703.6006 1847.1976,741.5479 1826.0354,767.2969 C1807.2449,790.16 1784.084,805.5106 1762.1641,817.3042 " fill="none" style="stroke:#181818;stroke-width:1.0;stroke-dasharray:7.0,7.0;"/><text fill="#000000" font-family="sans-serif" font-size="13" lengthAdjust="spacing" textLength="30" x="1846.0354" y="755.8638">uses</text><polygon fill="none" points="519.416,597.3275,500.4496,596.8036,503.9285,608.2883,519.416,597.3275" style="stroke:#181818;stroke-width:1.0;"/><path d="M502.189,602.5459 C452.6853,617.5416 394.2842,635.2324 344.7477,650.238 " fill="none" style="stroke:#181818;stroke-width:1.0;stroke-dasharray:7.0,7.0;"/><polygon fill="#181818" points="1887.2099,319.1542,1896.4469,322.5716,1892.1997,318.8351,1895.9363,314.5879,1887.2099,319.1542" style="stroke:#181818;stroke-width:1.0;"/><path d="M2596.5089,200.4432 C2549.4836,216.9851 2470.2592,243.0209 2400.0354,257.2969 C2223.3624,293.2132 2020.7421,310.6137 1893.1977,318.7712 " fill="none" style="stroke:#181818;stroke-width:1.0;stroke-dasharray:7.0,7.0;"/><text fill="#000000" font-family="sans-serif" font-size="13" lengthAdjust="spacing" textLength="30" x="2298.0354" y="288.3638">uses</text><polygon fill="#181818" points="1887.0848,322.2524,1896.2031,325.9749,1892.0825,322.0993,1895.9581,317.9786,1887.0848,322.2524" style="stroke:#181818;stroke-width:1.0;"/><path d="M2605.0482,200.3188 C2550.0082,224.5884 2435.3722,271.7732 2333.0354,292.2969 C2250.8107,308.787 2032.7834,317.7876 1893.082,322.0686 " fill="none" style="stroke:#181818;stroke-width:1.0;stroke-dasharray:7.0,7.0;"/><text fill="#000000" font-family="sans-serif" font-size="13" lengthAdjust="spacing" textLength="55" x="2402.0354" y="288.3638">depends</text><polygon fill="#181818" points="1016.8431,597.3302,1024.6176,603.3765,1021.6965,598.5322,1026.5408,595.6111,1016.8431,597.3302" style="stroke:#181818;stroke-width:1.0;"/><path d="M1126.0748,650.0791 C1107.9953,637.1887 1083.1026,620.0629 1072.0354,615.2969 C1054.7213,607.8407 1041.3031,603.3882 1022.6672,598.7726 " fill="none" style="stroke:#181818;stroke-width:1.0;stroke-dasharray:7.0,7.0;"/><text fill="#000000" font-family="sans-serif" font-size="13" lengthAdjust="spacing" textLength="30" x="1102.0354" y="628.3638">uses</text><polygon fill="#181818" points="924.7585,597.361,919.6161,605.7608,924.1048,602.3181,927.5475,606.8067,924.7585,597.361" style="stroke:#181818;stroke-width:1.0;"/><path d="M1005.5511,650.2672 C968.9983,645.0364 938.1112,638.8298 932.0354,632.2969 C923.4953,623.1144 922.5128,614.3904 923.974,603.3095 " fill="none" style="stroke:#181818;stroke-width:1.0;stroke-dasharray:7.0,7.0;"/><text fill="#000000" font-family="sans-serif" font-size="13" lengthAdjust="spacing" textLength="55" x="933.0354" y="628.3638">depends</text><polygon fill="#181818" points="1650.7664,328.0106,1641.6642,324.249,1645.7681,328.1423,1641.8748,332.2462,1650.7664,328.0106" style="stroke:#181818;stroke-width:1.0;"/><path d="M1163.3979,650.2001 C1185.0671,629.2492 1222.8861,589.1831 1243.0354,547.2969 C1273.0028,485.0007 1226.4325,443.4468 1276.0354,395.2969 C1327.8405,345.0092 1516.1191,331.5574 1644.7684,328.1686 " fill="none" style="stroke:#181818;stroke-width:1.0;stroke-dasharray:7.0,7.0;"/><text fill="#000000" font-family="sans-serif" font-size="13" lengthAdjust="spacing" textLength="30" x="1255.0354" y="500.8638">uses</text><polygon fill="#181818" points="1060.9753,650.2098,1053.3236,644.0089,1056.147,648.9108,1051.2451,651.7342,1060.9753,650.2098" style="stroke:#181818;stroke-width:1.0;"/><path d="M958.07,597.3018 C968.1175,602.6461 979.2461,608.9267 989.0354,615.2969 C999.3924,622.0366 999.8978,626.9447 1011.0354,632.2969 C1026.5836,639.7686 1038.1745,644.0753 1055.1813,648.651 " fill="none" style="stroke:#181818;stroke-width:1.0;stroke-dasharray:7.0,7.0;"/><text fill="#000000" font-family="sans-serif" font-size="13" lengthAdjust="spacing" textLength="55" x="1012.0354" y="628.3638">depends</text><polygon fill="#181818" points="1650.7996,314.2163,1642.2223,309.3759,1645.8225,313.7393,1641.4591,317.3394,1650.7996,314.2163" style="stroke:#181818;stroke-width:1.0;"/><path d="M1043.2328,200.3044 C1071.5546,217.1063 1120.4045,243.749 1166.0354,257.2969 C1211.2616,270.7246 1482.4477,298.0811 1644.827,313.6439 " fill="none" style="stroke:#181818;stroke-width:1.0;stroke-dasharray:7.0,7.0;"/><text fill="#000000" font-family="sans-serif" font-size="13" lengthAdjust="spacing" textLength="30" x="1425.0354" y="288.3638">uses</text><polygon fill="#181818" points="1650.7288,316.558,1642.1649,311.6938,1645.7529,316.0671,1641.3796,319.6551,1650.7288,316.558" style="stroke:#181818;stroke-width:1.0;"/><path d="M1405.0235,200.4682 C1424.9801,224.5086 1467.5438,270.8263 1515.0354,292.2969 C1539.347,303.288 1590.706,310.6369 1644.7577,315.969 " fill="none" style="stroke:#181818;stroke-width:1.0;stroke-dasharray:7.0,7.0;"/><text fill="#000000" font-family="sans-serif" font-size="13" lengthAdjust="spacing" textLength="30" x="1516.0354" y="288.3638">uses</text><polygon fill="#181818" points="1728.6092,310.2446,1721.5707,303.3556,1723.9235,308.4999,1718.7792,310.8527,1728.6092,310.2446" style="stroke:#181818;stroke-width:1.0;"/><path d="M1433.6312,200.4123 C1505.9805,227.3509 1650.7593,281.2579 1722.9864,308.151 " fill="none" style="stroke:#181818;stroke-width:1.0;stroke-dasharray:7.0,7.0;"/><text fill="#000000" font-family="sans-serif" font-size="13" lengthAdjust="spacing" textLength="55" x="1679.0354" y="288.3638">depends</text><polygon fill="#181818" points="1767.336,310.1175,1770.7532,300.8805,1767.0167,305.1277,1762.7695,301.3913,1767.336,310.1175" style="stroke:#181818;stroke-width:1.0;"/><path d="M1811.5683,200.3759 C1798.3794,217.3678 1778.3502,246.4037 1770.0354,275.2969 C1766.7698,286.6443 1766.3086,294.0586 1766.9529,304.1298 " fill="none" style="stroke:#181818;stroke-width:1.0;stroke-dasharray:7.0,7.0;"/><text fill="#000000" font-family="sans-serif" font-size="13" lengthAdjust="spacing" textLength="30" x="1771.0354" y="288.3638">uses</text><polygon fill="#181818" points="1787.9605,310.0993,1797.2034,306.6979,1791.5471,306.6156,1791.6294,300.9593,1787.9605,310.0993" style="stroke:#181818;stroke-width:1.0;"/><path d="M1823.631,200.4026 C1822.4758,222.0048 1818.1342,262.4096 1802.0354,292.2969 C1798.5004,298.8595 1797.5481,300.7867 1792.2644,305.9189 " fill="none" style="stroke:#181818;stroke-width:1.0;stroke-dasharray:7.0,7.0;"/><text fill="#000000" font-family="sans-serif" font-size="13" lengthAdjust="spacing" textLength="55" x="1810.0354" y="288.3638">depends</text><polygon fill="#181818" points="1834.5519,310.2575,1844.2358,312.0527,1839.4146,309.0937,1842.3736,304.2725,1834.5519,310.2575" style="stroke:#181818;stroke-width:1.0;"/><path d="M2178.8052,200.3032 C2141.7122,215.7782 2081.4043,240.0221 2028.0354,257.2969 C1963.0174,278.3423 1893.1044,296.2432 1840.3871,308.8609 " fill="none" style="stroke:#181818;stroke-width:1.0;stroke-dasharray:7.0,7.0;"/><text fill="#000000" font-family="sans-serif" font-size="13" lengthAdjust="spacing" textLength="30" x="1965.0354" y="288.3638">uses</text><polygon fill="#181818" points="1787.9601,565.238,1780.4933,558.8156,1783.1719,563.7981,1778.1894,566.4767,1787.9601,565.238" style="stroke:#181818;stroke-width:1.0;"/><path d="M1612.0169,512.3275 C1661.882,527.3232 1732.3162,548.5045 1782.2143,563.5101 " fill="none" style="stroke:#181818;stroke-width:1.0;stroke-dasharray:7.0,7.0;"/><text fill="#000000" font-family="sans-serif" font-size="13" lengthAdjust="spacing" textLength="30" x="1725.0354" y="543.3638">uses</text><polygon fill="#181818" points="1689.4718,565.2967,1681.1658,560.0041,1684.5273,564.5539,1679.9774,567.9154,1689.4718,565.2967" style="stroke:#181818;stroke-width:1.0;"/><path d="M1573.4941,512.5979 C1583.014,524.1139 1597.6188,539.2443 1614.0354,547.2969 C1628.6814,554.481 1651.4433,559.5842 1683.5384,564.4054 " fill="none" style="stroke:#181818;stroke-width:1.0;stroke-dasharray:7.0,7.0;"/><text fill="#000000" font-family="sans-serif" font-size="13" lengthAdjust="spacing" textLength="55" x="1615.0354" y="543.3638">depends</text><polygon fill="#181818" points="1583.1518,820.2505,1574.8979,814.8771,1578.2148,819.4595,1573.6324,822.7763,1583.1518,820.2505" style="stroke:#181818;stroke-width:1.0;"/><path d="M1497.1955,512.3878 C1463.8133,524.4122 1430.0354,545.2405 1430.0354,580.2969 C1430.0354,580.2969 1430.0354,580.2969 1430.0354,752.2969 C1430.0354,787.2119 1501.6536,807.1933 1577.2274,819.3013 " fill="none" style="stroke:#181818;stroke-width:1.0;stroke-dasharray:7.0,7.0;"/><text fill="#000000" font-family="sans-serif" font-size="13" lengthAdjust="spacing" textLength="55" x="1431.0354" y="670.8638">depends</text><polygon fill="#181818" points="1892.8278,565.238,1902.5661,566.7099,1897.6491,563.913,1900.446,558.996,1892.8278,565.238" style="stroke:#181818;stroke-width:1.0;"/><path d="M2085.3454,512.3275 C2030.7829,527.3232 1953.2119,548.6424 1898.6133,563.648 " fill="none" style="stroke:#181818;stroke-width:1.0;stroke-dasharray:7.0,7.0;"/><text fill="#000000" font-family="sans-serif" font-size="13" lengthAdjust="spacing" textLength="30" x="2017.0354" y="543.3638">uses</text><polygon fill="#181818" points="1983.1055,565.2522,1992.6996,567.4782,1988.0153,564.3067,1991.1868,559.6225,1983.1055,565.2522" style="stroke:#181818;stroke-width:1.0;"/><path d="M2118.6761,512.3885 C2101.4803,523.7889 2076.2651,538.8661 2052.0354,547.2969 C2030.2003,554.8944 2012.3976,559.6115 1988.9973,564.1176 " fill="none" style="stroke:#181818;stroke-width:1.0;stroke-dasharray:7.0,7.0;"/><text fill="#000000" font-family="sans-serif" font-size="13" lengthAdjust="spacing" textLength="55" x="2088.0354" y="543.3638">depends</text><polygon fill="#181818" points="1721.0559,819.8745,1722.1557,810.0873,1719.5481,815.1073,1714.5281,812.4997,1721.0559,819.8745" style="stroke:#181818;stroke-width:1.0;"/><path d="M1679.8737,767.358 C1688.233,772.1783 1696.5942,778.1572 1703.0354,785.2969 C1711.9291,795.1551 1715.8655,803.4638 1719.2466,814.1539 " fill="none" style="stroke:#181818;stroke-width:1.0;stroke-dasharray:7.0,7.0;"/><text fill="#000000" font-family="sans-serif" font-size="13" lengthAdjust="spacing" textLength="30" x="1714.0354" y="798.3638">uses</text><polygon fill="#181818" points="1662.3553,820.197,1656.4667,812.3024,1657.9958,817.7487,1652.5495,819.2778,1662.3553,820.197" style="stroke:#181818;stroke-width:1.0;"/><path d="M1639.535,767.5861 C1636.7375,778.2134 1635.1994,792.2226 1642.0354,802.2969 C1647.1724,809.8676 1649.1188,812.7635 1657.1238,817.2591 " fill="none" style="stroke:#181818;stroke-width:1.0;stroke-dasharray:7.0,7.0;"/><text fill="#000000" font-family="sans-serif" font-size="13" lengthAdjust="spacing" textLength="55" x="1643.0354" y="798.3638">depends</text><polygon fill="#181818" points="1735.3356,905.1842,1743.2938,899.3818,1737.8312,900.8515,1736.3615,895.3889,1735.3356,905.1842" style="stroke:#181818;stroke-width:1.0;"/><path d="M1735.3356,852.4095 C1738.4469,857.8112 1741.4551,864.0997 1743.0354,870.2969 C1744.9022,877.6182 1744.9022,879.9756 1743.0354,887.2969 C1741.4551,893.4941 1741.4416,894.5833 1738.3303,899.985 " fill="none" style="stroke:#181818;stroke-width:1.0;stroke-dasharray:7.0,7.0;"/><text fill="#000000" font-family="sans-serif" font-size="13" lengthAdjust="spacing" textLength="30" x="1745.0354" y="883.3638">uses</text><polygon fill="#181818" points="1697.6204,905.2252,1692.956,896.5509,1693.668,902.1628,1688.0561,902.8747,1697.6204,905.2252" style="stroke:#181818;stroke-width:1.0;"/><path d="M1697.6204,852.3685 C1691.3626,857.2173 1685.5312,863.2073 1682.0354,870.2969 C1678.6939,877.0734 1678.6939,880.5204 1682.0354,887.2969 C1685.5312,894.3865 1686.6197,896.7016 1692.8775,901.5503 " fill="none" style="stroke:#181818;stroke-width:1.0;stroke-dasharray:7.0,7.0;"/><text fill="#000000" font-family="sans-serif" font-size="13" lengthAdjust="spacing" textLength="55" x="1683.0354" y="883.3638">depends</text><!--SRC=[pLbjRzis4FwkNy5rtT1XixeC-nIa7O8aHRCbtHO7s8gY46ZfR7EHH8saudXf__ieIuvbXs-Yv6nVue3aFVSSUNSydhue69vb6ALuIKk1U0O2vpWGHAI0SZn9COldOKopZERX0YOX1yw9_F-j4CMu_lzIIimWERih2CD23WJyXkG5PZX3SOevFnQ2aKafu3oc-PZy0-Zxrf82npTIVYoMKYM3M1AOfT1QC94BPeoMUN92KyhGOav4UvxFSK8N99-XAKvvUoObEOXb0OWoCQV1d2I082l44cMGJO3n85WHHCzyJNs6C4SdqLeygiKZAHuruf5977tuyFAMm0BOovyocfGfl5f3ZQQBaOJvUaNmbI-_Zn_HbnTaDXVl8Ktf0jq7Q8JkkP2JyMTqzkTlvrV7r-U_lejEZw_Feb_EtgD3D9QdbSy2XC8mGD-Y8v8JyVh5DtBcbfAa6Y9yfG6I5_NQxr1AgxzdTn2NbTeJcWku4vNCXD8KS5w9SNmB6sgdMC0roS01OwFt50ImZ5JRiH4qgVqSv5G04hH0TDhdf0uHPe9CSImEqSuP1KIgPN8Ap8xKoMq6Tf8jbxYNs-BW-CrUZ0Lby1RdIGhCWRX2QX0B5BWQKwQBSDSbTdbF5z7k4XF9MEhSfQZGekTJ6y9kKn3IaDMl0yLwMrUh8urKzwrrO-Fk9QSJdwoeaBARCaecN2YEmerLOv8gMEMUQ1nSdeA34slyOzjDiIJFPFv02lzeLlvUGWarSGEJzYf_LcqKlUEEvNMSO9cQmS5VzOijPyiV11LyzQXkyNP9unk_c3D8cWmIm8Myc2o1Pm3Ns5LvxgpsvL1UleIlWY6K0AAC8RoeVw-g6Mj8jh2Y3LRKO4L6B9Fj3S089xYGYBjxqCS4SqgQrruTNZESSnbb3vTu1hbeNFxvWIOpDSAHIJWwiCNQI6p4DIdAXULNF_nuqFcITh-OXxoCEzFKv3OzMuSqrvNqTivJrswLJz9PU45dIhPLfD1PL4ztJS4xwEPhILR9-0fmehmFDfCUry16s9N16-cmb2sDH9erlVWq6FhilewY2qeBRMXBMkkmRgqpHx7jAb8eDaIhXcahzkl4JzbvLgIE_3NImrkbKMItzR9C1RcUCtcM3nURooaPv8OvDOC2yocI_9RUI81ZlipZHkA2S75UZokjQcGYZOpD8eKP5XPc4_x2Tuo7F-ExAtuSnp8HokJpXh8C2ndqpxV7zSNH2YNIe4HA5Cl1hH0LnXhvIbELkipruDeDgcU-OW-sXitruTfZrKYH2idxdMPcBNT2fSsjCAuah-3lKfQhVp1S5CexfbqFFnRe_Vny3Ed6_LqpNlTiLcETJB7AzxRCgg4nD73k0nrz2iCUBQoWH_Sh35_RsYU7A842yeGFgyUb1w9KtNgvEsoSehiKTEzpxT2tbxM7g9GpJwF9xNZyb6qrIlTcqfQMVPfZwGGFfhfF7FNoYe6Dy0xIGJJQSxabGMmrr8u-ZKQMCmeiH_YOhagHZfG3NElXzpZSF2068B9- -FNdiq7oexNxFFTYz1Z4Uu_MJkmCeV10Xm0BkeUaRpRoXkyQjOg3Unh5-p9QKK7loKgb9hSCtAtaL7nfyN1mVPC_SFx6i6TtjeIbePyV-7rY6BOO7aQhZmFxQ_F94TqSkiztaC3xGuAJfseC6r95fufilw-RlRzeUcswWKRFcblRflQYsx5f_B_HOTuOSsUuhn43eAlfsrl0ljHz-h2-jyb_h5wzjSCpw5SL-dI41poGfwPWhp0KTSBUdmDxqMatrOxYyq0TMCFQZ7y1]--></g></svg>